M48
;Layer_Color=9474304
;FILE_FORMAT=4:4
METRIC,LZ
;TYPE=PLATED
T1F00S00C0.2000
T2F00S00C0.3500
T3F00S00C1.0000
T4F00S00C1.1250
T5F00S00C1.2000
T6F00S00C1.2954
T7F00S00C1.3000
T8F00S00C2.1000
;TYPE=NON_PLATED
T9F00S00C3.0000
%
T01
X00514Y00689
X00527
X0054
X00553
Y00702
X0054
X00527
X00514
X00717
X0073
Y00689
X00717
X00743
X00756
Y00702
X00743
X0092
X00933
X00946
X00959
Y00689
X00946
X00933
X0092
X01123
X01136
Y00702
X01123
X01149
X01162
Y00689
X01149
T02
X015Y00386
X01502988Y00435206
X0159Y00397603
X01605Y00317
Y00301803
Y00286
X013Y00386
X01302988Y00435206
X01102988
X011Y00386
X009
X00902988Y00435206
X00702988
X007Y00386
X005
X00502988Y00435206
X00303Y00434603
X003Y00386
X00305Y00607
X00224Y00619
X00232Y0066
Y00689
X00277Y00721
X00288
X00299
X00372Y00716
X00382667
X00393333
X00404
X00403667Y00727
X00393
X00382333
X00371667
X00354Y00747
X00377Y00661
X00401497Y00661548
X0051445Y00649
X0052715Y00742
X00568Y00741
X00569Y00756
X00587
X00586Y00741
X00605
X00606Y00756
X00626
X00625Y00741
X00599Y00682944
X00576Y00686
X00596Y0065453
X00647Y00639
X0071745Y00649
X00799Y0065453
X00802Y00682944
X00779Y00686
X00771Y00741
X00772Y00756
X0079
X00789Y00741
X00808
X00809Y00756
X00829
X00828Y00741
X0073015Y00742
X0093315
X00908Y00649
X0085Y00639
X01002Y0065453
X01005Y00682944
X00982Y00686
X00974Y00741
X00975Y00756
X00993
X00992Y00741
X01011
X01012Y00756
X01032
X01031Y00741
X0113615Y00742
X01177Y00741
X01178Y00756
X01196
X01195Y00741
X01214
X01215Y00756
X01235
X01234Y00741
X01208Y00682944
X01185Y00686
X01205Y0065453
X01256Y00639
X01116Y00648
X01053Y00639
T03
X01416103Y00375603
X01356103
X01216103
X01156103
X01016103
X00956103
X00816103
X00756103
X00616103
X00556103
X00416103
X00356103
X00216103
X00156103
T04
X00982403Y00539603
X01007803
X01033203
X01058603
X01084003
X01109403
X00957003
X00931603
X00906203
X00880803
X00855403
X00830003
X00804603
X00779203
X00753803
X00728403
X00703003
X00677603
X00652203
X00626803
Y00565003
X00652203
X00677603
X00703003
X00728403
X00753803
X00779203
X00804603
X00830003
X00855403
X00880803
X00906203
X00931603
X00957003
X00982403
X01007803
X01033203
X01058603
X01084003
X01109403
T05
X01674Y003932
Y004186
Y00444
Y004694
Y004948
Y005202
Y005456
X009502Y00838
X009248
X008994
X00874
X008486
X008232
X007978
X007724
X01674Y007956
Y007702
Y007448
Y007194
Y00694
Y006686
Y006432
Y006178
Y00571
T06
X01424203Y00344603
X01348003
Y00243003
Y00166803
X01148003
Y00243003
Y00344603
X01224203
X01024203
X00948003
Y00243003
Y00166803
X00748003
Y00243003
Y00344603
X00824203
X00624203
X00548003
Y00243003
Y00166803
X00348003
Y00243003
Y00344603
X00424203
X00224203
X00148003
Y00243003
Y00166803
T07
X00112003Y00081003
X00212003
X00312003
X00412003
X00512003
X00612003
X00712003
X00812003
X00912003
X01012003
X01112003
X01212003
X01312003
X01412003
X01512003
X01612003
X01555Y00276403
Y00301803
Y00327203
X01484003Y00326003
Y00300603
Y00275203
X01284003
Y00300603
Y00326003
X01084003
Y00300603
Y00275203
X00884003
Y00300603
Y00326003
X00684003
Y00300603
Y00275203
X00484003
Y00300603
Y00326003
X00284003
Y00300603
Y00275203
T08
X00115Y00498
Y00592
T09
X00035Y00035
X01685
X00035Y00865
X01685
M30
