G04*
G04 #@! TF.GenerationSoftware,Altium Limited,Altium Designer,23.3.1 (30)*
G04*
G04 Layer_Color=65535*
%FSLAX44Y44*%
%MOMM*%
G71*
G04*
G04 #@! TF.SameCoordinates,67B4674F-F2B4-46E2-9611-5D6DB28F7A6D*
G04*
G04*
G04 #@! TF.FilePolarity,Positive*
G04*
G01*
G75*
%ADD10C,0.2000*%
%ADD11C,0.8092*%
%ADD12C,0.1524*%
%ADD13C,0.1270*%
%ADD14C,0.2032*%
%ADD15C,0.2540*%
G36*
X377831Y557707D02*
Y557262D01*
Y554588D01*
X358666D01*
Y613417D01*
X377831D01*
Y557707D01*
D02*
G37*
G36*
X417496Y543000D02*
X381396D01*
Y562164D01*
X417496D01*
Y543000D01*
D02*
G37*
G36*
X439779Y612971D02*
X440225D01*
Y612525D01*
X439779D01*
Y492193D01*
X440225D01*
Y491747D01*
X421061D01*
Y613417D01*
X439779D01*
Y612971D01*
D02*
G37*
G36*
X377831Y491747D02*
X377385D01*
Y491302D01*
X358666D01*
Y508237D01*
Y508683D01*
Y550131D01*
X377831D01*
Y491747D01*
D02*
G37*
G36*
X434431Y485953D02*
X435768D01*
Y485508D01*
X436660D01*
Y485062D01*
X437105D01*
Y484171D01*
X436660D01*
Y483279D01*
X436214D01*
Y482834D01*
X434877D01*
Y483279D01*
X434431D01*
Y483725D01*
X432649D01*
Y484171D01*
X432203D01*
Y483725D01*
X430420D01*
Y483279D01*
X429975D01*
Y481497D01*
X430420D01*
Y481051D01*
X431311D01*
Y480605D01*
X433094D01*
Y480160D01*
X434877D01*
Y479714D01*
X435768D01*
Y479268D01*
X436660D01*
Y478823D01*
X437105D01*
Y477931D01*
X437551D01*
Y476149D01*
X437997D01*
Y475703D01*
X437551D01*
Y473920D01*
X437105D01*
Y473029D01*
X436660D01*
Y472583D01*
X436214D01*
Y472138D01*
X435322D01*
Y471692D01*
X433985D01*
Y471246D01*
X430866D01*
Y471692D01*
X429083D01*
Y472138D01*
X428192D01*
Y472583D01*
X427746D01*
Y473029D01*
X427300D01*
Y473475D01*
X426855D01*
Y474812D01*
X427300D01*
Y475257D01*
X427746D01*
Y475703D01*
X428192D01*
Y476149D01*
X428637D01*
Y475703D01*
X429083D01*
Y474812D01*
X429975D01*
Y474366D01*
X430866D01*
Y473920D01*
X433985D01*
Y474366D01*
X434431D01*
Y474812D01*
X434877D01*
Y476594D01*
X434431D01*
Y477040D01*
X433985D01*
Y477486D01*
X432203D01*
Y477931D01*
X430420D01*
Y478377D01*
X429083D01*
Y478823D01*
X428637D01*
Y479268D01*
X428192D01*
Y479714D01*
X427746D01*
Y480160D01*
X427300D01*
Y481497D01*
X426855D01*
Y482834D01*
X427300D01*
Y484171D01*
X427746D01*
Y484617D01*
X428192D01*
Y485062D01*
X428637D01*
Y485508D01*
X429083D01*
Y485953D01*
X430420D01*
Y486399D01*
X434431D01*
Y485953D01*
D02*
G37*
G36*
X335491Y471692D02*
X332817D01*
Y478377D01*
X326132D01*
Y471692D01*
X323458D01*
Y486399D01*
X326132D01*
Y483279D01*
Y482834D01*
Y480605D01*
X332817D01*
Y486399D01*
X335491D01*
Y471692D01*
D02*
G37*
G36*
X405017Y481497D02*
X404571D01*
Y480160D01*
X404125D01*
Y479268D01*
X403680D01*
Y477931D01*
X403234D01*
Y477040D01*
X402788D01*
Y475703D01*
X402343D01*
Y474366D01*
X401897D01*
Y473475D01*
X401451D01*
Y472138D01*
X401006D01*
Y470801D01*
X400560D01*
Y469909D01*
X400114D01*
Y469018D01*
X399669D01*
Y468572D01*
X399223D01*
Y468126D01*
X398777D01*
Y467681D01*
X398331D01*
Y467235D01*
X397440D01*
Y466790D01*
X394320D01*
Y467235D01*
X393875D01*
Y469018D01*
X394320D01*
Y469464D01*
X397440D01*
Y469909D01*
X397886D01*
Y470801D01*
X398331D01*
Y471246D01*
X397886D01*
Y472583D01*
X397440D01*
Y473920D01*
X396995D01*
Y474812D01*
X396549D01*
Y476149D01*
X396103D01*
Y477040D01*
X395658D01*
Y478377D01*
X395212D01*
Y479714D01*
X394766D01*
Y480605D01*
X394320D01*
Y481942D01*
X393875D01*
Y482834D01*
X396549D01*
Y482388D01*
X396995D01*
Y481051D01*
X397440D01*
Y480160D01*
X397886D01*
Y478823D01*
X398331D01*
Y477486D01*
X398777D01*
Y476149D01*
X399223D01*
Y475257D01*
X399669D01*
Y475703D01*
X400114D01*
Y476594D01*
X400560D01*
Y477931D01*
X401006D01*
Y479268D01*
X401451D01*
Y480605D01*
X401897D01*
Y481942D01*
X402343D01*
Y482388D01*
X402788D01*
Y482834D01*
X405017D01*
Y481497D01*
D02*
G37*
G36*
X472314Y485953D02*
X474096D01*
Y485508D01*
X474988D01*
Y485062D01*
X475433D01*
Y484617D01*
X475879D01*
Y484171D01*
X476325D01*
Y483279D01*
X476770D01*
Y480160D01*
X476325D01*
Y479268D01*
X475879D01*
Y478377D01*
X475433D01*
Y477931D01*
X474542D01*
Y477486D01*
X473651D01*
Y477040D01*
X469194D01*
Y474812D01*
Y474366D01*
Y471692D01*
X466074D01*
Y485953D01*
X466520D01*
Y486399D01*
X472314D01*
Y485953D01*
D02*
G37*
G36*
X443345Y473920D02*
X450030D01*
Y471692D01*
X440671D01*
Y486399D01*
X443345D01*
Y473920D01*
D02*
G37*
G36*
X418387Y485953D02*
X420615D01*
Y485508D01*
X421507D01*
Y485062D01*
X422398D01*
Y484617D01*
X422844D01*
Y484171D01*
X423289D01*
Y483725D01*
X423735D01*
Y482834D01*
X424181D01*
Y481942D01*
X424626D01*
Y475703D01*
X424181D01*
Y474812D01*
X423735D01*
Y473920D01*
X423289D01*
Y473475D01*
X422844D01*
Y473029D01*
X422398D01*
Y472583D01*
X421507D01*
Y472138D01*
X420170D01*
Y471692D01*
X412147D01*
Y486399D01*
X418387D01*
Y485953D01*
D02*
G37*
G36*
X389418Y482388D02*
X390309D01*
Y481942D01*
X391201D01*
Y481051D01*
X391646D01*
Y474366D01*
X392092D01*
Y473920D01*
X392983D01*
Y473029D01*
X393429D01*
Y471692D01*
X390309D01*
Y472138D01*
X389864D01*
Y472583D01*
X389418D01*
Y473029D01*
X388972D01*
Y472583D01*
X388527D01*
Y472138D01*
X388081D01*
Y471692D01*
X387190D01*
Y471246D01*
X384961D01*
Y471692D01*
X384070D01*
Y472138D01*
X383624D01*
Y472583D01*
X383179D01*
Y473475D01*
X382733D01*
Y476149D01*
X383179D01*
Y476594D01*
X383624D01*
Y477040D01*
X384070D01*
Y477486D01*
X384961D01*
Y477931D01*
X387190D01*
Y478377D01*
X388527D01*
Y478823D01*
X388972D01*
Y480160D01*
X388527D01*
Y480605D01*
X386298D01*
Y480160D01*
X385407D01*
Y479714D01*
X384961D01*
Y479268D01*
X384070D01*
Y479714D01*
X383624D01*
Y480160D01*
X383179D01*
Y481051D01*
X383624D01*
Y481497D01*
X384070D01*
Y481942D01*
X384961D01*
Y482388D01*
X385853D01*
Y482834D01*
X389418D01*
Y482388D01*
D02*
G37*
G36*
X374711Y486845D02*
X375156D01*
Y478377D01*
X375602D01*
Y478823D01*
X376048D01*
Y479714D01*
X376493D01*
Y480160D01*
X376939D01*
Y480605D01*
X377385D01*
Y481497D01*
X377831D01*
Y481942D01*
X378276D01*
Y482388D01*
X378722D01*
Y482834D01*
X381396D01*
Y481942D01*
X380950D01*
Y481497D01*
X380504D01*
Y481051D01*
X380059D01*
Y480160D01*
X379613D01*
Y479714D01*
X379168D01*
Y479268D01*
X378722D01*
Y478823D01*
X378276D01*
Y477931D01*
X377831D01*
Y477040D01*
X378276D01*
Y476149D01*
X378722D01*
Y475703D01*
X379168D01*
Y475257D01*
X379613D01*
Y474366D01*
X380059D01*
Y473920D01*
X380504D01*
Y473475D01*
X380950D01*
Y472583D01*
X381396D01*
Y472138D01*
X381842D01*
Y471692D01*
X378722D01*
Y472138D01*
X378276D01*
Y472583D01*
X377831D01*
Y473475D01*
X377385D01*
Y473920D01*
X376939D01*
Y474366D01*
X376493D01*
Y474812D01*
X376048D01*
Y475703D01*
X375602D01*
Y476149D01*
X375156D01*
Y471692D01*
X372482D01*
Y487291D01*
X374711D01*
Y486845D01*
D02*
G37*
G36*
X345296Y482388D02*
X346188D01*
Y481942D01*
X346633D01*
Y481497D01*
X347079D01*
Y480605D01*
X347524D01*
Y473920D01*
X348862D01*
Y471692D01*
X345742D01*
Y472138D01*
X345296D01*
Y473029D01*
X344851D01*
Y472583D01*
X344405D01*
Y472138D01*
X343959D01*
Y471692D01*
X343068D01*
Y471246D01*
X340839D01*
Y471692D01*
X339948D01*
Y472138D01*
X339057D01*
Y473029D01*
X338611D01*
Y476149D01*
X339057D01*
Y477040D01*
X339948D01*
Y477486D01*
X340839D01*
Y477931D01*
X342622D01*
Y478377D01*
X344405D01*
Y478823D01*
X344851D01*
Y480160D01*
X344405D01*
Y480605D01*
X342176D01*
Y480160D01*
X341285D01*
Y479714D01*
X340394D01*
Y479268D01*
X339502D01*
Y479714D01*
X339057D01*
Y480605D01*
X338611D01*
Y481051D01*
X339057D01*
Y481497D01*
X339502D01*
Y481942D01*
X340394D01*
Y482388D01*
X341731D01*
Y482834D01*
X345296D01*
Y482388D01*
D02*
G37*
G36*
X458498Y485953D02*
X459389D01*
Y485508D01*
X459835D01*
Y485062D01*
X460280D01*
Y484617D01*
X460726D01*
Y481942D01*
X460280D01*
Y481051D01*
X459835D01*
Y480605D01*
X459389D01*
Y480160D01*
X458498D01*
Y479714D01*
X457606D01*
Y479268D01*
X458052D01*
Y478377D01*
X458498D01*
Y477931D01*
X458943D01*
Y477486D01*
X459389D01*
Y476594D01*
X459835D01*
Y476149D01*
X460726D01*
Y478823D01*
X462954D01*
Y475703D01*
X462509D01*
Y474812D01*
X462063D01*
Y473920D01*
X462509D01*
Y473475D01*
X463846D01*
Y471692D01*
X463400D01*
Y471246D01*
X462063D01*
Y471692D01*
X460726D01*
Y472138D01*
X459389D01*
Y471692D01*
X458052D01*
Y471246D01*
X454932D01*
Y471692D01*
X453595D01*
Y472138D01*
X452704D01*
Y472583D01*
X452258D01*
Y473029D01*
X451813D01*
Y473920D01*
X451367D01*
Y477040D01*
Y477486D01*
X451813D01*
Y478377D01*
X452258D01*
Y478823D01*
X452704D01*
Y479268D01*
X453595D01*
Y479714D01*
X454041D01*
Y480605D01*
X453595D01*
Y481051D01*
X453150D01*
Y482388D01*
X452704D01*
Y483279D01*
X453150D01*
Y484617D01*
X453595D01*
Y485508D01*
X454487D01*
Y485953D01*
X455378D01*
Y486399D01*
X458498D01*
Y485953D01*
D02*
G37*
G36*
X365797Y482388D02*
X367134D01*
Y481942D01*
X367580D01*
Y481497D01*
X368026D01*
Y481051D01*
X368471D01*
Y480605D01*
X368917D01*
Y479714D01*
X369363D01*
Y478377D01*
X369808D01*
Y475703D01*
X369363D01*
Y474366D01*
X368917D01*
Y473920D01*
Y473475D01*
X368471D01*
Y473029D01*
X368026D01*
Y472583D01*
X367580D01*
Y472138D01*
X366689D01*
Y471692D01*
X365351D01*
Y471246D01*
X363123D01*
Y471692D01*
X361786D01*
Y472138D01*
X360895D01*
Y472583D01*
X360449D01*
Y473029D01*
X360003D01*
Y473475D01*
X359558D01*
Y474366D01*
X359112D01*
Y476149D01*
X358666D01*
Y477931D01*
X359112D01*
Y479714D01*
X359558D01*
Y480605D01*
X360003D01*
Y481051D01*
X360449D01*
Y481497D01*
X360895D01*
Y481942D01*
X361340D01*
Y482388D01*
X362677D01*
Y482834D01*
X365797D01*
Y482388D01*
D02*
G37*
G36*
X354210Y482834D02*
X356884D01*
Y482388D01*
X357329D01*
Y480605D01*
X354210D01*
Y474366D01*
X354655D01*
Y473920D01*
X356884D01*
Y473475D01*
X357329D01*
Y471692D01*
X355992D01*
Y471246D01*
X353764D01*
Y471692D01*
X352873D01*
Y472138D01*
X351981D01*
Y473029D01*
X351536D01*
Y474366D01*
X351090D01*
Y476594D01*
Y477040D01*
Y480605D01*
X349753D01*
Y482834D01*
X351090D01*
Y484617D01*
X351536D01*
Y485062D01*
X354210D01*
Y482834D01*
D02*
G37*
G36*
X1346692Y581951D02*
X1346842D01*
X1347029Y581933D01*
X1347441Y581914D01*
X1347909Y581858D01*
X1348414Y581783D01*
X1348976Y581708D01*
X1349556Y581596D01*
X1350155Y581446D01*
X1350773Y581278D01*
X1351391Y581072D01*
X1351971Y580810D01*
X1352551Y580529D01*
X1353076Y580192D01*
X1353562Y579817D01*
X1353600Y579799D01*
X1353675Y579724D01*
X1353787Y579593D01*
X1353955Y579424D01*
X1354143Y579218D01*
X1354348Y578956D01*
X1354573Y578657D01*
X1354816Y578301D01*
X1355060Y577927D01*
X1355284Y577496D01*
X1355509Y577028D01*
X1355696Y576523D01*
X1355883Y575980D01*
X1356015Y575400D01*
X1356108Y574782D01*
X1356164Y574127D01*
X1350941Y573902D01*
Y573921D01*
X1350923Y573996D01*
X1350904Y574089D01*
X1350867Y574220D01*
X1350829Y574389D01*
X1350773Y574576D01*
X1350717Y574782D01*
X1350642Y575006D01*
X1350436Y575474D01*
X1350193Y575942D01*
X1349875Y576392D01*
X1349706Y576598D01*
X1349500Y576766D01*
X1349481Y576785D01*
X1349444Y576804D01*
X1349388Y576841D01*
X1349294Y576897D01*
X1349182Y576972D01*
X1349032Y577047D01*
X1348864Y577122D01*
X1348676Y577215D01*
X1348452Y577290D01*
X1348208Y577365D01*
X1347928Y577440D01*
X1347628Y577515D01*
X1347310Y577571D01*
X1346973Y577608D01*
X1346580Y577646D01*
X1345962D01*
X1345812Y577627D01*
X1345625Y577608D01*
X1345400Y577590D01*
X1345157Y577571D01*
X1344876Y577534D01*
X1344315Y577421D01*
X1343716Y577253D01*
X1343416Y577141D01*
X1343135Y577010D01*
X1342873Y576860D01*
X1342611Y576691D01*
X1342574Y576673D01*
X1342480Y576579D01*
X1342349Y576448D01*
X1342199Y576261D01*
X1342050Y576036D01*
X1341919Y575774D01*
X1341825Y575456D01*
X1341806Y575287D01*
X1341788Y575100D01*
Y575081D01*
Y575063D01*
X1341806Y574950D01*
X1341825Y574782D01*
X1341881Y574557D01*
X1341975Y574314D01*
X1342106Y574052D01*
X1342293Y573790D01*
X1342555Y573528D01*
X1342574D01*
X1342611Y573490D01*
X1342667Y573453D01*
X1342780Y573378D01*
X1342911Y573303D01*
X1343079Y573209D01*
X1343285Y573116D01*
X1343528Y573003D01*
X1343828Y572872D01*
X1344165Y572741D01*
X1344558Y572592D01*
X1345007Y572442D01*
X1345513Y572273D01*
X1346056Y572124D01*
X1346692Y571955D01*
X1347366Y571787D01*
X1347385D01*
X1347404Y571768D01*
X1347460D01*
X1347534Y571749D01*
X1347722Y571693D01*
X1347984Y571637D01*
X1348302Y571543D01*
X1348676Y571450D01*
X1349070Y571337D01*
X1349500Y571225D01*
X1349949Y571075D01*
X1350417Y570944D01*
X1351353Y570626D01*
X1351803Y570457D01*
X1352233Y570270D01*
X1352645Y570102D01*
X1353001Y569915D01*
X1353019Y569896D01*
X1353076Y569877D01*
X1353169Y569821D01*
X1353300Y569746D01*
X1353450Y569634D01*
X1353637Y569521D01*
X1353824Y569390D01*
X1354049Y569222D01*
X1354274Y569053D01*
X1354498Y568848D01*
X1354742Y568642D01*
X1354985Y568398D01*
X1355453Y567874D01*
X1355659Y567575D01*
X1355865Y567275D01*
X1355883Y567256D01*
X1355902Y567200D01*
X1355958Y567107D01*
X1356033Y566976D01*
X1356108Y566807D01*
X1356202Y566620D01*
X1356295Y566395D01*
X1356389Y566133D01*
X1356483Y565853D01*
X1356576Y565534D01*
X1356670Y565197D01*
X1356745Y564842D01*
X1356819Y564449D01*
X1356876Y564037D01*
X1356894Y563606D01*
X1356913Y563157D01*
Y563138D01*
Y563063D01*
Y562932D01*
X1356894Y562782D01*
X1356876Y562576D01*
X1356838Y562352D01*
X1356801Y562090D01*
X1356763Y561809D01*
X1356689Y561491D01*
X1356614Y561154D01*
X1356501Y560817D01*
X1356389Y560461D01*
X1356239Y560087D01*
X1356071Y559712D01*
X1355883Y559357D01*
X1355659Y558982D01*
X1355640Y558964D01*
X1355603Y558907D01*
X1355528Y558795D01*
X1355434Y558664D01*
X1355303Y558514D01*
X1355153Y558327D01*
X1354966Y558121D01*
X1354760Y557896D01*
X1354517Y557672D01*
X1354255Y557429D01*
X1353974Y557185D01*
X1353656Y556961D01*
X1353319Y556717D01*
X1352963Y556493D01*
X1352570Y556287D01*
X1352158Y556099D01*
X1352140Y556081D01*
X1352065Y556062D01*
X1351934Y556006D01*
X1351746Y555950D01*
X1351541Y555875D01*
X1351279Y555800D01*
X1350960Y555725D01*
X1350623Y555631D01*
X1350230Y555538D01*
X1349800Y555463D01*
X1349332Y555388D01*
X1348845Y555313D01*
X1348321Y555257D01*
X1347759Y555201D01*
X1347160Y555182D01*
X1346542Y555163D01*
X1346205D01*
X1346074Y555182D01*
X1345906D01*
X1345737Y555201D01*
X1345326Y555238D01*
X1344839Y555276D01*
X1344315Y555351D01*
X1343753Y555444D01*
X1343154Y555575D01*
X1342536Y555725D01*
X1341900Y555894D01*
X1341282Y556118D01*
X1340664Y556380D01*
X1340065Y556680D01*
X1339504Y557035D01*
X1338979Y557429D01*
X1338942Y557447D01*
X1338867Y557541D01*
X1338736Y557672D01*
X1338568Y557859D01*
X1338362Y558084D01*
X1338118Y558383D01*
X1337875Y558720D01*
X1337613Y559113D01*
X1337332Y559544D01*
X1337070Y560049D01*
X1336808Y560592D01*
X1336565Y561172D01*
X1336321Y561828D01*
X1336134Y562520D01*
X1335966Y563269D01*
X1335853Y564055D01*
X1340945Y564542D01*
Y564505D01*
X1340964Y564430D01*
X1341001Y564299D01*
X1341039Y564130D01*
X1341095Y563906D01*
X1341170Y563662D01*
X1341245Y563400D01*
X1341338Y563119D01*
X1341600Y562502D01*
X1341750Y562183D01*
X1341919Y561865D01*
X1342106Y561566D01*
X1342312Y561285D01*
X1342555Y561023D01*
X1342798Y560779D01*
X1342817Y560761D01*
X1342873Y560723D01*
X1342948Y560667D01*
X1343060Y560592D01*
X1343192Y560499D01*
X1343379Y560405D01*
X1343566Y560293D01*
X1343809Y560180D01*
X1344053Y560068D01*
X1344352Y559956D01*
X1344652Y559862D01*
X1344989Y559768D01*
X1345363Y559694D01*
X1345756Y559637D01*
X1346168Y559600D01*
X1346599Y559581D01*
X1346842D01*
X1347010Y559600D01*
X1347216Y559619D01*
X1347460Y559637D01*
X1347740Y559675D01*
X1348021Y559712D01*
X1348639Y559843D01*
X1348957Y559937D01*
X1349275Y560031D01*
X1349575Y560162D01*
X1349875Y560293D01*
X1350155Y560461D01*
X1350399Y560648D01*
X1350417Y560667D01*
X1350455Y560704D01*
X1350511Y560761D01*
X1350605Y560836D01*
X1350698Y560948D01*
X1350811Y561060D01*
X1350923Y561210D01*
X1351054Y561360D01*
X1351279Y561734D01*
X1351484Y562146D01*
X1351578Y562389D01*
X1351634Y562614D01*
X1351672Y562876D01*
X1351690Y563138D01*
Y563157D01*
Y563176D01*
Y563288D01*
X1351672Y563456D01*
X1351615Y563681D01*
X1351559Y563924D01*
X1351466Y564186D01*
X1351335Y564449D01*
X1351147Y564692D01*
X1351129Y564729D01*
X1351035Y564804D01*
X1350904Y564916D01*
X1350717Y565085D01*
X1350455Y565253D01*
X1350118Y565459D01*
X1349725Y565647D01*
X1349500Y565740D01*
X1349257Y565834D01*
X1349238D01*
X1349219Y565853D01*
X1349144Y565871D01*
X1349070Y565890D01*
X1348938Y565927D01*
X1348789Y565984D01*
X1348602Y566040D01*
X1348396Y566096D01*
X1348134Y566171D01*
X1347834Y566246D01*
X1347497Y566339D01*
X1347104Y566451D01*
X1346673Y566564D01*
X1346187Y566676D01*
X1345644Y566807D01*
X1345063Y566957D01*
X1345045D01*
X1345007Y566976D01*
X1344951D01*
X1344876Y567013D01*
X1344783Y567032D01*
X1344670Y567069D01*
X1344390Y567144D01*
X1344034Y567238D01*
X1343641Y567369D01*
X1343210Y567519D01*
X1342761Y567668D01*
X1342274Y567855D01*
X1341788Y568043D01*
X1341282Y568249D01*
X1340814Y568473D01*
X1340346Y568717D01*
X1339915Y568979D01*
X1339522Y569241D01*
X1339167Y569521D01*
X1339148Y569540D01*
X1339073Y569615D01*
X1338942Y569746D01*
X1338792Y569896D01*
X1338624Y570102D01*
X1338418Y570364D01*
X1338193Y570645D01*
X1337987Y570982D01*
X1337763Y571337D01*
X1337538Y571730D01*
X1337332Y572161D01*
X1337164Y572610D01*
X1337014Y573097D01*
X1336883Y573621D01*
X1336808Y574164D01*
X1336789Y574726D01*
Y574744D01*
Y574819D01*
Y574913D01*
X1336808Y575063D01*
X1336827Y575231D01*
X1336846Y575437D01*
X1336883Y575680D01*
X1336920Y575942D01*
X1336995Y576204D01*
X1337051Y576504D01*
X1337145Y576804D01*
X1337257Y577122D01*
X1337388Y577459D01*
X1337538Y577777D01*
X1337707Y578114D01*
X1337894Y578432D01*
X1337912Y578451D01*
X1337950Y578507D01*
X1338006Y578601D01*
X1338100Y578713D01*
X1338212Y578863D01*
X1338362Y579031D01*
X1338530Y579200D01*
X1338717Y579406D01*
X1338942Y579612D01*
X1339185Y579836D01*
X1339447Y580042D01*
X1339728Y580267D01*
X1340047Y580473D01*
X1340383Y580678D01*
X1340739Y580885D01*
X1341132Y581053D01*
X1341151Y581072D01*
X1341226Y581090D01*
X1341357Y581147D01*
X1341507Y581203D01*
X1341713Y581259D01*
X1341956Y581353D01*
X1342237Y581427D01*
X1342555Y581521D01*
X1342911Y581596D01*
X1343304Y581689D01*
X1343716Y581764D01*
X1344165Y581820D01*
X1344652Y581895D01*
X1345157Y581933D01*
X1345681Y581951D01*
X1346224Y581970D01*
X1346561D01*
X1346692Y581951D01*
D02*
G37*
G36*
X1382035Y555631D02*
X1376812D01*
Y566957D01*
X1366554D01*
Y555631D01*
X1361331D01*
Y581540D01*
X1366554D01*
Y571337D01*
X1376812D01*
Y581540D01*
X1382035D01*
Y555631D01*
D02*
G37*
G36*
X1433383Y577159D02*
X1420841D01*
Y571019D01*
X1431661D01*
Y566639D01*
X1420841D01*
Y555631D01*
X1415618D01*
Y581540D01*
X1433383D01*
Y577159D01*
D02*
G37*
G36*
X1399295Y581951D02*
X1399444D01*
X1399632Y581933D01*
X1399856Y581914D01*
X1400081Y581895D01*
X1400343Y581858D01*
X1400605Y581820D01*
X1400905Y581783D01*
X1401522Y581671D01*
X1402196Y581521D01*
X1402908Y581334D01*
X1403656Y581109D01*
X1404424Y580810D01*
X1405191Y580473D01*
X1405940Y580061D01*
X1406689Y579593D01*
X1407045Y579331D01*
X1407400Y579031D01*
X1407737Y578732D01*
X1408074Y578413D01*
X1408093Y578395D01*
X1408112Y578376D01*
X1408168Y578320D01*
X1408224Y578245D01*
X1408299Y578151D01*
X1408393Y578039D01*
X1408505Y577908D01*
X1408617Y577758D01*
X1408748Y577590D01*
X1408879Y577403D01*
X1409010Y577178D01*
X1409160Y576953D01*
X1409310Y576710D01*
X1409478Y576429D01*
X1409628Y576148D01*
X1409796Y575849D01*
X1410115Y575175D01*
X1410433Y574445D01*
X1410714Y573621D01*
X1410976Y572741D01*
X1411201Y571787D01*
X1411369Y570776D01*
X1411481Y569690D01*
X1411519Y569110D01*
Y568529D01*
Y568511D01*
Y568455D01*
Y568380D01*
Y568249D01*
X1411500Y568099D01*
Y567930D01*
X1411481Y567724D01*
X1411463Y567500D01*
X1411444Y567238D01*
X1411406Y566976D01*
X1411388Y566676D01*
X1411332Y566358D01*
X1411238Y565684D01*
X1411088Y564954D01*
X1410901Y564186D01*
X1410676Y563381D01*
X1410414Y562558D01*
X1410077Y561753D01*
X1409684Y560948D01*
X1409216Y560162D01*
X1408973Y559787D01*
X1408692Y559413D01*
X1408411Y559057D01*
X1408093Y558720D01*
X1408074Y558702D01*
X1408056Y558683D01*
X1407999Y558627D01*
X1407943Y558571D01*
X1407850Y558496D01*
X1407737Y558402D01*
X1407625Y558290D01*
X1407475Y558177D01*
X1407138Y557896D01*
X1406708Y557597D01*
X1406221Y557279D01*
X1405678Y556961D01*
X1405060Y556624D01*
X1404368Y556305D01*
X1403619Y556006D01*
X1402814Y555744D01*
X1401934Y555500D01*
X1401017Y555332D01*
X1400025Y555220D01*
X1399501Y555201D01*
X1398976Y555182D01*
X1398714D01*
X1398583Y555201D01*
X1398415D01*
X1398228Y555220D01*
X1398022Y555238D01*
X1397778Y555257D01*
X1397535Y555294D01*
X1397254Y555332D01*
X1396974Y555369D01*
X1396337Y555482D01*
X1395663Y555631D01*
X1394933Y555800D01*
X1394184Y556043D01*
X1393435Y556324D01*
X1392668Y556661D01*
X1391900Y557073D01*
X1391152Y557541D01*
X1390796Y557803D01*
X1390459Y558084D01*
X1390103Y558383D01*
X1389785Y558702D01*
Y558720D01*
X1389748Y558739D01*
X1389710Y558795D01*
X1389635Y558870D01*
X1389560Y558964D01*
X1389467Y559076D01*
X1389373Y559207D01*
X1389261Y559357D01*
X1389130Y559525D01*
X1388999Y559712D01*
X1388849Y559918D01*
X1388699Y560143D01*
X1388550Y560386D01*
X1388400Y560648D01*
X1388082Y561229D01*
X1387763Y561884D01*
X1387464Y562614D01*
X1387164Y563419D01*
X1386902Y564280D01*
X1386696Y565216D01*
X1386528Y566227D01*
X1386416Y567294D01*
X1386397Y567837D01*
X1386378Y568417D01*
Y568436D01*
Y568455D01*
Y568511D01*
Y568586D01*
Y568679D01*
Y568792D01*
X1386397Y569072D01*
X1386416Y569409D01*
X1386434Y569802D01*
X1386472Y570252D01*
X1386528Y570720D01*
X1386584Y571244D01*
X1386659Y571768D01*
X1386771Y572329D01*
X1386884Y572872D01*
X1387014Y573434D01*
X1387164Y573996D01*
X1387352Y574520D01*
X1387557Y575044D01*
X1387576Y575063D01*
X1387595Y575137D01*
X1387651Y575231D01*
X1387726Y575381D01*
X1387801Y575549D01*
X1387913Y575755D01*
X1388044Y575980D01*
X1388194Y576242D01*
X1388531Y576785D01*
X1388943Y577384D01*
X1389411Y578002D01*
X1389954Y578601D01*
X1389972Y578619D01*
X1390028Y578675D01*
X1390103Y578750D01*
X1390216Y578863D01*
X1390365Y578994D01*
X1390534Y579143D01*
X1390740Y579312D01*
X1390946Y579481D01*
X1391189Y579668D01*
X1391451Y579855D01*
X1392032Y580248D01*
X1392649Y580622D01*
X1392986Y580791D01*
X1393323Y580941D01*
X1393361Y580959D01*
X1393435Y580978D01*
X1393566Y581034D01*
X1393754Y581109D01*
X1393978Y581184D01*
X1394259Y581259D01*
X1394577Y581353D01*
X1394933Y581465D01*
X1395326Y581558D01*
X1395738Y581652D01*
X1396206Y581727D01*
X1396693Y581802D01*
X1397217Y581877D01*
X1397760Y581933D01*
X1398321Y581951D01*
X1398902Y581970D01*
X1399164D01*
X1399295Y581951D01*
D02*
G37*
G36*
X1334833Y549963D02*
X1334964D01*
X1335133Y549944D01*
X1335301D01*
X1335713Y549888D01*
X1336162Y549832D01*
X1336686Y549738D01*
X1337248Y549626D01*
X1337847Y549476D01*
X1338483Y549289D01*
X1339120Y549064D01*
X1339775Y548784D01*
X1340412Y548465D01*
X1341048Y548091D01*
X1341647Y547661D01*
X1342227Y547155D01*
X1342246Y547136D01*
X1342302Y547080D01*
X1342396Y546987D01*
X1342508Y546856D01*
X1342658Y546687D01*
X1342827Y546463D01*
X1343014Y546219D01*
X1343220Y545938D01*
X1343425Y545620D01*
X1343650Y545264D01*
X1343875Y544871D01*
X1344099Y544459D01*
X1344305Y543992D01*
X1344511Y543505D01*
X1344717Y542962D01*
X1344886Y542400D01*
X1339700Y541165D01*
Y541184D01*
X1339682Y541258D01*
X1339644Y541352D01*
X1339607Y541502D01*
X1339550Y541670D01*
X1339476Y541857D01*
X1339382Y542082D01*
X1339288Y542307D01*
X1339026Y542812D01*
X1338858Y543074D01*
X1338689Y543336D01*
X1338502Y543598D01*
X1338278Y543860D01*
X1338034Y544104D01*
X1337772Y544328D01*
X1337753Y544347D01*
X1337716Y544385D01*
X1337622Y544441D01*
X1337510Y544516D01*
X1337379Y544609D01*
X1337211Y544703D01*
X1337005Y544815D01*
X1336799Y544927D01*
X1336537Y545021D01*
X1336275Y545133D01*
X1335975Y545227D01*
X1335676Y545321D01*
X1335339Y545396D01*
X1334983Y545452D01*
X1334627Y545489D01*
X1334234Y545508D01*
X1334103D01*
X1333953Y545489D01*
X1333766Y545470D01*
X1333523Y545452D01*
X1333242Y545396D01*
X1332924Y545339D01*
X1332587Y545246D01*
X1332212Y545133D01*
X1331838Y545002D01*
X1331445Y544834D01*
X1331052Y544628D01*
X1330677Y544385D01*
X1330284Y544123D01*
X1329928Y543804D01*
X1329573Y543430D01*
X1329554Y543411D01*
X1329498Y543336D01*
X1329404Y543205D01*
X1329292Y543037D01*
X1329161Y542812D01*
X1329011Y542531D01*
X1328843Y542213D01*
X1328693Y541820D01*
X1328524Y541389D01*
X1328356Y540884D01*
X1328206Y540341D01*
X1328075Y539742D01*
X1327963Y539068D01*
X1327869Y538357D01*
X1327813Y537571D01*
X1327794Y536728D01*
Y536710D01*
Y536672D01*
Y536597D01*
Y536522D01*
Y536391D01*
X1327813Y536260D01*
Y536110D01*
X1327832Y535923D01*
X1327851Y535530D01*
X1327888Y535062D01*
X1327944Y534557D01*
X1328019Y534014D01*
X1328113Y533452D01*
X1328225Y532872D01*
X1328375Y532292D01*
X1328543Y531711D01*
X1328730Y531168D01*
X1328974Y530644D01*
X1329236Y530176D01*
X1329554Y529746D01*
X1329573Y529727D01*
X1329629Y529652D01*
X1329741Y529558D01*
X1329872Y529427D01*
X1330041Y529259D01*
X1330266Y529090D01*
X1330509Y528903D01*
X1330790Y528716D01*
X1331108Y528510D01*
X1331445Y528323D01*
X1331819Y528154D01*
X1332231Y527986D01*
X1332662Y527855D01*
X1333130Y527761D01*
X1333616Y527687D01*
X1334140Y527668D01*
X1334346D01*
X1334496Y527687D01*
X1334665Y527705D01*
X1334871Y527743D01*
X1335114Y527780D01*
X1335376Y527836D01*
X1335638Y527892D01*
X1335919Y527986D01*
X1336218Y528098D01*
X1336518Y528229D01*
X1336836Y528379D01*
X1337136Y528548D01*
X1337435Y528754D01*
X1337716Y528978D01*
X1337735Y528997D01*
X1337791Y529034D01*
X1337866Y529128D01*
X1337959Y529240D01*
X1338090Y529371D01*
X1338240Y529558D01*
X1338390Y529764D01*
X1338558Y530008D01*
X1338727Y530270D01*
X1338914Y530588D01*
X1339101Y530925D01*
X1339270Y531299D01*
X1339438Y531730D01*
X1339607Y532161D01*
X1339756Y532647D01*
X1339888Y533171D01*
X1344960Y531562D01*
Y531543D01*
X1344942Y531505D01*
X1344923Y531449D01*
X1344904Y531374D01*
X1344867Y531281D01*
X1344830Y531150D01*
X1344736Y530869D01*
X1344605Y530513D01*
X1344436Y530101D01*
X1344249Y529652D01*
X1344025Y529184D01*
X1343781Y528679D01*
X1343500Y528154D01*
X1343182Y527630D01*
X1342827Y527106D01*
X1342433Y526601D01*
X1342021Y526114D01*
X1341553Y525665D01*
X1341067Y525253D01*
X1341029Y525234D01*
X1340936Y525159D01*
X1340786Y525066D01*
X1340580Y524935D01*
X1340318Y524785D01*
X1340000Y524598D01*
X1339625Y524411D01*
X1339195Y524223D01*
X1338727Y524036D01*
X1338203Y523849D01*
X1337641Y523680D01*
X1337023Y523512D01*
X1336387Y523381D01*
X1335694Y523287D01*
X1334964Y523213D01*
X1334197Y523194D01*
X1333972D01*
X1333841Y523213D01*
X1333691D01*
X1333523Y523231D01*
X1333336Y523250D01*
X1333130Y523269D01*
X1332905Y523306D01*
X1332381Y523381D01*
X1331819Y523493D01*
X1331201Y523643D01*
X1330546Y523811D01*
X1329854Y524055D01*
X1329161Y524336D01*
X1328431Y524673D01*
X1327738Y525084D01*
X1327027Y525552D01*
X1326690Y525815D01*
X1326353Y526095D01*
X1326035Y526395D01*
X1325717Y526713D01*
Y526732D01*
X1325679Y526750D01*
X1325642Y526807D01*
X1325567Y526882D01*
X1325492Y526975D01*
X1325417Y527088D01*
X1325305Y527219D01*
X1325192Y527368D01*
X1325080Y527537D01*
X1324949Y527724D01*
X1324818Y527930D01*
X1324668Y528154D01*
X1324369Y528660D01*
X1324069Y529240D01*
X1323751Y529896D01*
X1323452Y530607D01*
X1323171Y531412D01*
X1322927Y532273D01*
X1322703Y533190D01*
X1322553Y534182D01*
X1322441Y535231D01*
X1322422Y535792D01*
X1322403Y536354D01*
Y536372D01*
Y536429D01*
Y536522D01*
Y536635D01*
X1322422Y536784D01*
Y536972D01*
X1322441Y537178D01*
X1322459Y537421D01*
X1322478Y537683D01*
X1322497Y537964D01*
X1322534Y538263D01*
X1322572Y538581D01*
X1322684Y539274D01*
X1322815Y540023D01*
X1323002Y540828D01*
X1323208Y541651D01*
X1323489Y542475D01*
X1323807Y543318D01*
X1324200Y544141D01*
X1324631Y544927D01*
X1325155Y545695D01*
X1325436Y546051D01*
X1325735Y546388D01*
X1325754Y546406D01*
X1325773Y546425D01*
X1325829Y546481D01*
X1325885Y546537D01*
X1326072Y546725D01*
X1326334Y546949D01*
X1326671Y547230D01*
X1327083Y547529D01*
X1327551Y547848D01*
X1328075Y548185D01*
X1328674Y548522D01*
X1329348Y548840D01*
X1330060Y549158D01*
X1330846Y549420D01*
X1331688Y549645D01*
X1332568Y549832D01*
X1333523Y549944D01*
X1334009Y549963D01*
X1334515Y549982D01*
X1334721D01*
X1334833Y549963D01*
D02*
G37*
G36*
X1414636Y542812D02*
X1414785Y542793D01*
X1414954Y542775D01*
X1415160Y542756D01*
X1415384Y542719D01*
X1415890Y542606D01*
X1416451Y542438D01*
X1416732Y542325D01*
X1417032Y542194D01*
X1417331Y542045D01*
X1417631Y541876D01*
X1416077Y537552D01*
X1416058Y537571D01*
X1416021Y537589D01*
X1415946Y537627D01*
X1415871Y537683D01*
X1415759Y537739D01*
X1415628Y537814D01*
X1415309Y537964D01*
X1414954Y538114D01*
X1414561Y538245D01*
X1414149Y538338D01*
X1413943Y538376D01*
X1413569D01*
X1413363Y538338D01*
X1413119Y538301D01*
X1412838Y538226D01*
X1412539Y538132D01*
X1412240Y537982D01*
X1411959Y537795D01*
X1411921Y537776D01*
X1411846Y537683D01*
X1411715Y537533D01*
X1411547Y537327D01*
X1411378Y537028D01*
X1411285Y536859D01*
X1411191Y536672D01*
X1411098Y536466D01*
X1411004Y536241D01*
X1410910Y535979D01*
X1410836Y535717D01*
Y535699D01*
X1410817Y535642D01*
X1410798Y535549D01*
X1410779Y535418D01*
X1410742Y535231D01*
X1410704Y534987D01*
X1410667Y534706D01*
X1410630Y534370D01*
X1410592Y533976D01*
X1410555Y533527D01*
X1410517Y533003D01*
X1410480Y532441D01*
X1410461Y531786D01*
X1410442Y531075D01*
X1410424Y530289D01*
Y529877D01*
Y529427D01*
Y523643D01*
X1405463D01*
Y542419D01*
X1410068D01*
Y539742D01*
X1410087Y539761D01*
X1410124Y539817D01*
X1410180Y539929D01*
X1410274Y540042D01*
X1410367Y540191D01*
X1410499Y540378D01*
X1410779Y540772D01*
X1411098Y541184D01*
X1411453Y541595D01*
X1411640Y541782D01*
X1411828Y541951D01*
X1412015Y542101D01*
X1412183Y542232D01*
X1412202D01*
X1412221Y542251D01*
X1412277Y542288D01*
X1412352Y542325D01*
X1412558Y542419D01*
X1412820Y542531D01*
X1413138Y542644D01*
X1413494Y542737D01*
X1413906Y542812D01*
X1414336Y542831D01*
X1414505D01*
X1414636Y542812D01*
D02*
G37*
G36*
X1382700D02*
X1382868Y542793D01*
X1383055Y542775D01*
X1383261Y542756D01*
X1383729Y542681D01*
X1384235Y542588D01*
X1384740Y542438D01*
X1385264Y542232D01*
X1385283D01*
X1385320Y542213D01*
X1385395Y542176D01*
X1385489Y542119D01*
X1385601Y542063D01*
X1385732Y541988D01*
X1386032Y541820D01*
X1386369Y541595D01*
X1386706Y541333D01*
X1387043Y541053D01*
X1387323Y540715D01*
Y540697D01*
X1387361Y540678D01*
X1387398Y540622D01*
X1387436Y540547D01*
X1387567Y540360D01*
X1387717Y540117D01*
X1387885Y539798D01*
X1388035Y539461D01*
X1388185Y539068D01*
X1388316Y538638D01*
Y538619D01*
X1388334Y538581D01*
Y538525D01*
X1388353Y538432D01*
X1388391Y538301D01*
X1388409Y538151D01*
X1388428Y537982D01*
X1388465Y537776D01*
X1388484Y537552D01*
X1388503Y537309D01*
X1388540Y537028D01*
X1388559Y536728D01*
X1388578Y536410D01*
Y536054D01*
X1388596Y535680D01*
Y535287D01*
Y523643D01*
X1383636D01*
Y533209D01*
Y533246D01*
Y533340D01*
Y533490D01*
Y533696D01*
X1383617Y533939D01*
Y534220D01*
Y534519D01*
X1383598Y534837D01*
X1383561Y535493D01*
X1383523Y535830D01*
X1383486Y536148D01*
X1383448Y536447D01*
X1383411Y536710D01*
X1383355Y536953D01*
X1383299Y537140D01*
Y537159D01*
X1383280Y537178D01*
X1383242Y537290D01*
X1383168Y537458D01*
X1383055Y537645D01*
X1382906Y537870D01*
X1382737Y538114D01*
X1382512Y538319D01*
X1382269Y538525D01*
X1382232Y538544D01*
X1382138Y538600D01*
X1381988Y538694D01*
X1381782Y538787D01*
X1381539Y538862D01*
X1381239Y538956D01*
X1380903Y539012D01*
X1380547Y539031D01*
X1380416D01*
X1380322Y539012D01*
X1380210D01*
X1380079Y538993D01*
X1379761Y538937D01*
X1379405Y538862D01*
X1379012Y538731D01*
X1378600Y538563D01*
X1378207Y538319D01*
X1378188D01*
X1378170Y538282D01*
X1378113Y538245D01*
X1378038Y538188D01*
X1377870Y538039D01*
X1377645Y537814D01*
X1377421Y537552D01*
X1377177Y537215D01*
X1376971Y536841D01*
X1376803Y536429D01*
Y536410D01*
X1376784Y536372D01*
X1376765Y536298D01*
X1376747Y536204D01*
X1376709Y536073D01*
X1376691Y535905D01*
X1376653Y535699D01*
X1376616Y535455D01*
X1376578Y535174D01*
X1376541Y534875D01*
X1376522Y534519D01*
X1376485Y534126D01*
X1376466Y533696D01*
X1376447Y533209D01*
X1376429Y532685D01*
Y532123D01*
Y523643D01*
X1371468D01*
Y542419D01*
X1376073D01*
Y539649D01*
X1376110Y539686D01*
X1376185Y539780D01*
X1376316Y539948D01*
X1376522Y540154D01*
X1376765Y540378D01*
X1377046Y540659D01*
X1377383Y540940D01*
X1377776Y541240D01*
X1378188Y541539D01*
X1378656Y541820D01*
X1379180Y542101D01*
X1379723Y542325D01*
X1380303Y542531D01*
X1380921Y542700D01*
X1381577Y542793D01*
X1382269Y542831D01*
X1382550D01*
X1382700Y542812D01*
D02*
G37*
G36*
X1446834Y523643D02*
X1441873D01*
Y549551D01*
X1446834D01*
Y523643D01*
D02*
G37*
G36*
X1428563Y542812D02*
X1428676D01*
X1428975Y542793D01*
X1429331Y542756D01*
X1429761Y542681D01*
X1430229Y542606D01*
X1430735Y542494D01*
X1431277Y542344D01*
X1431839Y542157D01*
X1432419Y541932D01*
X1433018Y541670D01*
X1433599Y541352D01*
X1434160Y540978D01*
X1434722Y540547D01*
X1435246Y540060D01*
X1435284Y540023D01*
X1435358Y539929D01*
X1435508Y539780D01*
X1435677Y539555D01*
X1435883Y539293D01*
X1436107Y538956D01*
X1436351Y538581D01*
X1436613Y538151D01*
X1436875Y537664D01*
X1437118Y537140D01*
X1437343Y536560D01*
X1437549Y535942D01*
X1437736Y535268D01*
X1437867Y534575D01*
X1437942Y533827D01*
X1437979Y533059D01*
Y533040D01*
Y533003D01*
Y532947D01*
Y532872D01*
X1437961Y532778D01*
Y532647D01*
X1437942Y532348D01*
X1437904Y531992D01*
X1437829Y531562D01*
X1437755Y531093D01*
X1437642Y530588D01*
X1437493Y530045D01*
X1437305Y529465D01*
X1437081Y528885D01*
X1436819Y528286D01*
X1436500Y527705D01*
X1436145Y527106D01*
X1435714Y526545D01*
X1435227Y526002D01*
X1435190Y525964D01*
X1435096Y525889D01*
X1434947Y525740D01*
X1434741Y525571D01*
X1434460Y525346D01*
X1434142Y525122D01*
X1433767Y524860D01*
X1433337Y524617D01*
X1432850Y524354D01*
X1432326Y524092D01*
X1431764Y523868D01*
X1431147Y523643D01*
X1430491Y523475D01*
X1429799Y523325D01*
X1429069Y523250D01*
X1428301Y523213D01*
X1428039D01*
X1427870Y523231D01*
X1427627Y523250D01*
X1427365Y523269D01*
X1427047Y523306D01*
X1426710Y523362D01*
X1426354Y523418D01*
X1425961Y523493D01*
X1425549Y523587D01*
X1425137Y523699D01*
X1424707Y523830D01*
X1424258Y523999D01*
X1423827Y524167D01*
X1423378Y524373D01*
X1423359Y524392D01*
X1423284Y524429D01*
X1423153Y524504D01*
X1422985Y524598D01*
X1422798Y524710D01*
X1422573Y524860D01*
X1422330Y525028D01*
X1422049Y525234D01*
X1421768Y525459D01*
X1421487Y525721D01*
X1421188Y526002D01*
X1420888Y526301D01*
X1420607Y526638D01*
X1420326Y526994D01*
X1420064Y527368D01*
X1419821Y527780D01*
X1419802Y527799D01*
X1419765Y527892D01*
X1419709Y528005D01*
X1419634Y528192D01*
X1419540Y528398D01*
X1419428Y528660D01*
X1419334Y528978D01*
X1419222Y529315D01*
X1419091Y529708D01*
X1418997Y530120D01*
X1418885Y530569D01*
X1418791Y531056D01*
X1418716Y531580D01*
X1418660Y532123D01*
X1418623Y532685D01*
X1418604Y533284D01*
Y533321D01*
Y533396D01*
Y533527D01*
X1418623Y533714D01*
X1418642Y533920D01*
X1418660Y534182D01*
X1418698Y534482D01*
X1418754Y534800D01*
X1418829Y535156D01*
X1418904Y535530D01*
X1418997Y535923D01*
X1419110Y536335D01*
X1419259Y536766D01*
X1419428Y537196D01*
X1419615Y537627D01*
X1419821Y538057D01*
X1419840Y538076D01*
X1419877Y538151D01*
X1419952Y538282D01*
X1420046Y538432D01*
X1420177Y538638D01*
X1420326Y538862D01*
X1420495Y539106D01*
X1420701Y539368D01*
X1420944Y539649D01*
X1421206Y539948D01*
X1421487Y540229D01*
X1421787Y540528D01*
X1422124Y540809D01*
X1422479Y541090D01*
X1422854Y541352D01*
X1423266Y541595D01*
X1423284Y541614D01*
X1423359Y541651D01*
X1423490Y541708D01*
X1423659Y541782D01*
X1423864Y541876D01*
X1424127Y541988D01*
X1424407Y542101D01*
X1424726Y542213D01*
X1425081Y542325D01*
X1425474Y542438D01*
X1425886Y542550D01*
X1426317Y542644D01*
X1426785Y542719D01*
X1427253Y542775D01*
X1427758Y542812D01*
X1428264Y542831D01*
X1428451D01*
X1428563Y542812D01*
D02*
G37*
G36*
X1398817Y542419D02*
X1402206D01*
Y538469D01*
X1398817D01*
Y530888D01*
Y530869D01*
Y530794D01*
Y530682D01*
Y530513D01*
Y530345D01*
Y530139D01*
X1398836Y529689D01*
Y529221D01*
X1398855Y528997D01*
Y528772D01*
X1398874Y528585D01*
Y528417D01*
X1398892Y528286D01*
X1398911Y528192D01*
Y528173D01*
X1398930Y528136D01*
X1398967Y528061D01*
X1399005Y527967D01*
X1399061Y527874D01*
X1399136Y527780D01*
X1399229Y527668D01*
X1399341Y527574D01*
X1399360Y527556D01*
X1399398Y527537D01*
X1399473Y527499D01*
X1399585Y527462D01*
X1399697Y527406D01*
X1399847Y527368D01*
X1400016Y527350D01*
X1400184Y527331D01*
X1400315D01*
X1400465Y527350D01*
X1400689Y527387D01*
X1400970Y527443D01*
X1401326Y527537D01*
X1401719Y527649D01*
X1402187Y527799D01*
X1402617Y523943D01*
X1402599D01*
X1402543Y523905D01*
X1402449Y523868D01*
X1402318Y523830D01*
X1402150Y523774D01*
X1401944Y523718D01*
X1401719Y523643D01*
X1401476Y523587D01*
X1401195Y523512D01*
X1400895Y523437D01*
X1400577Y523381D01*
X1400221Y523325D01*
X1399491Y523250D01*
X1398686Y523213D01*
X1398462D01*
X1398349Y523231D01*
X1398218D01*
X1397881Y523269D01*
X1397507Y523325D01*
X1397114Y523400D01*
X1396683Y523512D01*
X1396272Y523662D01*
X1396253D01*
X1396234Y523680D01*
X1396178Y523699D01*
X1396103Y523737D01*
X1395916Y523849D01*
X1395672Y523980D01*
X1395410Y524148D01*
X1395167Y524336D01*
X1394905Y524560D01*
X1394699Y524822D01*
X1394680Y524860D01*
X1394624Y524953D01*
X1394531Y525122D01*
X1394418Y525328D01*
X1394306Y525609D01*
X1394194Y525946D01*
X1394081Y526339D01*
X1394006Y526769D01*
Y526788D01*
Y526807D01*
X1393988Y526863D01*
Y526938D01*
X1393969Y527050D01*
Y527181D01*
X1393950Y527350D01*
X1393931Y527537D01*
X1393913Y527743D01*
Y528005D01*
X1393894Y528286D01*
X1393875Y528604D01*
Y528960D01*
X1393857Y529371D01*
Y529802D01*
Y530270D01*
Y538469D01*
X1391573D01*
Y542419D01*
X1393857D01*
Y546144D01*
X1398817Y549064D01*
Y542419D01*
D02*
G37*
G36*
X1358214Y542812D02*
X1358327D01*
X1358626Y542793D01*
X1358982Y542756D01*
X1359412Y542681D01*
X1359880Y542606D01*
X1360386Y542494D01*
X1360928Y542344D01*
X1361490Y542157D01*
X1362070Y541932D01*
X1362670Y541670D01*
X1363250Y541352D01*
X1363811Y540978D01*
X1364373Y540547D01*
X1364897Y540060D01*
X1364935Y540023D01*
X1365009Y539929D01*
X1365159Y539780D01*
X1365328Y539555D01*
X1365534Y539293D01*
X1365758Y538956D01*
X1366002Y538581D01*
X1366264Y538151D01*
X1366526Y537664D01*
X1366769Y537140D01*
X1366994Y536560D01*
X1367200Y535942D01*
X1367387Y535268D01*
X1367518Y534575D01*
X1367593Y533827D01*
X1367630Y533059D01*
Y533040D01*
Y533003D01*
Y532947D01*
Y532872D01*
X1367612Y532778D01*
Y532647D01*
X1367593Y532348D01*
X1367555Y531992D01*
X1367480Y531562D01*
X1367406Y531093D01*
X1367293Y530588D01*
X1367144Y530045D01*
X1366956Y529465D01*
X1366732Y528885D01*
X1366470Y528286D01*
X1366151Y527705D01*
X1365796Y527106D01*
X1365365Y526545D01*
X1364878Y526002D01*
X1364841Y525964D01*
X1364747Y525889D01*
X1364598Y525740D01*
X1364392Y525571D01*
X1364111Y525346D01*
X1363793Y525122D01*
X1363418Y524860D01*
X1362988Y524617D01*
X1362501Y524354D01*
X1361977Y524092D01*
X1361415Y523868D01*
X1360797Y523643D01*
X1360142Y523475D01*
X1359450Y523325D01*
X1358720Y523250D01*
X1357952Y523213D01*
X1357690D01*
X1357522Y523231D01*
X1357278Y523250D01*
X1357016Y523269D01*
X1356698Y523306D01*
X1356361Y523362D01*
X1356005Y523418D01*
X1355612Y523493D01*
X1355200Y523587D01*
X1354788Y523699D01*
X1354358Y523830D01*
X1353909Y523999D01*
X1353478Y524167D01*
X1353029Y524373D01*
X1353010Y524392D01*
X1352935Y524429D01*
X1352804Y524504D01*
X1352636Y524598D01*
X1352448Y524710D01*
X1352224Y524860D01*
X1351980Y525028D01*
X1351700Y525234D01*
X1351419Y525459D01*
X1351138Y525721D01*
X1350838Y526002D01*
X1350539Y526301D01*
X1350258Y526638D01*
X1349977Y526994D01*
X1349715Y527368D01*
X1349472Y527780D01*
X1349453Y527799D01*
X1349416Y527892D01*
X1349360Y528005D01*
X1349285Y528192D01*
X1349191Y528398D01*
X1349079Y528660D01*
X1348985Y528978D01*
X1348873Y529315D01*
X1348742Y529708D01*
X1348648Y530120D01*
X1348536Y530569D01*
X1348442Y531056D01*
X1348367Y531580D01*
X1348311Y532123D01*
X1348274Y532685D01*
X1348255Y533284D01*
Y533321D01*
Y533396D01*
Y533527D01*
X1348274Y533714D01*
X1348293Y533920D01*
X1348311Y534182D01*
X1348349Y534482D01*
X1348405Y534800D01*
X1348480Y535156D01*
X1348555Y535530D01*
X1348648Y535923D01*
X1348761Y536335D01*
X1348910Y536766D01*
X1349079Y537196D01*
X1349266Y537627D01*
X1349472Y538057D01*
X1349491Y538076D01*
X1349528Y538151D01*
X1349603Y538282D01*
X1349697Y538432D01*
X1349828Y538638D01*
X1349977Y538862D01*
X1350146Y539106D01*
X1350352Y539368D01*
X1350595Y539649D01*
X1350857Y539948D01*
X1351138Y540229D01*
X1351438Y540528D01*
X1351774Y540809D01*
X1352130Y541090D01*
X1352505Y541352D01*
X1352916Y541595D01*
X1352935Y541614D01*
X1353010Y541651D01*
X1353141Y541708D01*
X1353310Y541782D01*
X1353515Y541876D01*
X1353778Y541988D01*
X1354058Y542101D01*
X1354377Y542213D01*
X1354732Y542325D01*
X1355125Y542438D01*
X1355537Y542550D01*
X1355968Y542644D01*
X1356436Y542719D01*
X1356904Y542775D01*
X1357409Y542812D01*
X1357915Y542831D01*
X1358102D01*
X1358214Y542812D01*
D02*
G37*
G36*
X1645000Y840000D02*
X1335000D01*
Y880000D01*
X1645000D01*
Y840000D01*
D02*
G37*
%LPC*%
G36*
X472759Y483725D02*
X469194D01*
Y479268D01*
X472314D01*
Y479714D01*
X473205D01*
Y480160D01*
X473651D01*
Y480605D01*
Y481051D01*
Y482834D01*
X473205D01*
Y483279D01*
X472759D01*
Y483725D01*
D02*
G37*
G36*
X419278D02*
X415267D01*
Y479268D01*
Y478823D01*
Y473920D01*
X418833D01*
Y474366D01*
X420170D01*
Y474812D01*
X420615D01*
Y475257D01*
X421061D01*
Y476149D01*
X421507D01*
Y477486D01*
X421952D01*
Y480160D01*
X421507D01*
Y481942D01*
X421061D01*
Y482388D01*
X420615D01*
Y482834D01*
X420170D01*
Y483279D01*
X419278D01*
Y483725D01*
D02*
G37*
G36*
X388972Y477040D02*
X388527D01*
Y476594D01*
X386744D01*
Y476149D01*
X385853D01*
Y475703D01*
X385407D01*
Y474366D01*
X385853D01*
Y473475D01*
X388081D01*
Y473920D01*
X388527D01*
Y474366D01*
X388972D01*
Y476149D01*
X389418D01*
Y476594D01*
X388972D01*
Y477040D01*
D02*
G37*
G36*
X344851D02*
X344405D01*
Y476594D01*
X342622D01*
Y476149D01*
X341731D01*
Y475703D01*
X341285D01*
Y473920D01*
X341731D01*
Y473475D01*
X343959D01*
Y473920D01*
X344405D01*
Y474812D01*
X344851D01*
Y477040D01*
D02*
G37*
G36*
X458052Y484171D02*
X455824D01*
Y483279D01*
X455378D01*
Y482388D01*
X455824D01*
Y481497D01*
X456269D01*
Y481051D01*
X457161D01*
Y481497D01*
X457606D01*
Y481942D01*
X458052D01*
Y484171D01*
D02*
G37*
G36*
X455824Y477931D02*
X454487D01*
Y477040D01*
X454041D01*
Y476594D01*
Y476149D01*
Y475257D01*
X454487D01*
Y474366D01*
X455378D01*
Y473920D01*
X458498D01*
Y474366D01*
X458052D01*
Y474812D01*
X457606D01*
Y475703D01*
X457161D01*
Y476149D01*
X456715D01*
Y476594D01*
X456269D01*
Y477040D01*
X455824D01*
Y477931D01*
D02*
G37*
G36*
X364906Y480605D02*
X363569D01*
Y480160D01*
X362677D01*
Y479714D01*
X362232D01*
Y478823D01*
X361786D01*
Y475257D01*
X362232D01*
Y474366D01*
X362677D01*
Y473920D01*
X365797D01*
Y474366D01*
X366243D01*
Y474812D01*
X366689D01*
Y479268D01*
X366243D01*
Y479714D01*
X365797D01*
Y480160D01*
X364906D01*
Y480605D01*
D02*
G37*
G36*
X1398958Y577496D02*
X1398808D01*
X1398640Y577477D01*
X1398415Y577459D01*
X1398153Y577421D01*
X1397835Y577384D01*
X1397479Y577309D01*
X1397086Y577215D01*
X1396693Y577103D01*
X1396262Y576953D01*
X1395832Y576766D01*
X1395382Y576560D01*
X1394952Y576298D01*
X1394521Y575999D01*
X1394128Y575662D01*
X1393735Y575269D01*
X1393716Y575250D01*
X1393660Y575156D01*
X1393548Y575044D01*
X1393435Y574857D01*
X1393286Y574613D01*
X1393117Y574333D01*
X1392930Y573996D01*
X1392762Y573602D01*
X1392574Y573153D01*
X1392387Y572667D01*
X1392219Y572124D01*
X1392069Y571525D01*
X1391957Y570869D01*
X1391863Y570158D01*
X1391788Y569390D01*
X1391769Y568586D01*
Y568567D01*
Y568529D01*
Y568473D01*
Y568398D01*
Y568286D01*
X1391788Y568174D01*
X1391807Y567855D01*
X1391826Y567500D01*
X1391882Y567069D01*
X1391938Y566601D01*
X1392032Y566096D01*
X1392125Y565572D01*
X1392256Y565029D01*
X1392425Y564467D01*
X1392630Y563924D01*
X1392855Y563381D01*
X1393117Y562857D01*
X1393435Y562371D01*
X1393791Y561921D01*
X1393810Y561903D01*
X1393885Y561828D01*
X1393997Y561715D01*
X1394165Y561566D01*
X1394353Y561397D01*
X1394596Y561210D01*
X1394877Y561004D01*
X1395195Y560798D01*
X1395551Y560574D01*
X1395944Y560368D01*
X1396374Y560180D01*
X1396824Y560012D01*
X1397329Y559862D01*
X1397835Y559750D01*
X1398378Y559675D01*
X1398958Y559656D01*
X1399089D01*
X1399257Y559675D01*
X1399482Y559694D01*
X1399744Y559731D01*
X1400062Y559768D01*
X1400399Y559843D01*
X1400774Y559937D01*
X1401185Y560049D01*
X1401597Y560199D01*
X1402028Y560386D01*
X1402458Y560611D01*
X1402889Y560854D01*
X1403301Y561154D01*
X1403713Y561510D01*
X1404106Y561903D01*
X1404124Y561921D01*
X1404199Y562015D01*
X1404293Y562146D01*
X1404424Y562333D01*
X1404574Y562558D01*
X1404742Y562857D01*
X1404929Y563194D01*
X1405117Y563587D01*
X1405304Y564037D01*
X1405491Y564542D01*
X1405659Y565104D01*
X1405809Y565703D01*
X1405940Y566358D01*
X1406034Y567069D01*
X1406109Y567837D01*
X1406127Y568660D01*
Y568679D01*
Y568717D01*
Y568773D01*
Y568848D01*
Y568960D01*
X1406109Y569091D01*
Y569222D01*
X1406090Y569390D01*
X1406071Y569765D01*
X1406015Y570196D01*
X1405959Y570663D01*
X1405884Y571169D01*
X1405772Y571693D01*
X1405641Y572236D01*
X1405491Y572798D01*
X1405304Y573340D01*
X1405079Y573883D01*
X1404817Y574389D01*
X1404518Y574875D01*
X1404162Y575306D01*
X1404143Y575325D01*
X1404068Y575400D01*
X1403956Y575512D01*
X1403806Y575643D01*
X1403600Y575811D01*
X1403376Y575999D01*
X1403095Y576204D01*
X1402777Y576410D01*
X1402421Y576598D01*
X1402028Y576804D01*
X1401597Y576991D01*
X1401129Y577159D01*
X1400643Y577290D01*
X1400118Y577403D01*
X1399557Y577477D01*
X1398958Y577496D01*
D02*
G37*
G36*
X1428282Y538787D02*
X1428095D01*
X1427964Y538769D01*
X1427796Y538750D01*
X1427590Y538713D01*
X1427384Y538656D01*
X1427141Y538600D01*
X1426897Y538525D01*
X1426635Y538432D01*
X1426354Y538301D01*
X1426073Y538151D01*
X1425811Y537982D01*
X1425531Y537776D01*
X1425269Y537552D01*
X1425006Y537290D01*
X1424988Y537271D01*
X1424950Y537215D01*
X1424894Y537140D01*
X1424801Y537009D01*
X1424707Y536859D01*
X1424595Y536672D01*
X1424482Y536447D01*
X1424351Y536204D01*
X1424239Y535923D01*
X1424108Y535605D01*
X1423996Y535249D01*
X1423902Y534875D01*
X1423808Y534444D01*
X1423752Y534014D01*
X1423715Y533527D01*
X1423696Y533022D01*
Y532984D01*
Y532891D01*
Y532760D01*
X1423715Y532554D01*
X1423733Y532329D01*
X1423771Y532048D01*
X1423808Y531749D01*
X1423864Y531431D01*
X1423921Y531093D01*
X1424014Y530738D01*
X1424127Y530382D01*
X1424258Y530027D01*
X1424407Y529689D01*
X1424576Y529353D01*
X1424782Y529034D01*
X1425006Y528735D01*
X1425025Y528716D01*
X1425063Y528679D01*
X1425137Y528604D01*
X1425250Y528510D01*
X1425381Y528398D01*
X1425531Y528267D01*
X1425718Y528136D01*
X1425924Y528005D01*
X1426148Y527855D01*
X1426392Y527724D01*
X1426654Y527593D01*
X1426953Y527481D01*
X1427253Y527387D01*
X1427590Y527312D01*
X1427927Y527275D01*
X1428282Y527256D01*
X1428376D01*
X1428470Y527275D01*
X1428601D01*
X1428769Y527293D01*
X1428975Y527331D01*
X1429181Y527387D01*
X1429424Y527443D01*
X1429668Y527518D01*
X1429930Y527612D01*
X1430211Y527743D01*
X1430473Y527874D01*
X1430753Y528042D01*
X1431015Y528248D01*
X1431296Y528473D01*
X1431540Y528735D01*
X1431558Y528754D01*
X1431596Y528810D01*
X1431671Y528885D01*
X1431745Y529016D01*
X1431839Y529165D01*
X1431951Y529353D01*
X1432083Y529577D01*
X1432213Y529821D01*
X1432326Y530120D01*
X1432457Y530438D01*
X1432569Y530794D01*
X1432663Y531168D01*
X1432738Y531599D01*
X1432813Y532048D01*
X1432850Y532535D01*
X1432869Y533040D01*
Y533078D01*
Y533171D01*
Y533302D01*
X1432850Y533490D01*
X1432831Y533733D01*
X1432794Y533995D01*
X1432756Y534295D01*
X1432700Y534613D01*
X1432625Y534950D01*
X1432551Y535287D01*
X1432438Y535642D01*
X1432307Y535998D01*
X1432157Y536354D01*
X1431970Y536691D01*
X1431783Y536990D01*
X1431540Y537290D01*
X1431521Y537309D01*
X1431483Y537346D01*
X1431409Y537421D01*
X1431296Y537533D01*
X1431184Y537645D01*
X1431015Y537758D01*
X1430847Y537907D01*
X1430641Y538039D01*
X1430416Y538170D01*
X1430173Y538319D01*
X1429892Y538432D01*
X1429612Y538563D01*
X1429312Y538656D01*
X1428975Y538731D01*
X1428638Y538769D01*
X1428282Y538787D01*
D02*
G37*
G36*
X1357933D02*
X1357746D01*
X1357615Y538769D01*
X1357447Y538750D01*
X1357241Y538713D01*
X1357035Y538656D01*
X1356791Y538600D01*
X1356548Y538525D01*
X1356286Y538432D01*
X1356005Y538301D01*
X1355724Y538151D01*
X1355462Y537982D01*
X1355181Y537776D01*
X1354919Y537552D01*
X1354657Y537290D01*
X1354639Y537271D01*
X1354601Y537215D01*
X1354545Y537140D01*
X1354451Y537009D01*
X1354358Y536859D01*
X1354246Y536672D01*
X1354133Y536447D01*
X1354002Y536204D01*
X1353890Y535923D01*
X1353759Y535605D01*
X1353647Y535249D01*
X1353553Y534875D01*
X1353459Y534444D01*
X1353403Y534014D01*
X1353366Y533527D01*
X1353347Y533022D01*
Y532984D01*
Y532891D01*
Y532760D01*
X1353366Y532554D01*
X1353384Y532329D01*
X1353422Y532048D01*
X1353459Y531749D01*
X1353515Y531431D01*
X1353572Y531093D01*
X1353665Y530738D01*
X1353778Y530382D01*
X1353909Y530027D01*
X1354058Y529689D01*
X1354227Y529353D01*
X1354433Y529034D01*
X1354657Y528735D01*
X1354676Y528716D01*
X1354713Y528679D01*
X1354788Y528604D01*
X1354901Y528510D01*
X1355032Y528398D01*
X1355181Y528267D01*
X1355369Y528136D01*
X1355575Y528005D01*
X1355799Y527855D01*
X1356043Y527724D01*
X1356305Y527593D01*
X1356604Y527481D01*
X1356904Y527387D01*
X1357241Y527312D01*
X1357578Y527275D01*
X1357933Y527256D01*
X1358027D01*
X1358121Y527275D01*
X1358252D01*
X1358420Y527293D01*
X1358626Y527331D01*
X1358832Y527387D01*
X1359075Y527443D01*
X1359319Y527518D01*
X1359581Y527612D01*
X1359861Y527743D01*
X1360124Y527874D01*
X1360404Y528042D01*
X1360666Y528248D01*
X1360947Y528473D01*
X1361191Y528735D01*
X1361209Y528754D01*
X1361247Y528810D01*
X1361322Y528885D01*
X1361396Y529016D01*
X1361490Y529165D01*
X1361602Y529353D01*
X1361734Y529577D01*
X1361864Y529821D01*
X1361977Y530120D01*
X1362108Y530438D01*
X1362220Y530794D01*
X1362314Y531168D01*
X1362389Y531599D01*
X1362464Y532048D01*
X1362501Y532535D01*
X1362520Y533040D01*
Y533078D01*
Y533171D01*
Y533302D01*
X1362501Y533490D01*
X1362482Y533733D01*
X1362445Y533995D01*
X1362407Y534295D01*
X1362351Y534613D01*
X1362276Y534950D01*
X1362202Y535287D01*
X1362089Y535642D01*
X1361958Y535998D01*
X1361808Y536354D01*
X1361621Y536691D01*
X1361434Y536990D01*
X1361191Y537290D01*
X1361172Y537309D01*
X1361134Y537346D01*
X1361060Y537421D01*
X1360947Y537533D01*
X1360835Y537645D01*
X1360666Y537758D01*
X1360498Y537907D01*
X1360292Y538039D01*
X1360067Y538170D01*
X1359824Y538319D01*
X1359543Y538432D01*
X1359263Y538563D01*
X1358963Y538656D01*
X1358626Y538731D01*
X1358289Y538769D01*
X1357933Y538787D01*
D02*
G37*
G36*
X1406201Y876556D02*
X1405877D01*
X1405090Y876533D01*
X1404326Y876464D01*
X1403586Y876371D01*
X1402869Y876255D01*
X1402198Y876117D01*
X1401550Y875931D01*
X1400948Y875770D01*
X1400393Y875584D01*
X1399907Y875399D01*
X1399444Y875237D01*
X1399051Y875075D01*
X1398727Y874913D01*
X1398449Y874798D01*
X1398264Y874705D01*
X1398148Y874636D01*
X1398102Y874613D01*
X1397454Y874219D01*
X1396852Y873803D01*
X1396297Y873363D01*
X1395765Y872900D01*
X1395279Y872437D01*
X1394839Y871975D01*
X1394423Y871489D01*
X1394076Y871049D01*
X1393752Y870633D01*
X1393451Y870216D01*
X1393219Y869869D01*
X1393011Y869568D01*
X1392872Y869290D01*
X1392757Y869105D01*
X1392687Y868990D01*
X1392664Y868943D01*
X1392340Y868226D01*
X1392039Y867509D01*
X1391785Y866768D01*
X1391577Y866028D01*
X1391391Y865287D01*
X1391230Y864547D01*
X1391114Y863853D01*
X1390998Y863205D01*
X1390929Y862580D01*
X1390859Y862002D01*
X1390836Y861492D01*
X1390790Y861053D01*
Y860706D01*
X1390767Y860567D01*
Y860220D01*
X1390790Y859364D01*
X1390836Y858531D01*
X1390929Y857721D01*
X1391021Y856957D01*
X1391160Y856194D01*
X1391299Y855499D01*
X1391461Y854828D01*
X1391623Y854204D01*
X1391762Y853648D01*
X1391924Y853139D01*
X1392063Y852700D01*
X1392201Y852329D01*
X1392294Y852029D01*
X1392386Y851820D01*
X1392433Y851681D01*
X1392456Y851658D01*
Y851635D01*
X1392780Y850918D01*
X1393150Y850224D01*
X1393543Y849599D01*
X1393937Y848997D01*
X1394353Y848465D01*
X1394770Y847956D01*
X1395163Y847516D01*
X1395556Y847100D01*
X1395927Y846730D01*
X1396274Y846429D01*
X1396575Y846151D01*
X1396852Y845943D01*
X1397084Y845781D01*
X1397246Y845642D01*
X1397338Y845573D01*
X1397385Y845549D01*
X1398009Y845179D01*
X1398680Y844855D01*
X1399375Y844578D01*
X1400069Y844323D01*
X1400763Y844138D01*
X1401480Y843953D01*
X1402151Y843814D01*
X1402822Y843698D01*
X1403424Y843629D01*
X1404002Y843559D01*
X1404512Y843513D01*
X1404951Y843467D01*
X1405298D01*
X1405460Y843444D01*
X1405807D01*
X1406733Y843467D01*
X1407612Y843559D01*
X1408445Y843698D01*
X1409255Y843860D01*
X1409996Y844069D01*
X1410690Y844300D01*
X1411338Y844555D01*
X1411916Y844809D01*
X1412448Y845063D01*
X1412911Y845318D01*
X1413328Y845549D01*
X1413652Y845758D01*
X1413929Y845920D01*
X1414114Y846059D01*
X1414230Y846151D01*
X1414276Y846174D01*
X1414901Y846730D01*
X1415480Y847308D01*
X1416012Y847933D01*
X1416498Y848581D01*
X1416937Y849252D01*
X1417331Y849900D01*
X1417678Y850548D01*
X1417979Y851196D01*
X1418256Y851797D01*
X1418488Y852352D01*
X1418673Y852838D01*
X1418835Y853278D01*
X1418951Y853625D01*
X1418997Y853787D01*
X1419020Y853903D01*
X1419043Y853995D01*
X1419066Y854065D01*
X1419089Y854111D01*
Y854134D01*
X1414855Y855199D01*
X1414670Y854458D01*
X1414461Y853787D01*
X1414230Y853139D01*
X1413952Y852561D01*
X1413698Y852005D01*
X1413397Y851496D01*
X1413119Y851057D01*
X1412842Y850640D01*
X1412587Y850293D01*
X1412333Y849969D01*
X1412101Y849715D01*
X1411893Y849506D01*
X1411731Y849321D01*
X1411615Y849205D01*
X1411523Y849136D01*
X1411500Y849113D01*
X1411014Y848766D01*
X1410528Y848442D01*
X1410019Y848164D01*
X1409510Y847933D01*
X1409001Y847748D01*
X1408492Y847586D01*
X1408006Y847447D01*
X1407543Y847331D01*
X1407126Y847239D01*
X1406710Y847192D01*
X1406363Y847146D01*
X1406062Y847100D01*
X1405807D01*
X1405622Y847077D01*
X1405460D01*
X1404928Y847100D01*
X1404396Y847146D01*
X1403887Y847215D01*
X1403378Y847308D01*
X1402915Y847424D01*
X1402452Y847563D01*
X1402036Y847678D01*
X1401642Y847840D01*
X1401295Y847979D01*
X1400971Y848095D01*
X1400694Y848234D01*
X1400462Y848349D01*
X1400277Y848442D01*
X1400138Y848511D01*
X1400046Y848558D01*
X1400022Y848581D01*
X1399560Y848882D01*
X1399143Y849205D01*
X1398750Y849553D01*
X1398380Y849923D01*
X1398056Y850293D01*
X1397755Y850686D01*
X1397477Y851057D01*
X1397223Y851404D01*
X1397014Y851751D01*
X1396829Y852075D01*
X1396667Y852376D01*
X1396552Y852630D01*
X1396436Y852838D01*
X1396366Y852977D01*
X1396343Y853093D01*
X1396320Y853116D01*
X1396112Y853695D01*
X1395927Y854296D01*
X1395765Y854898D01*
X1395649Y855523D01*
X1395418Y856703D01*
X1395348Y857281D01*
X1395279Y857837D01*
X1395233Y858322D01*
X1395210Y858785D01*
X1395186Y859202D01*
X1395163Y859549D01*
X1395140Y859850D01*
Y860058D01*
Y860197D01*
Y860243D01*
X1395163Y860845D01*
X1395186Y861423D01*
X1395302Y862534D01*
X1395371Y863066D01*
X1395464Y863575D01*
X1395556Y864061D01*
X1395649Y864501D01*
X1395742Y864917D01*
X1395811Y865287D01*
X1395904Y865611D01*
X1395973Y865889D01*
X1396042Y866097D01*
X1396089Y866259D01*
X1396135Y866375D01*
Y866398D01*
X1396343Y866953D01*
X1396575Y867462D01*
X1396829Y867948D01*
X1397107Y868388D01*
X1397385Y868828D01*
X1397662Y869221D01*
X1397963Y869568D01*
X1398241Y869892D01*
X1398518Y870170D01*
X1398773Y870424D01*
X1399004Y870633D01*
X1399213Y870818D01*
X1399375Y870956D01*
X1399490Y871072D01*
X1399583Y871118D01*
X1399606Y871142D01*
X1400092Y871466D01*
X1400601Y871720D01*
X1401110Y871975D01*
X1401619Y872183D01*
X1402151Y872345D01*
X1402660Y872484D01*
X1403146Y872599D01*
X1403632Y872692D01*
X1404072Y872785D01*
X1404488Y872831D01*
X1404859Y872877D01*
X1405182Y872900D01*
X1405437Y872923D01*
X1405784D01*
X1406386Y872900D01*
X1406941Y872854D01*
X1407473Y872785D01*
X1407982Y872669D01*
X1408445Y872553D01*
X1408885Y872414D01*
X1409278Y872275D01*
X1409648Y872137D01*
X1409972Y871975D01*
X1410273Y871836D01*
X1410528Y871697D01*
X1410736Y871581D01*
X1410898Y871466D01*
X1411014Y871396D01*
X1411083Y871350D01*
X1411106Y871327D01*
X1411500Y871003D01*
X1411870Y870656D01*
X1412194Y870262D01*
X1412518Y869869D01*
X1412818Y869429D01*
X1413073Y869013D01*
X1413328Y868596D01*
X1413536Y868180D01*
X1413721Y867786D01*
X1413906Y867416D01*
X1414045Y867092D01*
X1414161Y866815D01*
X1414253Y866560D01*
X1414323Y866398D01*
X1414346Y866282D01*
X1414369Y866236D01*
X1418534Y867208D01*
X1418279Y868018D01*
X1417955Y868781D01*
X1417632Y869499D01*
X1417261Y870170D01*
X1416891Y870771D01*
X1416521Y871350D01*
X1416127Y871859D01*
X1415757Y872322D01*
X1415387Y872738D01*
X1415063Y873085D01*
X1414762Y873409D01*
X1414485Y873641D01*
X1414276Y873849D01*
X1414091Y873988D01*
X1413999Y874080D01*
X1413952Y874103D01*
X1413328Y874543D01*
X1412680Y874913D01*
X1411985Y875237D01*
X1411315Y875515D01*
X1410643Y875770D01*
X1409972Y875955D01*
X1409324Y876117D01*
X1408700Y876255D01*
X1408098Y876348D01*
X1407566Y876417D01*
X1407103Y876487D01*
X1406687Y876510D01*
X1406340Y876533D01*
X1406201Y876556D01*
D02*
G37*
G36*
X1487443Y876001D02*
X1483162D01*
X1478141Y855407D01*
X1477956Y854689D01*
X1477794Y853972D01*
X1477632Y853301D01*
X1477493Y852653D01*
X1477331Y852052D01*
X1477216Y851473D01*
X1477100Y850941D01*
X1476984Y850455D01*
X1476891Y850015D01*
X1476799Y849599D01*
X1476730Y849275D01*
X1476660Y848974D01*
X1476614Y848743D01*
X1476568Y848581D01*
X1476544Y848488D01*
Y848442D01*
X1476221Y850455D01*
X1475827Y852445D01*
X1475619Y853417D01*
X1475411Y854366D01*
X1475202Y855245D01*
X1474994Y856101D01*
X1474809Y856888D01*
X1474624Y857582D01*
X1474462Y858230D01*
X1474393Y858508D01*
X1474323Y858762D01*
X1474254Y858994D01*
X1474207Y859179D01*
X1474161Y859364D01*
X1474115Y859502D01*
X1474092Y859618D01*
X1474068Y859711D01*
X1474045Y859757D01*
Y859780D01*
X1469464Y876001D01*
X1464350D01*
X1458288Y854366D01*
X1458264Y854273D01*
X1458241Y854181D01*
X1458149Y853880D01*
X1458079Y853533D01*
X1457964Y853116D01*
X1457848Y852653D01*
X1457732Y852144D01*
X1457478Y851103D01*
X1457339Y850594D01*
X1457223Y850108D01*
X1457130Y849668D01*
X1457015Y849252D01*
X1456945Y848928D01*
X1456922Y848789D01*
X1456876Y848673D01*
X1456853Y848581D01*
Y848511D01*
X1456830Y848465D01*
Y848442D01*
X1456598Y849668D01*
X1456367Y850848D01*
X1456251Y851404D01*
X1456136Y851959D01*
X1456043Y852468D01*
X1455927Y852931D01*
X1455835Y853371D01*
X1455742Y853787D01*
X1455673Y854134D01*
X1455603Y854435D01*
X1455534Y854666D01*
X1455511Y854852D01*
X1455464Y854944D01*
Y854990D01*
X1450605Y876001D01*
X1446278D01*
X1454724Y843976D01*
X1459120D01*
X1465854Y868365D01*
X1466016Y868967D01*
X1466178Y869614D01*
X1466340Y870239D01*
X1466479Y870818D01*
X1466548Y871095D01*
X1466618Y871327D01*
X1466664Y871558D01*
X1466710Y871743D01*
X1466756Y871905D01*
X1466780Y872021D01*
X1466803Y872090D01*
Y872113D01*
X1466849Y871952D01*
X1466895Y871743D01*
X1466965Y871512D01*
X1467034Y871234D01*
X1467127Y870933D01*
X1467196Y870633D01*
X1467381Y869985D01*
X1467474Y869661D01*
X1467566Y869360D01*
X1467636Y869105D01*
X1467705Y868851D01*
X1467751Y868643D01*
X1467798Y868504D01*
X1467844Y868411D01*
Y868365D01*
X1474531Y843976D01*
X1478650D01*
X1487443Y876001D01*
D02*
G37*
G36*
X1539484D02*
X1516344D01*
Y843976D01*
X1540224D01*
Y847748D01*
X1520579D01*
Y858646D01*
X1538280D01*
Y862418D01*
X1520579D01*
Y872229D01*
X1539484D01*
Y876001D01*
D02*
G37*
G36*
X1510768Y875584D02*
X1490035D01*
Y871813D01*
X1505723D01*
X1505168Y871165D01*
X1504612Y870471D01*
X1503571Y869059D01*
X1503085Y868342D01*
X1502599Y867648D01*
X1502160Y866976D01*
X1501766Y866329D01*
X1501396Y865727D01*
X1501049Y865172D01*
X1500771Y864663D01*
X1500517Y864246D01*
X1500332Y863899D01*
X1500239Y863760D01*
X1500170Y863644D01*
X1500123Y863529D01*
X1500077Y863459D01*
X1500054Y863436D01*
Y863413D01*
X1499568Y862487D01*
X1499129Y861539D01*
X1498689Y860613D01*
X1498295Y859711D01*
X1497948Y858831D01*
X1497601Y857975D01*
X1497301Y857165D01*
X1497023Y856402D01*
X1496791Y855685D01*
X1496583Y855060D01*
X1496398Y854481D01*
X1496259Y854018D01*
X1496190Y853810D01*
X1496143Y853625D01*
X1496097Y853463D01*
X1496051Y853324D01*
X1496028Y853232D01*
X1496005Y853162D01*
X1495981Y853116D01*
Y853093D01*
X1495727Y852121D01*
X1495519Y851172D01*
X1495334Y850270D01*
X1495148Y849414D01*
X1495010Y848604D01*
X1494894Y847863D01*
X1494801Y847169D01*
X1494732Y846521D01*
X1494663Y845966D01*
X1494616Y845457D01*
X1494570Y845017D01*
X1494547Y844647D01*
Y844369D01*
X1494524Y844138D01*
Y844022D01*
Y843976D01*
X1498573D01*
X1498643Y844855D01*
X1498735Y845735D01*
X1498828Y846568D01*
X1498943Y847354D01*
X1499059Y848118D01*
X1499198Y848858D01*
X1499314Y849529D01*
X1499452Y850154D01*
X1499568Y850733D01*
X1499684Y851242D01*
X1499799Y851681D01*
X1499892Y852075D01*
X1499962Y852376D01*
X1500031Y852584D01*
X1500054Y852723D01*
X1500077Y852769D01*
X1500401Y853833D01*
X1500748Y854898D01*
X1501095Y855916D01*
X1501489Y856911D01*
X1501859Y857883D01*
X1502252Y858785D01*
X1502623Y859665D01*
X1502993Y860474D01*
X1503340Y861215D01*
X1503664Y861863D01*
X1503965Y862441D01*
X1504080Y862719D01*
X1504219Y862950D01*
X1504312Y863158D01*
X1504427Y863344D01*
X1504497Y863506D01*
X1504566Y863644D01*
X1504636Y863737D01*
X1504682Y863807D01*
X1504705Y863853D01*
Y863876D01*
X1505260Y864871D01*
X1505839Y865796D01*
X1506371Y866676D01*
X1506927Y867509D01*
X1507435Y868272D01*
X1507945Y868990D01*
X1508430Y869638D01*
X1508870Y870216D01*
X1509264Y870748D01*
X1509634Y871211D01*
X1509958Y871604D01*
X1510235Y871928D01*
X1510467Y872183D01*
X1510629Y872391D01*
X1510744Y872484D01*
X1510768Y872530D01*
Y875584D01*
D02*
G37*
G36*
X1439244Y876001D02*
X1436027D01*
X1421426Y855245D01*
Y851635D01*
X1435310D01*
Y843976D01*
X1439244D01*
Y851635D01*
X1443571D01*
Y855245D01*
X1439244D01*
Y876001D01*
D02*
G37*
G36*
X1386486D02*
X1364897D01*
Y843976D01*
X1369131D01*
Y858531D01*
X1384149D01*
Y862302D01*
X1369131D01*
Y872229D01*
X1386486D01*
Y876001D01*
D02*
G37*
G36*
X1604922Y876117D02*
X1604667D01*
X1604019Y876094D01*
X1603418Y876047D01*
X1602839Y875955D01*
X1602284Y875816D01*
X1601775Y875677D01*
X1601289Y875515D01*
X1600849Y875353D01*
X1600456Y875191D01*
X1600086Y875006D01*
X1599785Y874844D01*
X1599507Y874682D01*
X1599276Y874543D01*
X1599091Y874427D01*
X1598975Y874335D01*
X1598882Y874266D01*
X1598859Y874242D01*
X1598443Y873872D01*
X1598049Y873479D01*
X1597679Y873062D01*
X1597332Y872623D01*
X1597031Y872183D01*
X1596754Y871720D01*
X1596476Y871281D01*
X1596268Y870864D01*
X1596059Y870471D01*
X1595874Y870100D01*
X1595735Y869753D01*
X1595597Y869476D01*
X1595504Y869221D01*
X1595435Y869059D01*
X1595412Y868943D01*
X1595388Y868897D01*
X1595180Y868226D01*
X1595018Y867509D01*
X1594856Y866768D01*
X1594717Y866005D01*
X1594509Y864477D01*
X1594440Y863737D01*
X1594370Y863020D01*
X1594324Y862349D01*
X1594301Y861724D01*
X1594278Y861169D01*
X1594255Y860706D01*
Y860498D01*
X1594231Y860312D01*
Y858924D01*
X1594278Y858114D01*
X1594301Y857351D01*
X1594370Y856610D01*
X1594440Y855893D01*
X1594532Y855199D01*
X1594625Y854551D01*
X1594717Y853926D01*
X1594833Y853301D01*
X1594972Y852746D01*
X1595088Y852190D01*
X1595226Y851681D01*
X1595365Y851172D01*
X1595504Y850710D01*
X1595666Y850270D01*
X1595805Y849853D01*
X1595944Y849483D01*
X1596106Y849113D01*
X1596245Y848789D01*
X1596383Y848465D01*
X1596522Y848187D01*
X1596638Y847933D01*
X1596777Y847701D01*
X1596893Y847493D01*
X1596985Y847308D01*
X1597078Y847169D01*
X1597170Y847030D01*
X1597240Y846915D01*
X1597309Y846845D01*
X1597355Y846776D01*
X1597378Y846753D01*
Y846730D01*
X1597888Y846151D01*
X1598443Y845642D01*
X1599021Y845202D01*
X1599623Y844832D01*
X1600248Y844508D01*
X1600849Y844254D01*
X1601428Y844022D01*
X1602006Y843860D01*
X1602562Y843721D01*
X1603047Y843629D01*
X1603510Y843536D01*
X1603904Y843490D01*
X1604228Y843467D01*
X1604459Y843444D01*
X1604667D01*
X1605315Y843467D01*
X1605917Y843536D01*
X1606495Y843629D01*
X1607051Y843745D01*
X1607560Y843883D01*
X1608022Y844045D01*
X1608462Y844207D01*
X1608879Y844392D01*
X1609226Y844555D01*
X1609550Y844716D01*
X1609804Y844878D01*
X1610036Y845017D01*
X1610221Y845156D01*
X1610336Y845249D01*
X1610429Y845295D01*
X1610452Y845318D01*
X1610869Y845688D01*
X1611262Y846082D01*
X1611632Y846498D01*
X1611979Y846938D01*
X1612280Y847401D01*
X1612558Y847840D01*
X1612836Y848280D01*
X1613067Y848696D01*
X1613252Y849090D01*
X1613437Y849460D01*
X1613576Y849807D01*
X1613715Y850085D01*
X1613807Y850339D01*
X1613877Y850501D01*
X1613900Y850617D01*
X1613923Y850663D01*
X1614131Y851334D01*
X1614316Y852052D01*
X1614478Y852792D01*
X1614617Y853556D01*
X1614825Y855060D01*
X1614895Y855800D01*
X1614964Y856517D01*
X1615011Y857189D01*
X1615034Y857790D01*
X1615057Y858346D01*
X1615080Y858831D01*
Y859040D01*
X1615103Y859225D01*
Y860636D01*
X1615080Y861446D01*
X1615034Y862233D01*
X1614987Y862950D01*
X1614941Y863621D01*
X1614872Y864246D01*
X1614802Y864825D01*
X1614733Y865334D01*
X1614664Y865796D01*
X1614594Y866190D01*
X1614525Y866537D01*
X1614478Y866815D01*
X1614432Y867046D01*
X1614386Y867185D01*
X1614363Y867300D01*
Y867324D01*
X1614224Y867833D01*
X1614062Y868342D01*
X1613923Y868805D01*
X1613761Y869244D01*
X1613576Y869661D01*
X1613414Y870054D01*
X1613252Y870424D01*
X1613090Y870748D01*
X1612951Y871049D01*
X1612812Y871304D01*
X1612697Y871535D01*
X1612581Y871720D01*
X1612488Y871859D01*
X1612419Y871975D01*
X1612396Y872044D01*
X1612373Y872067D01*
X1611887Y872761D01*
X1611355Y873363D01*
X1610822Y873895D01*
X1610313Y874312D01*
X1610082Y874497D01*
X1609850Y874636D01*
X1609665Y874774D01*
X1609503Y874890D01*
X1609365Y874960D01*
X1609272Y875029D01*
X1609203Y875075D01*
X1609180D01*
X1608809Y875260D01*
X1608439Y875422D01*
X1607652Y875677D01*
X1606889Y875862D01*
X1606194Y875978D01*
X1605871Y876024D01*
X1605593Y876070D01*
X1605315Y876094D01*
X1605107D01*
X1604922Y876117D01*
D02*
G37*
G36*
X1580047D02*
X1579792D01*
X1579144Y876094D01*
X1578543Y876047D01*
X1577964Y875955D01*
X1577409Y875816D01*
X1576900Y875677D01*
X1576414Y875515D01*
X1575974Y875353D01*
X1575581Y875191D01*
X1575211Y875006D01*
X1574910Y874844D01*
X1574632Y874682D01*
X1574401Y874543D01*
X1574216Y874427D01*
X1574100Y874335D01*
X1574008Y874266D01*
X1573985Y874242D01*
X1573568Y873872D01*
X1573175Y873479D01*
X1572804Y873062D01*
X1572457Y872623D01*
X1572156Y872183D01*
X1571879Y871720D01*
X1571601Y871281D01*
X1571393Y870864D01*
X1571185Y870471D01*
X1570999Y870100D01*
X1570861Y869753D01*
X1570722Y869476D01*
X1570629Y869221D01*
X1570560Y869059D01*
X1570537Y868943D01*
X1570513Y868897D01*
X1570305Y868226D01*
X1570143Y867509D01*
X1569981Y866768D01*
X1569843Y866005D01*
X1569634Y864477D01*
X1569565Y863737D01*
X1569495Y863020D01*
X1569449Y862349D01*
X1569426Y861724D01*
X1569403Y861169D01*
X1569380Y860706D01*
Y860498D01*
X1569357Y860312D01*
Y858924D01*
X1569403Y858114D01*
X1569426Y857351D01*
X1569495Y856610D01*
X1569565Y855893D01*
X1569657Y855199D01*
X1569750Y854551D01*
X1569843Y853926D01*
X1569958Y853301D01*
X1570097Y852746D01*
X1570213Y852190D01*
X1570352Y851681D01*
X1570490Y851172D01*
X1570629Y850710D01*
X1570791Y850270D01*
X1570930Y849853D01*
X1571069Y849483D01*
X1571231Y849113D01*
X1571370Y848789D01*
X1571508Y848465D01*
X1571647Y848187D01*
X1571763Y847933D01*
X1571902Y847701D01*
X1572018Y847493D01*
X1572110Y847308D01*
X1572203Y847169D01*
X1572295Y847030D01*
X1572365Y846915D01*
X1572434Y846845D01*
X1572480Y846776D01*
X1572504Y846753D01*
Y846730D01*
X1573013Y846151D01*
X1573568Y845642D01*
X1574146Y845202D01*
X1574748Y844832D01*
X1575373Y844508D01*
X1575974Y844254D01*
X1576553Y844022D01*
X1577131Y843860D01*
X1577687Y843721D01*
X1578173Y843629D01*
X1578636Y843536D01*
X1579029Y843490D01*
X1579353Y843467D01*
X1579584Y843444D01*
X1579792D01*
X1580440Y843467D01*
X1581042Y843536D01*
X1581620Y843629D01*
X1582176Y843745D01*
X1582685Y843883D01*
X1583148Y844045D01*
X1583587Y844207D01*
X1584004Y844392D01*
X1584351Y844555D01*
X1584675Y844716D01*
X1584929Y844878D01*
X1585161Y845017D01*
X1585346Y845156D01*
X1585462Y845249D01*
X1585554Y845295D01*
X1585577Y845318D01*
X1585994Y845688D01*
X1586387Y846082D01*
X1586757Y846498D01*
X1587104Y846938D01*
X1587405Y847401D01*
X1587683Y847840D01*
X1587961Y848280D01*
X1588192Y848696D01*
X1588377Y849090D01*
X1588562Y849460D01*
X1588701Y849807D01*
X1588840Y850085D01*
X1588932Y850339D01*
X1589002Y850501D01*
X1589025Y850617D01*
X1589048Y850663D01*
X1589256Y851334D01*
X1589442Y852052D01*
X1589604Y852792D01*
X1589742Y853556D01*
X1589951Y855060D01*
X1590020Y855800D01*
X1590090Y856517D01*
X1590136Y857189D01*
X1590159Y857790D01*
X1590182Y858346D01*
X1590205Y858831D01*
Y859040D01*
X1590228Y859225D01*
Y860636D01*
X1590205Y861446D01*
X1590159Y862233D01*
X1590113Y862950D01*
X1590066Y863621D01*
X1589997Y864246D01*
X1589928Y864825D01*
X1589858Y865334D01*
X1589789Y865796D01*
X1589719Y866190D01*
X1589650Y866537D01*
X1589604Y866815D01*
X1589557Y867046D01*
X1589511Y867185D01*
X1589488Y867300D01*
Y867324D01*
X1589349Y867833D01*
X1589187Y868342D01*
X1589048Y868805D01*
X1588886Y869244D01*
X1588701Y869661D01*
X1588539Y870054D01*
X1588377Y870424D01*
X1588215Y870748D01*
X1588076Y871049D01*
X1587937Y871304D01*
X1587822Y871535D01*
X1587706Y871720D01*
X1587614Y871859D01*
X1587544Y871975D01*
X1587521Y872044D01*
X1587498Y872067D01*
X1587012Y872761D01*
X1586480Y873363D01*
X1585948Y873895D01*
X1585439Y874312D01*
X1585207Y874497D01*
X1584976Y874636D01*
X1584791Y874774D01*
X1584629Y874890D01*
X1584490Y874960D01*
X1584397Y875029D01*
X1584328Y875075D01*
X1584305D01*
X1583934Y875260D01*
X1583564Y875422D01*
X1582777Y875677D01*
X1582014Y875862D01*
X1581320Y875978D01*
X1580996Y876024D01*
X1580718Y876070D01*
X1580440Y876094D01*
X1580232D01*
X1580047Y876117D01*
D02*
G37*
G36*
X1555172D02*
X1554918D01*
X1554270Y876094D01*
X1553668Y876047D01*
X1553090Y875955D01*
X1552534Y875816D01*
X1552025Y875677D01*
X1551539Y875515D01*
X1551100Y875353D01*
X1550706Y875191D01*
X1550336Y875006D01*
X1550035Y874844D01*
X1549758Y874682D01*
X1549526Y874543D01*
X1549341Y874427D01*
X1549225Y874335D01*
X1549133Y874266D01*
X1549110Y874242D01*
X1548693Y873872D01*
X1548300Y873479D01*
X1547930Y873062D01*
X1547582Y872623D01*
X1547282Y872183D01*
X1547004Y871720D01*
X1546726Y871281D01*
X1546518Y870864D01*
X1546310Y870471D01*
X1546125Y870100D01*
X1545986Y869753D01*
X1545847Y869476D01*
X1545754Y869221D01*
X1545685Y869059D01*
X1545662Y868943D01*
X1545639Y868897D01*
X1545430Y868226D01*
X1545269Y867509D01*
X1545107Y866768D01*
X1544968Y866005D01*
X1544759Y864477D01*
X1544690Y863737D01*
X1544621Y863020D01*
X1544574Y862349D01*
X1544551Y861724D01*
X1544528Y861169D01*
X1544505Y860706D01*
Y860498D01*
X1544482Y860312D01*
Y858924D01*
X1544528Y858114D01*
X1544551Y857351D01*
X1544621Y856610D01*
X1544690Y855893D01*
X1544783Y855199D01*
X1544875Y854551D01*
X1544968Y853926D01*
X1545083Y853301D01*
X1545222Y852746D01*
X1545338Y852190D01*
X1545477Y851681D01*
X1545616Y851172D01*
X1545754Y850710D01*
X1545916Y850270D01*
X1546055Y849853D01*
X1546194Y849483D01*
X1546356Y849113D01*
X1546495Y848789D01*
X1546634Y848465D01*
X1546772Y848187D01*
X1546888Y847933D01*
X1547027Y847701D01*
X1547143Y847493D01*
X1547235Y847308D01*
X1547328Y847169D01*
X1547420Y847030D01*
X1547490Y846915D01*
X1547559Y846845D01*
X1547605Y846776D01*
X1547629Y846753D01*
Y846730D01*
X1548138Y846151D01*
X1548693Y845642D01*
X1549272Y845202D01*
X1549873Y844832D01*
X1550498Y844508D01*
X1551100Y844254D01*
X1551678Y844022D01*
X1552257Y843860D01*
X1552812Y843721D01*
X1553298Y843629D01*
X1553761Y843536D01*
X1554154Y843490D01*
X1554478Y843467D01*
X1554709Y843444D01*
X1554918D01*
X1555565Y843467D01*
X1556167Y843536D01*
X1556746Y843629D01*
X1557301Y843745D01*
X1557810Y843883D01*
X1558273Y844045D01*
X1558712Y844207D01*
X1559129Y844392D01*
X1559476Y844555D01*
X1559800Y844716D01*
X1560054Y844878D01*
X1560286Y845017D01*
X1560471Y845156D01*
X1560587Y845249D01*
X1560679Y845295D01*
X1560702Y845318D01*
X1561119Y845688D01*
X1561512Y846082D01*
X1561883Y846498D01*
X1562230Y846938D01*
X1562531Y847401D01*
X1562808Y847840D01*
X1563086Y848280D01*
X1563317Y848696D01*
X1563502Y849090D01*
X1563687Y849460D01*
X1563826Y849807D01*
X1563965Y850085D01*
X1564058Y850339D01*
X1564127Y850501D01*
X1564150Y850617D01*
X1564173Y850663D01*
X1564382Y851334D01*
X1564567Y852052D01*
X1564729Y852792D01*
X1564868Y853556D01*
X1565076Y855060D01*
X1565145Y855800D01*
X1565215Y856517D01*
X1565261Y857189D01*
X1565284Y857790D01*
X1565307Y858346D01*
X1565330Y858831D01*
Y859040D01*
X1565354Y859225D01*
Y860636D01*
X1565330Y861446D01*
X1565284Y862233D01*
X1565238Y862950D01*
X1565191Y863621D01*
X1565122Y864246D01*
X1565053Y864825D01*
X1564983Y865334D01*
X1564914Y865796D01*
X1564844Y866190D01*
X1564775Y866537D01*
X1564729Y866815D01*
X1564682Y867046D01*
X1564636Y867185D01*
X1564613Y867300D01*
Y867324D01*
X1564474Y867833D01*
X1564312Y868342D01*
X1564173Y868805D01*
X1564011Y869244D01*
X1563826Y869661D01*
X1563664Y870054D01*
X1563502Y870424D01*
X1563340Y870748D01*
X1563201Y871049D01*
X1563063Y871304D01*
X1562947Y871535D01*
X1562831Y871720D01*
X1562739Y871859D01*
X1562669Y871975D01*
X1562646Y872044D01*
X1562623Y872067D01*
X1562137Y872761D01*
X1561605Y873363D01*
X1561073Y873895D01*
X1560564Y874312D01*
X1560332Y874497D01*
X1560101Y874636D01*
X1559916Y874774D01*
X1559754Y874890D01*
X1559615Y874960D01*
X1559522Y875029D01*
X1559453Y875075D01*
X1559430D01*
X1559059Y875260D01*
X1558689Y875422D01*
X1557903Y875677D01*
X1557139Y875862D01*
X1556445Y875978D01*
X1556121Y876024D01*
X1555843Y876070D01*
X1555565Y876094D01*
X1555357D01*
X1555172Y876117D01*
D02*
G37*
%LPD*%
G36*
X1435310Y855245D02*
X1425267D01*
X1435310Y869684D01*
Y855245D01*
D02*
G37*
G36*
X1605130Y872831D02*
X1605616Y872738D01*
X1606056Y872623D01*
X1606495Y872437D01*
X1606912Y872252D01*
X1607282Y872021D01*
X1607629Y871789D01*
X1607953Y871558D01*
X1608231Y871304D01*
X1608485Y871072D01*
X1608694Y870841D01*
X1608879Y870656D01*
X1609017Y870471D01*
X1609110Y870355D01*
X1609180Y870262D01*
X1609203Y870239D01*
X1609365Y869985D01*
X1609527Y869684D01*
X1609665Y869383D01*
X1609804Y869036D01*
X1610059Y868319D01*
X1610267Y867509D01*
X1610452Y866653D01*
X1610614Y865773D01*
X1610730Y864894D01*
X1610822Y864038D01*
X1610892Y863182D01*
X1610961Y862395D01*
X1611008Y861678D01*
Y861330D01*
X1611031Y861030D01*
Y860752D01*
X1611054Y860498D01*
Y860289D01*
Y860104D01*
Y859965D01*
Y859850D01*
Y859780D01*
Y859757D01*
Y859040D01*
X1611031Y858346D01*
X1611008Y857674D01*
X1610984Y857050D01*
X1610938Y856448D01*
X1610892Y855870D01*
X1610822Y855314D01*
X1610776Y854805D01*
X1610707Y854296D01*
X1610614Y853833D01*
X1610545Y853394D01*
X1610475Y852977D01*
X1610383Y852584D01*
X1610290Y852237D01*
X1610221Y851890D01*
X1610128Y851566D01*
X1609966Y850987D01*
X1609781Y850524D01*
X1609642Y850131D01*
X1609503Y849807D01*
X1609365Y849576D01*
X1609272Y849414D01*
X1609226Y849298D01*
X1609203Y849275D01*
X1608855Y848812D01*
X1608485Y848419D01*
X1608092Y848072D01*
X1607722Y847771D01*
X1607328Y847516D01*
X1606958Y847308D01*
X1606588Y847146D01*
X1606241Y847007D01*
X1605917Y846891D01*
X1605616Y846822D01*
X1605338Y846753D01*
X1605107Y846730D01*
X1604922Y846706D01*
X1604783Y846683D01*
X1604667D01*
X1604181Y846706D01*
X1603695Y846799D01*
X1603233Y846915D01*
X1602816Y847100D01*
X1602400Y847285D01*
X1602029Y847493D01*
X1601682Y847748D01*
X1601382Y847979D01*
X1601081Y848211D01*
X1600849Y848465D01*
X1600618Y848673D01*
X1600433Y848882D01*
X1600294Y849044D01*
X1600201Y849159D01*
X1600132Y849252D01*
X1600109Y849275D01*
X1599947Y849529D01*
X1599785Y849830D01*
X1599646Y850131D01*
X1599507Y850478D01*
X1599253Y851196D01*
X1599044Y852005D01*
X1598882Y852861D01*
X1598721Y853741D01*
X1598605Y854620D01*
X1598512Y855499D01*
X1598443Y856332D01*
X1598373Y857119D01*
X1598327Y857860D01*
Y858184D01*
X1598304Y858484D01*
Y858762D01*
Y859017D01*
X1598281Y859225D01*
Y859410D01*
Y859572D01*
Y859665D01*
Y859734D01*
Y859757D01*
Y860474D01*
X1598304Y861169D01*
X1598327Y861840D01*
X1598373Y862487D01*
X1598420Y863089D01*
X1598466Y863668D01*
X1598535Y864223D01*
X1598605Y864755D01*
X1598674Y865264D01*
X1598744Y865750D01*
X1598836Y866213D01*
X1598929Y866629D01*
X1598998Y867046D01*
X1599091Y867416D01*
X1599183Y867786D01*
X1599299Y868110D01*
X1599484Y868712D01*
X1599669Y869221D01*
X1599831Y869638D01*
X1599970Y869985D01*
X1600109Y870239D01*
X1600201Y870424D01*
X1600271Y870540D01*
X1600294Y870563D01*
X1600618Y870956D01*
X1600942Y871327D01*
X1601289Y871628D01*
X1601659Y871882D01*
X1602006Y872113D01*
X1602377Y872299D01*
X1602724Y872437D01*
X1603071Y872576D01*
X1603395Y872669D01*
X1603672Y872738D01*
X1603950Y872785D01*
X1604181Y872808D01*
X1604366Y872831D01*
X1604505Y872854D01*
X1604621D01*
X1605130Y872831D01*
D02*
G37*
G36*
X1580255D02*
X1580741Y872738D01*
X1581181Y872623D01*
X1581620Y872437D01*
X1582037Y872252D01*
X1582407Y872021D01*
X1582754Y871789D01*
X1583078Y871558D01*
X1583356Y871304D01*
X1583610Y871072D01*
X1583819Y870841D01*
X1584004Y870656D01*
X1584143Y870471D01*
X1584235Y870355D01*
X1584305Y870262D01*
X1584328Y870239D01*
X1584490Y869985D01*
X1584652Y869684D01*
X1584791Y869383D01*
X1584929Y869036D01*
X1585184Y868319D01*
X1585392Y867509D01*
X1585577Y866653D01*
X1585739Y865773D01*
X1585855Y864894D01*
X1585948Y864038D01*
X1586017Y863182D01*
X1586086Y862395D01*
X1586133Y861678D01*
Y861330D01*
X1586156Y861030D01*
Y860752D01*
X1586179Y860498D01*
Y860289D01*
Y860104D01*
Y859965D01*
Y859850D01*
Y859780D01*
Y859757D01*
Y859040D01*
X1586156Y858346D01*
X1586133Y857674D01*
X1586109Y857050D01*
X1586063Y856448D01*
X1586017Y855870D01*
X1585948Y855314D01*
X1585901Y854805D01*
X1585832Y854296D01*
X1585739Y853833D01*
X1585670Y853394D01*
X1585600Y852977D01*
X1585508Y852584D01*
X1585415Y852237D01*
X1585346Y851890D01*
X1585253Y851566D01*
X1585091Y850987D01*
X1584906Y850524D01*
X1584767Y850131D01*
X1584629Y849807D01*
X1584490Y849576D01*
X1584397Y849414D01*
X1584351Y849298D01*
X1584328Y849275D01*
X1583981Y848812D01*
X1583610Y848419D01*
X1583217Y848072D01*
X1582847Y847771D01*
X1582453Y847516D01*
X1582083Y847308D01*
X1581713Y847146D01*
X1581366Y847007D01*
X1581042Y846891D01*
X1580741Y846822D01*
X1580464Y846753D01*
X1580232Y846730D01*
X1580047Y846706D01*
X1579908Y846683D01*
X1579792D01*
X1579306Y846706D01*
X1578821Y846799D01*
X1578358Y846915D01*
X1577941Y847100D01*
X1577525Y847285D01*
X1577155Y847493D01*
X1576808Y847748D01*
X1576507Y847979D01*
X1576206Y848211D01*
X1575974Y848465D01*
X1575743Y848673D01*
X1575558Y848882D01*
X1575419Y849044D01*
X1575327Y849159D01*
X1575257Y849252D01*
X1575234Y849275D01*
X1575072Y849529D01*
X1574910Y849830D01*
X1574771Y850131D01*
X1574632Y850478D01*
X1574378Y851196D01*
X1574170Y852005D01*
X1574008Y852861D01*
X1573846Y853741D01*
X1573730Y854620D01*
X1573637Y855499D01*
X1573568Y856332D01*
X1573499Y857119D01*
X1573452Y857860D01*
Y858184D01*
X1573429Y858484D01*
Y858762D01*
Y859017D01*
X1573406Y859225D01*
Y859410D01*
Y859572D01*
Y859665D01*
Y859734D01*
Y859757D01*
Y860474D01*
X1573429Y861169D01*
X1573452Y861840D01*
X1573499Y862487D01*
X1573545Y863089D01*
X1573591Y863668D01*
X1573660Y864223D01*
X1573730Y864755D01*
X1573799Y865264D01*
X1573869Y865750D01*
X1573961Y866213D01*
X1574054Y866629D01*
X1574123Y867046D01*
X1574216Y867416D01*
X1574308Y867786D01*
X1574424Y868110D01*
X1574609Y868712D01*
X1574794Y869221D01*
X1574956Y869638D01*
X1575095Y869985D01*
X1575234Y870239D01*
X1575327Y870424D01*
X1575396Y870540D01*
X1575419Y870563D01*
X1575743Y870956D01*
X1576067Y871327D01*
X1576414Y871628D01*
X1576784Y871882D01*
X1577131Y872113D01*
X1577502Y872299D01*
X1577849Y872437D01*
X1578196Y872576D01*
X1578520Y872669D01*
X1578797Y872738D01*
X1579075Y872785D01*
X1579306Y872808D01*
X1579492Y872831D01*
X1579630Y872854D01*
X1579746D01*
X1580255Y872831D01*
D02*
G37*
G36*
X1555380D02*
X1555866Y872738D01*
X1556306Y872623D01*
X1556746Y872437D01*
X1557162Y872252D01*
X1557532Y872021D01*
X1557879Y871789D01*
X1558203Y871558D01*
X1558481Y871304D01*
X1558736Y871072D01*
X1558944Y870841D01*
X1559129Y870656D01*
X1559268Y870471D01*
X1559360Y870355D01*
X1559430Y870262D01*
X1559453Y870239D01*
X1559615Y869985D01*
X1559777Y869684D01*
X1559916Y869383D01*
X1560054Y869036D01*
X1560309Y868319D01*
X1560517Y867509D01*
X1560702Y866653D01*
X1560864Y865773D01*
X1560980Y864894D01*
X1561073Y864038D01*
X1561142Y863182D01*
X1561212Y862395D01*
X1561258Y861678D01*
Y861330D01*
X1561281Y861030D01*
Y860752D01*
X1561304Y860498D01*
Y860289D01*
Y860104D01*
Y859965D01*
Y859850D01*
Y859780D01*
Y859757D01*
Y859040D01*
X1561281Y858346D01*
X1561258Y857674D01*
X1561235Y857050D01*
X1561188Y856448D01*
X1561142Y855870D01*
X1561073Y855314D01*
X1561026Y854805D01*
X1560957Y854296D01*
X1560864Y853833D01*
X1560795Y853394D01*
X1560726Y852977D01*
X1560633Y852584D01*
X1560540Y852237D01*
X1560471Y851890D01*
X1560379Y851566D01*
X1560217Y850987D01*
X1560031Y850524D01*
X1559893Y850131D01*
X1559754Y849807D01*
X1559615Y849576D01*
X1559522Y849414D01*
X1559476Y849298D01*
X1559453Y849275D01*
X1559106Y848812D01*
X1558736Y848419D01*
X1558342Y848072D01*
X1557972Y847771D01*
X1557579Y847516D01*
X1557208Y847308D01*
X1556838Y847146D01*
X1556491Y847007D01*
X1556167Y846891D01*
X1555866Y846822D01*
X1555589Y846753D01*
X1555357Y846730D01*
X1555172Y846706D01*
X1555033Y846683D01*
X1554918D01*
X1554432Y846706D01*
X1553946Y846799D01*
X1553483Y846915D01*
X1553066Y847100D01*
X1552650Y847285D01*
X1552280Y847493D01*
X1551933Y847748D01*
X1551632Y847979D01*
X1551331Y848211D01*
X1551100Y848465D01*
X1550868Y848673D01*
X1550683Y848882D01*
X1550544Y849044D01*
X1550452Y849159D01*
X1550382Y849252D01*
X1550359Y849275D01*
X1550197Y849529D01*
X1550035Y849830D01*
X1549896Y850131D01*
X1549758Y850478D01*
X1549503Y851196D01*
X1549295Y852005D01*
X1549133Y852861D01*
X1548971Y853741D01*
X1548855Y854620D01*
X1548763Y855499D01*
X1548693Y856332D01*
X1548624Y857119D01*
X1548577Y857860D01*
Y858184D01*
X1548554Y858484D01*
Y858762D01*
Y859017D01*
X1548531Y859225D01*
Y859410D01*
Y859572D01*
Y859665D01*
Y859734D01*
Y859757D01*
Y860474D01*
X1548554Y861169D01*
X1548577Y861840D01*
X1548624Y862487D01*
X1548670Y863089D01*
X1548716Y863668D01*
X1548786Y864223D01*
X1548855Y864755D01*
X1548925Y865264D01*
X1548994Y865750D01*
X1549086Y866213D01*
X1549179Y866629D01*
X1549248Y867046D01*
X1549341Y867416D01*
X1549434Y867786D01*
X1549549Y868110D01*
X1549734Y868712D01*
X1549919Y869221D01*
X1550081Y869638D01*
X1550220Y869985D01*
X1550359Y870239D01*
X1550452Y870424D01*
X1550521Y870540D01*
X1550544Y870563D01*
X1550868Y870956D01*
X1551192Y871327D01*
X1551539Y871628D01*
X1551909Y871882D01*
X1552257Y872113D01*
X1552627Y872299D01*
X1552974Y872437D01*
X1553321Y872576D01*
X1553645Y872669D01*
X1553923Y872738D01*
X1554200Y872785D01*
X1554432Y872808D01*
X1554617Y872831D01*
X1554756Y872854D01*
X1554871D01*
X1555380Y872831D01*
D02*
G37*
D10*
X515450Y654800D02*
G03*
X515450Y654800I-1000J0D01*
G01*
X718450D02*
G03*
X718450Y654800I-1000J0D01*
G01*
X921450D02*
G03*
X921450Y654800I-1000J0D01*
G01*
X1124450D02*
G03*
X1124450Y654800I-1000J0D01*
G01*
X299260Y724610D02*
G03*
X299260Y724610I-1000J0D01*
G01*
X750900Y838000D02*
G03*
X750900Y838000I-1000J0D01*
G01*
X292730Y718220D02*
Y753780D01*
X243900Y718220D02*
Y753780D01*
Y718220D02*
X292730D01*
X243900Y753780D02*
X292730D01*
X362210Y733000D02*
Y753000D01*
X327210Y733000D02*
Y753000D01*
Y733000D02*
X362210D01*
X327210Y753000D02*
X362210D01*
X392000Y782000D02*
X412000D01*
X392000Y817000D02*
X412000D01*
X392000Y782000D02*
Y817000D01*
X412000Y782000D02*
Y817000D01*
X367000Y782000D02*
X387000D01*
X367000Y817000D02*
X387000D01*
X367000Y782000D02*
Y817000D01*
X387000Y782000D02*
Y817000D01*
X589000Y694944D02*
X609000D01*
X589000Y729944D02*
X609000D01*
X589000Y694944D02*
Y729944D01*
X609000Y694944D02*
Y729944D01*
X792000Y694944D02*
X812000D01*
X792000Y729944D02*
X812000D01*
X792000Y694944D02*
Y729944D01*
X812000Y694944D02*
Y729944D01*
X995000Y694944D02*
X1015000D01*
X995000Y729944D02*
X1015000D01*
X995000Y694944D02*
Y729944D01*
X1015000Y694944D02*
Y729944D01*
X1198000Y694944D02*
X1218000D01*
X1198000Y729944D02*
X1218000D01*
X1198000Y694944D02*
Y729944D01*
X1218000Y694944D02*
Y729944D01*
X564000Y694944D02*
X584000D01*
X564000Y729944D02*
X584000D01*
X564000Y694944D02*
Y729944D01*
X584000Y694944D02*
Y729944D01*
X767000Y694944D02*
X787000D01*
X767000Y729944D02*
X787000D01*
X767000Y694944D02*
Y729944D01*
X787000Y694944D02*
Y729944D01*
X970000Y694944D02*
X990000D01*
X970000Y729944D02*
X990000D01*
X970000Y694944D02*
Y729944D01*
X990000Y694944D02*
Y729944D01*
X1173000Y694944D02*
X1193000D01*
X1173000Y729944D02*
X1193000D01*
X1173000Y694944D02*
Y729944D01*
X1193000Y694944D02*
Y729944D01*
X1546490Y362443D02*
Y382763D01*
X1579510Y362443D02*
Y382763D01*
X1546490D02*
X1579510D01*
X1546490Y362443D02*
X1579510D01*
Y387443D02*
Y407763D01*
X1546490Y387443D02*
Y407763D01*
Y387443D02*
X1579510D01*
X1546490Y407763D02*
X1579510D01*
X257493Y399443D02*
Y419763D01*
X290513Y399443D02*
Y419763D01*
X257493D02*
X290513D01*
X257493Y399443D02*
X290513D01*
X457493D02*
Y419763D01*
X490513Y399443D02*
Y419763D01*
X457493D02*
X490513D01*
X457493Y399443D02*
X490513D01*
X657493D02*
Y419763D01*
X690513Y399443D02*
Y419763D01*
X657493D02*
X690513D01*
X657493Y399443D02*
X690513D01*
X857493D02*
Y419763D01*
X890513Y399443D02*
Y419763D01*
X857493D02*
X890513D01*
X857493Y399443D02*
X890513D01*
X1057493D02*
Y419763D01*
X1090513Y399443D02*
Y419763D01*
X1057493D02*
X1090513D01*
X1057493Y399443D02*
X1090513D01*
X1257493D02*
Y419763D01*
X1290513Y399443D02*
Y419763D01*
X1257493D02*
X1290513D01*
X1257493Y399443D02*
X1290513D01*
X1457493D02*
Y419763D01*
X1490513Y399443D02*
Y419763D01*
X1457493D02*
X1490513D01*
X1457493Y399443D02*
X1490513D01*
X290513Y424443D02*
Y444763D01*
X257493Y424443D02*
Y444763D01*
Y424443D02*
X290513D01*
X257493Y444763D02*
X290513D01*
X490513Y424443D02*
Y444763D01*
X457493Y424443D02*
Y444763D01*
Y424443D02*
X490513D01*
X457493Y444763D02*
X490513D01*
X690513Y424443D02*
Y444763D01*
X657493Y424443D02*
Y444763D01*
Y424443D02*
X690513D01*
X657493Y444763D02*
X690513D01*
X890513Y424443D02*
Y444763D01*
X857493Y424443D02*
Y444763D01*
Y424443D02*
X890513D01*
X857493Y444763D02*
X890513D01*
X1090513Y424443D02*
Y444763D01*
X1057493Y424443D02*
Y444763D01*
Y424443D02*
X1090513D01*
X1057493Y444763D02*
X1090513D01*
X1290513Y424443D02*
Y444763D01*
X1257493Y424443D02*
Y444763D01*
Y424443D02*
X1290513D01*
X1257493Y444763D02*
X1290513D01*
X1490513Y424443D02*
Y444763D01*
X1457493Y424443D02*
Y444763D01*
Y424443D02*
X1490513D01*
X1457493Y444763D02*
X1490513D01*
X310490Y821840D02*
Y842160D01*
X343510Y821840D02*
Y842160D01*
X310490D02*
X343510D01*
X310490Y821840D02*
X343510D01*
Y846840D02*
Y867160D01*
X310490Y846840D02*
Y867160D01*
Y846840D02*
X343510D01*
X310490Y867160D02*
X343510D01*
X563840Y645005D02*
X584160D01*
X563840Y678025D02*
X584160D01*
X563840Y645005D02*
Y678025D01*
X584160Y645005D02*
Y678025D01*
X766840Y645005D02*
X787160D01*
X766840Y678025D02*
X787160D01*
X766840Y645005D02*
Y678025D01*
X787160Y645005D02*
Y678025D01*
X969840Y645005D02*
X990160D01*
X969840Y678025D02*
X990160D01*
X969840Y645005D02*
Y678025D01*
X990160Y645005D02*
Y678025D01*
X1172840Y645005D02*
X1193160D01*
X1172840Y678025D02*
X1193160D01*
X1172840Y645005D02*
Y678025D01*
X1193160Y645005D02*
Y678025D01*
X335783Y362903D02*
X340863D01*
X335783Y388303D02*
X340863D01*
Y362903D02*
Y388303D01*
X335783Y362903D02*
Y388303D01*
X340863Y362903D02*
X431412D01*
X340863Y388303D02*
X431412D01*
Y362903D02*
Y388303D01*
X340863Y362903D02*
Y388303D01*
X302003Y245203D02*
Y357203D01*
X250003Y245203D02*
Y357203D01*
X302003D01*
X250003Y245203D02*
X302003D01*
X135783Y362903D02*
X140863D01*
X135783Y388303D02*
X140863D01*
Y362903D02*
Y388303D01*
X135783Y362903D02*
Y388303D01*
X140863Y362903D02*
X231412D01*
X140863Y388303D02*
X231412D01*
Y362903D02*
Y388303D01*
X140863Y362903D02*
Y388303D01*
X244000Y758000D02*
Y782000D01*
X292000Y758000D02*
Y782000D01*
X244000D02*
X292000D01*
X244000Y758000D02*
X292000D01*
X244000Y787000D02*
Y811000D01*
X292000Y787000D02*
Y811000D01*
X244000D02*
X292000D01*
X244000Y787000D02*
X292000D01*
X1537000Y245203D02*
Y357203D01*
X1589000Y245203D02*
Y357203D01*
X1537000Y245203D02*
X1589000D01*
X1537000Y357203D02*
X1589000D01*
X1129403Y519603D02*
Y584603D01*
X606803Y519603D02*
Y584603D01*
Y519603D02*
X1129403D01*
X606803Y584603D02*
X1129403D01*
X540863Y362903D02*
Y388303D01*
X631412Y362903D02*
Y388303D01*
X540863D02*
X631412D01*
X540863Y362903D02*
X631412D01*
X535783D02*
Y388303D01*
X540863Y362903D02*
Y388303D01*
X535783D02*
X540863D01*
X535783Y362903D02*
X540863D01*
X450003Y245203D02*
X502003D01*
X450003Y357203D02*
X502003D01*
X450003Y245203D02*
Y357203D01*
X502003Y245203D02*
Y357203D01*
X740863Y362903D02*
Y388303D01*
X831412Y362903D02*
Y388303D01*
X740863D02*
X831412D01*
X740863Y362903D02*
X831412D01*
X735783D02*
Y388303D01*
X740863Y362903D02*
Y388303D01*
X735783D02*
X740863D01*
X735783Y362903D02*
X740863D01*
X1250003Y245203D02*
X1302003D01*
X1250003Y357203D02*
X1302003D01*
X1250003Y245203D02*
Y357203D01*
X1302003Y245203D02*
Y357203D01*
X850003Y245203D02*
X902003D01*
X850003Y357203D02*
X902003D01*
X850003Y245203D02*
Y357203D01*
X902003Y245203D02*
Y357203D01*
X1050003Y245203D02*
X1102003D01*
X1050003Y357203D02*
X1102003D01*
X1050003Y245203D02*
Y357203D01*
X1102003Y245203D02*
Y357203D01*
X1140863Y362903D02*
Y388303D01*
X1231412Y362903D02*
Y388303D01*
X1140863D02*
X1231412D01*
X1140863Y362903D02*
X1231412D01*
X1135783D02*
Y388303D01*
X1140863Y362903D02*
Y388303D01*
X1135783D02*
X1140863D01*
X1135783Y362903D02*
X1140863D01*
X1340863D02*
Y388303D01*
X1431412Y362903D02*
Y388303D01*
X1340863D02*
X1431412D01*
X1340863Y362903D02*
X1431412D01*
X1335783D02*
Y388303D01*
X1340863Y362903D02*
Y388303D01*
X1335783D02*
X1340863D01*
X1335783Y362903D02*
X1340863D01*
X1450003Y245203D02*
X1502003D01*
X1450003Y357203D02*
X1502003D01*
X1450003Y245203D02*
Y357203D01*
X1502003Y245203D02*
Y357203D01*
X940863Y362903D02*
Y388303D01*
X1031412Y362903D02*
Y388303D01*
X940863D02*
X1031412D01*
X940863Y362903D02*
X1031412D01*
X935783D02*
Y388303D01*
X940863Y362903D02*
Y388303D01*
X935783D02*
X940863D01*
X935783Y362903D02*
X940863D01*
X650003Y245203D02*
X702003D01*
X650003Y357203D02*
X702003D01*
X650003Y245203D02*
Y357203D01*
X702003Y245203D02*
Y357203D01*
X876003Y36003D02*
X1648003D01*
X876003Y136003D02*
X1648003D01*
Y36003D02*
Y136003D01*
X876003Y36003D02*
Y136003D01*
X76003Y36003D02*
X848003D01*
X76003Y136003D02*
X848003D01*
Y36003D02*
Y136003D01*
X76003Y36003D02*
Y136003D01*
X1102738Y591531D02*
X1112736D01*
X1102738Y593625D02*
X1112736D01*
X1102738D02*
X1112736Y600291D01*
X1102738D02*
X1112736D01*
X1102738Y603052D02*
X1112736Y606861D01*
X1102738Y610669D02*
X1112736Y606861D01*
X1116068Y611955D02*
Y619572D01*
X1105118Y627999D02*
X1104166Y627523D01*
X1103214Y626571D01*
X1102738Y625619D01*
Y623714D01*
X1103214Y622762D01*
X1104166Y621810D01*
X1105118Y621334D01*
X1106547Y620858D01*
X1108927D01*
X1110356Y621334D01*
X1111308Y621810D01*
X1112260Y622762D01*
X1112736Y623714D01*
Y625619D01*
X1112260Y626571D01*
X1111308Y627523D01*
X1110356Y627999D01*
X1102738Y630808D02*
X1112736D01*
X1102738Y637473D02*
X1112736D01*
X1107499Y630808D02*
Y637473D01*
X1083051Y598672D02*
X1082099Y598196D01*
X1081147Y597244D01*
X1080671Y596292D01*
Y594387D01*
X1081147Y593435D01*
X1082099Y592483D01*
X1083051Y592007D01*
X1084479Y591531D01*
X1086860D01*
X1088288Y592007D01*
X1089240Y592483D01*
X1090192Y593435D01*
X1090668Y594387D01*
Y596292D01*
X1090192Y597244D01*
X1089240Y598196D01*
X1088288Y598672D01*
X1086860D01*
Y596292D02*
Y598672D01*
X1085908Y600957D02*
Y605242D01*
X1085432Y606670D01*
X1084956Y607146D01*
X1084003Y607622D01*
X1082575D01*
X1081623Y607146D01*
X1081147Y606670D01*
X1080671Y605242D01*
Y600957D01*
X1090668D01*
X1080671Y609860D02*
X1090668D01*
X1080671Y614811D02*
X1081147Y613859D01*
X1082099Y612907D01*
X1083051Y612431D01*
X1084479Y611955D01*
X1086860D01*
X1088288Y612431D01*
X1089240Y612907D01*
X1090192Y613859D01*
X1090668Y614811D01*
Y616716D01*
X1090192Y617668D01*
X1089240Y618620D01*
X1088288Y619096D01*
X1086860Y619572D01*
X1084479D01*
X1083051Y619096D01*
X1082099Y618620D01*
X1081147Y617668D01*
X1080671Y616716D01*
Y614811D01*
X1083051Y622381D02*
X1082575D01*
X1081623Y622857D01*
X1081147Y623333D01*
X1080671Y624286D01*
Y626190D01*
X1081147Y627142D01*
X1081623Y627618D01*
X1082575Y628094D01*
X1083527D01*
X1084479Y627618D01*
X1085908Y626666D01*
X1090668Y621905D01*
Y628570D01*
X1080671Y633664D02*
X1081147Y632236D01*
X1082575Y631284D01*
X1084956Y630808D01*
X1086384D01*
X1088764Y631284D01*
X1090192Y632236D01*
X1090668Y633664D01*
Y634617D01*
X1090192Y636045D01*
X1088764Y636997D01*
X1086384Y637473D01*
X1084956D01*
X1082575Y636997D01*
X1081147Y636045D01*
X1080671Y634617D01*
Y633664D01*
X624899Y595815D02*
X633469D01*
X629184Y591531D02*
Y600100D01*
X623471Y608765D02*
Y604004D01*
X627756Y603528D01*
X627279Y604004D01*
X626803Y605432D01*
Y606861D01*
X627279Y608289D01*
X628232Y609241D01*
X629660Y609717D01*
X630612D01*
X632040Y609241D01*
X632992Y608289D01*
X633469Y606861D01*
Y605432D01*
X632992Y604004D01*
X632516Y603528D01*
X631564Y603052D01*
X623471Y611955D02*
X633469Y615764D01*
X623471Y619572D02*
X633469Y615764D01*
X676651Y598672D02*
X675699Y598196D01*
X674747Y597244D01*
X674271Y596292D01*
Y594387D01*
X674747Y593435D01*
X675699Y592483D01*
X676651Y592007D01*
X678079Y591531D01*
X680460D01*
X681888Y592007D01*
X682840Y592483D01*
X683792Y593435D01*
X684268Y594387D01*
Y596292D01*
X683792Y597244D01*
X682840Y598196D01*
X681888Y598672D01*
X680460D01*
Y596292D02*
Y598672D01*
X674271Y600957D02*
X684268D01*
X674271D02*
X684268Y607622D01*
X674271D02*
X684268D01*
X674271Y610384D02*
X684268D01*
X674271D02*
Y613716D01*
X674747Y615145D01*
X675699Y616097D01*
X676651Y616573D01*
X678079Y617049D01*
X680460D01*
X681888Y616573D01*
X682840Y616097D01*
X683792Y615145D01*
X684268Y613716D01*
Y610384D01*
X650299Y595815D02*
X658868D01*
X654584Y591531D02*
Y600100D01*
X648871Y608765D02*
Y604004D01*
X653156Y603528D01*
X652679Y604004D01*
X652203Y605432D01*
Y606861D01*
X652679Y608289D01*
X653632Y609241D01*
X655060Y609717D01*
X656012D01*
X657440Y609241D01*
X658392Y608289D01*
X658868Y606861D01*
Y605432D01*
X658392Y604004D01*
X657916Y603528D01*
X656964Y603052D01*
X648871Y611955D02*
X658868Y615764D01*
X648871Y619572D02*
X658868Y615764D01*
X778251Y598672D02*
X777299Y598196D01*
X776347Y597244D01*
X775871Y596292D01*
Y594387D01*
X776347Y593435D01*
X777299Y592483D01*
X778251Y592007D01*
X779679Y591531D01*
X782060D01*
X783488Y592007D01*
X784440Y592483D01*
X785392Y593435D01*
X785869Y594387D01*
Y596292D01*
X785392Y597244D01*
X784440Y598196D01*
X783488Y598672D01*
X782060D01*
Y596292D02*
Y598672D01*
X775871Y600957D02*
X785869D01*
X775871D02*
X785869Y607622D01*
X775871D02*
X785869D01*
X775871Y610384D02*
X785869D01*
X775871D02*
Y613716D01*
X776347Y615145D01*
X777299Y616097D01*
X778251Y616573D01*
X779679Y617049D01*
X782060D01*
X783488Y616573D01*
X784440Y616097D01*
X785392Y615145D01*
X785869Y613716D01*
Y610384D01*
X750471Y591531D02*
X760469Y593911D01*
X750471Y596292D02*
X760469Y593911D01*
X750471Y596292D02*
X760469Y598672D01*
X750471Y601052D02*
X760469Y598672D01*
X750471Y603052D02*
X760469D01*
X750471Y609717D02*
X760469D01*
X755232Y603052D02*
Y609717D01*
X752851Y619620D02*
X751899Y619144D01*
X750947Y618192D01*
X750471Y617239D01*
Y615335D01*
X750947Y614383D01*
X751899Y613431D01*
X752851Y612955D01*
X754279Y612478D01*
X756660D01*
X758088Y612955D01*
X759040Y613431D01*
X759992Y614383D01*
X760469Y615335D01*
Y617239D01*
X759992Y618192D01*
X759040Y619144D01*
X758088Y619620D01*
X752851Y622905D02*
X752375D01*
X751423Y623381D01*
X750947Y623857D01*
X750471Y624809D01*
Y626714D01*
X750947Y627666D01*
X751423Y628142D01*
X752375Y628618D01*
X753327D01*
X754279Y628142D01*
X755708Y627190D01*
X760469Y622429D01*
Y629094D01*
X801271Y591531D02*
X811268Y593911D01*
X801271Y596292D02*
X811268Y593911D01*
X801271Y596292D02*
X811268Y598672D01*
X801271Y601052D02*
X811268Y598672D01*
X803651Y610193D02*
X802699Y609717D01*
X801747Y608765D01*
X801271Y607813D01*
Y605909D01*
X801747Y604956D01*
X802699Y604004D01*
X803651Y603528D01*
X805079Y603052D01*
X807460D01*
X808888Y603528D01*
X809840Y604004D01*
X810792Y604956D01*
X811268Y605909D01*
Y607813D01*
X810792Y608765D01*
X809840Y609717D01*
X808888Y610193D01*
X801271Y613002D02*
X811268D01*
X801271Y619667D02*
X811268D01*
X806032Y613002D02*
Y619667D01*
X803651Y622905D02*
X803175D01*
X802223Y623381D01*
X801747Y623857D01*
X801271Y624809D01*
Y626714D01*
X801747Y627666D01*
X802223Y628142D01*
X803175Y628618D01*
X804127D01*
X805079Y628142D01*
X806508Y627190D01*
X811268Y622429D01*
Y629094D01*
X725071Y591531D02*
X735069Y593911D01*
X725071Y596292D02*
X735069Y593911D01*
X725071Y596292D02*
X735069Y598672D01*
X725071Y601052D02*
X735069Y598672D01*
X725071Y603052D02*
X735069D01*
X725071Y609717D02*
X735069D01*
X729832Y603052D02*
Y609717D01*
X727451Y619620D02*
X726499Y619144D01*
X725547Y618192D01*
X725071Y617239D01*
Y615335D01*
X725547Y614383D01*
X726499Y613431D01*
X727451Y612955D01*
X728879Y612478D01*
X731260D01*
X732688Y612955D01*
X733640Y613431D01*
X734592Y614383D01*
X735069Y615335D01*
Y617239D01*
X734592Y618192D01*
X733640Y619144D01*
X732688Y619620D01*
X726975Y622429D02*
X726499Y623381D01*
X725071Y624809D01*
X735069D01*
X699671Y591531D02*
X709669Y593911D01*
X699671Y596292D02*
X709669Y593911D01*
X699671Y596292D02*
X709669Y598672D01*
X699671Y601052D02*
X709669Y598672D01*
X702051Y610193D02*
X701099Y609717D01*
X700147Y608765D01*
X699671Y607813D01*
Y605909D01*
X700147Y604956D01*
X701099Y604004D01*
X702051Y603528D01*
X703479Y603052D01*
X705860D01*
X707288Y603528D01*
X708240Y604004D01*
X709192Y604956D01*
X709669Y605909D01*
Y607813D01*
X709192Y608765D01*
X708240Y609717D01*
X707288Y610193D01*
X699671Y613002D02*
X709669D01*
X699671Y619668D02*
X709669D01*
X704432Y613002D02*
Y619668D01*
X701575Y622429D02*
X701099Y623381D01*
X699671Y624809D01*
X709669D01*
X826671Y597720D02*
Y591531D01*
X836668D01*
Y597720D01*
X831432Y591531D02*
Y595339D01*
X829051Y606527D02*
X828099Y606051D01*
X827147Y605099D01*
X826671Y604147D01*
Y602243D01*
X827147Y601290D01*
X828099Y600338D01*
X829051Y599862D01*
X830479Y599386D01*
X832860D01*
X834288Y599862D01*
X835240Y600338D01*
X836192Y601290D01*
X836668Y602243D01*
Y604147D01*
X836192Y605099D01*
X835240Y606051D01*
X834288Y606527D01*
X826671Y609336D02*
X836668D01*
X826671Y616002D02*
X836668D01*
X831432Y609336D02*
Y616002D01*
X826671Y619715D02*
Y624952D01*
X830479Y622095D01*
Y623524D01*
X830956Y624476D01*
X831432Y624952D01*
X832860Y625428D01*
X833812D01*
X835240Y624952D01*
X836192Y624000D01*
X836668Y622572D01*
Y621143D01*
X836192Y619715D01*
X835716Y619239D01*
X834764Y618763D01*
X877471Y591531D02*
X887468Y593911D01*
X877471Y596292D02*
X887468Y593911D01*
X877471Y596292D02*
X887468Y598672D01*
X877471Y601052D02*
X887468Y598672D01*
X879851Y610193D02*
X878899Y609717D01*
X877947Y608765D01*
X877471Y607813D01*
Y605909D01*
X877947Y604956D01*
X878899Y604004D01*
X879851Y603528D01*
X881279Y603052D01*
X883660D01*
X885088Y603528D01*
X886040Y604004D01*
X886992Y604956D01*
X887468Y605909D01*
Y607813D01*
X886992Y608765D01*
X886040Y609717D01*
X885088Y610193D01*
X877471Y613002D02*
X887468D01*
X877471Y619667D02*
X887468D01*
X882232Y613002D02*
Y619667D01*
X877471Y623381D02*
Y628618D01*
X881279Y625761D01*
Y627190D01*
X881756Y628142D01*
X882232Y628618D01*
X883660Y629094D01*
X884612D01*
X886040Y628618D01*
X886992Y627666D01*
X887468Y626237D01*
Y624809D01*
X886992Y623381D01*
X886516Y622905D01*
X885564Y622429D01*
X902871Y597720D02*
Y591531D01*
X912868D01*
Y597720D01*
X907632Y591531D02*
Y595339D01*
X905251Y606527D02*
X904299Y606051D01*
X903347Y605099D01*
X902871Y604147D01*
Y602243D01*
X903347Y601290D01*
X904299Y600338D01*
X905251Y599862D01*
X906679Y599386D01*
X909060D01*
X910488Y599862D01*
X911440Y600338D01*
X912392Y601290D01*
X912868Y602243D01*
Y604147D01*
X912392Y605099D01*
X911440Y606051D01*
X910488Y606527D01*
X902871Y609336D02*
X912868D01*
X902871Y616002D02*
X912868D01*
X907632Y609336D02*
Y616002D01*
X902871Y623524D02*
X909536Y618763D01*
Y625904D01*
X902871Y623524D02*
X912868D01*
X928271Y597720D02*
Y591531D01*
X938269D01*
Y597720D01*
X933032Y591531D02*
Y595339D01*
X930651Y606527D02*
X929699Y606051D01*
X928747Y605099D01*
X928271Y604147D01*
Y602243D01*
X928747Y601290D01*
X929699Y600338D01*
X930651Y599862D01*
X932079Y599386D01*
X934460D01*
X935888Y599862D01*
X936840Y600338D01*
X937792Y601290D01*
X938269Y602243D01*
Y604147D01*
X937792Y605099D01*
X936840Y606051D01*
X935888Y606527D01*
X928271Y609336D02*
X938269D01*
X928271Y616002D02*
X938269D01*
X933032Y609336D02*
Y616002D01*
X928271Y623524D02*
X934936Y618763D01*
Y625904D01*
X928271Y623524D02*
X938269D01*
X981451Y598672D02*
X980499Y598196D01*
X979547Y597244D01*
X979071Y596292D01*
Y594387D01*
X979547Y593435D01*
X980499Y592483D01*
X981451Y592007D01*
X982879Y591531D01*
X985260D01*
X986688Y592007D01*
X987640Y592483D01*
X988592Y593435D01*
X989069Y594387D01*
Y596292D01*
X988592Y597244D01*
X987640Y598196D01*
X986688Y598672D01*
X985260D01*
Y596292D02*
Y598672D01*
X979071Y600957D02*
X989069D01*
X979071D02*
X989069Y607622D01*
X979071D02*
X989069D01*
X979071Y610384D02*
X989069D01*
X979071D02*
Y613716D01*
X979547Y615145D01*
X980499Y616097D01*
X981451Y616573D01*
X982879Y617049D01*
X985260D01*
X986688Y616573D01*
X987640Y616097D01*
X988592Y615145D01*
X989069Y613716D01*
Y610384D01*
X950338Y591531D02*
X960336D01*
X950338Y593625D02*
X960336D01*
X950338D02*
Y596958D01*
X950814Y598386D01*
X951766Y599338D01*
X952719Y599814D01*
X954147Y600291D01*
X956527D01*
X957955Y599814D01*
X958908Y599338D01*
X959860Y598386D01*
X960336Y596958D01*
Y593625D01*
X963669Y602528D02*
Y610146D01*
X951766Y618096D02*
X950814Y617144D01*
X950338Y615716D01*
Y613811D01*
X950814Y612383D01*
X951766Y611431D01*
X952719D01*
X953671Y611907D01*
X954147Y612383D01*
X954623Y613335D01*
X955575Y616192D01*
X956051Y617144D01*
X956527Y617620D01*
X957479Y618096D01*
X958908D01*
X959860Y617144D01*
X960336Y615716D01*
Y613811D01*
X959860Y612383D01*
X958908Y611431D01*
X952719Y627475D02*
X951766Y626999D01*
X950814Y626047D01*
X950338Y625095D01*
Y623190D01*
X950814Y622238D01*
X951766Y621286D01*
X952719Y620810D01*
X954147Y620334D01*
X956527D01*
X957955Y620810D01*
X958908Y621286D01*
X959860Y622238D01*
X960336Y623190D01*
Y625095D01*
X959860Y626047D01*
X958908Y626999D01*
X957955Y627475D01*
X1006851Y598672D02*
X1005899Y598196D01*
X1004947Y597244D01*
X1004471Y596292D01*
Y594387D01*
X1004947Y593435D01*
X1005899Y592483D01*
X1006851Y592007D01*
X1008279Y591531D01*
X1010660D01*
X1012088Y592007D01*
X1013040Y592483D01*
X1013992Y593435D01*
X1014469Y594387D01*
Y596292D01*
X1013992Y597244D01*
X1013040Y598196D01*
X1012088Y598672D01*
X1010660D01*
Y596292D02*
Y598672D01*
X1009708Y600957D02*
Y605242D01*
X1009232Y606670D01*
X1008755Y607146D01*
X1007803Y607622D01*
X1006375D01*
X1005423Y607146D01*
X1004947Y606670D01*
X1004471Y605242D01*
Y600957D01*
X1014469D01*
X1004471Y609860D02*
X1014469D01*
X1004471Y614811D02*
X1004947Y613859D01*
X1005899Y612907D01*
X1006851Y612431D01*
X1008279Y611955D01*
X1010660D01*
X1012088Y612431D01*
X1013040Y612907D01*
X1013992Y613859D01*
X1014469Y614811D01*
Y616716D01*
X1013992Y617668D01*
X1013040Y618620D01*
X1012088Y619096D01*
X1010660Y619572D01*
X1008279D01*
X1006851Y619096D01*
X1005899Y618620D01*
X1004947Y617668D01*
X1004471Y616716D01*
Y614811D01*
X1006375Y621905D02*
X1005899Y622857D01*
X1004471Y624286D01*
X1014469D01*
X1006851Y629713D02*
X1006375D01*
X1005423Y630189D01*
X1004947Y630665D01*
X1004471Y631617D01*
Y633522D01*
X1004947Y634474D01*
X1005423Y634950D01*
X1006375Y635426D01*
X1007327D01*
X1008279Y634950D01*
X1009708Y633998D01*
X1014469Y629237D01*
Y635902D01*
X1032251Y598672D02*
X1031299Y598196D01*
X1030347Y597244D01*
X1029871Y596292D01*
Y594387D01*
X1030347Y593435D01*
X1031299Y592483D01*
X1032251Y592007D01*
X1033679Y591531D01*
X1036060D01*
X1037488Y592007D01*
X1038440Y592483D01*
X1039392Y593435D01*
X1039868Y594387D01*
Y596292D01*
X1039392Y597244D01*
X1038440Y598196D01*
X1037488Y598672D01*
X1036060D01*
Y596292D02*
Y598672D01*
X1029871Y600957D02*
X1039868D01*
X1029871D02*
X1039868Y607622D01*
X1029871D02*
X1039868D01*
X1029871Y610384D02*
X1039868D01*
X1029871D02*
Y613716D01*
X1030347Y615145D01*
X1031299Y616097D01*
X1032251Y616573D01*
X1033679Y617049D01*
X1036060D01*
X1037488Y616573D01*
X1038440Y616097D01*
X1039392Y615145D01*
X1039868Y613716D01*
Y610384D01*
X1057651Y598672D02*
X1056699Y598196D01*
X1055747Y597244D01*
X1055271Y596292D01*
Y594387D01*
X1055747Y593435D01*
X1056699Y592483D01*
X1057651Y592007D01*
X1059079Y591531D01*
X1061460D01*
X1062888Y592007D01*
X1063840Y592483D01*
X1064792Y593435D01*
X1065268Y594387D01*
Y596292D01*
X1064792Y597244D01*
X1063840Y598196D01*
X1062888Y598672D01*
X1061460D01*
Y596292D02*
Y598672D01*
X1060508Y600957D02*
Y605242D01*
X1060032Y606670D01*
X1059556Y607146D01*
X1058603Y607622D01*
X1057175D01*
X1056223Y607146D01*
X1055747Y606670D01*
X1055271Y605242D01*
Y600957D01*
X1065268D01*
X1055271Y609860D02*
X1065268D01*
X1055271Y614811D02*
X1055747Y613859D01*
X1056699Y612907D01*
X1057651Y612431D01*
X1059079Y611955D01*
X1061460D01*
X1062888Y612431D01*
X1063840Y612907D01*
X1064792Y613859D01*
X1065268Y614811D01*
Y616716D01*
X1064792Y617668D01*
X1063840Y618620D01*
X1062888Y619096D01*
X1061460Y619572D01*
X1059079D01*
X1057651Y619096D01*
X1056699Y618620D01*
X1055747Y617668D01*
X1055271Y616716D01*
Y614811D01*
X1057175Y621905D02*
X1056699Y622857D01*
X1055271Y624286D01*
X1065268D01*
X1056699Y634950D02*
X1055747Y634474D01*
X1055271Y633046D01*
Y632093D01*
X1055747Y630665D01*
X1057175Y629713D01*
X1059556Y629237D01*
X1061936D01*
X1063840Y629713D01*
X1064792Y630665D01*
X1065268Y632093D01*
Y632569D01*
X1064792Y633998D01*
X1063840Y634950D01*
X1062412Y635426D01*
X1061936D01*
X1060508Y634950D01*
X1059556Y633998D01*
X1059079Y632569D01*
Y632093D01*
X1059556Y630665D01*
X1060508Y629713D01*
X1061936Y629237D01*
X854451Y598672D02*
X853499Y598196D01*
X852547Y597244D01*
X852071Y596292D01*
Y594387D01*
X852547Y593435D01*
X853499Y592483D01*
X854451Y592007D01*
X855879Y591531D01*
X858260D01*
X859688Y592007D01*
X860640Y592483D01*
X861592Y593435D01*
X862068Y594387D01*
Y596292D01*
X861592Y597244D01*
X860640Y598196D01*
X859688Y598672D01*
X858260D01*
Y596292D02*
Y598672D01*
X852071Y600957D02*
X862068D01*
X852071D02*
X862068Y607622D01*
X852071D02*
X862068D01*
X852071Y610384D02*
X862068D01*
X852071D02*
Y613716D01*
X852547Y615145D01*
X853499Y616097D01*
X854451Y616573D01*
X855879Y617049D01*
X858260D01*
X859688Y616573D01*
X860640Y616097D01*
X861592Y615145D01*
X862068Y613716D01*
Y610384D01*
X1030585Y473383D02*
X1029633Y472906D01*
X1028680Y471954D01*
X1028204Y471002D01*
Y469098D01*
X1028680Y468146D01*
X1029633Y467193D01*
X1030585Y466717D01*
X1032013Y466241D01*
X1034393D01*
X1035822Y466717D01*
X1036774Y467193D01*
X1037726Y468146D01*
X1038202Y469098D01*
Y471002D01*
X1037726Y471954D01*
X1036774Y472906D01*
X1035822Y473383D01*
X1034393D01*
Y471002D02*
Y473383D01*
X1033441Y475668D02*
Y479953D01*
X1032965Y481381D01*
X1032489Y481857D01*
X1031537Y482333D01*
X1030109D01*
X1029157Y481857D01*
X1028680Y481381D01*
X1028204Y479953D01*
Y475668D01*
X1038202D01*
X1028204Y484571D02*
X1038202D01*
X1028204Y489522D02*
X1028680Y488570D01*
X1029633Y487618D01*
X1030585Y487141D01*
X1032013Y486665D01*
X1034393D01*
X1035822Y487141D01*
X1036774Y487618D01*
X1037726Y488570D01*
X1038202Y489522D01*
Y491426D01*
X1037726Y492379D01*
X1036774Y493331D01*
X1035822Y493807D01*
X1034393Y494283D01*
X1032013D01*
X1030585Y493807D01*
X1029633Y493331D01*
X1028680Y492379D01*
X1028204Y491426D01*
Y489522D01*
X1030109Y496616D02*
X1029633Y497568D01*
X1028204Y498996D01*
X1038202D01*
X1028204Y504900D02*
Y510137D01*
X1032013Y507280D01*
Y508708D01*
X1032489Y509660D01*
X1032965Y510137D01*
X1034393Y510613D01*
X1035346D01*
X1036774Y510137D01*
X1037726Y509184D01*
X1038202Y507756D01*
Y506328D01*
X1037726Y504900D01*
X1037250Y504424D01*
X1036298Y503947D01*
X1055985Y473859D02*
X1055033Y473383D01*
X1054081Y472430D01*
X1053604Y471478D01*
Y469574D01*
X1054081Y468622D01*
X1055033Y467669D01*
X1055985Y467193D01*
X1057413Y466717D01*
X1059793D01*
X1061222Y467193D01*
X1062174Y467669D01*
X1063126Y468622D01*
X1063602Y469574D01*
Y471478D01*
X1063126Y472430D01*
X1062174Y473383D01*
X1061222Y473859D01*
X1059793D01*
Y471478D02*
Y473859D01*
X1058841Y476144D02*
Y480429D01*
X1058365Y481857D01*
X1057889Y482333D01*
X1056937Y482809D01*
X1055509D01*
X1054557Y482333D01*
X1054081Y481857D01*
X1053604Y480429D01*
Y476144D01*
X1063602D01*
X1053604Y485047D02*
X1063602D01*
X1053604Y489998D02*
X1054081Y489046D01*
X1055033Y488094D01*
X1055985Y487618D01*
X1057413Y487141D01*
X1059793D01*
X1061222Y487618D01*
X1062174Y488094D01*
X1063126Y489046D01*
X1063602Y489998D01*
Y491902D01*
X1063126Y492855D01*
X1062174Y493807D01*
X1061222Y494283D01*
X1059793Y494759D01*
X1057413D01*
X1055985Y494283D01*
X1055033Y493807D01*
X1054081Y492855D01*
X1053604Y491902D01*
Y489998D01*
X1055509Y497092D02*
X1055033Y498044D01*
X1053604Y499472D01*
X1063602D01*
X1056937Y510613D02*
X1058365Y510137D01*
X1059317Y509184D01*
X1059793Y507756D01*
Y507280D01*
X1059317Y505852D01*
X1058365Y504900D01*
X1056937Y504424D01*
X1056461D01*
X1055033Y504900D01*
X1054081Y505852D01*
X1053604Y507280D01*
Y507756D01*
X1054081Y509184D01*
X1055033Y510137D01*
X1056937Y510613D01*
X1059317D01*
X1061698Y510137D01*
X1063126Y509184D01*
X1063602Y507756D01*
Y506804D01*
X1063126Y505376D01*
X1062174Y504900D01*
X1106785Y492236D02*
X1105833Y491760D01*
X1104881Y490807D01*
X1104404Y489855D01*
Y487951D01*
X1104881Y486999D01*
X1105833Y486046D01*
X1106785Y485570D01*
X1108213Y485094D01*
X1110593D01*
X1112022Y485570D01*
X1112974Y486046D01*
X1113926Y486999D01*
X1114402Y487951D01*
Y489855D01*
X1113926Y490807D01*
X1112974Y491760D01*
X1112022Y492236D01*
X1110593D01*
Y489855D02*
Y492236D01*
X1104404Y494521D02*
X1114402D01*
X1104404D02*
X1114402Y501186D01*
X1104404D02*
X1114402D01*
X1104404Y503947D02*
X1114402D01*
X1104404D02*
Y507280D01*
X1104881Y508708D01*
X1105833Y509660D01*
X1106785Y510137D01*
X1108213Y510613D01*
X1110593D01*
X1112022Y510137D01*
X1112974Y509660D01*
X1113926Y508708D01*
X1114402Y507280D01*
Y503947D01*
X1081385Y472288D02*
X1080433Y471811D01*
X1079481Y470859D01*
X1079004Y469907D01*
Y468003D01*
X1079481Y467051D01*
X1080433Y466098D01*
X1081385Y465622D01*
X1082813Y465146D01*
X1085193D01*
X1086622Y465622D01*
X1087574Y466098D01*
X1088526Y467051D01*
X1089002Y468003D01*
Y469907D01*
X1088526Y470859D01*
X1087574Y471811D01*
X1086622Y472288D01*
X1085193D01*
Y469907D02*
Y472288D01*
X1084241Y474573D02*
Y478858D01*
X1083765Y480286D01*
X1083289Y480762D01*
X1082337Y481238D01*
X1080909D01*
X1079957Y480762D01*
X1079481Y480286D01*
X1079004Y478858D01*
Y474573D01*
X1089002D01*
X1079004Y483476D02*
X1089002D01*
X1079004Y488427D02*
X1079481Y487475D01*
X1080433Y486523D01*
X1081385Y486047D01*
X1082813Y485570D01*
X1085193D01*
X1086622Y486047D01*
X1087574Y486523D01*
X1088526Y487475D01*
X1089002Y488427D01*
Y490331D01*
X1088526Y491283D01*
X1087574Y492236D01*
X1086622Y492712D01*
X1085193Y493188D01*
X1082813D01*
X1081385Y492712D01*
X1080433Y492236D01*
X1079481Y491283D01*
X1079004Y490331D01*
Y488427D01*
X1081385Y495997D02*
X1080909D01*
X1079957Y496473D01*
X1079481Y496949D01*
X1079004Y497901D01*
Y499805D01*
X1079481Y500758D01*
X1079957Y501234D01*
X1080909Y501710D01*
X1081861D01*
X1082813Y501234D01*
X1084241Y500282D01*
X1089002Y495521D01*
Y502186D01*
X1080433Y510137D02*
X1079481Y509660D01*
X1079004Y508232D01*
Y507280D01*
X1079481Y505852D01*
X1080909Y504900D01*
X1083289Y504424D01*
X1085670D01*
X1087574Y504900D01*
X1088526Y505852D01*
X1089002Y507280D01*
Y507756D01*
X1088526Y509184D01*
X1087574Y510137D01*
X1086146Y510613D01*
X1085670D01*
X1084241Y510137D01*
X1083289Y509184D01*
X1082813Y507756D01*
Y507280D01*
X1083289Y505852D01*
X1084241Y504900D01*
X1085670Y504424D01*
X826433Y478905D02*
X835002D01*
X830717Y474620D02*
Y483190D01*
X825004Y487094D02*
Y492331D01*
X828813Y489474D01*
Y490903D01*
X829289Y491855D01*
X829765Y492331D01*
X831193Y492807D01*
X832146D01*
X833574Y492331D01*
X834526Y491379D01*
X835002Y489950D01*
Y488522D01*
X834526Y487094D01*
X834050Y486618D01*
X833098Y486142D01*
X825004Y495045D02*
X835002Y498853D01*
X825004Y502662D02*
X835002Y498853D01*
X825004Y504900D02*
Y510137D01*
X828813Y507280D01*
Y508708D01*
X829289Y509660D01*
X829765Y510137D01*
X831193Y510613D01*
X832146D01*
X833574Y510137D01*
X834526Y509184D01*
X835002Y507756D01*
Y506328D01*
X834526Y504900D01*
X834050Y504424D01*
X833098Y503947D01*
X850404Y484189D02*
Y478000D01*
X860402D01*
Y484189D01*
X855165Y478000D02*
Y481809D01*
X852785Y492997D02*
X851833Y492521D01*
X850881Y491568D01*
X850404Y490616D01*
Y488712D01*
X850881Y487760D01*
X851833Y486808D01*
X852785Y486331D01*
X854213Y485855D01*
X856593D01*
X858022Y486331D01*
X858974Y486808D01*
X859926Y487760D01*
X860402Y488712D01*
Y490616D01*
X859926Y491568D01*
X858974Y492521D01*
X858022Y492997D01*
X850404Y495806D02*
X860402D01*
X850404Y502471D02*
X860402D01*
X855165Y495806D02*
Y502471D01*
X850404Y511898D02*
X860402Y507137D01*
X850404Y505232D02*
Y511898D01*
X903585Y477667D02*
X902633Y477191D01*
X901680Y476239D01*
X901204Y475287D01*
Y473383D01*
X901680Y472430D01*
X902633Y471478D01*
X903585Y471002D01*
X905013Y470526D01*
X907393D01*
X908822Y471002D01*
X909774Y471478D01*
X910726Y472430D01*
X911202Y473383D01*
Y475287D01*
X910726Y476239D01*
X909774Y477191D01*
X908822Y477667D01*
X907393D01*
Y475287D02*
Y477667D01*
X906441Y479953D02*
Y484237D01*
X905965Y485666D01*
X905489Y486142D01*
X904537Y486618D01*
X903109D01*
X902157Y486142D01*
X901680Y485666D01*
X901204Y484237D01*
Y479953D01*
X911202D01*
X901204Y488856D02*
X911202D01*
X901204Y493807D02*
X901680Y492855D01*
X902633Y491902D01*
X903585Y491426D01*
X905013Y490950D01*
X907393D01*
X908822Y491426D01*
X909774Y491902D01*
X910726Y492855D01*
X911202Y493807D01*
Y495711D01*
X910726Y496663D01*
X909774Y497616D01*
X908822Y498092D01*
X907393Y498568D01*
X905013D01*
X903585Y498092D01*
X902633Y497616D01*
X901680Y496663D01*
X901204Y495711D01*
Y493807D01*
X903109Y500900D02*
X902633Y501853D01*
X901204Y503281D01*
X911202D01*
X903109Y508232D02*
X902633Y509184D01*
X901204Y510613D01*
X911202D01*
X878185Y481190D02*
X877233Y480714D01*
X876281Y479762D01*
X875804Y478810D01*
Y476906D01*
X876281Y475953D01*
X877233Y475001D01*
X878185Y474525D01*
X879613Y474049D01*
X881993D01*
X883422Y474525D01*
X884374Y475001D01*
X885326Y475953D01*
X885802Y476906D01*
Y478810D01*
X885326Y479762D01*
X884374Y480714D01*
X883422Y481190D01*
X881993D01*
Y478810D02*
Y481190D01*
X881041Y483476D02*
Y487761D01*
X880565Y489189D01*
X880089Y489665D01*
X879137Y490141D01*
X877709D01*
X876757Y489665D01*
X876281Y489189D01*
X875804Y487761D01*
Y483476D01*
X885802D01*
X875804Y492379D02*
X885802D01*
X875804Y497330D02*
X876281Y496378D01*
X877233Y495425D01*
X878185Y494949D01*
X879613Y494473D01*
X881993D01*
X883422Y494949D01*
X884374Y495425D01*
X885326Y496378D01*
X885802Y497330D01*
Y499234D01*
X885326Y500186D01*
X884374Y501138D01*
X883422Y501615D01*
X881993Y502091D01*
X879613D01*
X878185Y501615D01*
X877233Y501138D01*
X876281Y500186D01*
X875804Y499234D01*
Y497330D01*
X879137Y510613D02*
X880565Y510137D01*
X881517Y509184D01*
X881993Y507756D01*
Y507280D01*
X881517Y505852D01*
X880565Y504900D01*
X879137Y504424D01*
X878661D01*
X877233Y504900D01*
X876281Y505852D01*
X875804Y507280D01*
Y507756D01*
X876281Y509184D01*
X877233Y510137D01*
X879137Y510613D01*
X881517D01*
X883898Y510137D01*
X885326Y509184D01*
X885802Y507756D01*
Y506804D01*
X885326Y505376D01*
X884374Y504900D01*
X979785Y480714D02*
X978833Y480238D01*
X977880Y479286D01*
X977404Y478334D01*
Y476430D01*
X977880Y475477D01*
X978833Y474525D01*
X979785Y474049D01*
X981213Y473573D01*
X983594D01*
X985022Y474049D01*
X985974Y474525D01*
X986926Y475477D01*
X987402Y476430D01*
Y478334D01*
X986926Y479286D01*
X985974Y480238D01*
X985022Y480714D01*
X983594D01*
Y478334D02*
Y480714D01*
X982641Y483000D02*
Y487284D01*
X982165Y488713D01*
X981689Y489189D01*
X980737Y489665D01*
X979309D01*
X978357Y489189D01*
X977880Y488713D01*
X977404Y487284D01*
Y483000D01*
X987402D01*
X977404Y491902D02*
X987402D01*
X977404Y496854D02*
X977880Y495902D01*
X978833Y494949D01*
X979785Y494473D01*
X981213Y493997D01*
X983594D01*
X985022Y494473D01*
X985974Y494949D01*
X986926Y495902D01*
X987402Y496854D01*
Y498758D01*
X986926Y499710D01*
X985974Y500662D01*
X985022Y501138D01*
X983594Y501615D01*
X981213D01*
X979785Y501138D01*
X978833Y500662D01*
X977880Y499710D01*
X977404Y498758D01*
Y496854D01*
Y509660D02*
Y504900D01*
X981689Y504424D01*
X981213Y504900D01*
X980737Y506328D01*
Y507756D01*
X981213Y509184D01*
X982165Y510137D01*
X983594Y510613D01*
X984546D01*
X985974Y510137D01*
X986926Y509184D01*
X987402Y507756D01*
Y506328D01*
X986926Y504900D01*
X986450Y504424D01*
X985498Y503947D01*
X1005185Y481190D02*
X1004233Y480714D01*
X1003280Y479762D01*
X1002804Y478810D01*
Y476906D01*
X1003280Y475953D01*
X1004233Y475001D01*
X1005185Y474525D01*
X1006613Y474049D01*
X1008994D01*
X1010422Y474525D01*
X1011374Y475001D01*
X1012326Y475953D01*
X1012802Y476906D01*
Y478810D01*
X1012326Y479762D01*
X1011374Y480714D01*
X1010422Y481190D01*
X1008994D01*
Y478810D02*
Y481190D01*
X1008041Y483476D02*
Y487761D01*
X1007565Y489189D01*
X1007089Y489665D01*
X1006137Y490141D01*
X1004709D01*
X1003757Y489665D01*
X1003280Y489189D01*
X1002804Y487761D01*
Y483476D01*
X1012802D01*
X1002804Y492379D02*
X1012802D01*
X1002804Y497330D02*
X1003280Y496378D01*
X1004233Y495425D01*
X1005185Y494949D01*
X1006613Y494473D01*
X1008994D01*
X1010422Y494949D01*
X1011374Y495425D01*
X1012326Y496378D01*
X1012802Y497330D01*
Y499234D01*
X1012326Y500186D01*
X1011374Y501138D01*
X1010422Y501615D01*
X1008994Y502091D01*
X1006613D01*
X1005185Y501615D01*
X1004233Y501138D01*
X1003280Y500186D01*
X1002804Y499234D01*
Y497330D01*
X1004233Y510137D02*
X1003280Y509660D01*
X1002804Y508232D01*
Y507280D01*
X1003280Y505852D01*
X1004709Y504900D01*
X1007089Y504424D01*
X1009470D01*
X1011374Y504900D01*
X1012326Y505852D01*
X1012802Y507280D01*
Y507756D01*
X1012326Y509184D01*
X1011374Y510137D01*
X1009946Y510613D01*
X1009470D01*
X1008041Y510137D01*
X1007089Y509184D01*
X1006613Y507756D01*
Y507280D01*
X1007089Y505852D01*
X1008041Y504900D01*
X1009470Y504424D01*
X950338Y475144D02*
X960336D01*
X951766Y483904D02*
X950814Y482952D01*
X950338Y481524D01*
Y479619D01*
X950814Y478191D01*
X951766Y477239D01*
X952719D01*
X953671Y477715D01*
X954147Y478191D01*
X954623Y479143D01*
X955575Y482000D01*
X956051Y482952D01*
X956527Y483428D01*
X957479Y483904D01*
X958908D01*
X959860Y482952D01*
X960336Y481524D01*
Y479619D01*
X959860Y478191D01*
X958908Y477239D01*
X963669Y486142D02*
Y493759D01*
X951766Y501710D02*
X950814Y500758D01*
X950338Y499329D01*
Y497425D01*
X950814Y495997D01*
X951766Y495045D01*
X952719D01*
X953671Y495521D01*
X954147Y495997D01*
X954623Y496949D01*
X955575Y499805D01*
X956051Y500758D01*
X956527Y501234D01*
X957479Y501710D01*
X958908D01*
X959860Y500758D01*
X960336Y499329D01*
Y497425D01*
X959860Y495997D01*
X958908Y495045D01*
X950338Y503947D02*
X960336D01*
X950338D02*
Y507280D01*
X950814Y508708D01*
X951766Y509660D01*
X952719Y510137D01*
X954147Y510613D01*
X956527D01*
X957955Y510137D01*
X958908Y509660D01*
X959860Y508708D01*
X960336Y507280D01*
Y503947D01*
X928985Y492236D02*
X928033Y491760D01*
X927081Y490807D01*
X926604Y489855D01*
Y487951D01*
X927081Y486999D01*
X928033Y486046D01*
X928985Y485570D01*
X930413Y485094D01*
X932794D01*
X934222Y485570D01*
X935174Y486046D01*
X936126Y486999D01*
X936602Y487951D01*
Y489855D01*
X936126Y490807D01*
X935174Y491760D01*
X934222Y492236D01*
X932794D01*
Y489855D02*
Y492236D01*
X926604Y494521D02*
X936602D01*
X926604D02*
X936602Y501186D01*
X926604D02*
X936602D01*
X926604Y503947D02*
X936602D01*
X926604D02*
Y507280D01*
X927081Y508708D01*
X928033Y509660D01*
X928985Y510137D01*
X930413Y510613D01*
X932794D01*
X934222Y510137D01*
X935174Y509660D01*
X936126Y508708D01*
X936602Y507280D01*
Y503947D01*
X725785Y492236D02*
X724833Y491760D01*
X723880Y490807D01*
X723404Y489855D01*
Y487951D01*
X723880Y486999D01*
X724833Y486046D01*
X725785Y485570D01*
X727213Y485094D01*
X729594D01*
X731022Y485570D01*
X731974Y486046D01*
X732926Y486999D01*
X733402Y487951D01*
Y489855D01*
X732926Y490807D01*
X731974Y491760D01*
X731022Y492236D01*
X729594D01*
Y489855D02*
Y492236D01*
X723404Y494521D02*
X733402D01*
X723404D02*
X733402Y501186D01*
X723404D02*
X733402D01*
X723404Y503947D02*
X733402D01*
X723404D02*
Y507280D01*
X723880Y508708D01*
X724833Y509660D01*
X725785Y510137D01*
X727213Y510613D01*
X729594D01*
X731022Y510137D01*
X731974Y509660D01*
X732926Y508708D01*
X733402Y507280D01*
Y503947D01*
X748804Y482428D02*
Y476239D01*
X758802D01*
Y482428D01*
X753565Y476239D02*
Y480048D01*
X751185Y491236D02*
X750233Y490760D01*
X749280Y489808D01*
X748804Y488856D01*
Y486951D01*
X749280Y485999D01*
X750233Y485047D01*
X751185Y484571D01*
X752613Y484095D01*
X754994D01*
X756422Y484571D01*
X757374Y485047D01*
X758326Y485999D01*
X758802Y486951D01*
Y488856D01*
X758326Y489808D01*
X757374Y490760D01*
X756422Y491236D01*
X748804Y494045D02*
X758802D01*
X748804Y500710D02*
X758802D01*
X753565Y494045D02*
Y500710D01*
X748804Y508232D02*
X755470Y503471D01*
Y510613D01*
X748804Y508232D02*
X758802D01*
X799604Y483380D02*
Y477191D01*
X809602D01*
Y483380D01*
X804365Y477191D02*
Y481000D01*
X801985Y492188D02*
X801033Y491712D01*
X800080Y490760D01*
X799604Y489808D01*
Y487903D01*
X800080Y486951D01*
X801033Y485999D01*
X801985Y485523D01*
X803413Y485047D01*
X805794D01*
X807222Y485523D01*
X808174Y485999D01*
X809126Y486951D01*
X809602Y487903D01*
Y489808D01*
X809126Y490760D01*
X808174Y491712D01*
X807222Y492188D01*
X799604Y494997D02*
X809602D01*
X799604Y501662D02*
X809602D01*
X804365Y494997D02*
Y501662D01*
X801033Y510137D02*
X800080Y509660D01*
X799604Y508232D01*
Y507280D01*
X800080Y505852D01*
X801509Y504900D01*
X803889Y504424D01*
X806270D01*
X808174Y504900D01*
X809126Y505852D01*
X809602Y507280D01*
Y507756D01*
X809126Y509184D01*
X808174Y510137D01*
X806746Y510613D01*
X806270D01*
X804841Y510137D01*
X803889Y509184D01*
X803413Y507756D01*
Y507280D01*
X803889Y505852D01*
X804841Y504900D01*
X806270Y504424D01*
X774204Y482904D02*
Y476715D01*
X784202D01*
Y482904D01*
X778965Y476715D02*
Y480524D01*
X776585Y491712D02*
X775633Y491236D01*
X774680Y490284D01*
X774204Y489332D01*
Y487427D01*
X774680Y486475D01*
X775633Y485523D01*
X776585Y485047D01*
X778013Y484571D01*
X780394D01*
X781822Y485047D01*
X782774Y485523D01*
X783726Y486475D01*
X784202Y487427D01*
Y489332D01*
X783726Y490284D01*
X782774Y491236D01*
X781822Y491712D01*
X774204Y494521D02*
X784202D01*
X774204Y501186D02*
X784202D01*
X778965Y494521D02*
Y501186D01*
X774204Y509660D02*
Y504900D01*
X778489Y504424D01*
X778013Y504900D01*
X777537Y506328D01*
Y507756D01*
X778013Y509184D01*
X778965Y510137D01*
X780394Y510613D01*
X781346D01*
X782774Y510137D01*
X783726Y509184D01*
X784202Y507756D01*
Y506328D01*
X783726Y504900D01*
X783250Y504424D01*
X782298Y503947D01*
X672604Y482904D02*
Y476715D01*
X682602D01*
Y482904D01*
X677365Y476715D02*
Y480524D01*
X674985Y491712D02*
X674033Y491236D01*
X673081Y490284D01*
X672604Y489332D01*
Y487427D01*
X673081Y486475D01*
X674033Y485523D01*
X674985Y485047D01*
X676413Y484571D01*
X678793D01*
X680222Y485047D01*
X681174Y485523D01*
X682126Y486475D01*
X682602Y487427D01*
Y489332D01*
X682126Y490284D01*
X681174Y491236D01*
X680222Y491712D01*
X672604Y494521D02*
X682602D01*
X672604Y501186D02*
X682602D01*
X677365Y494521D02*
Y501186D01*
X674985Y504424D02*
X674509D01*
X673557Y504900D01*
X673081Y505376D01*
X672604Y506328D01*
Y508232D01*
X673081Y509184D01*
X673557Y509660D01*
X674509Y510137D01*
X675461D01*
X676413Y509660D01*
X677841Y508708D01*
X682602Y503947D01*
Y510613D01*
X698004Y482904D02*
Y476715D01*
X708002D01*
Y482904D01*
X702765Y476715D02*
Y480524D01*
X700385Y491712D02*
X699433Y491236D01*
X698481Y490284D01*
X698004Y489332D01*
Y487427D01*
X698481Y486475D01*
X699433Y485523D01*
X700385Y485047D01*
X701813Y484571D01*
X704193D01*
X705622Y485047D01*
X706574Y485523D01*
X707526Y486475D01*
X708002Y487427D01*
Y489332D01*
X707526Y490284D01*
X706574Y491236D01*
X705622Y491712D01*
X698004Y494521D02*
X708002D01*
X698004Y501186D02*
X708002D01*
X702765Y494521D02*
Y501186D01*
X698004Y504900D02*
Y510137D01*
X701813Y507280D01*
Y508708D01*
X702289Y509660D01*
X702765Y510137D01*
X704193Y510613D01*
X705146D01*
X706574Y510137D01*
X707526Y509184D01*
X708002Y507756D01*
Y506328D01*
X707526Y504900D01*
X707050Y504424D01*
X706098Y503947D01*
X647204Y487189D02*
Y481000D01*
X657202D01*
Y487189D01*
X651965Y481000D02*
Y484809D01*
X649585Y495997D02*
X648633Y495521D01*
X647680Y494569D01*
X647204Y493616D01*
Y491712D01*
X647680Y490760D01*
X648633Y489808D01*
X649585Y489332D01*
X651013Y488856D01*
X653393D01*
X654822Y489332D01*
X655774Y489808D01*
X656726Y490760D01*
X657202Y491712D01*
Y493616D01*
X656726Y494569D01*
X655774Y495521D01*
X654822Y495997D01*
X647204Y498806D02*
X657202D01*
X647204Y505471D02*
X657202D01*
X651965Y498806D02*
Y505471D01*
X649109Y508232D02*
X648633Y509184D01*
X647204Y510613D01*
X657202D01*
X623233Y480476D02*
X631802D01*
X627517Y476191D02*
Y484761D01*
X621804Y488665D02*
Y493902D01*
X625613Y491045D01*
Y492474D01*
X626089Y493426D01*
X626565Y493902D01*
X627994Y494378D01*
X628946D01*
X630374Y493902D01*
X631326Y492950D01*
X631802Y491521D01*
Y490093D01*
X631326Y488665D01*
X630850Y488189D01*
X629898Y487713D01*
X625137Y496616D02*
X631802Y499472D01*
X625137Y502329D02*
X631802Y499472D01*
X621804Y504900D02*
Y510137D01*
X625613Y507280D01*
Y508708D01*
X626089Y509660D01*
X626565Y510137D01*
X627994Y510613D01*
X628946D01*
X630374Y510137D01*
X631326Y509184D01*
X631802Y507756D01*
Y506328D01*
X631326Y504900D01*
X630850Y504424D01*
X629898Y503947D01*
X927590Y886570D02*
X926638Y887522D01*
X925209Y887998D01*
X923305D01*
X921877Y887522D01*
X920925Y886570D01*
Y885617D01*
X921401Y884665D01*
X921877Y884189D01*
X922829Y883713D01*
X925686Y882761D01*
X926638Y882285D01*
X927114Y881809D01*
X927590Y880856D01*
Y879428D01*
X926638Y878476D01*
X925209Y878000D01*
X923305D01*
X921877Y878476D01*
X920925Y879428D01*
X932684Y887998D02*
X931732Y887522D01*
X930780Y886570D01*
X930303Y885617D01*
X929827Y884189D01*
Y881809D01*
X930303Y880380D01*
X930780Y879428D01*
X931732Y878476D01*
X932684Y878000D01*
X934588D01*
X935540Y878476D01*
X936493Y879428D01*
X936969Y880380D01*
X937445Y881809D01*
Y884189D01*
X936969Y885617D01*
X936493Y886570D01*
X935540Y887522D01*
X934588Y887998D01*
X932684D01*
X939778D02*
Y878000D01*
X945491D01*
X951347Y887998D02*
X946586Y881333D01*
X953727D01*
X951347Y887998D02*
Y878000D01*
X876590Y886570D02*
X875638Y887522D01*
X874209Y887998D01*
X872305D01*
X870877Y887522D01*
X869925Y886570D01*
Y885617D01*
X870401Y884665D01*
X870877Y884189D01*
X871829Y883713D01*
X874686Y882761D01*
X875638Y882285D01*
X876114Y881809D01*
X876590Y880856D01*
Y879428D01*
X875638Y878476D01*
X874209Y878000D01*
X872305D01*
X870877Y878476D01*
X869925Y879428D01*
X881684Y887998D02*
X880732Y887522D01*
X879780Y886570D01*
X879304Y885617D01*
X878828Y884189D01*
Y881809D01*
X879304Y880380D01*
X879780Y879428D01*
X880732Y878476D01*
X881684Y878000D01*
X883588D01*
X884540Y878476D01*
X885493Y879428D01*
X885969Y880380D01*
X886445Y881809D01*
Y884189D01*
X885969Y885617D01*
X885493Y886570D01*
X884540Y887522D01*
X883588Y887998D01*
X881684D01*
X888778D02*
Y878000D01*
X894491D01*
X896538Y887998D02*
X901775D01*
X898918Y884189D01*
X900347D01*
X901299Y883713D01*
X901775Y883237D01*
X902251Y881809D01*
Y880856D01*
X901775Y879428D01*
X900823Y878476D01*
X899395Y878000D01*
X897966D01*
X896538Y878476D01*
X896062Y878952D01*
X895586Y879904D01*
X825590Y886570D02*
X824638Y887522D01*
X823209Y887998D01*
X821305D01*
X819877Y887522D01*
X818925Y886570D01*
Y885617D01*
X819401Y884665D01*
X819877Y884189D01*
X820829Y883713D01*
X823686Y882761D01*
X824638Y882285D01*
X825114Y881809D01*
X825590Y880856D01*
Y879428D01*
X824638Y878476D01*
X823209Y878000D01*
X821305D01*
X819877Y878476D01*
X818925Y879428D01*
X830684Y887998D02*
X829732Y887522D01*
X828780Y886570D01*
X828304Y885617D01*
X827828Y884189D01*
Y881809D01*
X828304Y880380D01*
X828780Y879428D01*
X829732Y878476D01*
X830684Y878000D01*
X832588D01*
X833540Y878476D01*
X834493Y879428D01*
X834969Y880380D01*
X835445Y881809D01*
Y884189D01*
X834969Y885617D01*
X834493Y886570D01*
X833540Y887522D01*
X832588Y887998D01*
X830684D01*
X837778D02*
Y878000D01*
X843491D01*
X845062Y885617D02*
Y886094D01*
X845538Y887046D01*
X846014Y887522D01*
X846966Y887998D01*
X848871D01*
X849823Y887522D01*
X850299Y887046D01*
X850775Y886094D01*
Y885141D01*
X850299Y884189D01*
X849347Y882761D01*
X844586Y878000D01*
X851251D01*
X774590Y886570D02*
X773638Y887522D01*
X772209Y887998D01*
X770305D01*
X768877Y887522D01*
X767925Y886570D01*
Y885617D01*
X768401Y884665D01*
X768877Y884189D01*
X769829Y883713D01*
X772685Y882761D01*
X773638Y882285D01*
X774114Y881809D01*
X774590Y880856D01*
Y879428D01*
X773638Y878476D01*
X772209Y878000D01*
X770305D01*
X768877Y878476D01*
X767925Y879428D01*
X779684Y887998D02*
X778732Y887522D01*
X777780Y886570D01*
X777304Y885617D01*
X776827Y884189D01*
Y881809D01*
X777304Y880380D01*
X777780Y879428D01*
X778732Y878476D01*
X779684Y878000D01*
X781588D01*
X782541Y878476D01*
X783493Y879428D01*
X783969Y880380D01*
X784445Y881809D01*
Y884189D01*
X783969Y885617D01*
X783493Y886570D01*
X782541Y887522D01*
X781588Y887998D01*
X779684D01*
X786778D02*
Y878000D01*
X792491D01*
X793586Y886094D02*
X794538Y886570D01*
X795966Y887998D01*
Y878000D01*
X1394345Y30334D02*
Y20336D01*
Y30334D02*
X1397677D01*
X1399106Y29857D01*
X1400058Y28905D01*
X1400534Y27953D01*
X1401010Y26525D01*
Y24144D01*
X1400534Y22716D01*
X1400058Y21764D01*
X1399106Y20812D01*
X1397677Y20336D01*
X1394345D01*
X1410389Y27953D02*
X1409913Y28905D01*
X1408961Y29857D01*
X1408008Y30334D01*
X1406104D01*
X1405152Y29857D01*
X1404200Y28905D01*
X1403724Y27953D01*
X1403248Y26525D01*
Y24144D01*
X1403724Y22716D01*
X1404200Y21764D01*
X1405152Y20812D01*
X1406104Y20336D01*
X1408008D01*
X1408961Y20812D01*
X1409913Y21764D01*
X1410389Y22716D01*
X1416054Y30334D02*
X1415102Y29857D01*
X1414150Y28905D01*
X1413674Y27953D01*
X1413198Y26525D01*
Y24144D01*
X1413674Y22716D01*
X1414150Y21764D01*
X1415102Y20812D01*
X1416054Y20336D01*
X1417959D01*
X1418911Y20812D01*
X1419863Y21764D01*
X1420339Y22716D01*
X1420815Y24144D01*
Y26525D01*
X1420339Y27953D01*
X1419863Y28905D01*
X1418911Y29857D01*
X1417959Y30334D01*
X1416054D01*
X1423148Y17003D02*
X1430765D01*
X1437764Y30334D02*
X1433003D01*
X1432527Y26049D01*
X1433003Y26525D01*
X1434431Y27001D01*
X1435860D01*
X1437288Y26525D01*
X1438240Y25573D01*
X1438716Y24144D01*
Y23192D01*
X1438240Y21764D01*
X1437288Y20812D01*
X1435860Y20336D01*
X1434431D01*
X1433003Y20812D01*
X1432527Y21288D01*
X1432051Y22240D01*
X1294928Y30334D02*
Y20336D01*
Y30334D02*
X1298260D01*
X1299689Y29857D01*
X1300641Y28905D01*
X1301117Y27953D01*
X1301593Y26525D01*
Y24144D01*
X1301117Y22716D01*
X1300641Y21764D01*
X1299689Y20812D01*
X1298260Y20336D01*
X1294928D01*
X1310972Y27953D02*
X1310496Y28905D01*
X1309544Y29857D01*
X1308592Y30334D01*
X1306687D01*
X1305735Y29857D01*
X1304783Y28905D01*
X1304307Y27953D01*
X1303831Y26525D01*
Y24144D01*
X1304307Y22716D01*
X1304783Y21764D01*
X1305735Y20812D01*
X1306687Y20336D01*
X1308592D01*
X1309544Y20812D01*
X1310496Y21764D01*
X1310972Y22716D01*
X1313781Y30334D02*
Y20336D01*
X1315876Y17003D02*
X1323493D01*
X1330492Y30334D02*
X1325731D01*
X1325255Y26049D01*
X1325731Y26525D01*
X1327159Y27001D01*
X1328587D01*
X1330016Y26525D01*
X1330968Y25573D01*
X1331444Y24144D01*
Y23192D01*
X1330968Y21764D01*
X1330016Y20812D01*
X1328587Y20336D01*
X1327159D01*
X1325731Y20812D01*
X1325255Y21288D01*
X1324779Y22240D01*
X1194345Y30334D02*
Y20336D01*
Y30334D02*
X1197677D01*
X1199106Y29857D01*
X1200058Y28905D01*
X1200534Y27953D01*
X1201010Y26525D01*
Y24144D01*
X1200534Y22716D01*
X1200058Y21764D01*
X1199106Y20812D01*
X1197677Y20336D01*
X1194345D01*
X1210389Y27953D02*
X1209913Y28905D01*
X1208961Y29857D01*
X1208008Y30334D01*
X1206104D01*
X1205152Y29857D01*
X1204200Y28905D01*
X1203724Y27953D01*
X1203248Y26525D01*
Y24144D01*
X1203724Y22716D01*
X1204200Y21764D01*
X1205152Y20812D01*
X1206104Y20336D01*
X1208008D01*
X1208961Y20812D01*
X1209913Y21764D01*
X1210389Y22716D01*
X1216054Y30334D02*
X1215102Y29857D01*
X1214150Y28905D01*
X1213674Y27953D01*
X1213198Y26525D01*
Y24144D01*
X1213674Y22716D01*
X1214150Y21764D01*
X1215102Y20812D01*
X1216054Y20336D01*
X1217959D01*
X1218911Y20812D01*
X1219863Y21764D01*
X1220339Y22716D01*
X1220815Y24144D01*
Y26525D01*
X1220339Y27953D01*
X1219863Y28905D01*
X1218911Y29857D01*
X1217959Y30334D01*
X1216054D01*
X1223148Y17003D02*
X1230765D01*
X1236812Y30334D02*
X1232051Y23668D01*
X1239192D01*
X1236812Y30334D02*
Y20336D01*
X1094928Y30334D02*
Y20336D01*
Y30334D02*
X1098260D01*
X1099689Y29857D01*
X1100641Y28905D01*
X1101117Y27953D01*
X1101593Y26525D01*
Y24144D01*
X1101117Y22716D01*
X1100641Y21764D01*
X1099689Y20812D01*
X1098260Y20336D01*
X1094928D01*
X1110972Y27953D02*
X1110496Y28905D01*
X1109544Y29857D01*
X1108592Y30334D01*
X1106687D01*
X1105735Y29857D01*
X1104783Y28905D01*
X1104307Y27953D01*
X1103831Y26525D01*
Y24144D01*
X1104307Y22716D01*
X1104783Y21764D01*
X1105735Y20812D01*
X1106687Y20336D01*
X1108592D01*
X1109544Y20812D01*
X1110496Y21764D01*
X1110972Y22716D01*
X1113781Y30334D02*
Y20336D01*
X1115876Y17003D02*
X1123493D01*
X1129539Y30334D02*
X1124779Y23668D01*
X1131920D01*
X1129539Y30334D02*
Y20336D01*
X994345Y30334D02*
Y20336D01*
Y30334D02*
X997677D01*
X999106Y29857D01*
X1000058Y28905D01*
X1000534Y27953D01*
X1001010Y26525D01*
Y24144D01*
X1000534Y22716D01*
X1000058Y21764D01*
X999106Y20812D01*
X997677Y20336D01*
X994345D01*
X1010389Y27953D02*
X1009913Y28905D01*
X1008961Y29857D01*
X1008008Y30334D01*
X1006104D01*
X1005152Y29857D01*
X1004200Y28905D01*
X1003724Y27953D01*
X1003248Y26525D01*
Y24144D01*
X1003724Y22716D01*
X1004200Y21764D01*
X1005152Y20812D01*
X1006104Y20336D01*
X1008008D01*
X1008961Y20812D01*
X1009913Y21764D01*
X1010389Y22716D01*
X1016054Y30334D02*
X1015102Y29857D01*
X1014150Y28905D01*
X1013674Y27953D01*
X1013198Y26525D01*
Y24144D01*
X1013674Y22716D01*
X1014150Y21764D01*
X1015102Y20812D01*
X1016054Y20336D01*
X1017959D01*
X1018911Y20812D01*
X1019863Y21764D01*
X1020339Y22716D01*
X1020815Y24144D01*
Y26525D01*
X1020339Y27953D01*
X1019863Y28905D01*
X1018911Y29857D01*
X1017959Y30334D01*
X1016054D01*
X1023148Y17003D02*
X1030765D01*
X1033003Y30334D02*
X1038240D01*
X1035384Y26525D01*
X1036812D01*
X1037764Y26049D01*
X1038240Y25573D01*
X1038716Y24144D01*
Y23192D01*
X1038240Y21764D01*
X1037288Y20812D01*
X1035860Y20336D01*
X1034431D01*
X1033003Y20812D01*
X1032527Y21288D01*
X1032051Y22240D01*
X894928Y30334D02*
Y20336D01*
Y30334D02*
X898260D01*
X899689Y29857D01*
X900641Y28905D01*
X901117Y27953D01*
X901593Y26525D01*
Y24144D01*
X901117Y22716D01*
X900641Y21764D01*
X899689Y20812D01*
X898260Y20336D01*
X894928D01*
X910972Y27953D02*
X910496Y28905D01*
X909544Y29857D01*
X908592Y30334D01*
X906687D01*
X905735Y29857D01*
X904783Y28905D01*
X904307Y27953D01*
X903831Y26525D01*
Y24144D01*
X904307Y22716D01*
X904783Y21764D01*
X905735Y20812D01*
X906687Y20336D01*
X908592D01*
X909544Y20812D01*
X910496Y21764D01*
X910972Y22716D01*
X913781Y30334D02*
Y20336D01*
X915876Y17003D02*
X923493D01*
X925731Y30334D02*
X930968D01*
X928111Y26525D01*
X929539D01*
X930492Y26049D01*
X930968Y25573D01*
X931444Y24144D01*
Y23192D01*
X930968Y21764D01*
X930015Y20812D01*
X928587Y20336D01*
X927159D01*
X925731Y20812D01*
X925255Y21288D01*
X924779Y22240D01*
X794345Y30334D02*
Y20336D01*
Y30334D02*
X797677D01*
X799106Y29857D01*
X800058Y28905D01*
X800534Y27953D01*
X801010Y26525D01*
Y24144D01*
X800534Y22716D01*
X800058Y21764D01*
X799106Y20812D01*
X797677Y20336D01*
X794345D01*
X810389Y27953D02*
X809913Y28905D01*
X808961Y29857D01*
X808008Y30334D01*
X806104D01*
X805152Y29857D01*
X804200Y28905D01*
X803724Y27953D01*
X803248Y26525D01*
Y24144D01*
X803724Y22716D01*
X804200Y21764D01*
X805152Y20812D01*
X806104Y20336D01*
X808008D01*
X808961Y20812D01*
X809913Y21764D01*
X810389Y22716D01*
X816054Y30334D02*
X815102Y29857D01*
X814150Y28905D01*
X813674Y27953D01*
X813198Y26525D01*
Y24144D01*
X813674Y22716D01*
X814150Y21764D01*
X815102Y20812D01*
X816054Y20336D01*
X817959D01*
X818911Y20812D01*
X819863Y21764D01*
X820339Y22716D01*
X820815Y24144D01*
Y26525D01*
X820339Y27953D01*
X819863Y28905D01*
X818911Y29857D01*
X817959Y30334D01*
X816054D01*
X823148Y17003D02*
X830765D01*
X832527Y27953D02*
Y28429D01*
X833003Y29381D01*
X833479Y29857D01*
X834431Y30334D01*
X836336D01*
X837288Y29857D01*
X837764Y29381D01*
X838240Y28429D01*
Y27477D01*
X837764Y26525D01*
X836812Y25097D01*
X832051Y20336D01*
X838716D01*
X694928Y30334D02*
Y20336D01*
Y30334D02*
X698260D01*
X699689Y29857D01*
X700641Y28905D01*
X701117Y27953D01*
X701593Y26525D01*
Y24144D01*
X701117Y22716D01*
X700641Y21764D01*
X699689Y20812D01*
X698260Y20336D01*
X694928D01*
X710972Y27953D02*
X710496Y28905D01*
X709544Y29857D01*
X708592Y30334D01*
X706687D01*
X705735Y29857D01*
X704783Y28905D01*
X704307Y27953D01*
X703831Y26525D01*
Y24144D01*
X704307Y22716D01*
X704783Y21764D01*
X705735Y20812D01*
X706687Y20336D01*
X708592D01*
X709544Y20812D01*
X710496Y21764D01*
X710972Y22716D01*
X713781Y30334D02*
Y20336D01*
X715876Y17003D02*
X723493D01*
X725255Y27953D02*
Y28429D01*
X725731Y29381D01*
X726207Y29857D01*
X727159Y30334D01*
X729063D01*
X730015Y29857D01*
X730492Y29381D01*
X730968Y28429D01*
Y27477D01*
X730492Y26525D01*
X729539Y25097D01*
X724779Y20336D01*
X731444D01*
X1494928Y30334D02*
Y20336D01*
X1497023Y30334D02*
Y20336D01*
Y30334D02*
X1503688Y20336D01*
Y30334D02*
Y20336D01*
X1506449Y30334D02*
X1510258Y20336D01*
X1514067Y30334D02*
X1510258Y20336D01*
X1515352Y17003D02*
X1522969D01*
X1524255Y30334D02*
Y20336D01*
X1526350Y30334D02*
Y20336D01*
Y30334D02*
X1533015Y20336D01*
Y30334D02*
Y20336D01*
X1594345Y30334D02*
Y20336D01*
X1596440Y30334D02*
Y20336D01*
Y30334D02*
X1603105Y20336D01*
Y30334D02*
Y20336D01*
X1605866Y30334D02*
X1609675Y20336D01*
X1613483Y30334D02*
X1609675Y20336D01*
X1614769Y17003D02*
X1622386D01*
X1630813Y27953D02*
X1630337Y28905D01*
X1629385Y29857D01*
X1628433Y30334D01*
X1626528D01*
X1625576Y29857D01*
X1624624Y28905D01*
X1624148Y27953D01*
X1623672Y26525D01*
Y24144D01*
X1624148Y22716D01*
X1624624Y21764D01*
X1625576Y20812D01*
X1626528Y20336D01*
X1628433D01*
X1629385Y20812D01*
X1630337Y21764D01*
X1630813Y22716D01*
Y24144D01*
X1628433D02*
X1630813D01*
X1633098Y30334D02*
Y20336D01*
Y30334D02*
X1639763Y20336D01*
Y30334D02*
Y20336D01*
X1642525Y30334D02*
Y20336D01*
Y30334D02*
X1645858D01*
X1647286Y29857D01*
X1648238Y28905D01*
X1648714Y27953D01*
X1649190Y26525D01*
Y24144D01*
X1648714Y22716D01*
X1648238Y21764D01*
X1647286Y20812D01*
X1645858Y20336D01*
X1642525D01*
X494928Y30334D02*
Y20336D01*
Y30334D02*
X498260D01*
X499689Y29857D01*
X500641Y28905D01*
X501117Y27953D01*
X501593Y26525D01*
Y24144D01*
X501117Y22716D01*
X500641Y21764D01*
X499689Y20812D01*
X498260Y20336D01*
X494928D01*
X510972Y27953D02*
X510496Y28905D01*
X509544Y29857D01*
X508592Y30334D01*
X506687D01*
X505735Y29857D01*
X504783Y28905D01*
X504307Y27953D01*
X503831Y26525D01*
Y24144D01*
X504307Y22716D01*
X504783Y21764D01*
X505735Y20812D01*
X506687Y20336D01*
X508592D01*
X509544Y20812D01*
X510496Y21764D01*
X510972Y22716D01*
X513781Y30334D02*
Y20336D01*
X515876Y17003D02*
X523493D01*
X524779Y28429D02*
X525731Y28905D01*
X527159Y30334D01*
Y20336D01*
X594345Y30334D02*
Y20336D01*
Y30334D02*
X597677D01*
X599106Y29857D01*
X600058Y28905D01*
X600534Y27953D01*
X601010Y26525D01*
Y24144D01*
X600534Y22716D01*
X600058Y21764D01*
X599106Y20812D01*
X597677Y20336D01*
X594345D01*
X610389Y27953D02*
X609913Y28905D01*
X608961Y29857D01*
X608008Y30334D01*
X606104D01*
X605152Y29857D01*
X604200Y28905D01*
X603724Y27953D01*
X603247Y26525D01*
Y24144D01*
X603724Y22716D01*
X604200Y21764D01*
X605152Y20812D01*
X606104Y20336D01*
X608008D01*
X608961Y20812D01*
X609913Y21764D01*
X610389Y22716D01*
X616054Y30334D02*
X615102Y29857D01*
X614150Y28905D01*
X613674Y27953D01*
X613198Y26525D01*
Y24144D01*
X613674Y22716D01*
X614150Y21764D01*
X615102Y20812D01*
X616054Y20336D01*
X617959D01*
X618911Y20812D01*
X619863Y21764D01*
X620339Y22716D01*
X620815Y24144D01*
Y26525D01*
X620339Y27953D01*
X619863Y28905D01*
X618911Y29857D01*
X617959Y30334D01*
X616054D01*
X623148Y17003D02*
X630765D01*
X632051Y28429D02*
X633003Y28905D01*
X634431Y30334D01*
Y20336D01*
X294928Y25097D02*
X299213D01*
X300641Y25573D01*
X301117Y26049D01*
X301593Y27001D01*
Y28429D01*
X301117Y29381D01*
X300641Y29857D01*
X299213Y30334D01*
X294928D01*
Y20336D01*
X303831Y30334D02*
Y20336D01*
X310496Y30334D02*
Y20336D01*
X303831Y25573D02*
X310496D01*
X313257Y30334D02*
Y20336D01*
X315352Y17003D02*
X322969D01*
X324731Y27953D02*
Y28429D01*
X325207Y29381D01*
X325683Y29857D01*
X326635Y30334D01*
X328540D01*
X329492Y29857D01*
X329968Y29381D01*
X330444Y28429D01*
Y27477D01*
X329968Y26525D01*
X329016Y25097D01*
X324255Y20336D01*
X330920D01*
X394345Y25097D02*
X398629D01*
X400058Y25573D01*
X400534Y26049D01*
X401010Y27001D01*
Y28429D01*
X400534Y29381D01*
X400058Y29857D01*
X398629Y30334D01*
X394345D01*
Y20336D01*
X403247Y30334D02*
Y20336D01*
X409913Y30334D02*
Y20336D01*
X403247Y25573D02*
X409913D01*
X415531Y30334D02*
X414578Y29857D01*
X413626Y28905D01*
X413150Y27953D01*
X412674Y26525D01*
Y24144D01*
X413150Y22716D01*
X413626Y21764D01*
X414578Y20812D01*
X415531Y20336D01*
X417435D01*
X418387Y20812D01*
X419339Y21764D01*
X419815Y22716D01*
X420291Y24144D01*
Y26525D01*
X419815Y27953D01*
X419339Y28905D01*
X418387Y29857D01*
X417435Y30334D01*
X415531D01*
X422624Y17003D02*
X430242D01*
X432003Y27953D02*
Y28429D01*
X432479Y29381D01*
X432955Y29857D01*
X433908Y30334D01*
X435812D01*
X436764Y29857D01*
X437240Y29381D01*
X437716Y28429D01*
Y27477D01*
X437240Y26525D01*
X436288Y25097D01*
X431527Y20336D01*
X438192D01*
X193341Y27094D02*
X197626D01*
X199055Y27570D01*
X199531Y28046D01*
X200007Y28998D01*
Y30426D01*
X199531Y31378D01*
X199055Y31854D01*
X197626Y32331D01*
X193341D01*
Y22333D01*
X202244Y32331D02*
Y22333D01*
X208909Y32331D02*
Y22333D01*
X202244Y27570D02*
X208909D01*
X214527Y32331D02*
X213575Y31854D01*
X212623Y30902D01*
X212147Y29950D01*
X211671Y28522D01*
Y26141D01*
X212147Y24713D01*
X212623Y23761D01*
X213575Y22809D01*
X214527Y22333D01*
X216432D01*
X217384Y22809D01*
X218336Y23761D01*
X218812Y24713D01*
X219288Y26141D01*
Y28522D01*
X218812Y29950D01*
X218336Y30902D01*
X217384Y31854D01*
X216432Y32331D01*
X214527D01*
X221621Y19000D02*
X229238D01*
X230524Y30426D02*
X231476Y30902D01*
X232904Y32331D01*
Y22333D01*
X93925Y27094D02*
X98209D01*
X99638Y27570D01*
X100114Y28046D01*
X100590Y28998D01*
Y30426D01*
X100114Y31378D01*
X99638Y31854D01*
X98209Y32331D01*
X93925D01*
Y22333D01*
X102828Y32331D02*
Y22333D01*
X109493Y32331D02*
Y22333D01*
X102828Y27570D02*
X109493D01*
X112254Y32331D02*
Y22333D01*
X114349Y19000D02*
X121966D01*
X123252Y30426D02*
X124204Y30902D01*
X125632Y32331D01*
Y22333D01*
X130285Y678570D02*
Y670000D01*
X126000Y674285D02*
X134570D01*
X137521Y678093D02*
X138474Y678570D01*
X139902Y679998D01*
Y670000D01*
X145329Y677617D02*
Y678093D01*
X145805Y679046D01*
X146281Y679522D01*
X147233Y679998D01*
X149138D01*
X150090Y679522D01*
X150566Y679046D01*
X151042Y678093D01*
Y677141D01*
X150566Y676189D01*
X149614Y674761D01*
X144853Y670000D01*
X151518D01*
X153756Y679998D02*
X157565Y670000D01*
X161373Y679998D02*
X157565Y670000D01*
D11*
X1462367Y552582D02*
G03*
X1462367Y552582I-79367J0D01*
G01*
D12*
X305552Y816902D02*
X316703D01*
X305552Y756958D02*
Y816902D01*
X351297D02*
X362448D01*
Y756958D02*
Y816902D01*
X351297Y756958D02*
X362448D01*
X305552D02*
X316703D01*
X1334795Y154484D02*
X1347212D01*
X1437411D02*
Y356922D01*
X1424995D02*
X1437411D01*
X1334795Y154484D02*
Y356922D01*
X1347212D01*
X1348795Y154484D02*
X1437411D01*
X1348795Y356922D02*
X1423412D01*
X1134795Y154484D02*
X1147212D01*
X1237411D02*
Y356922D01*
X1224995D02*
X1237411D01*
X1134795Y154484D02*
Y356922D01*
X1147212D01*
X1148795Y154484D02*
X1237411D01*
X1148795Y356922D02*
X1223412D01*
X934795Y154484D02*
X947212D01*
X1037411D02*
Y356922D01*
X1024995D02*
X1037411D01*
X934795Y154484D02*
Y356922D01*
X947212D01*
X948795Y154484D02*
X1037411D01*
X948795Y356922D02*
X1023412D01*
X734795Y154484D02*
X747212D01*
X837411D02*
Y356922D01*
X824995D02*
X837411D01*
X734795Y154484D02*
Y356922D01*
X747212D01*
X748795Y154484D02*
X837411D01*
X748795Y356922D02*
X823412D01*
X534795Y154484D02*
X547212D01*
X637411D02*
Y356922D01*
X624995D02*
X637411D01*
X534795Y154484D02*
Y356922D01*
X547212D01*
X548795Y154484D02*
X637411D01*
X548795Y356922D02*
X623412D01*
X334795Y154484D02*
X347212D01*
X437411D02*
Y356922D01*
X424995D02*
X437411D01*
X334795Y154484D02*
Y356922D01*
X347212D01*
X348795Y154484D02*
X437411D01*
X348795Y356922D02*
X423412D01*
X134795Y154484D02*
X147212D01*
X237411D02*
Y356922D01*
X224995D02*
X237411D01*
X134795Y154484D02*
Y356922D01*
X147212D01*
X148795Y154484D02*
X237411D01*
X148795Y356922D02*
X223412D01*
D13*
X506500Y675500D02*
Y714500D01*
X560500Y675500D02*
Y714500D01*
X763500Y675500D02*
Y714500D01*
X709500Y675500D02*
Y714500D01*
X912500Y675500D02*
Y714500D01*
X966500Y675500D02*
Y714500D01*
X1169500Y675500D02*
Y714500D01*
X1115500Y675500D02*
Y714500D01*
X643000Y753000D02*
X651000D01*
X647000Y749000D02*
Y757000D01*
X625000Y731000D02*
X636750D01*
X614000Y716000D02*
X625000Y731000D01*
X614000Y665000D02*
Y716000D01*
X657250Y731000D02*
X669000D01*
X680000Y716000D01*
Y665000D02*
Y716000D01*
X614000Y665000D02*
X635700D01*
X658300D02*
X680000D01*
X262600Y762000D02*
X273400D01*
X262600Y778000D02*
X273400D01*
X262600Y807000D02*
X273400D01*
X262600Y791000D02*
X273400D01*
X861300Y665000D02*
X883000D01*
X817000D02*
X838700D01*
X883000D02*
Y716000D01*
X872000Y731000D02*
X883000Y716000D01*
X860250Y731000D02*
X872000D01*
X817000Y665000D02*
Y716000D01*
X828000Y731000D01*
X839750D01*
X850000Y749000D02*
Y757000D01*
X846000Y753000D02*
X854000D01*
X1049000D02*
X1057000D01*
X1053000Y749000D02*
Y757000D01*
X1031000Y731000D02*
X1042750D01*
X1020000Y716000D02*
X1031000Y731000D01*
X1020000Y665000D02*
Y716000D01*
X1063250Y731000D02*
X1075000D01*
X1086000Y716000D01*
Y665000D02*
Y716000D01*
X1020000Y665000D02*
X1041700D01*
X1064300D02*
X1086000D01*
X1267300D02*
X1289000D01*
X1223000D02*
X1244700D01*
X1289000D02*
Y716000D01*
X1278000Y731000D02*
X1289000Y716000D01*
X1266250Y731000D02*
X1278000D01*
X1223000Y665000D02*
Y716000D01*
X1234000Y731000D01*
X1245750D01*
X1256000Y749000D02*
Y757000D01*
X1252000Y753000D02*
X1260000D01*
X757400Y805500D02*
Y870500D01*
Y805500D02*
X965200D01*
Y870500D01*
X757400D02*
X965200D01*
D14*
X1062399Y387239D02*
Y393827D01*
X1070527D01*
X1062399Y365379D02*
Y371967D01*
Y365379D02*
X1070527D01*
X1462399Y387239D02*
Y393827D01*
X1470527D01*
X1462399Y365379D02*
Y371967D01*
Y365379D02*
X1470527D01*
X1262399Y387239D02*
Y393827D01*
X1270527D01*
X1262399Y365379D02*
Y371967D01*
Y365379D02*
X1270527D01*
X862399Y387239D02*
Y393827D01*
X870527D01*
X862399Y365379D02*
Y371967D01*
Y365379D02*
X870527D01*
X662399Y387239D02*
Y393827D01*
X670527D01*
X662399Y365379D02*
Y371967D01*
Y365379D02*
X670527D01*
X262399Y387239D02*
Y393827D01*
X270527D01*
X262399Y365379D02*
Y371967D01*
Y365379D02*
X270527D01*
X462399Y387239D02*
Y393827D01*
X470527D01*
X462399Y365379D02*
Y371967D01*
Y365379D02*
X470527D01*
D15*
X1302842Y649724D02*
X1313726D01*
X1315902Y650449D01*
X1317353Y651900D01*
X1318079Y654077D01*
Y655528D01*
X1317353Y657705D01*
X1315902Y659156D01*
X1313726Y659882D01*
X1302842D01*
X1306470Y664815D02*
X1305744D01*
X1304293Y665541D01*
X1303568Y666266D01*
X1302842Y667718D01*
Y670620D01*
X1303568Y672071D01*
X1304293Y672796D01*
X1305744Y673522D01*
X1307195D01*
X1308647Y672796D01*
X1310823Y671345D01*
X1318079Y664090D01*
Y674248D01*
X1323158Y677658D02*
Y689267D01*
X1302842Y691226D02*
X1318079Y694854D01*
X1302842Y698481D02*
X1318079Y694854D01*
X1302842Y698481D02*
X1318079Y702109D01*
X1302842Y705737D02*
X1318079Y702109D01*
X1306470Y719668D02*
X1305019Y718942D01*
X1303568Y717491D01*
X1302842Y716040D01*
Y713138D01*
X1303568Y711686D01*
X1305019Y710235D01*
X1306470Y709510D01*
X1308647Y708784D01*
X1312274D01*
X1314451Y709510D01*
X1315902Y710235D01*
X1317353Y711686D01*
X1318079Y713138D01*
Y716040D01*
X1317353Y717491D01*
X1315902Y718942D01*
X1314451Y719668D01*
X1302842Y723948D02*
X1318079D01*
X1302842Y734106D02*
X1318079D01*
X1310098Y723948D02*
Y734106D01*
X1302842Y745570D02*
X1313000Y738315D01*
Y749198D01*
X1302842Y745570D02*
X1318079D01*
X1089842Y650087D02*
X1100726D01*
X1102902Y650812D01*
X1104353Y652263D01*
X1105079Y654440D01*
Y655891D01*
X1104353Y658068D01*
X1102902Y659519D01*
X1100726Y660244D01*
X1089842D01*
X1093470Y665178D02*
X1092744D01*
X1091293Y665904D01*
X1090568Y666629D01*
X1089842Y668080D01*
Y670983D01*
X1090568Y672434D01*
X1091293Y673159D01*
X1092744Y673885D01*
X1094195D01*
X1095647Y673159D01*
X1097823Y671708D01*
X1105079Y664453D01*
Y674610D01*
X1110158Y678021D02*
Y689630D01*
X1089842Y691589D02*
X1105079Y695216D01*
X1089842Y698844D02*
X1105079Y695216D01*
X1089842Y698844D02*
X1105079Y702472D01*
X1089842Y706100D02*
X1105079Y702472D01*
X1093470Y720030D02*
X1092019Y719305D01*
X1090568Y717854D01*
X1089842Y716403D01*
Y713500D01*
X1090568Y712049D01*
X1092019Y710598D01*
X1093470Y709873D01*
X1095647Y709147D01*
X1099275D01*
X1101451Y709873D01*
X1102902Y710598D01*
X1104353Y712049D01*
X1105079Y713500D01*
Y716403D01*
X1104353Y717854D01*
X1102902Y719305D01*
X1101451Y720030D01*
X1089842Y724311D02*
X1105079D01*
X1089842Y734469D02*
X1105079D01*
X1097098Y724311D02*
Y734469D01*
X1089842Y740128D02*
Y748110D01*
X1095647Y743756D01*
Y745933D01*
X1096372Y747384D01*
X1097098Y748110D01*
X1099275Y748835D01*
X1100726D01*
X1102902Y748110D01*
X1104353Y746658D01*
X1105079Y744482D01*
Y742305D01*
X1104353Y740128D01*
X1103628Y739403D01*
X1102177Y738677D01*
X887842Y650087D02*
X898726D01*
X900902Y650812D01*
X902353Y652263D01*
X903079Y654440D01*
Y655891D01*
X902353Y658068D01*
X900902Y659519D01*
X898726Y660244D01*
X887842D01*
X891470Y665178D02*
X890744D01*
X889293Y665904D01*
X888568Y666629D01*
X887842Y668080D01*
Y670983D01*
X888568Y672434D01*
X889293Y673159D01*
X890744Y673885D01*
X892196D01*
X893647Y673159D01*
X895823Y671708D01*
X903079Y664453D01*
Y674610D01*
X908158Y678020D02*
Y689630D01*
X887842Y691589D02*
X903079Y695216D01*
X887842Y698844D02*
X903079Y695216D01*
X887842Y698844D02*
X903079Y702472D01*
X887842Y706100D02*
X903079Y702472D01*
X891470Y720030D02*
X890019Y719305D01*
X888568Y717854D01*
X887842Y716403D01*
Y713500D01*
X888568Y712049D01*
X890019Y710598D01*
X891470Y709873D01*
X893647Y709147D01*
X897274D01*
X899451Y709873D01*
X900902Y710598D01*
X902353Y712049D01*
X903079Y713500D01*
Y716403D01*
X902353Y717854D01*
X900902Y719305D01*
X899451Y720030D01*
X887842Y724311D02*
X903079D01*
X887842Y734469D02*
X903079D01*
X895098Y724311D02*
Y734469D01*
X891470Y739403D02*
X890744D01*
X889293Y740128D01*
X888568Y740854D01*
X887842Y742305D01*
Y745207D01*
X888568Y746658D01*
X889293Y747384D01*
X890744Y748110D01*
X892196D01*
X893647Y747384D01*
X895823Y745933D01*
X903079Y738677D01*
Y748835D01*
X684842Y655891D02*
X695725D01*
X697902Y656616D01*
X699353Y658067D01*
X700079Y660244D01*
Y661695D01*
X699353Y663872D01*
X697902Y665323D01*
X695725Y666049D01*
X684842D01*
X688470Y670982D02*
X687744D01*
X686293Y671708D01*
X685568Y672433D01*
X684842Y673885D01*
Y676787D01*
X685568Y678238D01*
X686293Y678963D01*
X687744Y679689D01*
X689195D01*
X690647Y678963D01*
X692823Y677512D01*
X700079Y670257D01*
Y680415D01*
X705158Y683825D02*
Y695434D01*
X684842Y697393D02*
X700079Y701021D01*
X684842Y704648D02*
X700079Y701021D01*
X684842Y704648D02*
X700079Y708276D01*
X684842Y711904D02*
X700079Y708276D01*
X688470Y725835D02*
X687019Y725109D01*
X685568Y723658D01*
X684842Y722207D01*
Y719305D01*
X685568Y717853D01*
X687019Y716402D01*
X688470Y715677D01*
X690647Y714951D01*
X694274D01*
X696451Y715677D01*
X697902Y716402D01*
X699353Y717853D01*
X700079Y719305D01*
Y722207D01*
X699353Y723658D01*
X697902Y725109D01*
X696451Y725835D01*
X684842Y730115D02*
X700079D01*
X684842Y740273D02*
X700079D01*
X692098Y730115D02*
Y740273D01*
X687744Y744481D02*
X687019Y745933D01*
X684842Y748109D01*
X700079D01*
X260003Y713618D02*
Y702735D01*
X260729Y700558D01*
X262180Y699107D01*
X264356Y698382D01*
X265807D01*
X267984Y699107D01*
X269435Y700558D01*
X270161Y702735D01*
Y713618D01*
X274369Y710716D02*
X275820Y711442D01*
X277997Y713618D01*
Y698382D01*
X1308842Y159842D02*
X1324079D01*
X1308842D02*
Y166372D01*
X1309568Y168549D01*
X1310293Y169274D01*
X1311744Y170000D01*
X1313195D01*
X1314647Y169274D01*
X1315372Y168549D01*
X1316098Y166372D01*
Y159842D01*
Y164921D02*
X1324079Y170000D01*
X1308842Y182842D02*
Y173410D01*
X1324079D01*
Y182842D01*
X1316098Y173410D02*
Y179214D01*
X1308842Y185381D02*
X1324079D01*
Y194088D01*
X1311744Y195757D02*
X1311019Y197208D01*
X1308842Y199385D01*
X1324079D01*
X1329158Y206931D02*
Y218540D01*
X1308842Y229931D02*
Y220499D01*
X1324079D01*
Y229931D01*
X1316098Y220499D02*
Y226303D01*
X1312470Y243354D02*
X1311019Y242628D01*
X1309568Y241177D01*
X1308842Y239726D01*
Y236824D01*
X1309568Y235373D01*
X1311019Y233921D01*
X1312470Y233196D01*
X1314647Y232470D01*
X1318274D01*
X1320451Y233196D01*
X1321902Y233921D01*
X1323353Y235373D01*
X1324079Y236824D01*
Y239726D01*
X1323353Y241177D01*
X1321902Y242628D01*
X1320451Y243354D01*
X1308842Y247634D02*
X1324079D01*
X1308842Y257792D02*
X1324079D01*
X1316098Y247634D02*
Y257792D01*
X1308842Y272158D02*
X1324079Y264903D01*
X1308842Y262001D02*
Y272158D01*
X1108842Y160205D02*
X1124079D01*
X1108842D02*
Y166735D01*
X1109568Y168911D01*
X1110293Y169637D01*
X1111744Y170362D01*
X1113195D01*
X1114647Y169637D01*
X1115372Y168911D01*
X1116098Y166735D01*
Y160205D01*
Y165283D02*
X1124079Y170362D01*
X1108842Y183205D02*
Y173773D01*
X1124079D01*
Y183205D01*
X1116098Y173773D02*
Y179577D01*
X1108842Y185744D02*
X1124079D01*
Y194451D01*
X1111744Y196120D02*
X1111019Y197571D01*
X1108842Y199748D01*
X1124079D01*
X1129158Y207293D02*
Y218902D01*
X1108842Y230294D02*
Y220861D01*
X1124079D01*
Y230294D01*
X1116098Y220861D02*
Y226666D01*
X1112470Y243716D02*
X1111019Y242991D01*
X1109568Y241540D01*
X1108842Y240089D01*
Y237186D01*
X1109568Y235735D01*
X1111019Y234284D01*
X1112470Y233559D01*
X1114647Y232833D01*
X1118274D01*
X1120451Y233559D01*
X1121902Y234284D01*
X1123353Y235735D01*
X1124079Y237186D01*
Y240089D01*
X1123353Y241540D01*
X1121902Y242991D01*
X1120451Y243716D01*
X1108842Y247997D02*
X1124079D01*
X1108842Y258155D02*
X1124079D01*
X1116098Y247997D02*
Y258155D01*
X1111019Y271070D02*
X1109568Y270344D01*
X1108842Y268168D01*
Y266717D01*
X1109568Y264540D01*
X1111744Y263089D01*
X1115372Y262363D01*
X1119000D01*
X1121902Y263089D01*
X1123353Y264540D01*
X1124079Y266717D01*
Y267442D01*
X1123353Y269619D01*
X1121902Y271070D01*
X1119725Y271796D01*
X1119000D01*
X1116823Y271070D01*
X1115372Y269619D01*
X1114647Y267442D01*
Y266717D01*
X1115372Y264540D01*
X1116823Y263089D01*
X1119000Y262363D01*
X908842Y159842D02*
X924079D01*
X908842D02*
Y166372D01*
X909568Y168549D01*
X910293Y169274D01*
X911744Y170000D01*
X913195D01*
X914647Y169274D01*
X915372Y168549D01*
X916098Y166372D01*
Y159842D01*
Y164921D02*
X924079Y170000D01*
X908842Y182842D02*
Y173410D01*
X924079D01*
Y182842D01*
X916098Y173410D02*
Y179214D01*
X908842Y185381D02*
X924079D01*
Y194088D01*
X911744Y195757D02*
X911019Y197208D01*
X908842Y199385D01*
X924079D01*
X929158Y206931D02*
Y218540D01*
X908842Y229931D02*
Y220499D01*
X924079D01*
Y229931D01*
X916098Y220499D02*
Y226303D01*
X912470Y243354D02*
X911019Y242628D01*
X909568Y241177D01*
X908842Y239726D01*
Y236824D01*
X909568Y235372D01*
X911019Y233921D01*
X912470Y233196D01*
X914647Y232470D01*
X918274D01*
X920451Y233196D01*
X921902Y233921D01*
X923353Y235372D01*
X924079Y236824D01*
Y239726D01*
X923353Y241177D01*
X921902Y242628D01*
X920451Y243354D01*
X908842Y247634D02*
X924079D01*
X908842Y257792D02*
X924079D01*
X916098Y247634D02*
Y257792D01*
X908842Y270707D02*
Y263452D01*
X915372Y262726D01*
X914647Y263452D01*
X913921Y265628D01*
Y267805D01*
X914647Y269982D01*
X916098Y271433D01*
X918274Y272158D01*
X919725D01*
X921902Y271433D01*
X923353Y269982D01*
X924079Y267805D01*
Y265628D01*
X923353Y263452D01*
X922628Y262726D01*
X921177Y262000D01*
X710842Y159479D02*
X726079D01*
X710842D02*
Y166009D01*
X711568Y168186D01*
X712293Y168911D01*
X713744Y169637D01*
X715195D01*
X716647Y168911D01*
X717372Y168186D01*
X718098Y166009D01*
Y159479D01*
Y164558D02*
X726079Y169637D01*
X710842Y182479D02*
Y173047D01*
X726079D01*
Y182479D01*
X718098Y173047D02*
Y178851D01*
X710842Y185019D02*
X726079D01*
Y193725D01*
X713744Y195394D02*
X713019Y196845D01*
X710842Y199022D01*
X726079D01*
X731158Y206568D02*
Y218177D01*
X710842Y229568D02*
Y220136D01*
X726079D01*
Y229568D01*
X718098Y220136D02*
Y225940D01*
X714470Y242991D02*
X713019Y242265D01*
X711568Y240814D01*
X710842Y239363D01*
Y236461D01*
X711568Y235010D01*
X713019Y233559D01*
X714470Y232833D01*
X716647Y232107D01*
X720274D01*
X722451Y232833D01*
X723902Y233559D01*
X725353Y235010D01*
X726079Y236461D01*
Y239363D01*
X725353Y240814D01*
X723902Y242265D01*
X722451Y242991D01*
X710842Y247272D02*
X726079D01*
X710842Y257429D02*
X726079D01*
X718098Y247272D02*
Y257429D01*
X710842Y268893D02*
X721000Y261638D01*
Y272521D01*
X710842Y268893D02*
X726079D01*
X508842Y159842D02*
X524079D01*
X508842D02*
Y166372D01*
X509568Y168549D01*
X510293Y169274D01*
X511744Y170000D01*
X513195D01*
X514647Y169274D01*
X515372Y168549D01*
X516098Y166372D01*
Y159842D01*
Y164921D02*
X524079Y170000D01*
X508842Y182842D02*
Y173410D01*
X524079D01*
Y182842D01*
X516098Y173410D02*
Y179214D01*
X508842Y185381D02*
X524079D01*
Y194088D01*
X511744Y195757D02*
X511019Y197208D01*
X508842Y199385D01*
X524079D01*
X529158Y206931D02*
Y218540D01*
X508842Y229931D02*
Y220499D01*
X524079D01*
Y229931D01*
X516098Y220499D02*
Y226303D01*
X512470Y243354D02*
X511019Y242628D01*
X509568Y241177D01*
X508842Y239726D01*
Y236824D01*
X509568Y235372D01*
X511019Y233921D01*
X512470Y233196D01*
X514647Y232470D01*
X518274D01*
X520451Y233196D01*
X521902Y233921D01*
X523353Y235372D01*
X524079Y236824D01*
Y239726D01*
X523353Y241177D01*
X521902Y242628D01*
X520451Y243354D01*
X508842Y247634D02*
X524079D01*
X508842Y257792D02*
X524079D01*
X516098Y247634D02*
Y257792D01*
X508842Y263452D02*
Y271433D01*
X514647Y267079D01*
Y269256D01*
X515372Y270707D01*
X516098Y271433D01*
X518274Y272158D01*
X519725D01*
X521902Y271433D01*
X523353Y269982D01*
X524079Y267805D01*
Y265628D01*
X523353Y263452D01*
X522628Y262726D01*
X521177Y262000D01*
X308842Y159842D02*
X324079D01*
X308842D02*
Y166372D01*
X309568Y168549D01*
X310293Y169274D01*
X311744Y170000D01*
X313195D01*
X314647Y169274D01*
X315372Y168549D01*
X316098Y166372D01*
Y159842D01*
Y164921D02*
X324079Y170000D01*
X308842Y182842D02*
Y173410D01*
X324079D01*
Y182842D01*
X316098Y173410D02*
Y179214D01*
X308842Y185381D02*
X324079D01*
Y194088D01*
X311744Y195757D02*
X311019Y197208D01*
X308842Y199385D01*
X324079D01*
X329158Y206931D02*
Y218540D01*
X308842Y229931D02*
Y220499D01*
X324079D01*
Y229931D01*
X316098Y220499D02*
Y226303D01*
X312470Y243354D02*
X311019Y242628D01*
X309568Y241177D01*
X308842Y239726D01*
Y236824D01*
X309568Y235372D01*
X311019Y233921D01*
X312470Y233196D01*
X314647Y232470D01*
X318274D01*
X320451Y233196D01*
X321902Y233921D01*
X323353Y235372D01*
X324079Y236824D01*
Y239726D01*
X323353Y241177D01*
X321902Y242628D01*
X320451Y243354D01*
X308842Y247634D02*
X324079D01*
X308842Y257792D02*
X324079D01*
X316098Y247634D02*
Y257792D01*
X312470Y262726D02*
X311744D01*
X310293Y263452D01*
X309568Y264177D01*
X308842Y265628D01*
Y268531D01*
X309568Y269982D01*
X310293Y270707D01*
X311744Y271433D01*
X313195D01*
X314647Y270707D01*
X316823Y269256D01*
X324079Y262000D01*
Y272158D01*
X108842Y165646D02*
X124079D01*
X108842D02*
Y172176D01*
X109568Y174353D01*
X110293Y175078D01*
X111744Y175804D01*
X113195D01*
X114647Y175078D01*
X115372Y174353D01*
X116098Y172176D01*
Y165646D01*
Y170725D02*
X124079Y175804D01*
X108842Y188646D02*
Y179214D01*
X124079D01*
Y188646D01*
X116098Y179214D02*
Y185018D01*
X108842Y191186D02*
X124079D01*
Y199892D01*
X111744Y201561D02*
X111019Y203012D01*
X108842Y205189D01*
X124079D01*
X129158Y212735D02*
Y224344D01*
X108842Y235735D02*
Y226303D01*
X124079D01*
Y235735D01*
X116098Y226303D02*
Y232107D01*
X112470Y249158D02*
X111019Y248432D01*
X109568Y246981D01*
X108842Y245530D01*
Y242628D01*
X109568Y241177D01*
X111019Y239725D01*
X112470Y239000D01*
X114647Y238274D01*
X118274D01*
X120451Y239000D01*
X121902Y239725D01*
X123353Y241177D01*
X124079Y242628D01*
Y245530D01*
X123353Y246981D01*
X121902Y248432D01*
X120451Y249158D01*
X108842Y253439D02*
X124079D01*
X108842Y263596D02*
X124079D01*
X116098Y253439D02*
Y263596D01*
X111744Y267805D02*
X111019Y269256D01*
X108842Y271432D01*
X124079D01*
X281137Y864618D02*
Y849382D01*
Y864618D02*
X287667D01*
X289844Y863893D01*
X290569Y863167D01*
X291295Y861716D01*
Y860265D01*
X290569Y858814D01*
X289844Y858088D01*
X287667Y857363D01*
X281137D01*
X286216D02*
X291295Y849382D01*
X298333Y864618D02*
X296156Y863893D01*
X295431Y862442D01*
Y860991D01*
X296156Y859539D01*
X297607Y858814D01*
X300509Y858088D01*
X302686Y857363D01*
X304137Y855912D01*
X304863Y854461D01*
Y852284D01*
X304137Y850833D01*
X303412Y850107D01*
X301235Y849382D01*
X298333D01*
X296156Y850107D01*
X295431Y850833D01*
X294705Y852284D01*
Y854461D01*
X295431Y855912D01*
X296882Y857363D01*
X299058Y858088D01*
X301961Y858814D01*
X303412Y859539D01*
X304137Y860991D01*
Y862442D01*
X303412Y863893D01*
X301235Y864618D01*
X298333D01*
X347382Y822137D02*
X362618D01*
X347382D02*
Y828667D01*
X348107Y830844D01*
X348833Y831569D01*
X350284Y832295D01*
X351735D01*
X353186Y831569D01*
X353912Y830844D01*
X354637Y828667D01*
Y822137D01*
Y827216D02*
X362618Y832295D01*
X347382Y845863D02*
X362618Y838607D01*
X347382Y835705D02*
Y845863D01*
X339998Y728618D02*
Y713382D01*
X348705D01*
X350374Y725716D02*
X351825Y726442D01*
X354002Y728618D01*
Y713382D01*
X140590Y849618D02*
Y838009D01*
X139864Y835833D01*
X139139Y835107D01*
X137688Y834382D01*
X136236D01*
X134785Y835107D01*
X134060Y835833D01*
X133334Y838009D01*
Y839461D01*
X145959Y849618D02*
X153940D01*
X149587Y843814D01*
X151763D01*
X153215Y843088D01*
X153940Y842363D01*
X154666Y840186D01*
Y838735D01*
X153940Y836558D01*
X152489Y835107D01*
X150312Y834382D01*
X148136D01*
X145959Y835107D01*
X145233Y835833D01*
X144508Y837284D01*
X374009Y746222D02*
X372558Y745497D01*
X371107Y744046D01*
X370382Y742595D01*
Y739692D01*
X371107Y738241D01*
X372558Y736790D01*
X374009Y736065D01*
X376186Y735339D01*
X379814D01*
X381991Y736065D01*
X383442Y736790D01*
X384893Y738241D01*
X385618Y739692D01*
Y742595D01*
X384893Y744046D01*
X383442Y745497D01*
X381991Y746222D01*
X370382Y759210D02*
Y751954D01*
X376912Y751229D01*
X376186Y751954D01*
X375461Y754131D01*
Y756308D01*
X376186Y758484D01*
X377637Y759936D01*
X379814Y760661D01*
X381265D01*
X383442Y759936D01*
X384893Y758484D01*
X385618Y756308D01*
Y754131D01*
X384893Y751954D01*
X384167Y751229D01*
X382716Y750503D01*
X400009Y745860D02*
X398558Y745134D01*
X397107Y743683D01*
X396382Y742232D01*
Y739330D01*
X397107Y737878D01*
X398558Y736427D01*
X400009Y735702D01*
X402186Y734976D01*
X405814D01*
X407990Y735702D01*
X409442Y736427D01*
X410893Y737878D01*
X411618Y739330D01*
Y742232D01*
X410893Y743683D01*
X409442Y745134D01*
X407990Y745860D01*
X396382Y757396D02*
X406539Y750140D01*
Y761024D01*
X396382Y757396D02*
X411618D01*
X204222Y776491D02*
X203497Y777942D01*
X202046Y779393D01*
X200595Y780118D01*
X197692D01*
X196241Y779393D01*
X194790Y777942D01*
X194065Y776491D01*
X193339Y774314D01*
Y770686D01*
X194065Y768509D01*
X194790Y767058D01*
X196241Y765607D01*
X197692Y764882D01*
X200595D01*
X202046Y765607D01*
X203497Y767058D01*
X204222Y768509D01*
X209954Y780118D02*
X217936D01*
X213582Y774314D01*
X215759D01*
X217210Y773588D01*
X217936Y772863D01*
X218661Y770686D01*
Y769235D01*
X217936Y767058D01*
X216484Y765607D01*
X214308Y764882D01*
X212131D01*
X209954Y765607D01*
X209229Y766333D01*
X208503Y767784D01*
X205222Y802991D02*
X204497Y804442D01*
X203046Y805893D01*
X201595Y806618D01*
X198692D01*
X197241Y805893D01*
X195790Y804442D01*
X195065Y802991D01*
X194339Y800814D01*
Y797186D01*
X195065Y795009D01*
X195790Y793558D01*
X197241Y792107D01*
X198692Y791382D01*
X201595D01*
X203046Y792107D01*
X204497Y793558D01*
X205222Y795009D01*
X210229Y802991D02*
Y803716D01*
X210954Y805167D01*
X211680Y805893D01*
X213131Y806618D01*
X216033D01*
X217484Y805893D01*
X218210Y805167D01*
X218936Y803716D01*
Y802265D01*
X218210Y800814D01*
X216759Y798637D01*
X209503Y791382D01*
X219661D01*
X348487Y702991D02*
X347762Y704442D01*
X346311Y705893D01*
X344860Y706618D01*
X341957D01*
X340506Y705893D01*
X339055Y704442D01*
X338330Y702991D01*
X337604Y700814D01*
Y697186D01*
X338330Y695010D01*
X339055Y693558D01*
X340506Y692107D01*
X341957Y691382D01*
X344860D01*
X346311Y692107D01*
X347762Y693558D01*
X348487Y695010D01*
X352768Y703716D02*
X354219Y704442D01*
X356396Y706618D01*
Y691382D01*
X590644Y583024D02*
Y571415D01*
X589919Y569239D01*
X589193Y568513D01*
X587742Y567788D01*
X586291D01*
X584840Y568513D01*
X584114Y569239D01*
X583389Y571415D01*
Y572867D01*
X594562Y580122D02*
X596013Y580848D01*
X598190Y583024D01*
Y567788D01*
M02*
