G04*
G04 #@! TF.GenerationSoftware,Altium Limited,Altium Designer,23.3.1 (30)*
G04*
G04 Layer_Color=16711935*
%FSLAX44Y44*%
%MOMM*%
G71*
G04*
G04 #@! TF.SameCoordinates,ACB28AF2-BCDA-4B65-85FB-5AC2E94CD4BF*
G04*
G04*
G04 #@! TF.FilePolarity,Negative*
G04*
G01*
G75*
%ADD35R,2.0032X2.0032*%
%ADD36C,2.0032*%
%ADD37C,2.2032*%
%ADD38C,0.7032*%
%ADD39C,5.0000*%
%ADD40C,1.8034*%
%ADD41C,1.9032*%
%ADD42C,2.1032*%
%ADD43C,3.0032*%
%ADD44R,3.0032X3.0032*%
%ADD45R,2.0032X2.0032*%
%ADD46R,2.2032X2.2032*%
%ADD62C,2.0000*%
D35*
X1674000Y795600D02*
D03*
Y571000D02*
D03*
D36*
Y744800D02*
D03*
Y719400D02*
D03*
Y694000D02*
D03*
Y668600D02*
D03*
Y643200D02*
D03*
Y617800D02*
D03*
Y770200D02*
D03*
Y520200D02*
D03*
Y494800D02*
D03*
Y469400D02*
D03*
Y444000D02*
D03*
Y418600D02*
D03*
Y393200D02*
D03*
Y545600D02*
D03*
X797800Y838000D02*
D03*
X950200D02*
D03*
X924800D02*
D03*
X899400D02*
D03*
X874000D02*
D03*
X848600D02*
D03*
X823200D02*
D03*
D37*
X830003Y565003D02*
D03*
X855403D02*
D03*
X804603D02*
D03*
X779203D02*
D03*
X753803D02*
D03*
X728403D02*
D03*
X703003D02*
D03*
X677603D02*
D03*
X652203D02*
D03*
X626803D02*
D03*
X703003Y539603D02*
D03*
X677603D02*
D03*
X652203D02*
D03*
X626803D02*
D03*
X804603D02*
D03*
X830003D02*
D03*
X855403D02*
D03*
X880803D02*
D03*
Y565003D02*
D03*
X1058603D02*
D03*
X1033203D02*
D03*
X1007803D02*
D03*
X982403D02*
D03*
X957003D02*
D03*
X931603D02*
D03*
X906203D02*
D03*
X779203Y539603D02*
D03*
X753803D02*
D03*
X728403D02*
D03*
X1109403D02*
D03*
X1084003D02*
D03*
X1058603D02*
D03*
X1033203D02*
D03*
X1007803D02*
D03*
X982403D02*
D03*
X957003D02*
D03*
X931603D02*
D03*
X906203D02*
D03*
X1109403Y565003D02*
D03*
X1084003D02*
D03*
X1612003Y81003D02*
D03*
X1512003D02*
D03*
X1412003D02*
D03*
X1312003D02*
D03*
X1212003D02*
D03*
X1112003D02*
D03*
X1012003D02*
D03*
X812003D02*
D03*
X712003D02*
D03*
X612003D02*
D03*
X512003D02*
D03*
X412003D02*
D03*
X312003D02*
D03*
X212003D02*
D03*
D38*
X553000Y702000D02*
D03*
Y689000D02*
D03*
X540000Y702000D02*
D03*
Y689000D02*
D03*
X527000Y702000D02*
D03*
Y689000D02*
D03*
X514000Y702000D02*
D03*
Y689000D02*
D03*
X717000D02*
D03*
Y702000D02*
D03*
X730000Y689000D02*
D03*
Y702000D02*
D03*
X743000Y689000D02*
D03*
Y702000D02*
D03*
X756000Y689000D02*
D03*
Y702000D02*
D03*
X959000D02*
D03*
Y689000D02*
D03*
X946000Y702000D02*
D03*
Y689000D02*
D03*
X933000Y702000D02*
D03*
Y689000D02*
D03*
X920000Y702000D02*
D03*
Y689000D02*
D03*
X1123000D02*
D03*
Y702000D02*
D03*
X1136000Y689000D02*
D03*
Y702000D02*
D03*
X1149000Y689000D02*
D03*
Y702000D02*
D03*
X1162000Y689000D02*
D03*
Y702000D02*
D03*
D39*
X1685000Y865000D02*
D03*
Y35000D02*
D03*
X35000D02*
D03*
Y865000D02*
D03*
D40*
X1348003Y344603D02*
D03*
Y243003D02*
D03*
Y166803D02*
D03*
X1424203Y344603D02*
D03*
X1148003D02*
D03*
Y243003D02*
D03*
Y166803D02*
D03*
X1224203Y344603D02*
D03*
X948003D02*
D03*
Y243003D02*
D03*
Y166803D02*
D03*
X1024203Y344603D02*
D03*
X748003D02*
D03*
Y243003D02*
D03*
Y166803D02*
D03*
X824203Y344603D02*
D03*
X548003D02*
D03*
Y243003D02*
D03*
Y166803D02*
D03*
X624203Y344603D02*
D03*
X348003D02*
D03*
Y243003D02*
D03*
Y166803D02*
D03*
X424203Y344603D02*
D03*
X148003D02*
D03*
Y243003D02*
D03*
Y166803D02*
D03*
X224203Y344603D02*
D03*
D41*
X416103Y375603D02*
D03*
X356103D02*
D03*
X216103D02*
D03*
X156103D02*
D03*
X556103D02*
D03*
X616103D02*
D03*
X756103D02*
D03*
X816103D02*
D03*
X1156103D02*
D03*
X1216103D02*
D03*
X1356103D02*
D03*
X1416103D02*
D03*
X956103D02*
D03*
X1016103D02*
D03*
D42*
X284003Y275203D02*
D03*
Y300603D02*
D03*
Y326003D02*
D03*
X1555000Y327203D02*
D03*
Y301803D02*
D03*
Y276403D02*
D03*
X484003Y326003D02*
D03*
Y300603D02*
D03*
Y275203D02*
D03*
X1284003Y326003D02*
D03*
Y300603D02*
D03*
Y275203D02*
D03*
X884003Y326003D02*
D03*
Y300603D02*
D03*
Y275203D02*
D03*
X1084003Y326003D02*
D03*
Y300603D02*
D03*
Y275203D02*
D03*
X1484003Y326003D02*
D03*
Y300603D02*
D03*
Y275203D02*
D03*
X684003Y326003D02*
D03*
Y300603D02*
D03*
Y275203D02*
D03*
D43*
X115000Y592000D02*
D03*
D44*
Y498000D02*
D03*
D45*
X772400Y838000D02*
D03*
D46*
X912003Y81003D02*
D03*
X112003D02*
D03*
D62*
X1512003D02*
Y158003D01*
X1555000Y201000D01*
Y276403D01*
X1312003Y207003D02*
X1348003Y243003D01*
Y166803D02*
X1384803D01*
X1412003Y139603D01*
Y81003D02*
Y139603D01*
X1312003Y81003D02*
Y207003D01*
X1112003D02*
X1148003Y243003D01*
Y166803D02*
X1184803D01*
X1212003Y139603D01*
Y81003D02*
Y139603D01*
X1112003Y81003D02*
Y207003D01*
X912003D02*
X948003Y243003D01*
Y166803D02*
X984803D01*
X1012003Y139603D01*
Y81003D02*
Y139603D01*
X912003Y81003D02*
Y207003D01*
X712003D02*
X748003Y243003D01*
Y166803D02*
X784803D01*
X812003Y139603D01*
Y81003D02*
Y139603D01*
X712003Y81003D02*
Y207003D01*
X512003D02*
X548003Y243003D01*
Y166803D02*
X584803D01*
X612003Y139603D01*
Y81003D02*
Y139603D01*
X512003Y81003D02*
Y207003D01*
X312003D02*
X348003Y243003D01*
Y166803D02*
X384803D01*
X412003Y139603D01*
Y81003D02*
Y139603D01*
X312003Y81003D02*
Y207003D01*
X112003Y81003D02*
Y207003D01*
X212003Y81003D02*
Y139603D01*
X184803Y166803D02*
X212003Y139603D01*
X148003Y166803D02*
X184803D01*
X112003Y207003D02*
X148003Y243003D01*
M02*
