G04*
G04 #@! TF.GenerationSoftware,Altium Limited,Altium Designer,23.3.1 (30)*
G04*
G04 Layer_Physical_Order=3*
G04 Layer_Color=128*
%FSLAX44Y44*%
%MOMM*%
G71*
G04*
G04 #@! TF.SameCoordinates,67B4674F-F2B4-46E2-9611-5D6DB28F7A6D*
G04*
G04*
G04 #@! TF.FilePolarity,Negative*
G04*
G01*
G75*
%ADD73C,1.0160*%
%ADD74C,4.0160*%
%ADD75C,2.3114*%
%ADD76C,2.0160*%
%ADD77C,2.3160*%
%ADD78C,3.1160*%
%ADD79C,2.1410*%
%ADD80C,2.2160*%
%ADD81C,1.3660*%
%ADD82C,1.0000*%
%ADD83C,1.2160*%
D73*
X0Y900000D02*
X1720000D01*
Y0D02*
Y900000D01*
X0Y0D02*
X1720000D01*
X0D02*
Y900000D01*
D74*
X1685000Y865000D02*
D03*
Y35000D02*
D03*
X35000D02*
D03*
Y865000D02*
D03*
D75*
X1348003Y243003D02*
D03*
Y166803D02*
D03*
X1424203Y344603D02*
D03*
X1148003Y243003D02*
D03*
Y166803D02*
D03*
X1224203Y344603D02*
D03*
X948003Y243003D02*
D03*
Y166803D02*
D03*
X1024203Y344603D02*
D03*
X748003Y243003D02*
D03*
Y166803D02*
D03*
X824203Y344603D02*
D03*
X548003Y243003D02*
D03*
Y166803D02*
D03*
X624203Y344603D02*
D03*
X348003Y243003D02*
D03*
Y166803D02*
D03*
X424203Y344603D02*
D03*
X148003Y243003D02*
D03*
Y166803D02*
D03*
X224203Y344603D02*
D03*
D76*
X416103Y375603D02*
D03*
X216103D02*
D03*
X616103D02*
D03*
X816103D02*
D03*
X1216103D02*
D03*
X1416103D02*
D03*
X1016103D02*
D03*
D77*
X284003Y275203D02*
D03*
Y300603D02*
D03*
Y326003D02*
D03*
X1555000Y327203D02*
D03*
Y276403D02*
D03*
X484003Y326003D02*
D03*
Y300603D02*
D03*
Y275203D02*
D03*
X1284003Y326003D02*
D03*
Y300603D02*
D03*
Y275203D02*
D03*
X884003Y326003D02*
D03*
Y300603D02*
D03*
Y275203D02*
D03*
X1084003Y326003D02*
D03*
Y300603D02*
D03*
Y275203D02*
D03*
X1484003Y326003D02*
D03*
Y300603D02*
D03*
Y275203D02*
D03*
X684003Y326003D02*
D03*
Y300603D02*
D03*
Y275203D02*
D03*
X1612003Y81003D02*
D03*
X1512003D02*
D03*
X1412003D02*
D03*
X1312003D02*
D03*
X1212003D02*
D03*
X1112003D02*
D03*
X1012003D02*
D03*
X912003D02*
D03*
X812003D02*
D03*
X712003D02*
D03*
X612003D02*
D03*
X512003D02*
D03*
X412003D02*
D03*
X312003D02*
D03*
X212003D02*
D03*
X112003D02*
D03*
D78*
X145000Y812000D02*
D03*
D79*
X1084003Y565003D02*
D03*
X1109403D02*
D03*
X906203Y539603D02*
D03*
X931603D02*
D03*
X957003D02*
D03*
X982403D02*
D03*
X1007803D02*
D03*
X1033203D02*
D03*
X1058603D02*
D03*
X1084003D02*
D03*
X1109403D02*
D03*
X728403D02*
D03*
X753803D02*
D03*
X779203D02*
D03*
X906203Y565003D02*
D03*
X931603D02*
D03*
X957003D02*
D03*
X982403D02*
D03*
X1007803D02*
D03*
X1033203D02*
D03*
X1058603D02*
D03*
X880803D02*
D03*
Y539603D02*
D03*
X855403D02*
D03*
X830003D02*
D03*
X804603D02*
D03*
X626803D02*
D03*
X652203D02*
D03*
X677603D02*
D03*
X703003D02*
D03*
X677603Y565003D02*
D03*
X703003D02*
D03*
X728403D02*
D03*
X753803D02*
D03*
X779203D02*
D03*
X804603D02*
D03*
X855403D02*
D03*
X830003D02*
D03*
D80*
X797800Y838000D02*
D03*
X950200D02*
D03*
X924800D02*
D03*
X899400D02*
D03*
X874000D02*
D03*
X848600D02*
D03*
X823200D02*
D03*
X772400D02*
D03*
D81*
X1502988Y435206D02*
D03*
X1302988D02*
D03*
X1102988D02*
D03*
X902988D02*
D03*
X702988D02*
D03*
X502988D02*
D03*
X401497Y771548D02*
D03*
X377000Y771000D02*
D03*
X305000Y717000D02*
D03*
X354000Y857000D02*
D03*
X232000Y770000D02*
D03*
Y799000D02*
D03*
X1116000Y648000D02*
D03*
X1185000Y686000D02*
D03*
X1205000Y654530D02*
D03*
X1256000Y639000D02*
D03*
X1208000Y682944D02*
D03*
X1136150Y742000D02*
D03*
X908000Y649000D02*
D03*
X1300000Y386000D02*
D03*
X1100000D02*
D03*
X900000D02*
D03*
X700000D02*
D03*
X500000D02*
D03*
X300000D02*
D03*
X1500000D02*
D03*
X1590000Y397603D02*
D03*
X1053000Y639000D02*
D03*
X1005000Y682944D02*
D03*
X982000Y686000D02*
D03*
X1002000Y654530D02*
D03*
X933150Y742000D02*
D03*
X850000Y639000D02*
D03*
X802000Y682944D02*
D03*
X779000Y686000D02*
D03*
X799000Y654530D02*
D03*
X717450Y649000D02*
D03*
X730150Y742000D02*
D03*
X647000Y639000D02*
D03*
X576000Y686000D02*
D03*
X599000Y682944D02*
D03*
X596000Y654530D02*
D03*
X527150Y742000D02*
D03*
X514450Y649000D02*
D03*
X303000Y434603D02*
D03*
D82*
X465000Y654000D02*
Y899000D01*
Y654000D02*
X519000Y600000D01*
X1157000D01*
X1164000Y593000D01*
Y536000D02*
Y593000D01*
X1118000Y490000D02*
X1164000Y536000D01*
X530000Y490000D02*
X1118000D01*
X325000Y695000D02*
X530000Y490000D01*
X325000Y695000D02*
Y898000D01*
D83*
X553000Y702000D02*
D03*
Y689000D02*
D03*
X540000Y702000D02*
D03*
Y689000D02*
D03*
X527000Y702000D02*
D03*
Y689000D02*
D03*
X514000Y702000D02*
D03*
Y689000D02*
D03*
X717000D02*
D03*
Y702000D02*
D03*
X730000Y689000D02*
D03*
Y702000D02*
D03*
X743000Y689000D02*
D03*
Y702000D02*
D03*
X756000Y689000D02*
D03*
Y702000D02*
D03*
X959000D02*
D03*
Y689000D02*
D03*
X946000Y702000D02*
D03*
Y689000D02*
D03*
X933000Y702000D02*
D03*
Y689000D02*
D03*
X920000Y702000D02*
D03*
Y689000D02*
D03*
X1123000D02*
D03*
Y702000D02*
D03*
X1136000Y689000D02*
D03*
Y702000D02*
D03*
X1149000Y689000D02*
D03*
Y702000D02*
D03*
X1162000Y689000D02*
D03*
Y702000D02*
D03*
M02*
