G04*
G04 #@! TF.GenerationSoftware,Altium Limited,Altium Designer,23.3.1 (30)*
G04*
G04 Layer_Color=8388736*
%FSLAX44Y44*%
%MOMM*%
G71*
G04*
G04 #@! TF.SameCoordinates,67B4674F-F2B4-46E2-9611-5D6DB28F7A6D*
G04*
G04*
G04 #@! TF.FilePolarity,Negative*
G04*
G01*
G75*
%ADD26R,2.9972X2.1844*%
G04:AMPARAMS|DCode=27|XSize=1.6532mm|YSize=0.8032mm|CornerRadius=0.1766mm|HoleSize=0mm|Usage=FLASHONLY|Rotation=180.000|XOffset=0mm|YOffset=0mm|HoleType=Round|Shape=RoundedRectangle|*
%AMROUNDEDRECTD27*
21,1,1.6532,0.4500,0,0,180.0*
21,1,1.3000,0.8032,0,0,180.0*
1,1,0.3532,-0.6500,0.2250*
1,1,0.3532,0.6500,0.2250*
1,1,0.3532,0.6500,-0.2250*
1,1,0.3532,-0.6500,-0.2250*
%
%ADD27ROUNDEDRECTD27*%
%ADD28R,0.9032X1.2032*%
%ADD29R,1.2032X0.9032*%
%ADD30R,0.9144X1.1430*%
%ADD31R,1.1430X0.9144*%
%ADD32R,1.8232X3.7032*%
G04:AMPARAMS|DCode=33|XSize=1.4032mm|YSize=2.0232mm|CornerRadius=0.2516mm|HoleSize=0mm|Usage=FLASHONLY|Rotation=0.000|XOffset=0mm|YOffset=0mm|HoleType=Round|Shape=RoundedRectangle|*
%AMROUNDEDRECTD33*
21,1,1.4032,1.5200,0,0,0.0*
21,1,0.9000,2.0232,0,0,0.0*
1,1,0.5032,0.4500,-0.7600*
1,1,0.5032,-0.4500,-0.7600*
1,1,0.5032,-0.4500,0.7600*
1,1,0.5032,0.4500,0.7600*
%
%ADD33ROUNDEDRECTD33*%
%ADD34R,1.6032X1.2032*%
%ADD35C,0.7032*%
%ADD36C,5.0000*%
%ADD37C,1.8034*%
%ADD38C,1.9032*%
%ADD39C,2.1032*%
%ADD40C,3.0032*%
%ADD41R,3.0032X3.0032*%
%ADD42C,2.2032*%
%ADD43C,2.0032*%
%ADD44R,2.0032X2.0032*%
%ADD45R,2.2032X2.2032*%
G36*
X510760Y676530D02*
Y676550D01*
X510770Y676580D01*
Y676600D01*
X510780Y676630D01*
X510790Y676650D01*
X510800Y676680D01*
X510820Y676700D01*
X510830Y676720D01*
X510850Y676740D01*
X510860Y676760D01*
X510880Y676780D01*
X510900Y676800D01*
X510920Y676820D01*
X510940Y676840D01*
X510960Y676850D01*
X510980Y676870D01*
X511000Y676880D01*
X511020Y676900D01*
X511050Y676910D01*
X511070Y676920D01*
X511100Y676930D01*
X511120D01*
X511150Y676940D01*
X511170D01*
X511200Y676950D01*
X511220D01*
X511250D01*
X517650D01*
X517680D01*
X517700D01*
X517730Y676940D01*
X517750D01*
X517780Y676930D01*
X517800D01*
X517830Y676920D01*
X517850Y676910D01*
X517880Y676900D01*
X517900Y676880D01*
X517920Y676870D01*
X517940Y676850D01*
X517960Y676840D01*
X517980Y676820D01*
X518000Y676800D01*
X518020Y676780D01*
X518040Y676760D01*
X518050Y676740D01*
X518070Y676720D01*
X518080Y676700D01*
X518100Y676680D01*
X518110Y676650D01*
X518120Y676630D01*
X518130Y676600D01*
Y676580D01*
X518140Y676550D01*
Y676530D01*
X518150Y676500D01*
Y660500D01*
X518140Y660470D01*
Y660450D01*
X518130Y660420D01*
Y660400D01*
X518120Y660370D01*
X518110Y660350D01*
X518100Y660320D01*
X518080Y660300D01*
X518070Y660280D01*
X518050Y660260D01*
X518040Y660240D01*
X518020Y660220D01*
X518000Y660200D01*
X517980Y660180D01*
X517960Y660160D01*
X517940Y660150D01*
X517920Y660130D01*
X517900Y660120D01*
X517880Y660100D01*
X517850Y660090D01*
X517830Y660080D01*
X517800Y660070D01*
X517780D01*
X517750Y660060D01*
X517730D01*
X517700Y660050D01*
X517680D01*
X517650D01*
X511250D01*
X511220D01*
X511200D01*
X511170Y660060D01*
X511150D01*
X511120Y660070D01*
X511100D01*
X511070Y660080D01*
X511050Y660090D01*
X511020Y660100D01*
X511000Y660120D01*
X510980Y660130D01*
X510960Y660150D01*
X510940Y660160D01*
X510920Y660180D01*
X510900Y660200D01*
X510880Y660220D01*
X510860Y660240D01*
X510850Y660260D01*
X510830Y660280D01*
X510820Y660300D01*
X510800Y660320D01*
X510790Y660350D01*
X510780Y660370D01*
X510770Y660400D01*
Y660420D01*
X510760Y660450D01*
Y660470D01*
X510750Y660500D01*
Y676500D01*
X510760Y676530D01*
D02*
G37*
G36*
X523460D02*
Y676550D01*
X523470Y676580D01*
Y676600D01*
X523480Y676630D01*
X523490Y676650D01*
X523500Y676680D01*
X523520Y676700D01*
X523530Y676720D01*
X523550Y676740D01*
X523560Y676760D01*
X523580Y676780D01*
X523600Y676800D01*
X523620Y676820D01*
X523640Y676840D01*
X523660Y676850D01*
X523680Y676870D01*
X523700Y676880D01*
X523720Y676900D01*
X523750Y676910D01*
X523770Y676920D01*
X523800Y676930D01*
X523820D01*
X523850Y676940D01*
X523870D01*
X523900Y676950D01*
X523920D01*
X523950D01*
X530350D01*
X530380D01*
X530400D01*
X530430Y676940D01*
X530450D01*
X530480Y676930D01*
X530500D01*
X530530Y676920D01*
X530550Y676910D01*
X530580Y676900D01*
X530600Y676880D01*
X530620Y676870D01*
X530640Y676850D01*
X530660Y676840D01*
X530680Y676820D01*
X530700Y676800D01*
X530720Y676780D01*
X530740Y676760D01*
X530750Y676740D01*
X530770Y676720D01*
X530780Y676700D01*
X530800Y676680D01*
X530810Y676650D01*
X530820Y676630D01*
X530830Y676600D01*
Y676580D01*
X530840Y676550D01*
Y676530D01*
X530850Y676500D01*
Y660500D01*
X530840Y660470D01*
Y660450D01*
X530830Y660420D01*
Y660400D01*
X530820Y660370D01*
X530810Y660350D01*
X530800Y660320D01*
X530780Y660300D01*
X530770Y660280D01*
X530750Y660260D01*
X530740Y660240D01*
X530720Y660220D01*
X530700Y660200D01*
X530680Y660180D01*
X530660Y660160D01*
X530640Y660150D01*
X530620Y660130D01*
X530600Y660120D01*
X530580Y660100D01*
X530550Y660090D01*
X530530Y660080D01*
X530500Y660070D01*
X530480D01*
X530450Y660060D01*
X530430D01*
X530400Y660050D01*
X530380D01*
X530350D01*
X523950D01*
X523920D01*
X523900D01*
X523870Y660060D01*
X523850D01*
X523820Y660070D01*
X523800D01*
X523770Y660080D01*
X523750Y660090D01*
X523720Y660100D01*
X523700Y660120D01*
X523680Y660130D01*
X523660Y660150D01*
X523640Y660160D01*
X523620Y660180D01*
X523600Y660200D01*
X523580Y660220D01*
X523560Y660240D01*
X523550Y660260D01*
X523530Y660280D01*
X523520Y660300D01*
X523500Y660320D01*
X523490Y660350D01*
X523480Y660370D01*
X523470Y660400D01*
Y660420D01*
X523460Y660450D01*
Y660470D01*
X523450Y660500D01*
Y676500D01*
X523460Y676530D01*
D02*
G37*
G36*
X536160D02*
Y676550D01*
X536170Y676580D01*
Y676600D01*
X536180Y676630D01*
X536190Y676650D01*
X536200Y676680D01*
X536220Y676700D01*
X536230Y676720D01*
X536250Y676740D01*
X536260Y676760D01*
X536280Y676780D01*
X536300Y676800D01*
X536320Y676820D01*
X536340Y676840D01*
X536360Y676850D01*
X536380Y676870D01*
X536400Y676880D01*
X536420Y676900D01*
X536450Y676910D01*
X536470Y676920D01*
X536500Y676930D01*
X536520D01*
X536550Y676940D01*
X536570D01*
X536600Y676950D01*
X536620D01*
X536650D01*
X543050D01*
X543080D01*
X543100D01*
X543130Y676940D01*
X543150D01*
X543180Y676930D01*
X543200D01*
X543230Y676920D01*
X543250Y676910D01*
X543280Y676900D01*
X543300Y676880D01*
X543320Y676870D01*
X543340Y676850D01*
X543360Y676840D01*
X543380Y676820D01*
X543400Y676800D01*
X543420Y676780D01*
X543440Y676760D01*
X543450Y676740D01*
X543470Y676720D01*
X543480Y676700D01*
X543500Y676680D01*
X543510Y676650D01*
X543520Y676630D01*
X543530Y676600D01*
Y676580D01*
X543540Y676550D01*
Y676530D01*
X543550Y676500D01*
Y660500D01*
X543540Y660470D01*
Y660450D01*
X543530Y660420D01*
Y660400D01*
X543520Y660370D01*
X543510Y660350D01*
X543500Y660320D01*
X543480Y660300D01*
X543470Y660280D01*
X543450Y660260D01*
X543440Y660240D01*
X543420Y660220D01*
X543400Y660200D01*
X543380Y660180D01*
X543360Y660160D01*
X543340Y660150D01*
X543320Y660130D01*
X543300Y660120D01*
X543280Y660100D01*
X543250Y660090D01*
X543230Y660080D01*
X543200Y660070D01*
X543180D01*
X543150Y660060D01*
X543130D01*
X543100Y660050D01*
X543080D01*
X543050D01*
X536650D01*
X536620D01*
X536600D01*
X536570Y660060D01*
X536550D01*
X536520Y660070D01*
X536500D01*
X536470Y660080D01*
X536450Y660090D01*
X536420Y660100D01*
X536400Y660120D01*
X536380Y660130D01*
X536360Y660150D01*
X536340Y660160D01*
X536320Y660180D01*
X536300Y660200D01*
X536280Y660220D01*
X536260Y660240D01*
X536250Y660260D01*
X536230Y660280D01*
X536220Y660300D01*
X536200Y660320D01*
X536190Y660350D01*
X536180Y660370D01*
X536170Y660400D01*
Y660420D01*
X536160Y660450D01*
Y660470D01*
X536150Y660500D01*
Y676500D01*
X536160Y676530D01*
D02*
G37*
G36*
X548860D02*
Y676550D01*
X548870Y676580D01*
Y676600D01*
X548880Y676630D01*
X548890Y676650D01*
X548900Y676680D01*
X548920Y676700D01*
X548930Y676720D01*
X548950Y676740D01*
X548960Y676760D01*
X548980Y676780D01*
X549000Y676800D01*
X549020Y676820D01*
X549040Y676840D01*
X549060Y676850D01*
X549080Y676870D01*
X549100Y676880D01*
X549120Y676900D01*
X549150Y676910D01*
X549170Y676920D01*
X549200Y676930D01*
X549220D01*
X549250Y676940D01*
X549270D01*
X549300Y676950D01*
X549320D01*
X549350D01*
X555750D01*
X555780D01*
X555800D01*
X555830Y676940D01*
X555850D01*
X555880Y676930D01*
X555900D01*
X555930Y676920D01*
X555950Y676910D01*
X555980Y676900D01*
X556000Y676880D01*
X556020Y676870D01*
X556040Y676850D01*
X556060Y676840D01*
X556080Y676820D01*
X556100Y676800D01*
X556120Y676780D01*
X556140Y676760D01*
X556150Y676740D01*
X556170Y676720D01*
X556180Y676700D01*
X556200Y676680D01*
X556210Y676650D01*
X556220Y676630D01*
X556230Y676600D01*
Y676580D01*
X556240Y676550D01*
Y676530D01*
X556250Y676500D01*
Y660500D01*
X556240Y660470D01*
Y660450D01*
X556230Y660420D01*
Y660400D01*
X556220Y660370D01*
X556210Y660350D01*
X556200Y660320D01*
X556180Y660300D01*
X556170Y660280D01*
X556150Y660260D01*
X556140Y660240D01*
X556120Y660220D01*
X556100Y660200D01*
X556080Y660180D01*
X556060Y660160D01*
X556040Y660150D01*
X556020Y660130D01*
X556000Y660120D01*
X555980Y660100D01*
X555950Y660090D01*
X555930Y660080D01*
X555900Y660070D01*
X555880D01*
X555850Y660060D01*
X555830D01*
X555800Y660050D01*
X555780D01*
X555750D01*
X549350D01*
X549320D01*
X549300D01*
X549270Y660060D01*
X549250D01*
X549220Y660070D01*
X549200D01*
X549170Y660080D01*
X549150Y660090D01*
X549120Y660100D01*
X549100Y660120D01*
X549080Y660130D01*
X549060Y660150D01*
X549040Y660160D01*
X549020Y660180D01*
X549000Y660200D01*
X548980Y660220D01*
X548960Y660240D01*
X548950Y660260D01*
X548930Y660280D01*
X548920Y660300D01*
X548900Y660320D01*
X548890Y660350D01*
X548880Y660370D01*
X548870Y660400D01*
Y660420D01*
X548860Y660450D01*
Y660470D01*
X548850Y660500D01*
Y676500D01*
X548860Y676530D01*
D02*
G37*
G36*
X555830Y730940D02*
X555850D01*
X555880Y730930D01*
X555900D01*
X555930Y730920D01*
X555950Y730910D01*
X555980Y730900D01*
X556000Y730880D01*
X556020Y730870D01*
X556040Y730850D01*
X556060Y730840D01*
X556080Y730820D01*
X556100Y730800D01*
X556120Y730780D01*
X556140Y730760D01*
X556150Y730740D01*
X556170Y730720D01*
X556180Y730700D01*
X556200Y730680D01*
X556210Y730650D01*
X556220Y730630D01*
X556230Y730600D01*
Y730580D01*
X556240Y730550D01*
Y730530D01*
X556250Y730500D01*
Y714500D01*
X556240Y714470D01*
Y714450D01*
X556230Y714420D01*
Y714400D01*
X556220Y714370D01*
X556210Y714350D01*
X556200Y714320D01*
X556180Y714300D01*
X556170Y714280D01*
X556150Y714260D01*
X556140Y714240D01*
X556120Y714220D01*
X556100Y714200D01*
X556080Y714180D01*
X556060Y714160D01*
X556040Y714150D01*
X556020Y714130D01*
X556000Y714120D01*
X555980Y714100D01*
X555950Y714090D01*
X555930Y714080D01*
X555900Y714070D01*
X555880D01*
X555850Y714060D01*
X555830D01*
X555800Y714050D01*
X549300D01*
X549270Y714060D01*
X549250D01*
X549220Y714070D01*
X549200D01*
X549170Y714080D01*
X549150Y714090D01*
X549120Y714100D01*
X549100Y714120D01*
X549080Y714130D01*
X549060Y714150D01*
X549040Y714160D01*
X549020Y714180D01*
X549000Y714200D01*
X548980Y714220D01*
X548960Y714240D01*
X548950Y714260D01*
X548930Y714280D01*
X548920Y714300D01*
X548900Y714320D01*
X548890Y714350D01*
X548880Y714370D01*
X548870Y714400D01*
Y714420D01*
X548860Y714450D01*
Y714470D01*
X548850Y714500D01*
Y730500D01*
X548860Y730530D01*
Y730550D01*
X548870Y730580D01*
Y730600D01*
X548880Y730630D01*
X548890Y730650D01*
X548900Y730680D01*
X548920Y730700D01*
X548930Y730720D01*
X548950Y730740D01*
X548960Y730760D01*
X548980Y730780D01*
X549000Y730800D01*
X549020Y730820D01*
X549040Y730840D01*
X549060Y730850D01*
X549080Y730870D01*
X549100Y730880D01*
X549120Y730900D01*
X549150Y730910D01*
X549170Y730920D01*
X549200Y730930D01*
X549220D01*
X549250Y730940D01*
X549270D01*
X549300Y730950D01*
X555800D01*
X555830Y730940D01*
D02*
G37*
G36*
X543130D02*
X543150D01*
X543180Y730930D01*
X543200D01*
X543230Y730920D01*
X543250Y730910D01*
X543280Y730900D01*
X543300Y730880D01*
X543320Y730870D01*
X543340Y730850D01*
X543360Y730840D01*
X543380Y730820D01*
X543400Y730800D01*
X543420Y730780D01*
X543440Y730760D01*
X543450Y730740D01*
X543470Y730720D01*
X543480Y730700D01*
X543500Y730680D01*
X543510Y730650D01*
X543520Y730630D01*
X543530Y730600D01*
Y730580D01*
X543540Y730550D01*
Y730530D01*
X543550Y730500D01*
Y714500D01*
X543540Y714470D01*
Y714450D01*
X543530Y714420D01*
Y714400D01*
X543520Y714370D01*
X543510Y714350D01*
X543500Y714320D01*
X543480Y714300D01*
X543470Y714280D01*
X543450Y714260D01*
X543440Y714240D01*
X543420Y714220D01*
X543400Y714200D01*
X543380Y714180D01*
X543360Y714160D01*
X543340Y714150D01*
X543320Y714130D01*
X543300Y714120D01*
X543280Y714100D01*
X543250Y714090D01*
X543230Y714080D01*
X543200Y714070D01*
X543180D01*
X543150Y714060D01*
X543130D01*
X543100Y714050D01*
X536600D01*
X536570Y714060D01*
X536550D01*
X536520Y714070D01*
X536500D01*
X536470Y714080D01*
X536450Y714090D01*
X536420Y714100D01*
X536400Y714120D01*
X536380Y714130D01*
X536360Y714150D01*
X536340Y714160D01*
X536320Y714180D01*
X536300Y714200D01*
X536280Y714220D01*
X536260Y714240D01*
X536250Y714260D01*
X536230Y714280D01*
X536220Y714300D01*
X536200Y714320D01*
X536190Y714350D01*
X536180Y714370D01*
X536170Y714400D01*
Y714420D01*
X536160Y714450D01*
Y714470D01*
X536150Y714500D01*
Y730500D01*
X536160Y730530D01*
Y730550D01*
X536170Y730580D01*
Y730600D01*
X536180Y730630D01*
X536190Y730650D01*
X536200Y730680D01*
X536220Y730700D01*
X536230Y730720D01*
X536250Y730740D01*
X536260Y730760D01*
X536280Y730780D01*
X536300Y730800D01*
X536320Y730820D01*
X536340Y730840D01*
X536360Y730850D01*
X536380Y730870D01*
X536400Y730880D01*
X536420Y730900D01*
X536450Y730910D01*
X536470Y730920D01*
X536500Y730930D01*
X536520D01*
X536550Y730940D01*
X536570D01*
X536600Y730950D01*
X543100D01*
X543130Y730940D01*
D02*
G37*
G36*
X530430D02*
X530450D01*
X530480Y730930D01*
X530500D01*
X530530Y730920D01*
X530550Y730910D01*
X530580Y730900D01*
X530600Y730880D01*
X530620Y730870D01*
X530640Y730850D01*
X530660Y730840D01*
X530680Y730820D01*
X530700Y730800D01*
X530720Y730780D01*
X530740Y730760D01*
X530750Y730740D01*
X530770Y730720D01*
X530780Y730700D01*
X530800Y730680D01*
X530810Y730650D01*
X530820Y730630D01*
X530830Y730600D01*
Y730580D01*
X530840Y730550D01*
Y730530D01*
X530850Y730500D01*
Y714500D01*
X530840Y714470D01*
Y714450D01*
X530830Y714420D01*
Y714400D01*
X530820Y714370D01*
X530810Y714350D01*
X530800Y714320D01*
X530780Y714300D01*
X530770Y714280D01*
X530750Y714260D01*
X530740Y714240D01*
X530720Y714220D01*
X530700Y714200D01*
X530680Y714180D01*
X530660Y714160D01*
X530640Y714150D01*
X530620Y714130D01*
X530600Y714120D01*
X530580Y714100D01*
X530550Y714090D01*
X530530Y714080D01*
X530500Y714070D01*
X530480D01*
X530450Y714060D01*
X530430D01*
X530400Y714050D01*
X523900D01*
X523870Y714060D01*
X523850D01*
X523820Y714070D01*
X523800D01*
X523770Y714080D01*
X523750Y714090D01*
X523720Y714100D01*
X523700Y714120D01*
X523680Y714130D01*
X523660Y714150D01*
X523640Y714160D01*
X523620Y714180D01*
X523600Y714200D01*
X523580Y714220D01*
X523560Y714240D01*
X523550Y714260D01*
X523530Y714280D01*
X523520Y714300D01*
X523500Y714320D01*
X523490Y714350D01*
X523480Y714370D01*
X523470Y714400D01*
Y714420D01*
X523460Y714450D01*
Y714470D01*
X523450Y714500D01*
Y730500D01*
X523460Y730530D01*
Y730550D01*
X523470Y730580D01*
Y730600D01*
X523480Y730630D01*
X523490Y730650D01*
X523500Y730680D01*
X523520Y730700D01*
X523530Y730720D01*
X523550Y730740D01*
X523560Y730760D01*
X523580Y730780D01*
X523600Y730800D01*
X523620Y730820D01*
X523640Y730840D01*
X523660Y730850D01*
X523680Y730870D01*
X523700Y730880D01*
X523720Y730900D01*
X523750Y730910D01*
X523770Y730920D01*
X523800Y730930D01*
X523820D01*
X523850Y730940D01*
X523870D01*
X523900Y730950D01*
X530400D01*
X530430Y730940D01*
D02*
G37*
G36*
X517730D02*
X517750D01*
X517780Y730930D01*
X517800D01*
X517830Y730920D01*
X517850Y730910D01*
X517880Y730900D01*
X517900Y730880D01*
X517920Y730870D01*
X517940Y730850D01*
X517960Y730840D01*
X517980Y730820D01*
X518000Y730800D01*
X518020Y730780D01*
X518040Y730760D01*
X518050Y730740D01*
X518070Y730720D01*
X518080Y730700D01*
X518100Y730680D01*
X518110Y730650D01*
X518120Y730630D01*
X518130Y730600D01*
Y730580D01*
X518140Y730550D01*
Y730530D01*
X518150Y730500D01*
Y714500D01*
X518140Y714470D01*
Y714450D01*
X518130Y714420D01*
Y714400D01*
X518120Y714370D01*
X518110Y714350D01*
X518100Y714320D01*
X518080Y714300D01*
X518070Y714280D01*
X518050Y714260D01*
X518040Y714240D01*
X518020Y714220D01*
X518000Y714200D01*
X517980Y714180D01*
X517960Y714160D01*
X517940Y714150D01*
X517920Y714130D01*
X517900Y714120D01*
X517880Y714100D01*
X517850Y714090D01*
X517830Y714080D01*
X517800Y714070D01*
X517780D01*
X517750Y714060D01*
X517730D01*
X517700Y714050D01*
X511200D01*
X511170Y714060D01*
X511150D01*
X511120Y714070D01*
X511100D01*
X511070Y714080D01*
X511050Y714090D01*
X511020Y714100D01*
X511000Y714120D01*
X510980Y714130D01*
X510960Y714150D01*
X510940Y714160D01*
X510920Y714180D01*
X510900Y714200D01*
X510880Y714220D01*
X510860Y714240D01*
X510850Y714260D01*
X510830Y714280D01*
X510820Y714300D01*
X510800Y714320D01*
X510790Y714350D01*
X510780Y714370D01*
X510770Y714400D01*
Y714420D01*
X510760Y714450D01*
Y714470D01*
X510750Y714500D01*
Y730500D01*
X510760Y730530D01*
Y730550D01*
X510770Y730580D01*
Y730600D01*
X510780Y730630D01*
X510790Y730650D01*
X510800Y730680D01*
X510820Y730700D01*
X510830Y730720D01*
X510850Y730740D01*
X510860Y730760D01*
X510880Y730780D01*
X510900Y730800D01*
X510920Y730820D01*
X510940Y730840D01*
X510960Y730850D01*
X510980Y730870D01*
X511000Y730880D01*
X511020Y730900D01*
X511050Y730910D01*
X511070Y730920D01*
X511100Y730930D01*
X511120D01*
X511150Y730940D01*
X511170D01*
X511200Y730950D01*
X517700D01*
X517730Y730940D01*
D02*
G37*
G36*
X558002Y680751D02*
X508978D01*
Y710241D01*
X558002D01*
Y680751D01*
D02*
G37*
G36*
X761002D02*
X711978D01*
Y710241D01*
X761002D01*
Y680751D01*
D02*
G37*
G36*
X758830Y676940D02*
X758850D01*
X758880Y676930D01*
X758900D01*
X758930Y676920D01*
X758950Y676910D01*
X758980Y676900D01*
X759000Y676880D01*
X759020Y676870D01*
X759040Y676850D01*
X759060Y676840D01*
X759080Y676820D01*
X759100Y676800D01*
X759120Y676780D01*
X759140Y676760D01*
X759150Y676740D01*
X759170Y676720D01*
X759180Y676700D01*
X759200Y676680D01*
X759210Y676650D01*
X759220Y676630D01*
X759230Y676600D01*
Y676580D01*
X759240Y676550D01*
Y676530D01*
X759250Y676500D01*
Y660500D01*
X759240Y660470D01*
Y660450D01*
X759230Y660420D01*
Y660400D01*
X759220Y660370D01*
X759210Y660350D01*
X759200Y660320D01*
X759180Y660300D01*
X759170Y660280D01*
X759150Y660260D01*
X759140Y660240D01*
X759120Y660220D01*
X759100Y660200D01*
X759080Y660180D01*
X759060Y660160D01*
X759040Y660150D01*
X759020Y660130D01*
X759000Y660120D01*
X758980Y660100D01*
X758950Y660090D01*
X758930Y660080D01*
X758900Y660070D01*
X758880D01*
X758850Y660060D01*
X758830D01*
X758800Y660050D01*
X752300D01*
X752270Y660060D01*
X752250D01*
X752220Y660070D01*
X752200D01*
X752170Y660080D01*
X752150Y660090D01*
X752120Y660100D01*
X752100Y660120D01*
X752080Y660130D01*
X752060Y660150D01*
X752040Y660160D01*
X752020Y660180D01*
X752000Y660200D01*
X751980Y660220D01*
X751960Y660240D01*
X751950Y660260D01*
X751930Y660280D01*
X751920Y660300D01*
X751900Y660320D01*
X751890Y660350D01*
X751880Y660370D01*
X751870Y660400D01*
Y660420D01*
X751860Y660450D01*
Y660470D01*
X751850Y660500D01*
Y676500D01*
X751860Y676530D01*
Y676550D01*
X751870Y676580D01*
Y676600D01*
X751880Y676630D01*
X751890Y676650D01*
X751900Y676680D01*
X751920Y676700D01*
X751930Y676720D01*
X751950Y676740D01*
X751960Y676760D01*
X751980Y676780D01*
X752000Y676800D01*
X752020Y676820D01*
X752040Y676840D01*
X752060Y676850D01*
X752080Y676870D01*
X752100Y676880D01*
X752120Y676900D01*
X752150Y676910D01*
X752170Y676920D01*
X752200Y676930D01*
X752220D01*
X752250Y676940D01*
X752270D01*
X752300Y676950D01*
X758800D01*
X758830Y676940D01*
D02*
G37*
G36*
X746130D02*
X746150D01*
X746180Y676930D01*
X746200D01*
X746230Y676920D01*
X746250Y676910D01*
X746280Y676900D01*
X746300Y676880D01*
X746320Y676870D01*
X746340Y676850D01*
X746360Y676840D01*
X746380Y676820D01*
X746400Y676800D01*
X746420Y676780D01*
X746440Y676760D01*
X746450Y676740D01*
X746470Y676720D01*
X746480Y676700D01*
X746500Y676680D01*
X746510Y676650D01*
X746520Y676630D01*
X746530Y676600D01*
Y676580D01*
X746540Y676550D01*
Y676530D01*
X746550Y676500D01*
Y660500D01*
X746540Y660470D01*
Y660450D01*
X746530Y660420D01*
Y660400D01*
X746520Y660370D01*
X746510Y660350D01*
X746500Y660320D01*
X746480Y660300D01*
X746470Y660280D01*
X746450Y660260D01*
X746440Y660240D01*
X746420Y660220D01*
X746400Y660200D01*
X746380Y660180D01*
X746360Y660160D01*
X746340Y660150D01*
X746320Y660130D01*
X746300Y660120D01*
X746280Y660100D01*
X746250Y660090D01*
X746230Y660080D01*
X746200Y660070D01*
X746180D01*
X746150Y660060D01*
X746130D01*
X746100Y660050D01*
X739600D01*
X739570Y660060D01*
X739550D01*
X739520Y660070D01*
X739500D01*
X739470Y660080D01*
X739450Y660090D01*
X739420Y660100D01*
X739400Y660120D01*
X739380Y660130D01*
X739360Y660150D01*
X739340Y660160D01*
X739320Y660180D01*
X739300Y660200D01*
X739280Y660220D01*
X739260Y660240D01*
X739250Y660260D01*
X739230Y660280D01*
X739220Y660300D01*
X739200Y660320D01*
X739190Y660350D01*
X739180Y660370D01*
X739170Y660400D01*
Y660420D01*
X739160Y660450D01*
Y660470D01*
X739150Y660500D01*
Y676500D01*
X739160Y676530D01*
Y676550D01*
X739170Y676580D01*
Y676600D01*
X739180Y676630D01*
X739190Y676650D01*
X739200Y676680D01*
X739220Y676700D01*
X739230Y676720D01*
X739250Y676740D01*
X739260Y676760D01*
X739280Y676780D01*
X739300Y676800D01*
X739320Y676820D01*
X739340Y676840D01*
X739360Y676850D01*
X739380Y676870D01*
X739400Y676880D01*
X739420Y676900D01*
X739450Y676910D01*
X739470Y676920D01*
X739500Y676930D01*
X739520D01*
X739550Y676940D01*
X739570D01*
X739600Y676950D01*
X746100D01*
X746130Y676940D01*
D02*
G37*
G36*
X733430D02*
X733450D01*
X733480Y676930D01*
X733500D01*
X733530Y676920D01*
X733550Y676910D01*
X733580Y676900D01*
X733600Y676880D01*
X733620Y676870D01*
X733640Y676850D01*
X733660Y676840D01*
X733680Y676820D01*
X733700Y676800D01*
X733720Y676780D01*
X733740Y676760D01*
X733750Y676740D01*
X733770Y676720D01*
X733780Y676700D01*
X733800Y676680D01*
X733810Y676650D01*
X733820Y676630D01*
X733830Y676600D01*
Y676580D01*
X733840Y676550D01*
Y676530D01*
X733850Y676500D01*
Y660500D01*
X733840Y660470D01*
Y660450D01*
X733830Y660420D01*
Y660400D01*
X733820Y660370D01*
X733810Y660350D01*
X733800Y660320D01*
X733780Y660300D01*
X733770Y660280D01*
X733750Y660260D01*
X733740Y660240D01*
X733720Y660220D01*
X733700Y660200D01*
X733680Y660180D01*
X733660Y660160D01*
X733640Y660150D01*
X733620Y660130D01*
X733600Y660120D01*
X733580Y660100D01*
X733550Y660090D01*
X733530Y660080D01*
X733500Y660070D01*
X733480D01*
X733450Y660060D01*
X733430D01*
X733400Y660050D01*
X726900D01*
X726870Y660060D01*
X726850D01*
X726820Y660070D01*
X726800D01*
X726770Y660080D01*
X726750Y660090D01*
X726720Y660100D01*
X726700Y660120D01*
X726680Y660130D01*
X726660Y660150D01*
X726640Y660160D01*
X726620Y660180D01*
X726600Y660200D01*
X726580Y660220D01*
X726560Y660240D01*
X726550Y660260D01*
X726530Y660280D01*
X726520Y660300D01*
X726500Y660320D01*
X726490Y660350D01*
X726480Y660370D01*
X726470Y660400D01*
Y660420D01*
X726460Y660450D01*
Y660470D01*
X726450Y660500D01*
Y676500D01*
X726460Y676530D01*
Y676550D01*
X726470Y676580D01*
Y676600D01*
X726480Y676630D01*
X726490Y676650D01*
X726500Y676680D01*
X726520Y676700D01*
X726530Y676720D01*
X726550Y676740D01*
X726560Y676760D01*
X726580Y676780D01*
X726600Y676800D01*
X726620Y676820D01*
X726640Y676840D01*
X726660Y676850D01*
X726680Y676870D01*
X726700Y676880D01*
X726720Y676900D01*
X726750Y676910D01*
X726770Y676920D01*
X726800Y676930D01*
X726820D01*
X726850Y676940D01*
X726870D01*
X726900Y676950D01*
X733400D01*
X733430Y676940D01*
D02*
G37*
G36*
X720730D02*
X720750D01*
X720780Y676930D01*
X720800D01*
X720830Y676920D01*
X720850Y676910D01*
X720880Y676900D01*
X720900Y676880D01*
X720920Y676870D01*
X720940Y676850D01*
X720960Y676840D01*
X720980Y676820D01*
X721000Y676800D01*
X721020Y676780D01*
X721040Y676760D01*
X721050Y676740D01*
X721070Y676720D01*
X721080Y676700D01*
X721100Y676680D01*
X721110Y676650D01*
X721120Y676630D01*
X721130Y676600D01*
Y676580D01*
X721140Y676550D01*
Y676530D01*
X721150Y676500D01*
Y660500D01*
X721140Y660470D01*
Y660450D01*
X721130Y660420D01*
Y660400D01*
X721120Y660370D01*
X721110Y660350D01*
X721100Y660320D01*
X721080Y660300D01*
X721070Y660280D01*
X721050Y660260D01*
X721040Y660240D01*
X721020Y660220D01*
X721000Y660200D01*
X720980Y660180D01*
X720960Y660160D01*
X720940Y660150D01*
X720920Y660130D01*
X720900Y660120D01*
X720880Y660100D01*
X720850Y660090D01*
X720830Y660080D01*
X720800Y660070D01*
X720780D01*
X720750Y660060D01*
X720730D01*
X720700Y660050D01*
X714200D01*
X714170Y660060D01*
X714150D01*
X714120Y660070D01*
X714100D01*
X714070Y660080D01*
X714050Y660090D01*
X714020Y660100D01*
X714000Y660120D01*
X713980Y660130D01*
X713960Y660150D01*
X713940Y660160D01*
X713920Y660180D01*
X713900Y660200D01*
X713880Y660220D01*
X713860Y660240D01*
X713850Y660260D01*
X713830Y660280D01*
X713820Y660300D01*
X713800Y660320D01*
X713790Y660350D01*
X713780Y660370D01*
X713770Y660400D01*
Y660420D01*
X713760Y660450D01*
Y660470D01*
X713750Y660500D01*
Y676500D01*
X713760Y676530D01*
Y676550D01*
X713770Y676580D01*
Y676600D01*
X713780Y676630D01*
X713790Y676650D01*
X713800Y676680D01*
X713820Y676700D01*
X713830Y676720D01*
X713850Y676740D01*
X713860Y676760D01*
X713880Y676780D01*
X713900Y676800D01*
X713920Y676820D01*
X713940Y676840D01*
X713960Y676850D01*
X713980Y676870D01*
X714000Y676880D01*
X714020Y676900D01*
X714050Y676910D01*
X714070Y676920D01*
X714100Y676930D01*
X714120D01*
X714150Y676940D01*
X714170D01*
X714200Y676950D01*
X720700D01*
X720730Y676940D01*
D02*
G37*
G36*
X713760Y730530D02*
Y730550D01*
X713770Y730580D01*
Y730600D01*
X713780Y730630D01*
X713790Y730650D01*
X713800Y730680D01*
X713820Y730700D01*
X713830Y730720D01*
X713850Y730740D01*
X713860Y730760D01*
X713880Y730780D01*
X713900Y730800D01*
X713920Y730820D01*
X713940Y730840D01*
X713960Y730850D01*
X713980Y730870D01*
X714000Y730880D01*
X714020Y730900D01*
X714050Y730910D01*
X714070Y730920D01*
X714100Y730930D01*
X714120D01*
X714150Y730940D01*
X714170D01*
X714200Y730950D01*
X714220D01*
X714250D01*
X720650D01*
X720680D01*
X720700D01*
X720730Y730940D01*
X720750D01*
X720780Y730930D01*
X720800D01*
X720830Y730920D01*
X720850Y730910D01*
X720880Y730900D01*
X720900Y730880D01*
X720920Y730870D01*
X720940Y730850D01*
X720960Y730840D01*
X720980Y730820D01*
X721000Y730800D01*
X721020Y730780D01*
X721040Y730760D01*
X721050Y730740D01*
X721070Y730720D01*
X721080Y730700D01*
X721100Y730680D01*
X721110Y730650D01*
X721120Y730630D01*
X721130Y730600D01*
Y730580D01*
X721140Y730550D01*
Y730530D01*
X721150Y730500D01*
Y714500D01*
X721140Y714470D01*
Y714450D01*
X721130Y714420D01*
Y714400D01*
X721120Y714370D01*
X721110Y714350D01*
X721100Y714320D01*
X721080Y714300D01*
X721070Y714280D01*
X721050Y714260D01*
X721040Y714240D01*
X721020Y714220D01*
X721000Y714200D01*
X720980Y714180D01*
X720960Y714160D01*
X720940Y714150D01*
X720920Y714130D01*
X720900Y714120D01*
X720880Y714100D01*
X720850Y714090D01*
X720830Y714080D01*
X720800Y714070D01*
X720780D01*
X720750Y714060D01*
X720730D01*
X720700Y714050D01*
X720680D01*
X720650D01*
X714250D01*
X714220D01*
X714200D01*
X714170Y714060D01*
X714150D01*
X714120Y714070D01*
X714100D01*
X714070Y714080D01*
X714050Y714090D01*
X714020Y714100D01*
X714000Y714120D01*
X713980Y714130D01*
X713960Y714150D01*
X713940Y714160D01*
X713920Y714180D01*
X713900Y714200D01*
X713880Y714220D01*
X713860Y714240D01*
X713850Y714260D01*
X713830Y714280D01*
X713820Y714300D01*
X713800Y714320D01*
X713790Y714350D01*
X713780Y714370D01*
X713770Y714400D01*
Y714420D01*
X713760Y714450D01*
Y714470D01*
X713750Y714500D01*
Y730500D01*
X713760Y730530D01*
D02*
G37*
G36*
X726460D02*
Y730550D01*
X726470Y730580D01*
Y730600D01*
X726480Y730630D01*
X726490Y730650D01*
X726500Y730680D01*
X726520Y730700D01*
X726530Y730720D01*
X726550Y730740D01*
X726560Y730760D01*
X726580Y730780D01*
X726600Y730800D01*
X726620Y730820D01*
X726640Y730840D01*
X726660Y730850D01*
X726680Y730870D01*
X726700Y730880D01*
X726720Y730900D01*
X726750Y730910D01*
X726770Y730920D01*
X726800Y730930D01*
X726820D01*
X726850Y730940D01*
X726870D01*
X726900Y730950D01*
X726920D01*
X726950D01*
X733350D01*
X733380D01*
X733400D01*
X733430Y730940D01*
X733450D01*
X733480Y730930D01*
X733500D01*
X733530Y730920D01*
X733550Y730910D01*
X733580Y730900D01*
X733600Y730880D01*
X733620Y730870D01*
X733640Y730850D01*
X733660Y730840D01*
X733680Y730820D01*
X733700Y730800D01*
X733720Y730780D01*
X733740Y730760D01*
X733750Y730740D01*
X733770Y730720D01*
X733780Y730700D01*
X733800Y730680D01*
X733810Y730650D01*
X733820Y730630D01*
X733830Y730600D01*
Y730580D01*
X733840Y730550D01*
Y730530D01*
X733850Y730500D01*
Y714500D01*
X733840Y714470D01*
Y714450D01*
X733830Y714420D01*
Y714400D01*
X733820Y714370D01*
X733810Y714350D01*
X733800Y714320D01*
X733780Y714300D01*
X733770Y714280D01*
X733750Y714260D01*
X733740Y714240D01*
X733720Y714220D01*
X733700Y714200D01*
X733680Y714180D01*
X733660Y714160D01*
X733640Y714150D01*
X733620Y714130D01*
X733600Y714120D01*
X733580Y714100D01*
X733550Y714090D01*
X733530Y714080D01*
X733500Y714070D01*
X733480D01*
X733450Y714060D01*
X733430D01*
X733400Y714050D01*
X733380D01*
X733350D01*
X726950D01*
X726920D01*
X726900D01*
X726870Y714060D01*
X726850D01*
X726820Y714070D01*
X726800D01*
X726770Y714080D01*
X726750Y714090D01*
X726720Y714100D01*
X726700Y714120D01*
X726680Y714130D01*
X726660Y714150D01*
X726640Y714160D01*
X726620Y714180D01*
X726600Y714200D01*
X726580Y714220D01*
X726560Y714240D01*
X726550Y714260D01*
X726530Y714280D01*
X726520Y714300D01*
X726500Y714320D01*
X726490Y714350D01*
X726480Y714370D01*
X726470Y714400D01*
Y714420D01*
X726460Y714450D01*
Y714470D01*
X726450Y714500D01*
Y730500D01*
X726460Y730530D01*
D02*
G37*
G36*
X739160D02*
Y730550D01*
X739170Y730580D01*
Y730600D01*
X739180Y730630D01*
X739190Y730650D01*
X739200Y730680D01*
X739220Y730700D01*
X739230Y730720D01*
X739250Y730740D01*
X739260Y730760D01*
X739280Y730780D01*
X739300Y730800D01*
X739320Y730820D01*
X739340Y730840D01*
X739360Y730850D01*
X739380Y730870D01*
X739400Y730880D01*
X739420Y730900D01*
X739450Y730910D01*
X739470Y730920D01*
X739500Y730930D01*
X739520D01*
X739550Y730940D01*
X739570D01*
X739600Y730950D01*
X739620D01*
X739650D01*
X746050D01*
X746080D01*
X746100D01*
X746130Y730940D01*
X746150D01*
X746180Y730930D01*
X746200D01*
X746230Y730920D01*
X746250Y730910D01*
X746280Y730900D01*
X746300Y730880D01*
X746320Y730870D01*
X746340Y730850D01*
X746360Y730840D01*
X746380Y730820D01*
X746400Y730800D01*
X746420Y730780D01*
X746440Y730760D01*
X746450Y730740D01*
X746470Y730720D01*
X746480Y730700D01*
X746500Y730680D01*
X746510Y730650D01*
X746520Y730630D01*
X746530Y730600D01*
Y730580D01*
X746540Y730550D01*
Y730530D01*
X746550Y730500D01*
Y714500D01*
X746540Y714470D01*
Y714450D01*
X746530Y714420D01*
Y714400D01*
X746520Y714370D01*
X746510Y714350D01*
X746500Y714320D01*
X746480Y714300D01*
X746470Y714280D01*
X746450Y714260D01*
X746440Y714240D01*
X746420Y714220D01*
X746400Y714200D01*
X746380Y714180D01*
X746360Y714160D01*
X746340Y714150D01*
X746320Y714130D01*
X746300Y714120D01*
X746280Y714100D01*
X746250Y714090D01*
X746230Y714080D01*
X746200Y714070D01*
X746180D01*
X746150Y714060D01*
X746130D01*
X746100Y714050D01*
X746080D01*
X746050D01*
X739650D01*
X739620D01*
X739600D01*
X739570Y714060D01*
X739550D01*
X739520Y714070D01*
X739500D01*
X739470Y714080D01*
X739450Y714090D01*
X739420Y714100D01*
X739400Y714120D01*
X739380Y714130D01*
X739360Y714150D01*
X739340Y714160D01*
X739320Y714180D01*
X739300Y714200D01*
X739280Y714220D01*
X739260Y714240D01*
X739250Y714260D01*
X739230Y714280D01*
X739220Y714300D01*
X739200Y714320D01*
X739190Y714350D01*
X739180Y714370D01*
X739170Y714400D01*
Y714420D01*
X739160Y714450D01*
Y714470D01*
X739150Y714500D01*
Y730500D01*
X739160Y730530D01*
D02*
G37*
G36*
X751860D02*
Y730550D01*
X751870Y730580D01*
Y730600D01*
X751880Y730630D01*
X751890Y730650D01*
X751900Y730680D01*
X751920Y730700D01*
X751930Y730720D01*
X751950Y730740D01*
X751960Y730760D01*
X751980Y730780D01*
X752000Y730800D01*
X752020Y730820D01*
X752040Y730840D01*
X752060Y730850D01*
X752080Y730870D01*
X752100Y730880D01*
X752120Y730900D01*
X752150Y730910D01*
X752170Y730920D01*
X752200Y730930D01*
X752220D01*
X752250Y730940D01*
X752270D01*
X752300Y730950D01*
X752320D01*
X752350D01*
X758750D01*
X758780D01*
X758800D01*
X758830Y730940D01*
X758850D01*
X758880Y730930D01*
X758900D01*
X758930Y730920D01*
X758950Y730910D01*
X758980Y730900D01*
X759000Y730880D01*
X759020Y730870D01*
X759040Y730850D01*
X759060Y730840D01*
X759080Y730820D01*
X759100Y730800D01*
X759120Y730780D01*
X759140Y730760D01*
X759150Y730740D01*
X759170Y730720D01*
X759180Y730700D01*
X759200Y730680D01*
X759210Y730650D01*
X759220Y730630D01*
X759230Y730600D01*
Y730580D01*
X759240Y730550D01*
Y730530D01*
X759250Y730500D01*
Y714500D01*
X759240Y714470D01*
Y714450D01*
X759230Y714420D01*
Y714400D01*
X759220Y714370D01*
X759210Y714350D01*
X759200Y714320D01*
X759180Y714300D01*
X759170Y714280D01*
X759150Y714260D01*
X759140Y714240D01*
X759120Y714220D01*
X759100Y714200D01*
X759080Y714180D01*
X759060Y714160D01*
X759040Y714150D01*
X759020Y714130D01*
X759000Y714120D01*
X758980Y714100D01*
X758950Y714090D01*
X758930Y714080D01*
X758900Y714070D01*
X758880D01*
X758850Y714060D01*
X758830D01*
X758800Y714050D01*
X758780D01*
X758750D01*
X752350D01*
X752320D01*
X752300D01*
X752270Y714060D01*
X752250D01*
X752220Y714070D01*
X752200D01*
X752170Y714080D01*
X752150Y714090D01*
X752120Y714100D01*
X752100Y714120D01*
X752080Y714130D01*
X752060Y714150D01*
X752040Y714160D01*
X752020Y714180D01*
X752000Y714200D01*
X751980Y714220D01*
X751960Y714240D01*
X751950Y714260D01*
X751930Y714280D01*
X751920Y714300D01*
X751900Y714320D01*
X751890Y714350D01*
X751880Y714370D01*
X751870Y714400D01*
Y714420D01*
X751860Y714450D01*
Y714470D01*
X751850Y714500D01*
Y730500D01*
X751860Y730530D01*
D02*
G37*
G36*
X964002Y680751D02*
X914978D01*
Y710241D01*
X964002D01*
Y680751D01*
D02*
G37*
G36*
X961830Y676940D02*
X961850D01*
X961880Y676930D01*
X961900D01*
X961930Y676920D01*
X961950Y676910D01*
X961980Y676900D01*
X962000Y676880D01*
X962020Y676870D01*
X962040Y676850D01*
X962060Y676840D01*
X962080Y676820D01*
X962100Y676800D01*
X962120Y676780D01*
X962140Y676760D01*
X962150Y676740D01*
X962170Y676720D01*
X962180Y676700D01*
X962200Y676680D01*
X962210Y676650D01*
X962220Y676630D01*
X962230Y676600D01*
Y676580D01*
X962240Y676550D01*
Y676530D01*
X962250Y676500D01*
Y660500D01*
X962240Y660470D01*
Y660450D01*
X962230Y660420D01*
Y660400D01*
X962220Y660370D01*
X962210Y660350D01*
X962200Y660320D01*
X962180Y660300D01*
X962170Y660280D01*
X962150Y660260D01*
X962140Y660240D01*
X962120Y660220D01*
X962100Y660200D01*
X962080Y660180D01*
X962060Y660160D01*
X962040Y660150D01*
X962020Y660130D01*
X962000Y660120D01*
X961980Y660100D01*
X961950Y660090D01*
X961930Y660080D01*
X961900Y660070D01*
X961880D01*
X961850Y660060D01*
X961830D01*
X961800Y660050D01*
X955300D01*
X955270Y660060D01*
X955250D01*
X955220Y660070D01*
X955200D01*
X955170Y660080D01*
X955150Y660090D01*
X955120Y660100D01*
X955100Y660120D01*
X955080Y660130D01*
X955060Y660150D01*
X955040Y660160D01*
X955020Y660180D01*
X955000Y660200D01*
X954980Y660220D01*
X954960Y660240D01*
X954950Y660260D01*
X954930Y660280D01*
X954920Y660300D01*
X954900Y660320D01*
X954890Y660350D01*
X954880Y660370D01*
X954870Y660400D01*
Y660420D01*
X954860Y660450D01*
Y660470D01*
X954850Y660500D01*
Y676500D01*
X954860Y676530D01*
Y676550D01*
X954870Y676580D01*
Y676600D01*
X954880Y676630D01*
X954890Y676650D01*
X954900Y676680D01*
X954920Y676700D01*
X954930Y676720D01*
X954950Y676740D01*
X954960Y676760D01*
X954980Y676780D01*
X955000Y676800D01*
X955020Y676820D01*
X955040Y676840D01*
X955060Y676850D01*
X955080Y676870D01*
X955100Y676880D01*
X955120Y676900D01*
X955150Y676910D01*
X955170Y676920D01*
X955200Y676930D01*
X955220D01*
X955250Y676940D01*
X955270D01*
X955300Y676950D01*
X961800D01*
X961830Y676940D01*
D02*
G37*
G36*
X949130D02*
X949150D01*
X949180Y676930D01*
X949200D01*
X949230Y676920D01*
X949250Y676910D01*
X949280Y676900D01*
X949300Y676880D01*
X949320Y676870D01*
X949340Y676850D01*
X949360Y676840D01*
X949380Y676820D01*
X949400Y676800D01*
X949420Y676780D01*
X949440Y676760D01*
X949450Y676740D01*
X949470Y676720D01*
X949480Y676700D01*
X949500Y676680D01*
X949510Y676650D01*
X949520Y676630D01*
X949530Y676600D01*
Y676580D01*
X949540Y676550D01*
Y676530D01*
X949550Y676500D01*
Y660500D01*
X949540Y660470D01*
Y660450D01*
X949530Y660420D01*
Y660400D01*
X949520Y660370D01*
X949510Y660350D01*
X949500Y660320D01*
X949480Y660300D01*
X949470Y660280D01*
X949450Y660260D01*
X949440Y660240D01*
X949420Y660220D01*
X949400Y660200D01*
X949380Y660180D01*
X949360Y660160D01*
X949340Y660150D01*
X949320Y660130D01*
X949300Y660120D01*
X949280Y660100D01*
X949250Y660090D01*
X949230Y660080D01*
X949200Y660070D01*
X949180D01*
X949150Y660060D01*
X949130D01*
X949100Y660050D01*
X942600D01*
X942570Y660060D01*
X942550D01*
X942520Y660070D01*
X942500D01*
X942470Y660080D01*
X942450Y660090D01*
X942420Y660100D01*
X942400Y660120D01*
X942380Y660130D01*
X942360Y660150D01*
X942340Y660160D01*
X942320Y660180D01*
X942300Y660200D01*
X942280Y660220D01*
X942260Y660240D01*
X942250Y660260D01*
X942230Y660280D01*
X942220Y660300D01*
X942200Y660320D01*
X942190Y660350D01*
X942180Y660370D01*
X942170Y660400D01*
Y660420D01*
X942160Y660450D01*
Y660470D01*
X942150Y660500D01*
Y676500D01*
X942160Y676530D01*
Y676550D01*
X942170Y676580D01*
Y676600D01*
X942180Y676630D01*
X942190Y676650D01*
X942200Y676680D01*
X942220Y676700D01*
X942230Y676720D01*
X942250Y676740D01*
X942260Y676760D01*
X942280Y676780D01*
X942300Y676800D01*
X942320Y676820D01*
X942340Y676840D01*
X942360Y676850D01*
X942380Y676870D01*
X942400Y676880D01*
X942420Y676900D01*
X942450Y676910D01*
X942470Y676920D01*
X942500Y676930D01*
X942520D01*
X942550Y676940D01*
X942570D01*
X942600Y676950D01*
X949100D01*
X949130Y676940D01*
D02*
G37*
G36*
X936430D02*
X936450D01*
X936480Y676930D01*
X936500D01*
X936530Y676920D01*
X936550Y676910D01*
X936580Y676900D01*
X936600Y676880D01*
X936620Y676870D01*
X936640Y676850D01*
X936660Y676840D01*
X936680Y676820D01*
X936700Y676800D01*
X936720Y676780D01*
X936740Y676760D01*
X936750Y676740D01*
X936770Y676720D01*
X936780Y676700D01*
X936800Y676680D01*
X936810Y676650D01*
X936820Y676630D01*
X936830Y676600D01*
Y676580D01*
X936840Y676550D01*
Y676530D01*
X936850Y676500D01*
Y660500D01*
X936840Y660470D01*
Y660450D01*
X936830Y660420D01*
Y660400D01*
X936820Y660370D01*
X936810Y660350D01*
X936800Y660320D01*
X936780Y660300D01*
X936770Y660280D01*
X936750Y660260D01*
X936740Y660240D01*
X936720Y660220D01*
X936700Y660200D01*
X936680Y660180D01*
X936660Y660160D01*
X936640Y660150D01*
X936620Y660130D01*
X936600Y660120D01*
X936580Y660100D01*
X936550Y660090D01*
X936530Y660080D01*
X936500Y660070D01*
X936480D01*
X936450Y660060D01*
X936430D01*
X936400Y660050D01*
X929900D01*
X929870Y660060D01*
X929850D01*
X929820Y660070D01*
X929800D01*
X929770Y660080D01*
X929750Y660090D01*
X929720Y660100D01*
X929700Y660120D01*
X929680Y660130D01*
X929660Y660150D01*
X929640Y660160D01*
X929620Y660180D01*
X929600Y660200D01*
X929580Y660220D01*
X929560Y660240D01*
X929550Y660260D01*
X929530Y660280D01*
X929520Y660300D01*
X929500Y660320D01*
X929490Y660350D01*
X929480Y660370D01*
X929470Y660400D01*
Y660420D01*
X929460Y660450D01*
Y660470D01*
X929450Y660500D01*
Y676500D01*
X929460Y676530D01*
Y676550D01*
X929470Y676580D01*
Y676600D01*
X929480Y676630D01*
X929490Y676650D01*
X929500Y676680D01*
X929520Y676700D01*
X929530Y676720D01*
X929550Y676740D01*
X929560Y676760D01*
X929580Y676780D01*
X929600Y676800D01*
X929620Y676820D01*
X929640Y676840D01*
X929660Y676850D01*
X929680Y676870D01*
X929700Y676880D01*
X929720Y676900D01*
X929750Y676910D01*
X929770Y676920D01*
X929800Y676930D01*
X929820D01*
X929850Y676940D01*
X929870D01*
X929900Y676950D01*
X936400D01*
X936430Y676940D01*
D02*
G37*
G36*
X923730D02*
X923750D01*
X923780Y676930D01*
X923800D01*
X923830Y676920D01*
X923850Y676910D01*
X923880Y676900D01*
X923900Y676880D01*
X923920Y676870D01*
X923940Y676850D01*
X923960Y676840D01*
X923980Y676820D01*
X924000Y676800D01*
X924020Y676780D01*
X924040Y676760D01*
X924050Y676740D01*
X924070Y676720D01*
X924080Y676700D01*
X924100Y676680D01*
X924110Y676650D01*
X924120Y676630D01*
X924130Y676600D01*
Y676580D01*
X924140Y676550D01*
Y676530D01*
X924150Y676500D01*
Y660500D01*
X924140Y660470D01*
Y660450D01*
X924130Y660420D01*
Y660400D01*
X924120Y660370D01*
X924110Y660350D01*
X924100Y660320D01*
X924080Y660300D01*
X924070Y660280D01*
X924050Y660260D01*
X924040Y660240D01*
X924020Y660220D01*
X924000Y660200D01*
X923980Y660180D01*
X923960Y660160D01*
X923940Y660150D01*
X923920Y660130D01*
X923900Y660120D01*
X923880Y660100D01*
X923850Y660090D01*
X923830Y660080D01*
X923800Y660070D01*
X923780D01*
X923750Y660060D01*
X923730D01*
X923700Y660050D01*
X917200D01*
X917170Y660060D01*
X917150D01*
X917120Y660070D01*
X917100D01*
X917070Y660080D01*
X917050Y660090D01*
X917020Y660100D01*
X917000Y660120D01*
X916980Y660130D01*
X916960Y660150D01*
X916940Y660160D01*
X916920Y660180D01*
X916900Y660200D01*
X916880Y660220D01*
X916860Y660240D01*
X916850Y660260D01*
X916830Y660280D01*
X916820Y660300D01*
X916800Y660320D01*
X916790Y660350D01*
X916780Y660370D01*
X916770Y660400D01*
Y660420D01*
X916760Y660450D01*
Y660470D01*
X916750Y660500D01*
Y676500D01*
X916760Y676530D01*
Y676550D01*
X916770Y676580D01*
Y676600D01*
X916780Y676630D01*
X916790Y676650D01*
X916800Y676680D01*
X916820Y676700D01*
X916830Y676720D01*
X916850Y676740D01*
X916860Y676760D01*
X916880Y676780D01*
X916900Y676800D01*
X916920Y676820D01*
X916940Y676840D01*
X916960Y676850D01*
X916980Y676870D01*
X917000Y676880D01*
X917020Y676900D01*
X917050Y676910D01*
X917070Y676920D01*
X917100Y676930D01*
X917120D01*
X917150Y676940D01*
X917170D01*
X917200Y676950D01*
X923700D01*
X923730Y676940D01*
D02*
G37*
G36*
X916760Y730530D02*
Y730550D01*
X916770Y730580D01*
Y730600D01*
X916780Y730630D01*
X916790Y730650D01*
X916800Y730680D01*
X916820Y730700D01*
X916830Y730720D01*
X916850Y730740D01*
X916860Y730760D01*
X916880Y730780D01*
X916900Y730800D01*
X916920Y730820D01*
X916940Y730840D01*
X916960Y730850D01*
X916980Y730870D01*
X917000Y730880D01*
X917020Y730900D01*
X917050Y730910D01*
X917070Y730920D01*
X917100Y730930D01*
X917120D01*
X917150Y730940D01*
X917170D01*
X917200Y730950D01*
X917220D01*
X917250D01*
X923650D01*
X923680D01*
X923700D01*
X923730Y730940D01*
X923750D01*
X923780Y730930D01*
X923800D01*
X923830Y730920D01*
X923850Y730910D01*
X923880Y730900D01*
X923900Y730880D01*
X923920Y730870D01*
X923940Y730850D01*
X923960Y730840D01*
X923980Y730820D01*
X924000Y730800D01*
X924020Y730780D01*
X924040Y730760D01*
X924050Y730740D01*
X924070Y730720D01*
X924080Y730700D01*
X924100Y730680D01*
X924110Y730650D01*
X924120Y730630D01*
X924130Y730600D01*
Y730580D01*
X924140Y730550D01*
Y730530D01*
X924150Y730500D01*
Y714500D01*
X924140Y714470D01*
Y714450D01*
X924130Y714420D01*
Y714400D01*
X924120Y714370D01*
X924110Y714350D01*
X924100Y714320D01*
X924080Y714300D01*
X924070Y714280D01*
X924050Y714260D01*
X924040Y714240D01*
X924020Y714220D01*
X924000Y714200D01*
X923980Y714180D01*
X923960Y714160D01*
X923940Y714150D01*
X923920Y714130D01*
X923900Y714120D01*
X923880Y714100D01*
X923850Y714090D01*
X923830Y714080D01*
X923800Y714070D01*
X923780D01*
X923750Y714060D01*
X923730D01*
X923700Y714050D01*
X923680D01*
X923650D01*
X917250D01*
X917220D01*
X917200D01*
X917170Y714060D01*
X917150D01*
X917120Y714070D01*
X917100D01*
X917070Y714080D01*
X917050Y714090D01*
X917020Y714100D01*
X917000Y714120D01*
X916980Y714130D01*
X916960Y714150D01*
X916940Y714160D01*
X916920Y714180D01*
X916900Y714200D01*
X916880Y714220D01*
X916860Y714240D01*
X916850Y714260D01*
X916830Y714280D01*
X916820Y714300D01*
X916800Y714320D01*
X916790Y714350D01*
X916780Y714370D01*
X916770Y714400D01*
Y714420D01*
X916760Y714450D01*
Y714470D01*
X916750Y714500D01*
Y730500D01*
X916760Y730530D01*
D02*
G37*
G36*
X929460D02*
Y730550D01*
X929470Y730580D01*
Y730600D01*
X929480Y730630D01*
X929490Y730650D01*
X929500Y730680D01*
X929520Y730700D01*
X929530Y730720D01*
X929550Y730740D01*
X929560Y730760D01*
X929580Y730780D01*
X929600Y730800D01*
X929620Y730820D01*
X929640Y730840D01*
X929660Y730850D01*
X929680Y730870D01*
X929700Y730880D01*
X929720Y730900D01*
X929750Y730910D01*
X929770Y730920D01*
X929800Y730930D01*
X929820D01*
X929850Y730940D01*
X929870D01*
X929900Y730950D01*
X929920D01*
X929950D01*
X936350D01*
X936380D01*
X936400D01*
X936430Y730940D01*
X936450D01*
X936480Y730930D01*
X936500D01*
X936530Y730920D01*
X936550Y730910D01*
X936580Y730900D01*
X936600Y730880D01*
X936620Y730870D01*
X936640Y730850D01*
X936660Y730840D01*
X936680Y730820D01*
X936700Y730800D01*
X936720Y730780D01*
X936740Y730760D01*
X936750Y730740D01*
X936770Y730720D01*
X936780Y730700D01*
X936800Y730680D01*
X936810Y730650D01*
X936820Y730630D01*
X936830Y730600D01*
Y730580D01*
X936840Y730550D01*
Y730530D01*
X936850Y730500D01*
Y714500D01*
X936840Y714470D01*
Y714450D01*
X936830Y714420D01*
Y714400D01*
X936820Y714370D01*
X936810Y714350D01*
X936800Y714320D01*
X936780Y714300D01*
X936770Y714280D01*
X936750Y714260D01*
X936740Y714240D01*
X936720Y714220D01*
X936700Y714200D01*
X936680Y714180D01*
X936660Y714160D01*
X936640Y714150D01*
X936620Y714130D01*
X936600Y714120D01*
X936580Y714100D01*
X936550Y714090D01*
X936530Y714080D01*
X936500Y714070D01*
X936480D01*
X936450Y714060D01*
X936430D01*
X936400Y714050D01*
X936380D01*
X936350D01*
X929950D01*
X929920D01*
X929900D01*
X929870Y714060D01*
X929850D01*
X929820Y714070D01*
X929800D01*
X929770Y714080D01*
X929750Y714090D01*
X929720Y714100D01*
X929700Y714120D01*
X929680Y714130D01*
X929660Y714150D01*
X929640Y714160D01*
X929620Y714180D01*
X929600Y714200D01*
X929580Y714220D01*
X929560Y714240D01*
X929550Y714260D01*
X929530Y714280D01*
X929520Y714300D01*
X929500Y714320D01*
X929490Y714350D01*
X929480Y714370D01*
X929470Y714400D01*
Y714420D01*
X929460Y714450D01*
Y714470D01*
X929450Y714500D01*
Y730500D01*
X929460Y730530D01*
D02*
G37*
G36*
X942160D02*
Y730550D01*
X942170Y730580D01*
Y730600D01*
X942180Y730630D01*
X942190Y730650D01*
X942200Y730680D01*
X942220Y730700D01*
X942230Y730720D01*
X942250Y730740D01*
X942260Y730760D01*
X942280Y730780D01*
X942300Y730800D01*
X942320Y730820D01*
X942340Y730840D01*
X942360Y730850D01*
X942380Y730870D01*
X942400Y730880D01*
X942420Y730900D01*
X942450Y730910D01*
X942470Y730920D01*
X942500Y730930D01*
X942520D01*
X942550Y730940D01*
X942570D01*
X942600Y730950D01*
X942620D01*
X942650D01*
X949050D01*
X949080D01*
X949100D01*
X949130Y730940D01*
X949150D01*
X949180Y730930D01*
X949200D01*
X949230Y730920D01*
X949250Y730910D01*
X949280Y730900D01*
X949300Y730880D01*
X949320Y730870D01*
X949340Y730850D01*
X949360Y730840D01*
X949380Y730820D01*
X949400Y730800D01*
X949420Y730780D01*
X949440Y730760D01*
X949450Y730740D01*
X949470Y730720D01*
X949480Y730700D01*
X949500Y730680D01*
X949510Y730650D01*
X949520Y730630D01*
X949530Y730600D01*
Y730580D01*
X949540Y730550D01*
Y730530D01*
X949550Y730500D01*
Y714500D01*
X949540Y714470D01*
Y714450D01*
X949530Y714420D01*
Y714400D01*
X949520Y714370D01*
X949510Y714350D01*
X949500Y714320D01*
X949480Y714300D01*
X949470Y714280D01*
X949450Y714260D01*
X949440Y714240D01*
X949420Y714220D01*
X949400Y714200D01*
X949380Y714180D01*
X949360Y714160D01*
X949340Y714150D01*
X949320Y714130D01*
X949300Y714120D01*
X949280Y714100D01*
X949250Y714090D01*
X949230Y714080D01*
X949200Y714070D01*
X949180D01*
X949150Y714060D01*
X949130D01*
X949100Y714050D01*
X949080D01*
X949050D01*
X942650D01*
X942620D01*
X942600D01*
X942570Y714060D01*
X942550D01*
X942520Y714070D01*
X942500D01*
X942470Y714080D01*
X942450Y714090D01*
X942420Y714100D01*
X942400Y714120D01*
X942380Y714130D01*
X942360Y714150D01*
X942340Y714160D01*
X942320Y714180D01*
X942300Y714200D01*
X942280Y714220D01*
X942260Y714240D01*
X942250Y714260D01*
X942230Y714280D01*
X942220Y714300D01*
X942200Y714320D01*
X942190Y714350D01*
X942180Y714370D01*
X942170Y714400D01*
Y714420D01*
X942160Y714450D01*
Y714470D01*
X942150Y714500D01*
Y730500D01*
X942160Y730530D01*
D02*
G37*
G36*
X954860D02*
Y730550D01*
X954870Y730580D01*
Y730600D01*
X954880Y730630D01*
X954890Y730650D01*
X954900Y730680D01*
X954920Y730700D01*
X954930Y730720D01*
X954950Y730740D01*
X954960Y730760D01*
X954980Y730780D01*
X955000Y730800D01*
X955020Y730820D01*
X955040Y730840D01*
X955060Y730850D01*
X955080Y730870D01*
X955100Y730880D01*
X955120Y730900D01*
X955150Y730910D01*
X955170Y730920D01*
X955200Y730930D01*
X955220D01*
X955250Y730940D01*
X955270D01*
X955300Y730950D01*
X955320D01*
X955350D01*
X961750D01*
X961780D01*
X961800D01*
X961830Y730940D01*
X961850D01*
X961880Y730930D01*
X961900D01*
X961930Y730920D01*
X961950Y730910D01*
X961980Y730900D01*
X962000Y730880D01*
X962020Y730870D01*
X962040Y730850D01*
X962060Y730840D01*
X962080Y730820D01*
X962100Y730800D01*
X962120Y730780D01*
X962140Y730760D01*
X962150Y730740D01*
X962170Y730720D01*
X962180Y730700D01*
X962200Y730680D01*
X962210Y730650D01*
X962220Y730630D01*
X962230Y730600D01*
Y730580D01*
X962240Y730550D01*
Y730530D01*
X962250Y730500D01*
Y714500D01*
X962240Y714470D01*
Y714450D01*
X962230Y714420D01*
Y714400D01*
X962220Y714370D01*
X962210Y714350D01*
X962200Y714320D01*
X962180Y714300D01*
X962170Y714280D01*
X962150Y714260D01*
X962140Y714240D01*
X962120Y714220D01*
X962100Y714200D01*
X962080Y714180D01*
X962060Y714160D01*
X962040Y714150D01*
X962020Y714130D01*
X962000Y714120D01*
X961980Y714100D01*
X961950Y714090D01*
X961930Y714080D01*
X961900Y714070D01*
X961880D01*
X961850Y714060D01*
X961830D01*
X961800Y714050D01*
X961780D01*
X961750D01*
X955350D01*
X955320D01*
X955300D01*
X955270Y714060D01*
X955250D01*
X955220Y714070D01*
X955200D01*
X955170Y714080D01*
X955150Y714090D01*
X955120Y714100D01*
X955100Y714120D01*
X955080Y714130D01*
X955060Y714150D01*
X955040Y714160D01*
X955020Y714180D01*
X955000Y714200D01*
X954980Y714220D01*
X954960Y714240D01*
X954950Y714260D01*
X954930Y714280D01*
X954920Y714300D01*
X954900Y714320D01*
X954890Y714350D01*
X954880Y714370D01*
X954870Y714400D01*
Y714420D01*
X954860Y714450D01*
Y714470D01*
X954850Y714500D01*
Y730500D01*
X954860Y730530D01*
D02*
G37*
G36*
X1167002Y680751D02*
X1117978D01*
Y710241D01*
X1167002D01*
Y680751D01*
D02*
G37*
G36*
X1164830Y676940D02*
X1164850D01*
X1164880Y676930D01*
X1164900D01*
X1164930Y676920D01*
X1164950Y676910D01*
X1164980Y676900D01*
X1165000Y676880D01*
X1165020Y676870D01*
X1165040Y676850D01*
X1165060Y676840D01*
X1165080Y676820D01*
X1165100Y676800D01*
X1165120Y676780D01*
X1165140Y676760D01*
X1165150Y676740D01*
X1165170Y676720D01*
X1165180Y676700D01*
X1165200Y676680D01*
X1165210Y676650D01*
X1165220Y676630D01*
X1165230Y676600D01*
Y676580D01*
X1165240Y676550D01*
Y676530D01*
X1165250Y676500D01*
Y660500D01*
X1165240Y660470D01*
Y660450D01*
X1165230Y660420D01*
Y660400D01*
X1165220Y660370D01*
X1165210Y660350D01*
X1165200Y660320D01*
X1165180Y660300D01*
X1165170Y660280D01*
X1165150Y660260D01*
X1165140Y660240D01*
X1165120Y660220D01*
X1165100Y660200D01*
X1165080Y660180D01*
X1165060Y660160D01*
X1165040Y660150D01*
X1165020Y660130D01*
X1165000Y660120D01*
X1164980Y660100D01*
X1164950Y660090D01*
X1164930Y660080D01*
X1164900Y660070D01*
X1164880D01*
X1164850Y660060D01*
X1164830D01*
X1164800Y660050D01*
X1158300D01*
X1158270Y660060D01*
X1158250D01*
X1158220Y660070D01*
X1158200D01*
X1158170Y660080D01*
X1158150Y660090D01*
X1158120Y660100D01*
X1158100Y660120D01*
X1158080Y660130D01*
X1158060Y660150D01*
X1158040Y660160D01*
X1158020Y660180D01*
X1158000Y660200D01*
X1157980Y660220D01*
X1157960Y660240D01*
X1157950Y660260D01*
X1157930Y660280D01*
X1157920Y660300D01*
X1157900Y660320D01*
X1157890Y660350D01*
X1157880Y660370D01*
X1157870Y660400D01*
Y660420D01*
X1157860Y660450D01*
Y660470D01*
X1157850Y660500D01*
Y676500D01*
X1157860Y676530D01*
Y676550D01*
X1157870Y676580D01*
Y676600D01*
X1157880Y676630D01*
X1157890Y676650D01*
X1157900Y676680D01*
X1157920Y676700D01*
X1157930Y676720D01*
X1157950Y676740D01*
X1157960Y676760D01*
X1157980Y676780D01*
X1158000Y676800D01*
X1158020Y676820D01*
X1158040Y676840D01*
X1158060Y676850D01*
X1158080Y676870D01*
X1158100Y676880D01*
X1158120Y676900D01*
X1158150Y676910D01*
X1158170Y676920D01*
X1158200Y676930D01*
X1158220D01*
X1158250Y676940D01*
X1158270D01*
X1158300Y676950D01*
X1164800D01*
X1164830Y676940D01*
D02*
G37*
G36*
X1152130D02*
X1152150D01*
X1152180Y676930D01*
X1152200D01*
X1152230Y676920D01*
X1152250Y676910D01*
X1152280Y676900D01*
X1152300Y676880D01*
X1152320Y676870D01*
X1152340Y676850D01*
X1152360Y676840D01*
X1152380Y676820D01*
X1152400Y676800D01*
X1152420Y676780D01*
X1152440Y676760D01*
X1152450Y676740D01*
X1152470Y676720D01*
X1152480Y676700D01*
X1152500Y676680D01*
X1152510Y676650D01*
X1152520Y676630D01*
X1152530Y676600D01*
Y676580D01*
X1152540Y676550D01*
Y676530D01*
X1152550Y676500D01*
Y660500D01*
X1152540Y660470D01*
Y660450D01*
X1152530Y660420D01*
Y660400D01*
X1152520Y660370D01*
X1152510Y660350D01*
X1152500Y660320D01*
X1152480Y660300D01*
X1152470Y660280D01*
X1152450Y660260D01*
X1152440Y660240D01*
X1152420Y660220D01*
X1152400Y660200D01*
X1152380Y660180D01*
X1152360Y660160D01*
X1152340Y660150D01*
X1152320Y660130D01*
X1152300Y660120D01*
X1152280Y660100D01*
X1152250Y660090D01*
X1152230Y660080D01*
X1152200Y660070D01*
X1152180D01*
X1152150Y660060D01*
X1152130D01*
X1152100Y660050D01*
X1145600D01*
X1145570Y660060D01*
X1145550D01*
X1145520Y660070D01*
X1145500D01*
X1145470Y660080D01*
X1145450Y660090D01*
X1145420Y660100D01*
X1145400Y660120D01*
X1145380Y660130D01*
X1145360Y660150D01*
X1145340Y660160D01*
X1145320Y660180D01*
X1145300Y660200D01*
X1145280Y660220D01*
X1145260Y660240D01*
X1145250Y660260D01*
X1145230Y660280D01*
X1145220Y660300D01*
X1145200Y660320D01*
X1145190Y660350D01*
X1145180Y660370D01*
X1145170Y660400D01*
Y660420D01*
X1145160Y660450D01*
Y660470D01*
X1145150Y660500D01*
Y676500D01*
X1145160Y676530D01*
Y676550D01*
X1145170Y676580D01*
Y676600D01*
X1145180Y676630D01*
X1145190Y676650D01*
X1145200Y676680D01*
X1145220Y676700D01*
X1145230Y676720D01*
X1145250Y676740D01*
X1145260Y676760D01*
X1145280Y676780D01*
X1145300Y676800D01*
X1145320Y676820D01*
X1145340Y676840D01*
X1145360Y676850D01*
X1145380Y676870D01*
X1145400Y676880D01*
X1145420Y676900D01*
X1145450Y676910D01*
X1145470Y676920D01*
X1145500Y676930D01*
X1145520D01*
X1145550Y676940D01*
X1145570D01*
X1145600Y676950D01*
X1152100D01*
X1152130Y676940D01*
D02*
G37*
G36*
X1139430D02*
X1139450D01*
X1139480Y676930D01*
X1139500D01*
X1139530Y676920D01*
X1139550Y676910D01*
X1139580Y676900D01*
X1139600Y676880D01*
X1139620Y676870D01*
X1139640Y676850D01*
X1139660Y676840D01*
X1139680Y676820D01*
X1139700Y676800D01*
X1139720Y676780D01*
X1139740Y676760D01*
X1139750Y676740D01*
X1139770Y676720D01*
X1139780Y676700D01*
X1139800Y676680D01*
X1139810Y676650D01*
X1139820Y676630D01*
X1139830Y676600D01*
Y676580D01*
X1139840Y676550D01*
Y676530D01*
X1139850Y676500D01*
Y660500D01*
X1139840Y660470D01*
Y660450D01*
X1139830Y660420D01*
Y660400D01*
X1139820Y660370D01*
X1139810Y660350D01*
X1139800Y660320D01*
X1139780Y660300D01*
X1139770Y660280D01*
X1139750Y660260D01*
X1139740Y660240D01*
X1139720Y660220D01*
X1139700Y660200D01*
X1139680Y660180D01*
X1139660Y660160D01*
X1139640Y660150D01*
X1139620Y660130D01*
X1139600Y660120D01*
X1139580Y660100D01*
X1139550Y660090D01*
X1139530Y660080D01*
X1139500Y660070D01*
X1139480D01*
X1139450Y660060D01*
X1139430D01*
X1139400Y660050D01*
X1132900D01*
X1132870Y660060D01*
X1132850D01*
X1132820Y660070D01*
X1132800D01*
X1132770Y660080D01*
X1132750Y660090D01*
X1132720Y660100D01*
X1132700Y660120D01*
X1132680Y660130D01*
X1132660Y660150D01*
X1132640Y660160D01*
X1132620Y660180D01*
X1132600Y660200D01*
X1132580Y660220D01*
X1132560Y660240D01*
X1132550Y660260D01*
X1132530Y660280D01*
X1132520Y660300D01*
X1132500Y660320D01*
X1132490Y660350D01*
X1132480Y660370D01*
X1132470Y660400D01*
Y660420D01*
X1132460Y660450D01*
Y660470D01*
X1132450Y660500D01*
Y676500D01*
X1132460Y676530D01*
Y676550D01*
X1132470Y676580D01*
Y676600D01*
X1132480Y676630D01*
X1132490Y676650D01*
X1132500Y676680D01*
X1132520Y676700D01*
X1132530Y676720D01*
X1132550Y676740D01*
X1132560Y676760D01*
X1132580Y676780D01*
X1132600Y676800D01*
X1132620Y676820D01*
X1132640Y676840D01*
X1132660Y676850D01*
X1132680Y676870D01*
X1132700Y676880D01*
X1132720Y676900D01*
X1132750Y676910D01*
X1132770Y676920D01*
X1132800Y676930D01*
X1132820D01*
X1132850Y676940D01*
X1132870D01*
X1132900Y676950D01*
X1139400D01*
X1139430Y676940D01*
D02*
G37*
G36*
X1126730D02*
X1126750D01*
X1126780Y676930D01*
X1126800D01*
X1126830Y676920D01*
X1126850Y676910D01*
X1126880Y676900D01*
X1126900Y676880D01*
X1126920Y676870D01*
X1126940Y676850D01*
X1126960Y676840D01*
X1126980Y676820D01*
X1127000Y676800D01*
X1127020Y676780D01*
X1127040Y676760D01*
X1127050Y676740D01*
X1127070Y676720D01*
X1127080Y676700D01*
X1127100Y676680D01*
X1127110Y676650D01*
X1127120Y676630D01*
X1127130Y676600D01*
Y676580D01*
X1127140Y676550D01*
Y676530D01*
X1127150Y676500D01*
Y660500D01*
X1127140Y660470D01*
Y660450D01*
X1127130Y660420D01*
Y660400D01*
X1127120Y660370D01*
X1127110Y660350D01*
X1127100Y660320D01*
X1127080Y660300D01*
X1127070Y660280D01*
X1127050Y660260D01*
X1127040Y660240D01*
X1127020Y660220D01*
X1127000Y660200D01*
X1126980Y660180D01*
X1126960Y660160D01*
X1126940Y660150D01*
X1126920Y660130D01*
X1126900Y660120D01*
X1126880Y660100D01*
X1126850Y660090D01*
X1126830Y660080D01*
X1126800Y660070D01*
X1126780D01*
X1126750Y660060D01*
X1126730D01*
X1126700Y660050D01*
X1120200D01*
X1120170Y660060D01*
X1120150D01*
X1120120Y660070D01*
X1120100D01*
X1120070Y660080D01*
X1120050Y660090D01*
X1120020Y660100D01*
X1120000Y660120D01*
X1119980Y660130D01*
X1119960Y660150D01*
X1119940Y660160D01*
X1119920Y660180D01*
X1119900Y660200D01*
X1119880Y660220D01*
X1119860Y660240D01*
X1119850Y660260D01*
X1119830Y660280D01*
X1119820Y660300D01*
X1119800Y660320D01*
X1119790Y660350D01*
X1119780Y660370D01*
X1119770Y660400D01*
Y660420D01*
X1119760Y660450D01*
Y660470D01*
X1119750Y660500D01*
Y676500D01*
X1119760Y676530D01*
Y676550D01*
X1119770Y676580D01*
Y676600D01*
X1119780Y676630D01*
X1119790Y676650D01*
X1119800Y676680D01*
X1119820Y676700D01*
X1119830Y676720D01*
X1119850Y676740D01*
X1119860Y676760D01*
X1119880Y676780D01*
X1119900Y676800D01*
X1119920Y676820D01*
X1119940Y676840D01*
X1119960Y676850D01*
X1119980Y676870D01*
X1120000Y676880D01*
X1120020Y676900D01*
X1120050Y676910D01*
X1120070Y676920D01*
X1120100Y676930D01*
X1120120D01*
X1120150Y676940D01*
X1120170D01*
X1120200Y676950D01*
X1126700D01*
X1126730Y676940D01*
D02*
G37*
G36*
X1119760Y730530D02*
Y730550D01*
X1119770Y730580D01*
Y730600D01*
X1119780Y730630D01*
X1119790Y730650D01*
X1119800Y730680D01*
X1119820Y730700D01*
X1119830Y730720D01*
X1119850Y730740D01*
X1119860Y730760D01*
X1119880Y730780D01*
X1119900Y730800D01*
X1119920Y730820D01*
X1119940Y730840D01*
X1119960Y730850D01*
X1119980Y730870D01*
X1120000Y730880D01*
X1120020Y730900D01*
X1120050Y730910D01*
X1120070Y730920D01*
X1120100Y730930D01*
X1120120D01*
X1120150Y730940D01*
X1120170D01*
X1120200Y730950D01*
X1120220D01*
X1120250D01*
X1126650D01*
X1126680D01*
X1126700D01*
X1126730Y730940D01*
X1126750D01*
X1126780Y730930D01*
X1126800D01*
X1126830Y730920D01*
X1126850Y730910D01*
X1126880Y730900D01*
X1126900Y730880D01*
X1126920Y730870D01*
X1126940Y730850D01*
X1126960Y730840D01*
X1126980Y730820D01*
X1127000Y730800D01*
X1127020Y730780D01*
X1127040Y730760D01*
X1127050Y730740D01*
X1127070Y730720D01*
X1127080Y730700D01*
X1127100Y730680D01*
X1127110Y730650D01*
X1127120Y730630D01*
X1127130Y730600D01*
Y730580D01*
X1127140Y730550D01*
Y730530D01*
X1127150Y730500D01*
Y714500D01*
X1127140Y714470D01*
Y714450D01*
X1127130Y714420D01*
Y714400D01*
X1127120Y714370D01*
X1127110Y714350D01*
X1127100Y714320D01*
X1127080Y714300D01*
X1127070Y714280D01*
X1127050Y714260D01*
X1127040Y714240D01*
X1127020Y714220D01*
X1127000Y714200D01*
X1126980Y714180D01*
X1126960Y714160D01*
X1126940Y714150D01*
X1126920Y714130D01*
X1126900Y714120D01*
X1126880Y714100D01*
X1126850Y714090D01*
X1126830Y714080D01*
X1126800Y714070D01*
X1126780D01*
X1126750Y714060D01*
X1126730D01*
X1126700Y714050D01*
X1126680D01*
X1126650D01*
X1120250D01*
X1120220D01*
X1120200D01*
X1120170Y714060D01*
X1120150D01*
X1120120Y714070D01*
X1120100D01*
X1120070Y714080D01*
X1120050Y714090D01*
X1120020Y714100D01*
X1120000Y714120D01*
X1119980Y714130D01*
X1119960Y714150D01*
X1119940Y714160D01*
X1119920Y714180D01*
X1119900Y714200D01*
X1119880Y714220D01*
X1119860Y714240D01*
X1119850Y714260D01*
X1119830Y714280D01*
X1119820Y714300D01*
X1119800Y714320D01*
X1119790Y714350D01*
X1119780Y714370D01*
X1119770Y714400D01*
Y714420D01*
X1119760Y714450D01*
Y714470D01*
X1119750Y714500D01*
Y730500D01*
X1119760Y730530D01*
D02*
G37*
G36*
X1132460D02*
Y730550D01*
X1132470Y730580D01*
Y730600D01*
X1132480Y730630D01*
X1132490Y730650D01*
X1132500Y730680D01*
X1132520Y730700D01*
X1132530Y730720D01*
X1132550Y730740D01*
X1132560Y730760D01*
X1132580Y730780D01*
X1132600Y730800D01*
X1132620Y730820D01*
X1132640Y730840D01*
X1132660Y730850D01*
X1132680Y730870D01*
X1132700Y730880D01*
X1132720Y730900D01*
X1132750Y730910D01*
X1132770Y730920D01*
X1132800Y730930D01*
X1132820D01*
X1132850Y730940D01*
X1132870D01*
X1132900Y730950D01*
X1132920D01*
X1132950D01*
X1139350D01*
X1139380D01*
X1139400D01*
X1139430Y730940D01*
X1139450D01*
X1139480Y730930D01*
X1139500D01*
X1139530Y730920D01*
X1139550Y730910D01*
X1139580Y730900D01*
X1139600Y730880D01*
X1139620Y730870D01*
X1139640Y730850D01*
X1139660Y730840D01*
X1139680Y730820D01*
X1139700Y730800D01*
X1139720Y730780D01*
X1139740Y730760D01*
X1139750Y730740D01*
X1139770Y730720D01*
X1139780Y730700D01*
X1139800Y730680D01*
X1139810Y730650D01*
X1139820Y730630D01*
X1139830Y730600D01*
Y730580D01*
X1139840Y730550D01*
Y730530D01*
X1139850Y730500D01*
Y714500D01*
X1139840Y714470D01*
Y714450D01*
X1139830Y714420D01*
Y714400D01*
X1139820Y714370D01*
X1139810Y714350D01*
X1139800Y714320D01*
X1139780Y714300D01*
X1139770Y714280D01*
X1139750Y714260D01*
X1139740Y714240D01*
X1139720Y714220D01*
X1139700Y714200D01*
X1139680Y714180D01*
X1139660Y714160D01*
X1139640Y714150D01*
X1139620Y714130D01*
X1139600Y714120D01*
X1139580Y714100D01*
X1139550Y714090D01*
X1139530Y714080D01*
X1139500Y714070D01*
X1139480D01*
X1139450Y714060D01*
X1139430D01*
X1139400Y714050D01*
X1139380D01*
X1139350D01*
X1132950D01*
X1132920D01*
X1132900D01*
X1132870Y714060D01*
X1132850D01*
X1132820Y714070D01*
X1132800D01*
X1132770Y714080D01*
X1132750Y714090D01*
X1132720Y714100D01*
X1132700Y714120D01*
X1132680Y714130D01*
X1132660Y714150D01*
X1132640Y714160D01*
X1132620Y714180D01*
X1132600Y714200D01*
X1132580Y714220D01*
X1132560Y714240D01*
X1132550Y714260D01*
X1132530Y714280D01*
X1132520Y714300D01*
X1132500Y714320D01*
X1132490Y714350D01*
X1132480Y714370D01*
X1132470Y714400D01*
Y714420D01*
X1132460Y714450D01*
Y714470D01*
X1132450Y714500D01*
Y730500D01*
X1132460Y730530D01*
D02*
G37*
G36*
X1145160D02*
Y730550D01*
X1145170Y730580D01*
Y730600D01*
X1145180Y730630D01*
X1145190Y730650D01*
X1145200Y730680D01*
X1145220Y730700D01*
X1145230Y730720D01*
X1145250Y730740D01*
X1145260Y730760D01*
X1145280Y730780D01*
X1145300Y730800D01*
X1145320Y730820D01*
X1145340Y730840D01*
X1145360Y730850D01*
X1145380Y730870D01*
X1145400Y730880D01*
X1145420Y730900D01*
X1145450Y730910D01*
X1145470Y730920D01*
X1145500Y730930D01*
X1145520D01*
X1145550Y730940D01*
X1145570D01*
X1145600Y730950D01*
X1145620D01*
X1145650D01*
X1152050D01*
X1152080D01*
X1152100D01*
X1152130Y730940D01*
X1152150D01*
X1152180Y730930D01*
X1152200D01*
X1152230Y730920D01*
X1152250Y730910D01*
X1152280Y730900D01*
X1152300Y730880D01*
X1152320Y730870D01*
X1152340Y730850D01*
X1152360Y730840D01*
X1152380Y730820D01*
X1152400Y730800D01*
X1152420Y730780D01*
X1152440Y730760D01*
X1152450Y730740D01*
X1152470Y730720D01*
X1152480Y730700D01*
X1152500Y730680D01*
X1152510Y730650D01*
X1152520Y730630D01*
X1152530Y730600D01*
Y730580D01*
X1152540Y730550D01*
Y730530D01*
X1152550Y730500D01*
Y714500D01*
X1152540Y714470D01*
Y714450D01*
X1152530Y714420D01*
Y714400D01*
X1152520Y714370D01*
X1152510Y714350D01*
X1152500Y714320D01*
X1152480Y714300D01*
X1152470Y714280D01*
X1152450Y714260D01*
X1152440Y714240D01*
X1152420Y714220D01*
X1152400Y714200D01*
X1152380Y714180D01*
X1152360Y714160D01*
X1152340Y714150D01*
X1152320Y714130D01*
X1152300Y714120D01*
X1152280Y714100D01*
X1152250Y714090D01*
X1152230Y714080D01*
X1152200Y714070D01*
X1152180D01*
X1152150Y714060D01*
X1152130D01*
X1152100Y714050D01*
X1152080D01*
X1152050D01*
X1145650D01*
X1145620D01*
X1145600D01*
X1145570Y714060D01*
X1145550D01*
X1145520Y714070D01*
X1145500D01*
X1145470Y714080D01*
X1145450Y714090D01*
X1145420Y714100D01*
X1145400Y714120D01*
X1145380Y714130D01*
X1145360Y714150D01*
X1145340Y714160D01*
X1145320Y714180D01*
X1145300Y714200D01*
X1145280Y714220D01*
X1145260Y714240D01*
X1145250Y714260D01*
X1145230Y714280D01*
X1145220Y714300D01*
X1145200Y714320D01*
X1145190Y714350D01*
X1145180Y714370D01*
X1145170Y714400D01*
Y714420D01*
X1145160Y714450D01*
Y714470D01*
X1145150Y714500D01*
Y730500D01*
X1145160Y730530D01*
D02*
G37*
G36*
X1157860D02*
Y730550D01*
X1157870Y730580D01*
Y730600D01*
X1157880Y730630D01*
X1157890Y730650D01*
X1157900Y730680D01*
X1157920Y730700D01*
X1157930Y730720D01*
X1157950Y730740D01*
X1157960Y730760D01*
X1157980Y730780D01*
X1158000Y730800D01*
X1158020Y730820D01*
X1158040Y730840D01*
X1158060Y730850D01*
X1158080Y730870D01*
X1158100Y730880D01*
X1158120Y730900D01*
X1158150Y730910D01*
X1158170Y730920D01*
X1158200Y730930D01*
X1158220D01*
X1158250Y730940D01*
X1158270D01*
X1158300Y730950D01*
X1158320D01*
X1158350D01*
X1164750D01*
X1164780D01*
X1164800D01*
X1164830Y730940D01*
X1164850D01*
X1164880Y730930D01*
X1164900D01*
X1164930Y730920D01*
X1164950Y730910D01*
X1164980Y730900D01*
X1165000Y730880D01*
X1165020Y730870D01*
X1165040Y730850D01*
X1165060Y730840D01*
X1165080Y730820D01*
X1165100Y730800D01*
X1165120Y730780D01*
X1165140Y730760D01*
X1165150Y730740D01*
X1165170Y730720D01*
X1165180Y730700D01*
X1165200Y730680D01*
X1165210Y730650D01*
X1165220Y730630D01*
X1165230Y730600D01*
Y730580D01*
X1165240Y730550D01*
Y730530D01*
X1165250Y730500D01*
Y714500D01*
X1165240Y714470D01*
Y714450D01*
X1165230Y714420D01*
Y714400D01*
X1165220Y714370D01*
X1165210Y714350D01*
X1165200Y714320D01*
X1165180Y714300D01*
X1165170Y714280D01*
X1165150Y714260D01*
X1165140Y714240D01*
X1165120Y714220D01*
X1165100Y714200D01*
X1165080Y714180D01*
X1165060Y714160D01*
X1165040Y714150D01*
X1165020Y714130D01*
X1165000Y714120D01*
X1164980Y714100D01*
X1164950Y714090D01*
X1164930Y714080D01*
X1164900Y714070D01*
X1164880D01*
X1164850Y714060D01*
X1164830D01*
X1164800Y714050D01*
X1164780D01*
X1164750D01*
X1158350D01*
X1158320D01*
X1158300D01*
X1158270Y714060D01*
X1158250D01*
X1158220Y714070D01*
X1158200D01*
X1158170Y714080D01*
X1158150Y714090D01*
X1158120Y714100D01*
X1158100Y714120D01*
X1158080Y714130D01*
X1158060Y714150D01*
X1158040Y714160D01*
X1158020Y714180D01*
X1158000Y714200D01*
X1157980Y714220D01*
X1157960Y714240D01*
X1157950Y714260D01*
X1157930Y714280D01*
X1157920Y714300D01*
X1157900Y714320D01*
X1157890Y714350D01*
X1157880Y714370D01*
X1157870Y714400D01*
Y714420D01*
X1157860Y714450D01*
Y714470D01*
X1157850Y714500D01*
Y730500D01*
X1157860Y730530D01*
D02*
G37*
D26*
X334000Y766610D02*
D03*
Y807250D02*
D03*
D27*
X255000Y727110D02*
D03*
X282000D02*
D03*
Y736610D02*
D03*
X255000D02*
D03*
Y746110D02*
D03*
X282000D02*
D03*
D28*
X352210Y743000D02*
D03*
X338210D02*
D03*
D29*
X402000Y806000D02*
D03*
Y792000D02*
D03*
X377000D02*
D03*
Y806000D02*
D03*
X599000Y718944D02*
D03*
Y704944D02*
D03*
X802000D02*
D03*
Y718944D02*
D03*
X1005000D02*
D03*
Y704944D02*
D03*
X1208000D02*
D03*
Y718944D02*
D03*
X574000D02*
D03*
Y704944D02*
D03*
X777000D02*
D03*
Y718944D02*
D03*
X980000D02*
D03*
Y704944D02*
D03*
X1183000D02*
D03*
Y718944D02*
D03*
D30*
X1569985Y372603D02*
D03*
X1556015D02*
D03*
X1569985Y397603D02*
D03*
X1556015D02*
D03*
X280988Y409603D02*
D03*
X267018D02*
D03*
X467018D02*
D03*
X480988D02*
D03*
X680988D02*
D03*
X667018D02*
D03*
X867018D02*
D03*
X880988D02*
D03*
X1080988D02*
D03*
X1067018D02*
D03*
X1267018D02*
D03*
X1280988D02*
D03*
X1480988D02*
D03*
X1467018D02*
D03*
X280988Y434603D02*
D03*
X267018D02*
D03*
X467018D02*
D03*
X480988D02*
D03*
X680988D02*
D03*
X667018D02*
D03*
X867018D02*
D03*
X880988D02*
D03*
X1080988D02*
D03*
X1067018D02*
D03*
X1267018D02*
D03*
X1280988D02*
D03*
X1480988D02*
D03*
X1467018D02*
D03*
X333985Y832000D02*
D03*
X320015D02*
D03*
X333985Y857000D02*
D03*
X320015D02*
D03*
D31*
X574000Y668500D02*
D03*
Y654530D02*
D03*
X777000D02*
D03*
Y668500D02*
D03*
X980000D02*
D03*
Y654530D02*
D03*
X1183000D02*
D03*
Y668500D02*
D03*
D32*
X647000Y671500D02*
D03*
Y724500D02*
D03*
X850000D02*
D03*
Y671500D02*
D03*
X1053000D02*
D03*
Y724500D02*
D03*
X1256000D02*
D03*
Y671500D02*
D03*
D33*
X282600Y770000D02*
D03*
X253400D02*
D03*
Y799000D02*
D03*
X282600D02*
D03*
D34*
X1080003Y370103D02*
D03*
Y389103D02*
D03*
X1058003Y379603D02*
D03*
X1480003Y370103D02*
D03*
Y389103D02*
D03*
X1458003Y379603D02*
D03*
X1280003Y370103D02*
D03*
Y389103D02*
D03*
X1258003Y379603D02*
D03*
X880003Y370103D02*
D03*
Y389103D02*
D03*
X858003Y379603D02*
D03*
X680003Y370103D02*
D03*
Y389103D02*
D03*
X658003Y379603D02*
D03*
X280003Y370103D02*
D03*
Y389103D02*
D03*
X258003Y379603D02*
D03*
X480003Y370103D02*
D03*
Y389103D02*
D03*
X458003Y379603D02*
D03*
D35*
X553000Y702000D02*
D03*
Y689000D02*
D03*
X540000Y702000D02*
D03*
Y689000D02*
D03*
X527000Y702000D02*
D03*
Y689000D02*
D03*
X514000Y702000D02*
D03*
Y689000D02*
D03*
X717000D02*
D03*
Y702000D02*
D03*
X730000Y689000D02*
D03*
Y702000D02*
D03*
X743000Y689000D02*
D03*
Y702000D02*
D03*
X756000Y689000D02*
D03*
Y702000D02*
D03*
X959000D02*
D03*
Y689000D02*
D03*
X946000Y702000D02*
D03*
Y689000D02*
D03*
X933000Y702000D02*
D03*
Y689000D02*
D03*
X920000Y702000D02*
D03*
Y689000D02*
D03*
X1123000D02*
D03*
Y702000D02*
D03*
X1136000Y689000D02*
D03*
Y702000D02*
D03*
X1149000Y689000D02*
D03*
Y702000D02*
D03*
X1162000Y689000D02*
D03*
Y702000D02*
D03*
D36*
X1685000Y865000D02*
D03*
Y35000D02*
D03*
X35000D02*
D03*
Y865000D02*
D03*
D37*
X1348003Y344603D02*
D03*
Y243003D02*
D03*
Y166803D02*
D03*
X1424203Y344603D02*
D03*
X1148003D02*
D03*
Y243003D02*
D03*
Y166803D02*
D03*
X1224203Y344603D02*
D03*
X948003D02*
D03*
Y243003D02*
D03*
Y166803D02*
D03*
X1024203Y344603D02*
D03*
X748003D02*
D03*
Y243003D02*
D03*
Y166803D02*
D03*
X824203Y344603D02*
D03*
X548003D02*
D03*
Y243003D02*
D03*
Y166803D02*
D03*
X624203Y344603D02*
D03*
X348003D02*
D03*
Y243003D02*
D03*
Y166803D02*
D03*
X424203Y344603D02*
D03*
X148003D02*
D03*
Y243003D02*
D03*
Y166803D02*
D03*
X224203Y344603D02*
D03*
D38*
X416103Y375603D02*
D03*
X356103D02*
D03*
X216103D02*
D03*
X156103D02*
D03*
X556103D02*
D03*
X616103D02*
D03*
X756103D02*
D03*
X816103D02*
D03*
X1156103D02*
D03*
X1216103D02*
D03*
X1356103D02*
D03*
X1416103D02*
D03*
X956103D02*
D03*
X1016103D02*
D03*
D39*
X284003Y275203D02*
D03*
Y300603D02*
D03*
Y326003D02*
D03*
X1555000Y327203D02*
D03*
Y301803D02*
D03*
Y276403D02*
D03*
X484003Y326003D02*
D03*
Y300603D02*
D03*
Y275203D02*
D03*
X1284003Y326003D02*
D03*
Y300603D02*
D03*
Y275203D02*
D03*
X884003Y326003D02*
D03*
Y300603D02*
D03*
Y275203D02*
D03*
X1084003Y326003D02*
D03*
Y300603D02*
D03*
Y275203D02*
D03*
X1484003Y326003D02*
D03*
Y300603D02*
D03*
Y275203D02*
D03*
X684003Y326003D02*
D03*
Y300603D02*
D03*
Y275203D02*
D03*
D40*
X145000Y812000D02*
D03*
D41*
Y718000D02*
D03*
D42*
X1084003Y565003D02*
D03*
X1109403D02*
D03*
X906203Y539603D02*
D03*
X931603D02*
D03*
X957003D02*
D03*
X982403D02*
D03*
X1007803D02*
D03*
X1033203D02*
D03*
X1058603D02*
D03*
X1084003D02*
D03*
X1109403D02*
D03*
X728403D02*
D03*
X753803D02*
D03*
X779203D02*
D03*
X906203Y565003D02*
D03*
X931603D02*
D03*
X957003D02*
D03*
X982403D02*
D03*
X1007803D02*
D03*
X1033203D02*
D03*
X1058603D02*
D03*
X880803D02*
D03*
Y539603D02*
D03*
X855403D02*
D03*
X830003D02*
D03*
X804603D02*
D03*
X626803D02*
D03*
X652203D02*
D03*
X677603D02*
D03*
X703003D02*
D03*
X626803Y565003D02*
D03*
X652203D02*
D03*
X677603D02*
D03*
X703003D02*
D03*
X728403D02*
D03*
X753803D02*
D03*
X779203D02*
D03*
X804603D02*
D03*
X855403D02*
D03*
X830003D02*
D03*
X1612003Y81003D02*
D03*
X1512003D02*
D03*
X1412003D02*
D03*
X1312003D02*
D03*
X1212003D02*
D03*
X1112003D02*
D03*
X1012003D02*
D03*
X812003D02*
D03*
X712003D02*
D03*
X612003D02*
D03*
X512003D02*
D03*
X412003D02*
D03*
X312003D02*
D03*
X212003D02*
D03*
D43*
X797800Y838000D02*
D03*
X950200D02*
D03*
X924800D02*
D03*
X899400D02*
D03*
X874000D02*
D03*
X848600D02*
D03*
X823200D02*
D03*
D44*
X772400D02*
D03*
D45*
X912003Y81003D02*
D03*
X112003D02*
D03*
M02*
