G04*
G04 #@! TF.GenerationSoftware,Altium Limited,Altium Designer,23.3.1 (30)*
G04*
G04 Layer_Physical_Order=4*
G04 Layer_Color=16711680*
%FSLAX44Y44*%
%MOMM*%
G71*
G04*
G04 #@! TF.SameCoordinates,ACB28AF2-BCDA-4B65-85FB-5AC2E94CD4BF*
G04*
G04*
G04 #@! TF.FilePolarity,Positive*
G04*
G01*
G75*
%ADD40C,1.8034*%
%ADD60C,0.7000*%
%ADD62C,2.0000*%
%ADD63R,1.8000X1.8000*%
%ADD64C,1.8000*%
%ADD65C,2.0000*%
%ADD66C,0.5000*%
%ADD67C,3.0000*%
%ADD68C,1.7000*%
%ADD69C,1.9000*%
%ADD70C,2.8000*%
%ADD71R,2.8000X2.8000*%
%ADD72R,1.8000X1.8000*%
%ADD73R,2.0000X2.0000*%
%ADD74C,0.7000*%
%ADD86C,0.4000*%
G36*
X1716941Y367040D02*
X1423836Y366690D01*
X1423309Y367960D01*
X1424505Y369156D01*
X1425888Y371550D01*
X1426603Y374221D01*
Y376985D01*
X1425888Y379656D01*
X1424505Y382050D01*
X1422550Y384005D01*
X1420156Y385387D01*
X1417486Y386103D01*
X1414721D01*
X1412050Y385387D01*
X1409656Y384005D01*
X1407701Y382050D01*
X1406319Y379656D01*
X1405603Y376985D01*
Y374221D01*
X1406319Y371550D01*
X1407701Y369156D01*
X1408915Y367942D01*
X1408389Y366672D01*
X1363764Y366618D01*
X1363237Y367888D01*
X1364505Y369156D01*
X1365888Y371550D01*
X1366603Y374221D01*
Y376985D01*
X1365888Y379656D01*
X1364505Y382050D01*
X1362550Y384005D01*
X1360156Y385387D01*
X1357486Y386103D01*
X1354721D01*
X1352050Y385387D01*
X1349656Y384005D01*
X1347701Y382050D01*
X1346319Y379656D01*
X1345603Y376985D01*
Y374221D01*
X1346319Y371550D01*
X1347701Y369156D01*
X1348987Y367871D01*
X1348461Y366600D01*
X1223596Y366451D01*
X1223070Y367720D01*
X1224505Y369156D01*
X1225888Y371550D01*
X1226603Y374221D01*
Y376985D01*
X1225888Y379656D01*
X1224505Y382050D01*
X1222550Y384005D01*
X1220156Y385387D01*
X1217486Y386103D01*
X1214721D01*
X1212050Y385387D01*
X1209656Y384005D01*
X1207701Y382050D01*
X1206319Y379656D01*
X1205603Y376985D01*
Y374221D01*
X1206319Y371550D01*
X1207701Y369156D01*
X1209154Y367704D01*
X1208628Y366433D01*
X1163524Y366379D01*
X1162998Y367648D01*
X1164505Y369156D01*
X1165888Y371550D01*
X1166603Y374221D01*
Y376985D01*
X1165888Y379656D01*
X1164505Y382050D01*
X1162550Y384005D01*
X1160156Y385387D01*
X1157486Y386103D01*
X1154721D01*
X1152050Y385387D01*
X1149656Y384005D01*
X1147701Y382050D01*
X1146319Y379656D01*
X1145603Y376985D01*
Y374221D01*
X1146319Y371550D01*
X1147701Y369156D01*
X1149225Y367632D01*
X1148700Y366361D01*
X1023227Y366211D01*
X1022830Y367481D01*
X1024505Y369156D01*
X1025888Y371550D01*
X1026603Y374221D01*
Y376985D01*
X1025888Y379656D01*
X1024505Y382050D01*
X1022550Y384005D01*
X1020156Y385387D01*
X1017486Y386103D01*
X1014721D01*
X1012050Y385387D01*
X1009656Y384005D01*
X1007701Y382050D01*
X1006319Y379656D01*
X1005603Y376985D01*
Y374221D01*
X1006319Y371550D01*
X1007701Y369156D01*
X1009392Y367465D01*
X1009021Y366194D01*
X963053Y366139D01*
X962758Y367409D01*
X964505Y369156D01*
X965888Y371550D01*
X966603Y374221D01*
Y376985D01*
X965888Y379656D01*
X964505Y382050D01*
X962550Y384005D01*
X960156Y385387D01*
X957486Y386103D01*
X954721D01*
X952050Y385387D01*
X949656Y384005D01*
X947701Y382050D01*
X946319Y379656D01*
X945603Y376985D01*
Y374221D01*
X946319Y371550D01*
X947701Y369156D01*
X949464Y367393D01*
X949193Y366123D01*
X822875Y365972D01*
X822602Y366988D01*
X822591Y367241D01*
X824505Y369156D01*
X825888Y371550D01*
X826603Y374221D01*
Y376985D01*
X825888Y379656D01*
X824505Y382050D01*
X822550Y384005D01*
X820156Y385387D01*
X817486Y386103D01*
X814721D01*
X812050Y385387D01*
X809656Y384005D01*
X807701Y382050D01*
X806319Y379656D01*
X805603Y376985D01*
Y374221D01*
X806319Y371550D01*
X807701Y369156D01*
X809631Y367226D01*
X809623Y366940D01*
X809360Y365956D01*
X762751Y365900D01*
X762421Y367126D01*
X762550Y367201D01*
X764505Y369156D01*
X765888Y371550D01*
X766603Y374221D01*
Y376985D01*
X765888Y379656D01*
X764505Y382050D01*
X762550Y384005D01*
X760156Y385387D01*
X757486Y386103D01*
X754721D01*
X752050Y385387D01*
X749656Y384005D01*
X747701Y382050D01*
X746319Y379656D01*
X745603Y376985D01*
Y374221D01*
X746319Y371550D01*
X747701Y369156D01*
X749656Y367201D01*
X749812Y367111D01*
X749484Y365884D01*
X622547Y365732D01*
X622206Y367002D01*
X622550Y367201D01*
X624505Y369156D01*
X625888Y371550D01*
X626603Y374221D01*
Y376985D01*
X625888Y379656D01*
X624505Y382050D01*
X622550Y384005D01*
X620156Y385387D01*
X617486Y386103D01*
X614721D01*
X612050Y385387D01*
X609656Y384005D01*
X607701Y382050D01*
X606319Y379656D01*
X605603Y376985D01*
Y374221D01*
X606319Y371550D01*
X607701Y369156D01*
X609656Y367201D01*
X610026Y366987D01*
X609687Y365717D01*
X562422Y365660D01*
X562081Y366930D01*
X562550Y367201D01*
X564505Y369156D01*
X565888Y371550D01*
X566603Y374221D01*
Y376985D01*
X565888Y379656D01*
X564505Y382050D01*
X562550Y384005D01*
X560156Y385387D01*
X557486Y386103D01*
X554721D01*
X552050Y385387D01*
X549656Y384005D01*
X547701Y382050D01*
X546319Y379656D01*
X545603Y376985D01*
Y374221D01*
X546319Y371550D01*
X547701Y369156D01*
X549656Y367201D01*
X550150Y366916D01*
X549811Y365645D01*
X422132Y365493D01*
X421791Y366762D01*
X422550Y367201D01*
X424505Y369156D01*
X425888Y371550D01*
X426603Y374221D01*
Y376985D01*
X425888Y379656D01*
X424505Y382050D01*
X422550Y384005D01*
X420156Y385387D01*
X417486Y386103D01*
X414721D01*
X412050Y385387D01*
X409656Y384005D01*
X407701Y382050D01*
X406319Y379656D01*
X405603Y376985D01*
Y374221D01*
X406319Y371550D01*
X407701Y369156D01*
X409656Y367201D01*
X410439Y366749D01*
X410100Y365478D01*
X362007Y365421D01*
X361666Y366690D01*
X362550Y367201D01*
X364505Y369156D01*
X365888Y371550D01*
X366603Y374221D01*
Y376985D01*
X365888Y379656D01*
X364505Y382050D01*
X362550Y384005D01*
X360156Y385387D01*
X357486Y386103D01*
X354721D01*
X352050Y385387D01*
X349656Y384005D01*
X347701Y382050D01*
X346319Y379656D01*
X345603Y376985D01*
Y374221D01*
X346319Y371550D01*
X347701Y369156D01*
X349656Y367201D01*
X350564Y366677D01*
X350224Y365407D01*
X221717Y365253D01*
X221376Y366523D01*
X222550Y367201D01*
X224505Y369156D01*
X225888Y371550D01*
X226603Y374221D01*
Y376985D01*
X225888Y379656D01*
X224505Y382050D01*
X222550Y384005D01*
X220156Y385387D01*
X217486Y386103D01*
X214721D01*
X212050Y385387D01*
X209656Y384005D01*
X207701Y382050D01*
X206319Y379656D01*
X205603Y376985D01*
Y374221D01*
X206319Y371550D01*
X207701Y369156D01*
X209656Y367201D01*
X210853Y366510D01*
X210513Y365240D01*
X161592Y365181D01*
X161251Y366451D01*
X162550Y367201D01*
X164505Y369156D01*
X165888Y371550D01*
X166603Y374221D01*
Y376985D01*
X165888Y379656D01*
X164505Y382050D01*
X162550Y384005D01*
X160156Y385387D01*
X157486Y386103D01*
X154721D01*
X152050Y385387D01*
X149656Y384005D01*
X147701Y382050D01*
X146319Y379656D01*
X145603Y376985D01*
Y374221D01*
X146319Y371550D01*
X147701Y369156D01*
X149656Y367201D01*
X150977Y366438D01*
X150637Y365168D01*
X3957Y364993D01*
X3059Y365890D01*
Y896941D01*
X1716941D01*
Y367040D01*
D02*
G37*
%LPC*%
G36*
X1687540Y890790D02*
X1682460D01*
X1677477Y889799D01*
X1672784Y887855D01*
X1668560Y885033D01*
X1664967Y881440D01*
X1662145Y877216D01*
X1660201Y872523D01*
X1659210Y867540D01*
Y862460D01*
X1660201Y857477D01*
X1662145Y852784D01*
X1664967Y848560D01*
X1668560Y844967D01*
X1672784Y842145D01*
X1677477Y840201D01*
X1682460Y839210D01*
X1687540D01*
X1692523Y840201D01*
X1697216Y842145D01*
X1701440Y844967D01*
X1705033Y848560D01*
X1707855Y852784D01*
X1709799Y857477D01*
X1710790Y862460D01*
Y867540D01*
X1709799Y872523D01*
X1707855Y877216D01*
X1705033Y881440D01*
X1701440Y885033D01*
X1697216Y887855D01*
X1692523Y889799D01*
X1687540Y890790D01*
D02*
G37*
G36*
X37540D02*
X32460D01*
X27477Y889799D01*
X22784Y887855D01*
X18560Y885033D01*
X14967Y881440D01*
X12145Y877216D01*
X10201Y872523D01*
X9210Y867540D01*
Y862460D01*
X10201Y857477D01*
X12145Y852784D01*
X14967Y848560D01*
X18560Y844967D01*
X22784Y842145D01*
X27477Y840201D01*
X32460Y839210D01*
X37540D01*
X42523Y840201D01*
X47216Y842145D01*
X51440Y844967D01*
X55033Y848560D01*
X57855Y852784D01*
X59799Y857477D01*
X60790Y862460D01*
Y867540D01*
X59799Y872523D01*
X57855Y877216D01*
X55033Y881440D01*
X51440Y885033D01*
X47216Y887855D01*
X42523Y889799D01*
X37540Y890790D01*
D02*
G37*
G36*
X951648Y849000D02*
X948752D01*
X945954Y848250D01*
X943446Y846802D01*
X941398Y844754D01*
X939950Y842246D01*
X939200Y839448D01*
Y836552D01*
X939950Y833754D01*
X941398Y831246D01*
X943446Y829198D01*
X945954Y827750D01*
X948752Y827000D01*
X951648D01*
X954446Y827750D01*
X956954Y829198D01*
X959002Y831246D01*
X960450Y833754D01*
X961200Y836552D01*
Y839448D01*
X960450Y842246D01*
X959002Y844754D01*
X956954Y846802D01*
X954446Y848250D01*
X951648Y849000D01*
D02*
G37*
G36*
X926248D02*
X923352D01*
X920554Y848250D01*
X918046Y846802D01*
X915998Y844754D01*
X914550Y842246D01*
X913800Y839448D01*
Y836552D01*
X914550Y833754D01*
X915998Y831246D01*
X918046Y829198D01*
X920554Y827750D01*
X923352Y827000D01*
X926248D01*
X929046Y827750D01*
X931554Y829198D01*
X933602Y831246D01*
X935050Y833754D01*
X935800Y836552D01*
Y839448D01*
X935050Y842246D01*
X933602Y844754D01*
X931554Y846802D01*
X929046Y848250D01*
X926248Y849000D01*
D02*
G37*
G36*
X900848D02*
X897952D01*
X895154Y848250D01*
X892646Y846802D01*
X890598Y844754D01*
X889150Y842246D01*
X888400Y839448D01*
Y836552D01*
X889150Y833754D01*
X890598Y831246D01*
X892646Y829198D01*
X895154Y827750D01*
X897952Y827000D01*
X900848D01*
X903646Y827750D01*
X906154Y829198D01*
X908202Y831246D01*
X909650Y833754D01*
X910400Y836552D01*
Y839448D01*
X909650Y842246D01*
X908202Y844754D01*
X906154Y846802D01*
X903646Y848250D01*
X900848Y849000D01*
D02*
G37*
G36*
X875448D02*
X872552D01*
X869754Y848250D01*
X867246Y846802D01*
X865198Y844754D01*
X863750Y842246D01*
X863000Y839448D01*
Y836552D01*
X863750Y833754D01*
X865198Y831246D01*
X867246Y829198D01*
X869754Y827750D01*
X872552Y827000D01*
X875448D01*
X878246Y827750D01*
X880754Y829198D01*
X882802Y831246D01*
X884250Y833754D01*
X885000Y836552D01*
Y839448D01*
X884250Y842246D01*
X882802Y844754D01*
X880754Y846802D01*
X878246Y848250D01*
X875448Y849000D01*
D02*
G37*
G36*
X850048D02*
X847152D01*
X844354Y848250D01*
X841846Y846802D01*
X839798Y844754D01*
X838350Y842246D01*
X837600Y839448D01*
Y836552D01*
X838350Y833754D01*
X839798Y831246D01*
X841846Y829198D01*
X844354Y827750D01*
X847152Y827000D01*
X850048D01*
X852846Y827750D01*
X855354Y829198D01*
X857402Y831246D01*
X858850Y833754D01*
X859600Y836552D01*
Y839448D01*
X858850Y842246D01*
X857402Y844754D01*
X855354Y846802D01*
X852846Y848250D01*
X850048Y849000D01*
D02*
G37*
G36*
X824648D02*
X821752D01*
X818954Y848250D01*
X816446Y846802D01*
X814398Y844754D01*
X812950Y842246D01*
X812200Y839448D01*
Y836552D01*
X812950Y833754D01*
X814398Y831246D01*
X816446Y829198D01*
X818954Y827750D01*
X821752Y827000D01*
X824648D01*
X827446Y827750D01*
X829954Y829198D01*
X832002Y831246D01*
X833450Y833754D01*
X834200Y836552D01*
Y839448D01*
X833450Y842246D01*
X832002Y844754D01*
X829954Y846802D01*
X827446Y848250D01*
X824648Y849000D01*
D02*
G37*
G36*
X799248D02*
X796352D01*
X793554Y848250D01*
X791046Y846802D01*
X788998Y844754D01*
X787550Y842246D01*
X786800Y839448D01*
Y836552D01*
X787550Y833754D01*
X788998Y831246D01*
X791046Y829198D01*
X793554Y827750D01*
X796352Y827000D01*
X799248D01*
X802046Y827750D01*
X804554Y829198D01*
X806602Y831246D01*
X808050Y833754D01*
X808800Y836552D01*
Y839448D01*
X808050Y842246D01*
X806602Y844754D01*
X804554Y846802D01*
X802046Y848250D01*
X799248Y849000D01*
D02*
G37*
G36*
X783400D02*
X761400D01*
Y827000D01*
X783400D01*
Y849000D01*
D02*
G37*
G36*
X1685000Y806600D02*
X1663000D01*
Y799678D01*
X1601600D01*
X1601600Y799678D01*
X1600039Y799368D01*
X1598716Y798484D01*
X1598716Y798484D01*
X1323311Y523078D01*
X1089689D01*
X1088082Y524686D01*
Y528273D01*
X1088635Y528421D01*
X1091372Y530001D01*
X1093606Y532235D01*
X1094947Y534557D01*
X1096297Y534425D01*
X1096357Y534199D01*
X1098201Y531007D01*
X1100807Y528400D01*
X1103999Y526557D01*
X1105403Y526181D01*
Y539603D01*
X1109403D01*
Y543603D01*
X1122825D01*
X1122449Y545007D01*
X1120606Y548199D01*
X1117999Y550806D01*
X1114807Y552649D01*
X1114582Y552709D01*
X1114449Y554060D01*
X1116771Y555401D01*
X1119006Y557635D01*
X1120585Y560371D01*
X1121403Y563423D01*
Y566583D01*
X1120585Y569635D01*
X1119006Y572371D01*
X1116771Y574605D01*
X1114035Y576185D01*
X1110983Y577003D01*
X1107823D01*
X1104771Y576185D01*
X1102035Y574605D01*
X1099801Y572371D01*
X1098221Y569635D01*
X1097403Y566583D01*
Y563423D01*
X1098221Y560371D01*
X1099801Y557635D01*
X1102035Y555401D01*
X1104358Y554060D01*
X1104225Y552709D01*
X1103999Y552649D01*
X1100807Y550806D01*
X1098201Y548199D01*
X1096357Y545007D01*
X1096297Y544781D01*
X1094947Y544649D01*
X1093606Y546971D01*
X1091372Y549205D01*
X1088635Y550785D01*
X1085583Y551603D01*
X1082423D01*
X1079371Y550785D01*
X1076635Y549205D01*
X1074401Y546971D01*
X1072821Y544235D01*
X1072003Y541183D01*
Y538023D01*
X1072821Y534971D01*
X1074401Y532235D01*
X1076635Y530001D01*
X1079371Y528421D01*
X1079925Y528273D01*
Y522997D01*
X1079925Y522997D01*
X1080235Y521436D01*
X1081120Y520113D01*
X1085116Y516116D01*
X1086265Y515348D01*
X1086243Y514645D01*
X1086054Y514078D01*
X1073689D01*
X1062682Y525086D01*
Y528273D01*
X1063235Y528421D01*
X1065972Y530001D01*
X1068206Y532235D01*
X1069786Y534971D01*
X1070603Y538023D01*
Y541183D01*
X1069786Y544235D01*
X1068206Y546971D01*
X1065972Y549205D01*
X1063235Y550785D01*
X1060183Y551603D01*
X1057023D01*
X1053971Y550785D01*
X1051235Y549205D01*
X1049001Y546971D01*
X1047421Y544235D01*
X1046603Y541183D01*
Y538023D01*
X1047421Y534971D01*
X1049001Y532235D01*
X1051235Y530001D01*
X1053971Y528421D01*
X1054525Y528273D01*
Y523397D01*
X1054525Y523397D01*
X1054835Y521836D01*
X1055720Y520513D01*
X1069116Y507116D01*
X1069116Y507116D01*
X1070439Y506232D01*
X1072000Y505922D01*
X1072000Y505922D01*
X1361000D01*
X1361000Y505922D01*
X1362561Y506232D01*
X1363884Y507116D01*
X1597689Y740922D01*
X1663651D01*
X1663750Y740554D01*
X1665198Y738046D01*
X1667246Y735998D01*
X1669754Y734550D01*
X1672552Y733800D01*
X1675448D01*
X1678246Y734550D01*
X1680754Y735998D01*
X1682802Y738046D01*
X1684250Y740554D01*
X1685000Y743352D01*
Y746248D01*
X1684250Y749046D01*
X1682802Y751554D01*
X1680754Y753602D01*
X1678246Y755050D01*
X1675448Y755800D01*
X1672552D01*
X1669754Y755050D01*
X1667246Y753602D01*
X1665198Y751554D01*
X1663768Y749078D01*
X1596000D01*
X1596000Y749078D01*
X1594439Y748768D01*
X1593116Y747884D01*
X1359311Y514078D01*
X1326946D01*
X1326757Y514645D01*
X1326735Y515348D01*
X1327884Y516116D01*
X1603289Y791522D01*
X1663000D01*
Y784600D01*
X1685000D01*
Y806600D01*
D02*
G37*
G36*
X1675519Y781740D02*
X1675500D01*
Y771700D01*
X1685540D01*
Y771719D01*
X1684754Y774654D01*
X1683234Y777286D01*
X1681086Y779434D01*
X1678454Y780954D01*
X1675519Y781740D01*
D02*
G37*
G36*
X1672500D02*
X1672481D01*
X1669546Y780954D01*
X1666914Y779434D01*
X1664766Y777286D01*
X1663246Y774654D01*
X1662460Y771719D01*
Y771700D01*
X1672500D01*
Y781740D01*
D02*
G37*
G36*
X1685540Y768700D02*
X1675500D01*
Y758660D01*
X1675519D01*
X1678454Y759446D01*
X1681086Y760966D01*
X1683234Y763114D01*
X1684754Y765746D01*
X1685540Y768681D01*
Y768700D01*
D02*
G37*
G36*
X1672500D02*
X1662460D01*
Y768681D01*
X1663246Y765746D01*
X1664766Y763114D01*
X1666914Y760966D01*
X1669546Y759446D01*
X1672481Y758660D01*
X1672500D01*
Y768700D01*
D02*
G37*
G36*
X1236094Y761500D02*
X1233906D01*
X1231885Y760663D01*
X1230337Y759116D01*
X1229500Y757094D01*
Y754906D01*
X1230337Y752885D01*
X1231885Y751337D01*
X1233906Y750500D01*
X1236094D01*
X1238115Y751337D01*
X1239663Y752885D01*
X1240500Y754906D01*
Y757094D01*
X1239663Y759116D01*
X1238115Y760663D01*
X1236094Y761500D01*
D02*
G37*
G36*
X1216094D02*
X1213906D01*
X1211885Y760663D01*
X1210337Y759116D01*
X1209500Y757094D01*
Y754906D01*
X1210337Y752885D01*
X1211885Y751337D01*
X1213906Y750500D01*
X1216094D01*
X1218115Y751337D01*
X1219663Y752885D01*
X1220500Y754906D01*
Y757094D01*
X1219663Y759116D01*
X1218115Y760663D01*
X1216094Y761500D01*
D02*
G37*
G36*
X1197094D02*
X1194906D01*
X1192885Y760663D01*
X1191337Y759116D01*
X1190500Y757094D01*
Y754906D01*
X1191337Y752885D01*
X1192885Y751337D01*
X1194906Y750500D01*
X1197094D01*
X1199116Y751337D01*
X1200663Y752885D01*
X1201500Y754906D01*
Y757094D01*
X1200663Y759116D01*
X1199116Y760663D01*
X1197094Y761500D01*
D02*
G37*
G36*
X1179094D02*
X1176906D01*
X1174884Y760663D01*
X1173337Y759116D01*
X1172500Y757094D01*
Y754906D01*
X1173337Y752885D01*
X1174884Y751337D01*
X1176906Y750500D01*
X1179094D01*
X1181115Y751337D01*
X1182663Y752885D01*
X1183500Y754906D01*
Y757094D01*
X1182663Y759116D01*
X1181115Y760663D01*
X1179094Y761500D01*
D02*
G37*
G36*
X1033094D02*
X1030906D01*
X1028885Y760663D01*
X1027337Y759116D01*
X1026500Y757094D01*
Y754906D01*
X1027337Y752885D01*
X1028885Y751337D01*
X1030906Y750500D01*
X1033094D01*
X1035116Y751337D01*
X1036663Y752885D01*
X1037500Y754906D01*
Y757094D01*
X1036663Y759116D01*
X1035116Y760663D01*
X1033094Y761500D01*
D02*
G37*
G36*
X1013094D02*
X1010906D01*
X1008885Y760663D01*
X1007337Y759116D01*
X1006500Y757094D01*
Y754906D01*
X1007337Y752885D01*
X1008885Y751337D01*
X1010906Y750500D01*
X1013094D01*
X1015116Y751337D01*
X1016663Y752885D01*
X1017500Y754906D01*
Y757094D01*
X1016663Y759116D01*
X1015116Y760663D01*
X1013094Y761500D01*
D02*
G37*
G36*
X994094D02*
X991906D01*
X989884Y760663D01*
X988337Y759116D01*
X987500Y757094D01*
Y754906D01*
X988337Y752885D01*
X989884Y751337D01*
X991906Y750500D01*
X994094D01*
X996115Y751337D01*
X997663Y752885D01*
X998500Y754906D01*
Y757094D01*
X997663Y759116D01*
X996115Y760663D01*
X994094Y761500D01*
D02*
G37*
G36*
X976094D02*
X973906D01*
X971885Y760663D01*
X970337Y759116D01*
X969500Y757094D01*
Y754906D01*
X970337Y752885D01*
X971885Y751337D01*
X973906Y750500D01*
X976094D01*
X978115Y751337D01*
X979663Y752885D01*
X980500Y754906D01*
Y757094D01*
X979663Y759116D01*
X978115Y760663D01*
X976094Y761500D01*
D02*
G37*
G36*
X830094D02*
X827906D01*
X825884Y760663D01*
X824337Y759116D01*
X823500Y757094D01*
Y754906D01*
X824337Y752885D01*
X825884Y751337D01*
X827906Y750500D01*
X830094D01*
X832115Y751337D01*
X833663Y752885D01*
X834500Y754906D01*
Y757094D01*
X833663Y759116D01*
X832115Y760663D01*
X830094Y761500D01*
D02*
G37*
G36*
X810094D02*
X807906D01*
X805884Y760663D01*
X804337Y759116D01*
X803500Y757094D01*
Y754906D01*
X804337Y752885D01*
X805884Y751337D01*
X807906Y750500D01*
X810094D01*
X812115Y751337D01*
X813663Y752885D01*
X814500Y754906D01*
Y757094D01*
X813663Y759116D01*
X812115Y760663D01*
X810094Y761500D01*
D02*
G37*
G36*
X791094D02*
X788906D01*
X786885Y760663D01*
X785337Y759116D01*
X784500Y757094D01*
Y754906D01*
X785337Y752885D01*
X786885Y751337D01*
X788906Y750500D01*
X791094D01*
X793115Y751337D01*
X794663Y752885D01*
X795500Y754906D01*
Y757094D01*
X794663Y759116D01*
X793115Y760663D01*
X791094Y761500D01*
D02*
G37*
G36*
X773094D02*
X770906D01*
X768885Y760663D01*
X767337Y759116D01*
X766500Y757094D01*
Y754906D01*
X767337Y752885D01*
X768885Y751337D01*
X770906Y750500D01*
X773094D01*
X775116Y751337D01*
X776663Y752885D01*
X777500Y754906D01*
Y757094D01*
X776663Y759116D01*
X775116Y760663D01*
X773094Y761500D01*
D02*
G37*
G36*
X627094D02*
X624906D01*
X622884Y760663D01*
X621337Y759116D01*
X620500Y757094D01*
Y754906D01*
X621337Y752885D01*
X622884Y751337D01*
X624906Y750500D01*
X627094D01*
X629115Y751337D01*
X630663Y752885D01*
X631500Y754906D01*
Y757094D01*
X630663Y759116D01*
X629115Y760663D01*
X627094Y761500D01*
D02*
G37*
G36*
X607094D02*
X604906D01*
X602884Y760663D01*
X601337Y759116D01*
X600500Y757094D01*
Y754906D01*
X601337Y752885D01*
X602884Y751337D01*
X604906Y750500D01*
X607094D01*
X609115Y751337D01*
X610663Y752885D01*
X611500Y754906D01*
Y757094D01*
X610663Y759116D01*
X609115Y760663D01*
X607094Y761500D01*
D02*
G37*
G36*
X588094D02*
X585906D01*
X583885Y760663D01*
X582337Y759116D01*
X581500Y757094D01*
Y754906D01*
X582337Y752885D01*
X583885Y751337D01*
X585906Y750500D01*
X588094D01*
X590116Y751337D01*
X591663Y752885D01*
X592500Y754906D01*
Y757094D01*
X591663Y759116D01*
X590116Y760663D01*
X588094Y761500D01*
D02*
G37*
G36*
X570094D02*
X567906D01*
X565885Y760663D01*
X564337Y759116D01*
X563500Y757094D01*
Y754906D01*
X564337Y752885D01*
X565885Y751337D01*
X567906Y750500D01*
X570094D01*
X572116Y751337D01*
X573663Y752885D01*
X574500Y754906D01*
Y757094D01*
X573663Y759116D01*
X572116Y760663D01*
X570094Y761500D01*
D02*
G37*
G36*
X1235094Y746500D02*
X1232906D01*
X1230884Y745663D01*
X1229337Y744116D01*
X1228500Y742094D01*
Y739906D01*
X1229337Y737885D01*
X1230884Y736337D01*
X1232906Y735500D01*
X1235094D01*
X1237115Y736337D01*
X1238663Y737885D01*
X1239500Y739906D01*
Y742094D01*
X1238663Y744116D01*
X1237115Y745663D01*
X1235094Y746500D01*
D02*
G37*
G36*
X1215094D02*
X1212906D01*
X1210884Y745663D01*
X1209337Y744116D01*
X1208500Y742094D01*
Y739906D01*
X1209337Y737885D01*
X1210884Y736337D01*
X1212906Y735500D01*
X1215094D01*
X1217115Y736337D01*
X1218663Y737885D01*
X1219500Y739906D01*
Y742094D01*
X1218663Y744116D01*
X1217115Y745663D01*
X1215094Y746500D01*
D02*
G37*
G36*
X1196094D02*
X1193906D01*
X1191885Y745663D01*
X1190337Y744116D01*
X1189500Y742094D01*
Y739906D01*
X1190337Y737885D01*
X1191885Y736337D01*
X1193906Y735500D01*
X1196094D01*
X1198115Y736337D01*
X1199663Y737885D01*
X1200500Y739906D01*
Y742094D01*
X1199663Y744116D01*
X1198115Y745663D01*
X1196094Y746500D01*
D02*
G37*
G36*
X1178094D02*
X1175906D01*
X1173885Y745663D01*
X1172337Y744116D01*
X1171500Y742094D01*
Y739906D01*
X1172337Y737885D01*
X1173885Y736337D01*
X1175906Y735500D01*
X1178094D01*
X1180116Y736337D01*
X1181663Y737885D01*
X1182500Y739906D01*
Y742094D01*
X1181663Y744116D01*
X1180116Y745663D01*
X1178094Y746500D01*
D02*
G37*
G36*
X1032094D02*
X1029906D01*
X1027885Y745663D01*
X1026337Y744116D01*
X1025500Y742094D01*
Y739906D01*
X1026337Y737885D01*
X1027885Y736337D01*
X1029906Y735500D01*
X1032094D01*
X1034116Y736337D01*
X1035663Y737885D01*
X1036500Y739906D01*
Y742094D01*
X1035663Y744116D01*
X1034116Y745663D01*
X1032094Y746500D01*
D02*
G37*
G36*
X1012094D02*
X1009906D01*
X1007885Y745663D01*
X1006337Y744116D01*
X1005500Y742094D01*
Y739906D01*
X1006337Y737885D01*
X1007885Y736337D01*
X1009906Y735500D01*
X1012094D01*
X1014116Y736337D01*
X1015663Y737885D01*
X1016500Y739906D01*
Y742094D01*
X1015663Y744116D01*
X1014116Y745663D01*
X1012094Y746500D01*
D02*
G37*
G36*
X993094D02*
X990906D01*
X988885Y745663D01*
X987337Y744116D01*
X986500Y742094D01*
Y739906D01*
X987337Y737885D01*
X988885Y736337D01*
X990906Y735500D01*
X993094D01*
X995116Y736337D01*
X996663Y737885D01*
X997500Y739906D01*
Y742094D01*
X996663Y744116D01*
X995116Y745663D01*
X993094Y746500D01*
D02*
G37*
G36*
X975094D02*
X972906D01*
X970884Y745663D01*
X969337Y744116D01*
X968500Y742094D01*
Y739906D01*
X969337Y737885D01*
X970884Y736337D01*
X972906Y735500D01*
X975094D01*
X977115Y736337D01*
X978663Y737885D01*
X979500Y739906D01*
Y742094D01*
X978663Y744116D01*
X977115Y745663D01*
X975094Y746500D01*
D02*
G37*
G36*
X829094D02*
X826906D01*
X824884Y745663D01*
X823337Y744116D01*
X822500Y742094D01*
Y739906D01*
X823337Y737885D01*
X824884Y736337D01*
X826906Y735500D01*
X829094D01*
X831115Y736337D01*
X832663Y737885D01*
X833500Y739906D01*
Y742094D01*
X832663Y744116D01*
X831115Y745663D01*
X829094Y746500D01*
D02*
G37*
G36*
X809094D02*
X806906D01*
X804884Y745663D01*
X803337Y744116D01*
X802500Y742094D01*
Y739906D01*
X803337Y737885D01*
X804884Y736337D01*
X806906Y735500D01*
X809094D01*
X811115Y736337D01*
X812663Y737885D01*
X813500Y739906D01*
Y742094D01*
X812663Y744116D01*
X811115Y745663D01*
X809094Y746500D01*
D02*
G37*
G36*
X790094D02*
X787906D01*
X785884Y745663D01*
X784337Y744116D01*
X783500Y742094D01*
Y739906D01*
X784337Y737885D01*
X785884Y736337D01*
X787906Y735500D01*
X790094D01*
X792115Y736337D01*
X793663Y737885D01*
X794500Y739906D01*
Y742094D01*
X793663Y744116D01*
X792115Y745663D01*
X790094Y746500D01*
D02*
G37*
G36*
X772094D02*
X769906D01*
X767885Y745663D01*
X766337Y744116D01*
X765500Y742094D01*
Y739906D01*
X766337Y737885D01*
X767885Y736337D01*
X769906Y735500D01*
X772094D01*
X774116Y736337D01*
X775663Y737885D01*
X776500Y739906D01*
Y742094D01*
X775663Y744116D01*
X774116Y745663D01*
X772094Y746500D01*
D02*
G37*
G36*
X626094D02*
X623906D01*
X621884Y745663D01*
X620337Y744116D01*
X619500Y742094D01*
Y739906D01*
X620337Y737885D01*
X621884Y736337D01*
X623906Y735500D01*
X626094D01*
X628116Y736337D01*
X629663Y737885D01*
X630500Y739906D01*
Y742094D01*
X629663Y744116D01*
X628116Y745663D01*
X626094Y746500D01*
D02*
G37*
G36*
X606094D02*
X603906D01*
X601884Y745663D01*
X600337Y744116D01*
X599500Y742094D01*
Y739906D01*
X600337Y737885D01*
X601884Y736337D01*
X603906Y735500D01*
X606094D01*
X608116Y736337D01*
X609663Y737885D01*
X610500Y739906D01*
Y742094D01*
X609663Y744116D01*
X608116Y745663D01*
X606094Y746500D01*
D02*
G37*
G36*
X587094D02*
X584906D01*
X582884Y745663D01*
X581337Y744116D01*
X580500Y742094D01*
Y739906D01*
X581337Y737885D01*
X582884Y736337D01*
X584906Y735500D01*
X587094D01*
X589115Y736337D01*
X590663Y737885D01*
X591500Y739906D01*
Y742094D01*
X590663Y744116D01*
X589115Y745663D01*
X587094Y746500D01*
D02*
G37*
G36*
X569094D02*
X566906D01*
X564884Y745663D01*
X563337Y744116D01*
X562500Y742094D01*
Y739906D01*
X563337Y737885D01*
X564884Y736337D01*
X566906Y735500D01*
X569094D01*
X571115Y736337D01*
X572663Y737885D01*
X573500Y739906D01*
Y742094D01*
X572663Y744116D01*
X571115Y745663D01*
X569094Y746500D01*
D02*
G37*
G36*
X404761Y732500D02*
X402573D01*
X400551Y731663D01*
X399004Y730115D01*
X398968Y730029D01*
X397698D01*
X397663Y730115D01*
X396115Y731663D01*
X394094Y732500D01*
X391906D01*
X389884Y731663D01*
X388337Y730115D01*
X388302Y730029D01*
X387032D01*
X386996Y730115D01*
X385449Y731663D01*
X383427Y732500D01*
X381239D01*
X379218Y731663D01*
X377671Y730115D01*
X377635Y730029D01*
X376365D01*
X376329Y730115D01*
X374782Y731663D01*
X372761Y732500D01*
X370573D01*
X368551Y731663D01*
X367004Y730115D01*
X366167Y728094D01*
Y725906D01*
X367004Y723884D01*
X368551Y722337D01*
X369080Y722118D01*
Y720744D01*
X368885Y720663D01*
X367337Y719115D01*
X366500Y717094D01*
Y714906D01*
X367337Y712885D01*
X368885Y711337D01*
X370906Y710500D01*
X373094D01*
X375116Y711337D01*
X376663Y712885D01*
X376698Y712971D01*
X377968D01*
X378004Y712885D01*
X379551Y711337D01*
X381573Y710500D01*
X383761D01*
X385782Y711337D01*
X387329Y712885D01*
X387365Y712971D01*
X388635D01*
X388671Y712885D01*
X390218Y711337D01*
X392239Y710500D01*
X394427D01*
X396449Y711337D01*
X397996Y712885D01*
X398032Y712971D01*
X399302D01*
X399337Y712885D01*
X400885Y711337D01*
X402906Y710500D01*
X405094D01*
X407116Y711337D01*
X408663Y712885D01*
X409500Y714906D01*
Y717094D01*
X408663Y719115D01*
X407116Y720663D01*
X406587Y720882D01*
Y722256D01*
X406782Y722337D01*
X408329Y723884D01*
X409167Y725906D01*
Y728094D01*
X408329Y730115D01*
X406782Y731663D01*
X404761Y732500D01*
D02*
G37*
G36*
X300094Y726500D02*
X297906D01*
X295884Y725663D01*
X294337Y724115D01*
X294187Y723753D01*
X292813D01*
X292663Y724115D01*
X291115Y725663D01*
X289094Y726500D01*
X286906D01*
X284884Y725663D01*
X283337Y724115D01*
X283187Y723753D01*
X281813D01*
X281663Y724115D01*
X280116Y725663D01*
X278094Y726500D01*
X275906D01*
X273885Y725663D01*
X272337Y724115D01*
X271500Y722094D01*
Y719906D01*
X272337Y717884D01*
X273885Y716337D01*
X275906Y715500D01*
X278094D01*
X280116Y716337D01*
X281663Y717884D01*
X281813Y718247D01*
X283187D01*
X283337Y717884D01*
X284884Y716337D01*
X286906Y715500D01*
X289094D01*
X291115Y716337D01*
X292663Y717884D01*
X292813Y718247D01*
X294187D01*
X294337Y717884D01*
X295884Y716337D01*
X297906Y715500D01*
X300094D01*
X302115Y716337D01*
X303663Y717884D01*
X304500Y719906D01*
Y722094D01*
X303663Y724115D01*
X302115Y725663D01*
X300094Y726500D01*
D02*
G37*
G36*
X1675519Y730940D02*
X1675500D01*
Y720900D01*
X1685540D01*
Y720919D01*
X1684754Y723854D01*
X1683234Y726486D01*
X1681086Y728634D01*
X1678454Y730154D01*
X1675519Y730940D01*
D02*
G37*
G36*
X1672500D02*
X1672481D01*
X1669546Y730154D01*
X1666914Y728634D01*
X1664766Y726486D01*
X1663246Y723854D01*
X1662460Y720919D01*
Y720900D01*
X1672500D01*
Y730940D01*
D02*
G37*
G36*
X1685540Y717900D02*
X1675500D01*
Y707860D01*
X1675519D01*
X1678454Y708646D01*
X1681086Y710166D01*
X1683234Y712314D01*
X1684754Y714946D01*
X1685540Y717881D01*
Y717900D01*
D02*
G37*
G36*
X1672500D02*
X1662460D01*
Y717881D01*
X1663246Y714946D01*
X1664766Y712314D01*
X1666914Y710166D01*
X1669546Y708646D01*
X1672481Y707860D01*
X1672500D01*
Y717900D01*
D02*
G37*
G36*
X1675448Y705000D02*
X1672552D01*
X1669754Y704250D01*
X1667246Y702802D01*
X1665198Y700754D01*
X1663750Y698246D01*
X1663705Y698078D01*
X1605000D01*
X1603439Y697768D01*
X1602116Y696884D01*
X1602116Y696884D01*
X1409311Y504078D01*
X1060689D01*
X1037698Y527069D01*
X1037788Y527960D01*
X1037942Y528483D01*
X1040572Y530001D01*
X1042806Y532235D01*
X1044386Y534971D01*
X1045203Y538023D01*
Y541183D01*
X1044386Y544235D01*
X1042806Y546971D01*
X1040572Y549205D01*
X1038249Y550546D01*
X1038382Y551897D01*
X1038607Y551957D01*
X1041799Y553800D01*
X1044406Y556407D01*
X1046249Y559599D01*
X1046310Y559824D01*
X1047660Y559957D01*
X1049001Y557635D01*
X1051235Y555401D01*
X1053971Y553821D01*
X1057023Y553003D01*
X1060183D01*
X1063235Y553821D01*
X1065972Y555401D01*
X1068206Y557635D01*
X1069786Y560371D01*
X1070603Y563423D01*
Y566583D01*
X1069786Y569635D01*
X1068206Y572371D01*
X1065972Y574605D01*
X1063235Y576185D01*
X1060183Y577003D01*
X1057023D01*
X1053971Y576185D01*
X1051235Y574605D01*
X1049001Y572371D01*
X1047660Y570049D01*
X1046310Y570182D01*
X1046249Y570407D01*
X1044406Y573599D01*
X1041799Y576206D01*
X1038607Y578049D01*
X1037203Y578425D01*
Y565003D01*
X1029203D01*
Y578425D01*
X1027800Y578049D01*
X1024607Y576206D01*
X1022001Y573599D01*
X1020157Y570407D01*
X1020097Y570182D01*
X1018747Y570049D01*
X1017406Y572371D01*
X1015172Y574605D01*
X1012435Y576185D01*
X1009383Y577003D01*
X1006224D01*
X1003171Y576185D01*
X1000435Y574605D01*
X998201Y572371D01*
X996860Y570049D01*
X995510Y570182D01*
X995449Y570407D01*
X993606Y573599D01*
X991000Y576206D01*
X987807Y578049D01*
X986403Y578425D01*
Y565003D01*
X978403D01*
Y578425D01*
X977000Y578049D01*
X973807Y576206D01*
X971200Y573599D01*
X969357Y570407D01*
X969297Y570182D01*
X967947Y570049D01*
X966606Y572371D01*
X964371Y574605D01*
X961635Y576185D01*
X958583Y577003D01*
X955424D01*
X952372Y576185D01*
X949635Y574605D01*
X947401Y572371D01*
X945821Y569635D01*
X945003Y566583D01*
Y563423D01*
X945821Y560371D01*
X947401Y557635D01*
X949635Y555401D01*
X952372Y553821D01*
X955424Y553003D01*
X958583D01*
X961635Y553821D01*
X964371Y555401D01*
X966606Y557635D01*
X967947Y559957D01*
X969297Y559824D01*
X969357Y559599D01*
X971200Y556407D01*
X973807Y553800D01*
X977000Y551957D01*
X977225Y551897D01*
X977358Y550546D01*
X975035Y549205D01*
X972801Y546971D01*
X971221Y544235D01*
X970403Y541183D01*
Y538023D01*
X971221Y534971D01*
X972801Y532235D01*
X975035Y530001D01*
X977772Y528421D01*
X980824Y527603D01*
X983983D01*
X987035Y528421D01*
X989429Y529803D01*
X1040116Y479116D01*
X1041439Y478232D01*
X1043000Y477922D01*
X1043000Y477922D01*
X1493000D01*
X1493000Y477922D01*
X1494561Y478232D01*
X1495884Y479116D01*
X1580689Y563922D01*
X1663000D01*
Y560000D01*
X1685000D01*
Y582000D01*
X1663000D01*
Y572078D01*
X1579000D01*
X1577439Y571768D01*
X1576116Y570884D01*
X1576116Y570884D01*
X1491311Y486078D01*
X1458946D01*
X1458757Y486645D01*
X1458735Y487348D01*
X1459884Y488116D01*
X1609689Y637922D01*
X1664346D01*
X1665198Y636446D01*
X1667246Y634398D01*
X1669754Y632950D01*
X1672552Y632200D01*
X1675448D01*
X1678246Y632950D01*
X1680754Y634398D01*
X1682802Y636446D01*
X1684250Y638954D01*
X1685000Y641752D01*
Y644648D01*
X1684250Y647446D01*
X1682802Y649954D01*
X1680754Y652002D01*
X1678246Y653450D01*
X1675448Y654200D01*
X1672552D01*
X1669754Y653450D01*
X1667246Y652002D01*
X1665198Y649954D01*
X1663750Y647446D01*
X1663383Y646078D01*
X1608000D01*
X1608000Y646078D01*
X1606439Y645768D01*
X1605116Y644884D01*
X1605116Y644884D01*
X1455311Y495078D01*
X1412946D01*
X1412757Y495644D01*
X1412735Y496348D01*
X1413884Y497116D01*
X1606689Y689922D01*
X1663705D01*
X1663750Y689754D01*
X1665198Y687246D01*
X1667246Y685198D01*
X1669754Y683750D01*
X1672552Y683000D01*
X1675448D01*
X1678246Y683750D01*
X1680754Y685198D01*
X1682802Y687246D01*
X1684250Y689754D01*
X1685000Y692552D01*
Y695448D01*
X1684250Y698246D01*
X1682802Y700754D01*
X1680754Y702802D01*
X1678246Y704250D01*
X1675448Y705000D01*
D02*
G37*
G36*
X1675519Y680140D02*
X1675500D01*
Y670100D01*
X1685540D01*
Y670119D01*
X1684754Y673054D01*
X1683234Y675686D01*
X1681086Y677834D01*
X1678454Y679353D01*
X1675519Y680140D01*
D02*
G37*
G36*
X1672500D02*
X1672481D01*
X1669546Y679353D01*
X1666914Y677834D01*
X1664766Y675686D01*
X1663246Y673054D01*
X1662460Y670119D01*
Y670100D01*
X1672500D01*
Y680140D01*
D02*
G37*
G36*
X1685540Y667100D02*
X1675500D01*
Y657060D01*
X1675519D01*
X1678454Y657846D01*
X1681086Y659366D01*
X1683234Y661514D01*
X1684754Y664146D01*
X1685540Y667081D01*
Y667100D01*
D02*
G37*
G36*
X1672500D02*
X1662460D01*
Y667081D01*
X1663246Y664146D01*
X1664766Y661514D01*
X1666914Y659366D01*
X1669546Y657846D01*
X1672481Y657060D01*
X1672500D01*
Y667100D01*
D02*
G37*
G36*
X1675519Y629340D02*
X1675500D01*
Y619300D01*
X1685540D01*
Y619319D01*
X1684754Y622254D01*
X1683234Y624886D01*
X1681086Y627034D01*
X1678454Y628554D01*
X1675519Y629340D01*
D02*
G37*
G36*
X1672500D02*
X1672481D01*
X1669546Y628554D01*
X1666914Y627034D01*
X1664766Y624886D01*
X1663246Y622254D01*
X1662460Y619319D01*
Y619300D01*
X1672500D01*
Y629340D01*
D02*
G37*
G36*
X225094Y624500D02*
X222906D01*
X220884Y623663D01*
X219337Y622115D01*
X218500Y620094D01*
Y617906D01*
X219337Y615884D01*
X220884Y614337D01*
X222906Y613500D01*
X225094D01*
X227115Y614337D01*
X228663Y615884D01*
X229500Y617906D01*
Y620094D01*
X228663Y622115D01*
X227115Y623663D01*
X225094Y624500D01*
D02*
G37*
G36*
X1685540Y616300D02*
X1675500D01*
Y606260D01*
X1675519D01*
X1678454Y607046D01*
X1681086Y608566D01*
X1683234Y610714D01*
X1684754Y613346D01*
X1685540Y616281D01*
Y616300D01*
D02*
G37*
G36*
X1672500D02*
X1662460D01*
Y616281D01*
X1663246Y613346D01*
X1664766Y610714D01*
X1666914Y608566D01*
X1669546Y607046D01*
X1672481Y606260D01*
X1672500D01*
Y616300D01*
D02*
G37*
G36*
X119000Y609557D02*
Y596000D01*
X132557D01*
X132308Y597250D01*
X130951Y600526D01*
X128982Y603474D01*
X126474Y605981D01*
X123526Y607951D01*
X120250Y609308D01*
X119000Y609557D01*
D02*
G37*
G36*
X111000D02*
X109750Y609308D01*
X106474Y607951D01*
X103526Y605981D01*
X101018Y603474D01*
X99049Y600526D01*
X97692Y597250D01*
X97443Y596000D01*
X111000D01*
Y609557D01*
D02*
G37*
G36*
X132557Y588000D02*
X119000D01*
Y574443D01*
X120250Y574692D01*
X123526Y576049D01*
X126474Y578018D01*
X128982Y580526D01*
X130951Y583474D01*
X132308Y586749D01*
X132557Y588000D01*
D02*
G37*
G36*
X111000D02*
X97443D01*
X97692Y586749D01*
X99049Y583474D01*
X101018Y580526D01*
X103526Y578018D01*
X106474Y576049D01*
X109750Y574692D01*
X111000Y574443D01*
Y588000D01*
D02*
G37*
G36*
X783203Y578425D02*
Y565003D01*
X775203D01*
Y578425D01*
X773800Y578049D01*
X770607Y576206D01*
X768000Y573599D01*
X766157Y570407D01*
X766097Y570182D01*
X764747Y570049D01*
X763406Y572371D01*
X761171Y574605D01*
X758435Y576185D01*
X755383Y577003D01*
X752224D01*
X749172Y576185D01*
X746435Y574605D01*
X744201Y572371D01*
X742621Y569635D01*
X741803Y566583D01*
Y563423D01*
X742621Y560371D01*
X744201Y557635D01*
X746435Y555401D01*
X749172Y553821D01*
X752224Y553003D01*
X755383D01*
X758435Y553821D01*
X761171Y555401D01*
X763406Y557635D01*
X764747Y559957D01*
X766097Y559824D01*
X766157Y559599D01*
X768000Y556407D01*
X770607Y553800D01*
X773800Y551957D01*
X774025Y551897D01*
X774158Y550546D01*
X771835Y549205D01*
X769601Y546971D01*
X768021Y544235D01*
X767203Y541183D01*
Y538023D01*
X768021Y534971D01*
X769601Y532235D01*
X771835Y530001D01*
X774572Y528421D01*
X777624Y527603D01*
X780783D01*
X783835Y528421D01*
X786572Y530001D01*
X788806Y532235D01*
X790386Y534971D01*
X791203Y538023D01*
Y541183D01*
X790386Y544235D01*
X788806Y546971D01*
X786572Y549205D01*
X784249Y550546D01*
X784382Y551897D01*
X784607Y551957D01*
X787800Y553800D01*
X790406Y556407D01*
X792249Y559599D01*
X792310Y559824D01*
X793660Y559957D01*
X795001Y557635D01*
X797235Y555401D01*
X799971Y553821D01*
X803024Y553003D01*
X806183D01*
X809235Y553821D01*
X811972Y555401D01*
X814206Y557635D01*
X815786Y560371D01*
X816603Y563423D01*
Y566583D01*
X815786Y569635D01*
X814206Y572371D01*
X811972Y574605D01*
X809235Y576185D01*
X806183Y577003D01*
X803024D01*
X799971Y576185D01*
X797235Y574605D01*
X795001Y572371D01*
X793660Y570049D01*
X792310Y570182D01*
X792249Y570407D01*
X790406Y573599D01*
X787800Y576206D01*
X784607Y578049D01*
X783203Y578425D01*
D02*
G37*
G36*
X859403D02*
Y565003D01*
X851403D01*
Y578425D01*
X849999Y578049D01*
X846807Y576206D01*
X844201Y573599D01*
X842357Y570407D01*
X842297Y570182D01*
X840947Y570049D01*
X839606Y572371D01*
X837372Y574605D01*
X834635Y576185D01*
X831583Y577003D01*
X828423D01*
X825371Y576185D01*
X822635Y574605D01*
X820401Y572371D01*
X818821Y569635D01*
X818003Y566583D01*
Y563423D01*
X818821Y560371D01*
X820401Y557635D01*
X822635Y555401D01*
X825371Y553821D01*
X828423Y553003D01*
X831583D01*
X834635Y553821D01*
X837372Y555401D01*
X839606Y557635D01*
X840947Y559957D01*
X842297Y559824D01*
X842357Y559599D01*
X844201Y556407D01*
X846807Y553800D01*
X849999Y551957D01*
X850225Y551897D01*
X850358Y550546D01*
X848035Y549205D01*
X845801Y546971D01*
X844221Y544235D01*
X843403Y541183D01*
Y538023D01*
X843855Y536339D01*
X842914Y534942D01*
X842630Y534907D01*
X841477Y536060D01*
X842003Y538023D01*
Y541183D01*
X841186Y544235D01*
X839606Y546971D01*
X837372Y549205D01*
X834635Y550785D01*
X831583Y551603D01*
X828423D01*
X825371Y550785D01*
X822635Y549205D01*
X820401Y546971D01*
X818821Y544235D01*
X818003Y541183D01*
Y538023D01*
X818821Y534971D01*
X820401Y532235D01*
X822635Y530001D01*
X825371Y528421D01*
X828423Y527603D01*
X831583D01*
X833547Y528129D01*
X919641Y442035D01*
X921460Y440819D01*
X923606Y440392D01*
X1613677D01*
X1639435Y414635D01*
X1641254Y413419D01*
X1643400Y412992D01*
X1664536D01*
X1665198Y411846D01*
X1667246Y409798D01*
X1669754Y408350D01*
X1672552Y407600D01*
X1675448D01*
X1678246Y408350D01*
X1680754Y409798D01*
X1682802Y411846D01*
X1684250Y414354D01*
X1685000Y417152D01*
Y420048D01*
X1684250Y422846D01*
X1682802Y425354D01*
X1680754Y427402D01*
X1678246Y428850D01*
X1675448Y429600D01*
X1672552D01*
X1669754Y428850D01*
X1667246Y427402D01*
X1665198Y425354D01*
X1664536Y424208D01*
X1645723D01*
X1619965Y449965D01*
X1618146Y451181D01*
X1616000Y451608D01*
X925929D01*
X850707Y526830D01*
X850742Y527114D01*
X852139Y528054D01*
X853823Y527603D01*
X856983D01*
X860035Y528421D01*
X862772Y530001D01*
X865006Y532235D01*
X866585Y534971D01*
X867403Y538023D01*
Y541183D01*
X866585Y544235D01*
X865006Y546971D01*
X862772Y549205D01*
X860449Y550546D01*
X860582Y551897D01*
X860807Y551957D01*
X863999Y553800D01*
X866606Y556407D01*
X868449Y559599D01*
X868510Y559824D01*
X869860Y559957D01*
X871201Y557635D01*
X873435Y555401D01*
X876171Y553821D01*
X879223Y553003D01*
X882383D01*
X885435Y553821D01*
X888171Y555401D01*
X890406Y557635D01*
X891985Y560371D01*
X892803Y563423D01*
Y566583D01*
X891985Y569635D01*
X890406Y572371D01*
X888171Y574605D01*
X885435Y576185D01*
X882383Y577003D01*
X879223D01*
X876171Y576185D01*
X873435Y574605D01*
X871201Y572371D01*
X869860Y570049D01*
X868510Y570182D01*
X868449Y570407D01*
X866606Y573599D01*
X863999Y576206D01*
X860807Y578049D01*
X859403Y578425D01*
D02*
G37*
G36*
X681603D02*
Y565003D01*
X673603D01*
Y578425D01*
X672199Y578049D01*
X669007Y576206D01*
X666401Y573599D01*
X664557Y570407D01*
X664497Y570182D01*
X663147Y570049D01*
X661806Y572371D01*
X659572Y574605D01*
X656835Y576185D01*
X653783Y577003D01*
X650623D01*
X647571Y576185D01*
X644835Y574605D01*
X642601Y572371D01*
X641021Y569635D01*
X640203Y566583D01*
Y563423D01*
X641021Y560371D01*
X642601Y557635D01*
X644835Y555401D01*
X647571Y553821D01*
X650623Y553003D01*
X653783D01*
X656835Y553821D01*
X659572Y555401D01*
X661806Y557635D01*
X663147Y559957D01*
X664497Y559824D01*
X664557Y559599D01*
X666401Y556407D01*
X669007Y553800D01*
X672199Y551957D01*
X672425Y551897D01*
X672558Y550546D01*
X670235Y549205D01*
X668001Y546971D01*
X666421Y544235D01*
X665603Y541183D01*
Y538023D01*
X666421Y534971D01*
X668001Y532235D01*
X670235Y530001D01*
X672971Y528421D01*
X676023Y527603D01*
X679183D01*
X682235Y528421D01*
X684971Y530001D01*
X687206Y532235D01*
X688785Y534971D01*
X689603Y538023D01*
Y541183D01*
X688785Y544235D01*
X687206Y546971D01*
X684971Y549205D01*
X682649Y550546D01*
X682782Y551897D01*
X683007Y551957D01*
X686199Y553800D01*
X688806Y556407D01*
X690649Y559599D01*
X690710Y559824D01*
X692060Y559957D01*
X693401Y557635D01*
X695635Y555401D01*
X698372Y553821D01*
X701423Y553003D01*
X704583D01*
X707635Y553821D01*
X710371Y555401D01*
X712606Y557635D01*
X714185Y560371D01*
X715003Y563423D01*
Y566583D01*
X714185Y569635D01*
X712606Y572371D01*
X710371Y574605D01*
X707635Y576185D01*
X704583Y577003D01*
X701423D01*
X698372Y576185D01*
X695635Y574605D01*
X693401Y572371D01*
X692060Y570049D01*
X690710Y570182D01*
X690649Y570407D01*
X688806Y573599D01*
X686199Y576206D01*
X683007Y578049D01*
X681603Y578425D01*
D02*
G37*
G36*
X1085583Y577003D02*
X1082423D01*
X1079371Y576185D01*
X1076635Y574605D01*
X1074401Y572371D01*
X1072821Y569635D01*
X1072003Y566583D01*
Y563423D01*
X1072821Y560371D01*
X1074401Y557635D01*
X1076635Y555401D01*
X1079371Y553821D01*
X1082423Y553003D01*
X1085583D01*
X1088635Y553821D01*
X1091372Y555401D01*
X1093606Y557635D01*
X1095185Y560371D01*
X1096003Y563423D01*
Y566583D01*
X1095185Y569635D01*
X1093606Y572371D01*
X1091372Y574605D01*
X1088635Y576185D01*
X1085583Y577003D01*
D02*
G37*
G36*
X907783D02*
X904623D01*
X901572Y576185D01*
X898835Y574605D01*
X896601Y572371D01*
X895021Y569635D01*
X894203Y566583D01*
Y563423D01*
X895021Y560371D01*
X896601Y557635D01*
X898835Y555401D01*
X901572Y553821D01*
X904623Y553003D01*
X907783D01*
X910835Y553821D01*
X913571Y555401D01*
X915806Y557635D01*
X917385Y560371D01*
X918203Y563423D01*
Y566583D01*
X917385Y569635D01*
X915806Y572371D01*
X913571Y574605D01*
X910835Y576185D01*
X907783Y577003D01*
D02*
G37*
G36*
X628383D02*
X625224D01*
X622172Y576185D01*
X619435Y574605D01*
X617201Y572371D01*
X615621Y569635D01*
X614803Y566583D01*
Y563423D01*
X615621Y560371D01*
X617201Y557635D01*
X619435Y555401D01*
X622172Y553821D01*
X625224Y553003D01*
X628383D01*
X631435Y553821D01*
X634171Y555401D01*
X636406Y557635D01*
X637985Y560371D01*
X638803Y563423D01*
Y566583D01*
X637985Y569635D01*
X636406Y572371D01*
X634171Y574605D01*
X631435Y576185D01*
X628383Y577003D01*
D02*
G37*
G36*
X1675519Y557140D02*
X1675500D01*
Y547100D01*
X1685540D01*
Y547119D01*
X1684754Y550054D01*
X1683234Y552686D01*
X1681086Y554834D01*
X1678454Y556353D01*
X1675519Y557140D01*
D02*
G37*
G36*
X1672500D02*
X1672481D01*
X1669546Y556353D01*
X1666914Y554834D01*
X1664766Y552686D01*
X1663246Y550054D01*
X1662460Y547119D01*
Y547100D01*
X1672500D01*
Y557140D01*
D02*
G37*
G36*
X933183Y577003D02*
X930023D01*
X926972Y576185D01*
X924235Y574605D01*
X922001Y572371D01*
X920421Y569635D01*
X919603Y566583D01*
Y563423D01*
X920421Y560371D01*
X922001Y557635D01*
X924235Y555401D01*
X926558Y554060D01*
X926425Y552709D01*
X926199Y552649D01*
X923007Y550806D01*
X920400Y548199D01*
X918557Y545007D01*
X918497Y544781D01*
X917147Y544649D01*
X915806Y546971D01*
X913571Y549205D01*
X910835Y550785D01*
X907783Y551603D01*
X904623D01*
X901572Y550785D01*
X898835Y549205D01*
X896601Y546971D01*
X895021Y544235D01*
X894203Y541183D01*
Y538023D01*
X895021Y534971D01*
X896601Y532235D01*
X898835Y530001D01*
X901572Y528421D01*
X902125Y528273D01*
Y527797D01*
X902125Y527797D01*
X902435Y526236D01*
X903319Y524913D01*
X959116Y469116D01*
X960439Y468232D01*
X962000Y467922D01*
X962000Y467922D01*
X1522000D01*
X1522000Y467922D01*
X1523561Y468232D01*
X1524884Y469116D01*
X1571889Y516122D01*
X1663705D01*
X1663750Y515954D01*
X1665198Y513446D01*
X1667246Y511398D01*
X1669754Y509950D01*
X1672552Y509200D01*
X1675448D01*
X1678246Y509950D01*
X1680754Y511398D01*
X1682802Y513446D01*
X1684250Y515954D01*
X1685000Y518752D01*
Y521648D01*
X1684250Y524446D01*
X1682802Y526954D01*
X1680754Y529002D01*
X1678246Y530450D01*
X1675448Y531200D01*
X1672552D01*
X1669754Y530450D01*
X1667246Y529002D01*
X1665198Y526954D01*
X1663750Y524446D01*
X1663705Y524278D01*
X1570200D01*
X1570200Y524278D01*
X1568639Y523968D01*
X1567316Y523084D01*
X1567316Y523084D01*
X1520311Y476078D01*
X963689D01*
X911897Y527870D01*
X912063Y529130D01*
X913571Y530001D01*
X915806Y532235D01*
X917147Y534557D01*
X918497Y534425D01*
X918557Y534199D01*
X920400Y531007D01*
X923007Y528400D01*
X926199Y526557D01*
X927603Y526181D01*
Y539603D01*
X935603D01*
Y526181D01*
X937007Y526557D01*
X940200Y528400D01*
X942806Y531007D01*
X944649Y534199D01*
X944710Y534425D01*
X946060Y534557D01*
X947401Y532235D01*
X949635Y530001D01*
X952372Y528421D01*
X955424Y527603D01*
X958583D01*
X961635Y528421D01*
X964371Y530001D01*
X966606Y532235D01*
X968186Y534971D01*
X969003Y538023D01*
Y541183D01*
X968186Y544235D01*
X966606Y546971D01*
X964371Y549205D01*
X961635Y550785D01*
X958583Y551603D01*
X955424D01*
X952372Y550785D01*
X949635Y549205D01*
X947401Y546971D01*
X946060Y544649D01*
X944710Y544781D01*
X944649Y545007D01*
X942806Y548199D01*
X940200Y550806D01*
X937007Y552649D01*
X936782Y552709D01*
X936649Y554060D01*
X938971Y555401D01*
X941206Y557635D01*
X942785Y560371D01*
X943603Y563423D01*
Y566583D01*
X942785Y569635D01*
X941206Y572371D01*
X938971Y574605D01*
X936235Y576185D01*
X933183Y577003D01*
D02*
G37*
G36*
X729983D02*
X726824D01*
X723772Y576185D01*
X721035Y574605D01*
X718801Y572371D01*
X717221Y569635D01*
X716403Y566583D01*
Y563423D01*
X717221Y560371D01*
X718801Y557635D01*
X721035Y555401D01*
X723358Y554060D01*
X723225Y552709D01*
X722999Y552649D01*
X719807Y550806D01*
X717200Y548199D01*
X715357Y545007D01*
X715297Y544781D01*
X713947Y544649D01*
X712606Y546971D01*
X710371Y549205D01*
X707635Y550785D01*
X704583Y551603D01*
X701423D01*
X698372Y550785D01*
X695635Y549205D01*
X693401Y546971D01*
X691821Y544235D01*
X691003Y541183D01*
Y538023D01*
X691821Y534971D01*
X693401Y532235D01*
X695635Y530001D01*
X698372Y528421D01*
X701423Y527603D01*
X704583D01*
X707635Y528421D01*
X710371Y530001D01*
X712606Y532235D01*
X713947Y534557D01*
X715297Y534425D01*
X715357Y534199D01*
X717200Y531007D01*
X719807Y528400D01*
X722999Y526557D01*
X724403Y526181D01*
Y539603D01*
X732403D01*
Y526181D01*
X733807Y526557D01*
X737000Y528400D01*
X739606Y531007D01*
X741449Y534199D01*
X741510Y534425D01*
X742860Y534557D01*
X744201Y532235D01*
X746435Y530001D01*
X749172Y528421D01*
X752224Y527603D01*
X755383D01*
X758435Y528421D01*
X761171Y530001D01*
X763406Y532235D01*
X764986Y534971D01*
X765803Y538023D01*
Y541183D01*
X764986Y544235D01*
X763406Y546971D01*
X761171Y549205D01*
X758435Y550785D01*
X755383Y551603D01*
X752224D01*
X749172Y550785D01*
X746435Y549205D01*
X744201Y546971D01*
X742860Y544649D01*
X741510Y544781D01*
X741449Y545007D01*
X739606Y548199D01*
X737000Y550806D01*
X733807Y552649D01*
X733582Y552709D01*
X733449Y554060D01*
X735771Y555401D01*
X738006Y557635D01*
X739585Y560371D01*
X740403Y563423D01*
Y566583D01*
X739585Y569635D01*
X738006Y572371D01*
X735771Y574605D01*
X733035Y576185D01*
X729983Y577003D01*
D02*
G37*
G36*
X1685540Y544100D02*
X1675500D01*
Y534060D01*
X1675519D01*
X1678454Y534846D01*
X1681086Y536366D01*
X1683234Y538514D01*
X1684754Y541146D01*
X1685540Y544081D01*
Y544100D01*
D02*
G37*
G36*
X1672500D02*
X1662460D01*
Y544081D01*
X1663246Y541146D01*
X1664766Y538514D01*
X1666914Y536366D01*
X1669546Y534846D01*
X1672481Y534060D01*
X1672500D01*
Y544100D01*
D02*
G37*
G36*
X806183Y551603D02*
X803024D01*
X799971Y550785D01*
X797235Y549205D01*
X795001Y546971D01*
X793421Y544235D01*
X792603Y541183D01*
Y538023D01*
X793421Y534971D01*
X795001Y532235D01*
X797235Y530001D01*
X799971Y528421D01*
X803024Y527603D01*
X806183D01*
X809235Y528421D01*
X811972Y530001D01*
X814206Y532235D01*
X815786Y534971D01*
X816603Y538023D01*
Y541183D01*
X815786Y544235D01*
X814206Y546971D01*
X811972Y549205D01*
X809235Y550785D01*
X806183Y551603D01*
D02*
G37*
G36*
X653783D02*
X650623D01*
X647571Y550785D01*
X644835Y549205D01*
X642601Y546971D01*
X641021Y544235D01*
X640203Y541183D01*
Y538023D01*
X641021Y534971D01*
X642601Y532235D01*
X644835Y530001D01*
X647571Y528421D01*
X650623Y527603D01*
X653783D01*
X656835Y528421D01*
X659572Y530001D01*
X661806Y532235D01*
X663385Y534971D01*
X664203Y538023D01*
Y541183D01*
X663385Y544235D01*
X661806Y546971D01*
X659572Y549205D01*
X656835Y550785D01*
X653783Y551603D01*
D02*
G37*
G36*
X628383D02*
X625224D01*
X622172Y550785D01*
X619435Y549205D01*
X617201Y546971D01*
X615621Y544235D01*
X614803Y541183D01*
Y538023D01*
X615621Y534971D01*
X617201Y532235D01*
X619435Y530001D01*
X622172Y528421D01*
X625224Y527603D01*
X628383D01*
X631435Y528421D01*
X634171Y530001D01*
X636406Y532235D01*
X637985Y534971D01*
X638803Y538023D01*
Y541183D01*
X637985Y544235D01*
X636406Y546971D01*
X634171Y549205D01*
X631435Y550785D01*
X628383Y551603D01*
D02*
G37*
G36*
X1122825Y535603D02*
X1113403D01*
Y526181D01*
X1114807Y526557D01*
X1117999Y528400D01*
X1120606Y531007D01*
X1122449Y534199D01*
X1122825Y535603D01*
D02*
G37*
G36*
X1675519Y506340D02*
X1675500D01*
Y496300D01*
X1685540D01*
Y496319D01*
X1684754Y499254D01*
X1683234Y501886D01*
X1681086Y504034D01*
X1678454Y505554D01*
X1675519Y506340D01*
D02*
G37*
G36*
X1672500D02*
X1672481D01*
X1669546Y505554D01*
X1666914Y504034D01*
X1664766Y501886D01*
X1663246Y499254D01*
X1662460Y496319D01*
Y496300D01*
X1672500D01*
Y506340D01*
D02*
G37*
G36*
X1685540Y493300D02*
X1675500D01*
Y483260D01*
X1675519D01*
X1678454Y484046D01*
X1681086Y485566D01*
X1683234Y487714D01*
X1684754Y490346D01*
X1685540Y493281D01*
Y493300D01*
D02*
G37*
G36*
X1672500D02*
X1662460D01*
Y493281D01*
X1663246Y490346D01*
X1664766Y487714D01*
X1666914Y485566D01*
X1669546Y484046D01*
X1672481Y483260D01*
X1672500D01*
Y493300D01*
D02*
G37*
G36*
X131000Y514000D02*
X99000D01*
Y482000D01*
X131000D01*
Y514000D01*
D02*
G37*
G36*
X882383Y551603D02*
X879223D01*
X876171Y550785D01*
X873435Y549205D01*
X871201Y546971D01*
X869621Y544235D01*
X868803Y541183D01*
Y538023D01*
X869621Y534971D01*
X871201Y532235D01*
X873435Y530001D01*
X876171Y528421D01*
X876725Y528273D01*
Y521197D01*
X876725Y521197D01*
X877035Y519636D01*
X877919Y518313D01*
X938116Y458116D01*
X938116Y458116D01*
X939439Y457232D01*
X941000Y456922D01*
X1535000D01*
X1535000Y456922D01*
X1536561Y457232D01*
X1537884Y458116D01*
X1545089Y465322D01*
X1663705D01*
X1663750Y465154D01*
X1665198Y462646D01*
X1667246Y460598D01*
X1669754Y459150D01*
X1672552Y458400D01*
X1675448D01*
X1678246Y459150D01*
X1680754Y460598D01*
X1682802Y462646D01*
X1684250Y465154D01*
X1685000Y467952D01*
Y470848D01*
X1684250Y473646D01*
X1682802Y476154D01*
X1680754Y478202D01*
X1678246Y479650D01*
X1675448Y480400D01*
X1672552D01*
X1669754Y479650D01*
X1667246Y478202D01*
X1665198Y476154D01*
X1663750Y473646D01*
X1663705Y473478D01*
X1543400D01*
X1541839Y473168D01*
X1540516Y472284D01*
X1540516Y472284D01*
X1533311Y465078D01*
X942689D01*
X884882Y522886D01*
Y528273D01*
X885435Y528421D01*
X888171Y530001D01*
X890406Y532235D01*
X891985Y534971D01*
X892803Y538023D01*
Y541183D01*
X891985Y544235D01*
X890406Y546971D01*
X888171Y549205D01*
X885435Y550785D01*
X882383Y551603D01*
D02*
G37*
G36*
X1675519Y455540D02*
X1675500D01*
Y445500D01*
X1685540D01*
Y445519D01*
X1684754Y448454D01*
X1683234Y451086D01*
X1681086Y453234D01*
X1678454Y454753D01*
X1675519Y455540D01*
D02*
G37*
G36*
X1672500D02*
X1672481D01*
X1669546Y454753D01*
X1666914Y453234D01*
X1664766Y451086D01*
X1663246Y448454D01*
X1662460Y445519D01*
Y445500D01*
X1672500D01*
Y455540D01*
D02*
G37*
G36*
X1685540Y442500D02*
X1675500D01*
Y432460D01*
X1675519D01*
X1678454Y433246D01*
X1681086Y434766D01*
X1683234Y436914D01*
X1684754Y439546D01*
X1685540Y442481D01*
Y442500D01*
D02*
G37*
G36*
X1672500D02*
X1662460D01*
Y442481D01*
X1663246Y439546D01*
X1664766Y436914D01*
X1666914Y434766D01*
X1669546Y433246D01*
X1672481Y432460D01*
X1672500D01*
Y442500D01*
D02*
G37*
G36*
X1675519Y404740D02*
X1675500D01*
Y394700D01*
X1685540D01*
Y394719D01*
X1684754Y397654D01*
X1683234Y400286D01*
X1681086Y402434D01*
X1678454Y403954D01*
X1675519Y404740D01*
D02*
G37*
G36*
X1672500D02*
X1672481D01*
X1669546Y403954D01*
X1666914Y402434D01*
X1664766Y400286D01*
X1663246Y397654D01*
X1662460Y394719D01*
Y394700D01*
X1672500D01*
Y404740D01*
D02*
G37*
G36*
X1685540Y391700D02*
X1675500D01*
Y381660D01*
X1675519D01*
X1678454Y382446D01*
X1681086Y383966D01*
X1683234Y386114D01*
X1684754Y388746D01*
X1685540Y391681D01*
Y391700D01*
D02*
G37*
G36*
X1672500D02*
X1662460D01*
Y391681D01*
X1663246Y388746D01*
X1664766Y386114D01*
X1666914Y383966D01*
X1669546Y382446D01*
X1672481Y381660D01*
X1672500D01*
Y391700D01*
D02*
G37*
%LPD*%
D40*
X1348003Y344603D02*
D03*
Y243003D02*
D03*
Y166803D02*
D03*
X1424203Y344603D02*
D03*
X1148003D02*
D03*
Y243003D02*
D03*
Y166803D02*
D03*
X1224203Y344603D02*
D03*
X948003D02*
D03*
Y243003D02*
D03*
Y166803D02*
D03*
X1024203Y344603D02*
D03*
X748003D02*
D03*
Y243003D02*
D03*
Y166803D02*
D03*
X824203Y344603D02*
D03*
X548003D02*
D03*
Y243003D02*
D03*
Y166803D02*
D03*
X624203Y344603D02*
D03*
X348003D02*
D03*
Y243003D02*
D03*
Y166803D02*
D03*
X424203Y344603D02*
D03*
X148003D02*
D03*
Y243003D02*
D03*
Y166803D02*
D03*
X224203Y344603D02*
D03*
D60*
X923606Y446000D02*
X1616000D01*
X830003Y539603D02*
X923606Y446000D01*
X1616000D02*
X1643400Y418600D01*
X1674000D01*
D62*
X1555000Y201000D02*
Y276403D01*
X1512003Y158003D02*
X1555000Y201000D01*
X1512003Y81003D02*
Y158003D01*
X612003Y81003D02*
Y139603D01*
X412003Y81003D02*
Y139603D01*
X384803Y166803D02*
X412003Y139603D01*
X312003Y81003D02*
Y207003D01*
X584803Y166803D02*
X612003Y139603D01*
X512003Y81003D02*
Y207003D01*
X348003Y166803D02*
X384803D01*
X312003Y207003D02*
X348003Y243003D01*
X712003Y81003D02*
Y207003D01*
X748003Y243003D01*
Y166803D02*
X784803D01*
X812003Y139603D01*
Y81003D02*
Y139603D01*
X912003Y81003D02*
Y207003D01*
X948003Y166803D02*
X984803D01*
X1012003Y139603D01*
Y81003D02*
Y139603D01*
X1112003Y81003D02*
Y207003D01*
X1148003Y243003D01*
Y166803D02*
X1184803D01*
X1212003Y139603D01*
Y81003D02*
Y139603D01*
X1312003Y81003D02*
Y207003D01*
X1348003Y166803D02*
X1384803D01*
X1412003Y139603D01*
Y81003D02*
Y139603D01*
X912003Y207003D02*
X948003Y243003D01*
X112003Y207003D02*
X148003Y243003D01*
Y166803D02*
X184803D01*
X212003Y139603D01*
Y81003D02*
Y139603D01*
X112003Y81003D02*
Y207003D01*
X1312003D02*
X1348003Y243003D01*
X512003Y207003D02*
X548003Y243003D01*
Y166803D02*
X584803D01*
D63*
X1674000Y795600D02*
D03*
Y571000D02*
D03*
D64*
Y744800D02*
D03*
Y719400D02*
D03*
Y694000D02*
D03*
Y668600D02*
D03*
Y643200D02*
D03*
Y617800D02*
D03*
Y770200D02*
D03*
Y520200D02*
D03*
Y494800D02*
D03*
Y469400D02*
D03*
Y444000D02*
D03*
Y418600D02*
D03*
Y393200D02*
D03*
Y545600D02*
D03*
X797800Y838000D02*
D03*
X950200D02*
D03*
X924800D02*
D03*
X899400D02*
D03*
X874000D02*
D03*
X848600D02*
D03*
X823200D02*
D03*
D65*
X830003Y565003D02*
D03*
X855403D02*
D03*
X804603D02*
D03*
X779203D02*
D03*
X753803D02*
D03*
X728403D02*
D03*
X703003D02*
D03*
X677603D02*
D03*
X652203D02*
D03*
X626803D02*
D03*
X703003Y539603D02*
D03*
X677603D02*
D03*
X652203D02*
D03*
X626803D02*
D03*
X804603D02*
D03*
X830003D02*
D03*
X855403D02*
D03*
X880803D02*
D03*
Y565003D02*
D03*
X1058603D02*
D03*
X1033203D02*
D03*
X1007803D02*
D03*
X982403D02*
D03*
X957003D02*
D03*
X931603D02*
D03*
X906203D02*
D03*
X779203Y539603D02*
D03*
X753803D02*
D03*
X728403D02*
D03*
X1109403D02*
D03*
X1084003D02*
D03*
X1058603D02*
D03*
X1033203D02*
D03*
X1007803D02*
D03*
X982403D02*
D03*
X957003D02*
D03*
X931603D02*
D03*
X906203D02*
D03*
X1109403Y565003D02*
D03*
X1084003D02*
D03*
X1612003Y81003D02*
D03*
X1512003D02*
D03*
X1412003D02*
D03*
X1312003D02*
D03*
X1212003D02*
D03*
X1112003D02*
D03*
X1012003D02*
D03*
X812003D02*
D03*
X712003D02*
D03*
X612003D02*
D03*
X512003D02*
D03*
X412003D02*
D03*
X312003D02*
D03*
X212003D02*
D03*
D66*
X553000Y702000D02*
D03*
Y689000D02*
D03*
X540000Y702000D02*
D03*
Y689000D02*
D03*
X527000Y702000D02*
D03*
Y689000D02*
D03*
X514000Y702000D02*
D03*
Y689000D02*
D03*
X717000D02*
D03*
Y702000D02*
D03*
X730000Y689000D02*
D03*
Y702000D02*
D03*
X743000Y689000D02*
D03*
Y702000D02*
D03*
X756000Y689000D02*
D03*
Y702000D02*
D03*
X959000D02*
D03*
Y689000D02*
D03*
X946000Y702000D02*
D03*
Y689000D02*
D03*
X933000Y702000D02*
D03*
Y689000D02*
D03*
X920000Y702000D02*
D03*
Y689000D02*
D03*
X1123000D02*
D03*
Y702000D02*
D03*
X1136000Y689000D02*
D03*
Y702000D02*
D03*
X1149000Y689000D02*
D03*
Y702000D02*
D03*
X1162000Y689000D02*
D03*
Y702000D02*
D03*
D67*
X1685000Y865000D02*
D03*
Y35000D02*
D03*
X35000D02*
D03*
Y865000D02*
D03*
D68*
X416103Y375603D02*
D03*
X356103D02*
D03*
X216103D02*
D03*
X156103D02*
D03*
X556103D02*
D03*
X616103D02*
D03*
X756103D02*
D03*
X816103D02*
D03*
X1156103D02*
D03*
X1216103D02*
D03*
X1356103D02*
D03*
X1416103D02*
D03*
X956103D02*
D03*
X1016103D02*
D03*
D69*
X284003Y275203D02*
D03*
Y300603D02*
D03*
Y326003D02*
D03*
X1555000Y327203D02*
D03*
Y301803D02*
D03*
Y276403D02*
D03*
X484003Y326003D02*
D03*
Y300603D02*
D03*
Y275203D02*
D03*
X1284003Y326003D02*
D03*
Y300603D02*
D03*
Y275203D02*
D03*
X884003Y326003D02*
D03*
Y300603D02*
D03*
Y275203D02*
D03*
X1084003Y326003D02*
D03*
Y300603D02*
D03*
Y275203D02*
D03*
X1484003Y326003D02*
D03*
Y300603D02*
D03*
Y275203D02*
D03*
X684003Y326003D02*
D03*
Y300603D02*
D03*
Y275203D02*
D03*
D70*
X115000Y592000D02*
D03*
D71*
Y498000D02*
D03*
D72*
X772400Y838000D02*
D03*
D73*
X912003Y81003D02*
D03*
X112003D02*
D03*
D74*
X382333Y727000D02*
D03*
X382667Y716000D02*
D03*
X224000Y619000D02*
D03*
X232000Y660000D02*
D03*
Y689000D02*
D03*
X277000Y721000D02*
D03*
X288000D02*
D03*
X299000D02*
D03*
X305000Y607000D02*
D03*
X354000Y747000D02*
D03*
X371667Y727000D02*
D03*
X372000Y716000D02*
D03*
X377000Y661000D02*
D03*
X393000Y727000D02*
D03*
X393333Y716000D02*
D03*
X401497Y661548D02*
D03*
X403667Y727000D02*
D03*
X404000Y716000D02*
D03*
X1302988Y435206D02*
D03*
X1102988D02*
D03*
X1502988D02*
D03*
X902988D02*
D03*
X702988D02*
D03*
X502988D02*
D03*
X1116000Y648000D02*
D03*
X1185000Y686000D02*
D03*
X1205000Y654530D02*
D03*
X1256000Y639000D02*
D03*
X1208000Y682944D02*
D03*
X1136150Y742000D02*
D03*
X1214000Y741000D02*
D03*
X1177000D02*
D03*
X1195000D02*
D03*
X1234000D02*
D03*
X1196000Y756000D02*
D03*
X1235000D02*
D03*
X1215000D02*
D03*
X1178000D02*
D03*
X908000Y649000D02*
D03*
X1605000Y301803D02*
D03*
Y286000D02*
D03*
Y317000D02*
D03*
X975000Y756000D02*
D03*
X993000D02*
D03*
X1012000D02*
D03*
X1032000D02*
D03*
X1031000Y741000D02*
D03*
X1011000D02*
D03*
X992000D02*
D03*
X974000D02*
D03*
X772000Y756000D02*
D03*
X790000D02*
D03*
X809000D02*
D03*
X829000D02*
D03*
X828000Y741000D02*
D03*
X808000D02*
D03*
X789000D02*
D03*
X771000D02*
D03*
X568000D02*
D03*
X586000D02*
D03*
X605000D02*
D03*
X625000D02*
D03*
X626000Y756000D02*
D03*
X606000D02*
D03*
X587000D02*
D03*
X569000D02*
D03*
X1300000Y386000D02*
D03*
X1100000D02*
D03*
X900000D02*
D03*
X700000D02*
D03*
X500000D02*
D03*
X300000D02*
D03*
X1500000D02*
D03*
X1590000Y397603D02*
D03*
X1053000Y639000D02*
D03*
X1005000Y682944D02*
D03*
X982000Y686000D02*
D03*
X1002000Y654530D02*
D03*
X933150Y742000D02*
D03*
X850000Y639000D02*
D03*
X802000Y682944D02*
D03*
X779000Y686000D02*
D03*
X799000Y654530D02*
D03*
X717450Y649000D02*
D03*
X730150Y742000D02*
D03*
X647000Y639000D02*
D03*
X576000Y686000D02*
D03*
X599000Y682944D02*
D03*
X596000Y654530D02*
D03*
X527150Y742000D02*
D03*
X514450Y649000D02*
D03*
X303000Y434603D02*
D03*
D86*
X1543400Y469400D02*
X1674000D01*
X941000Y461000D02*
X1535000D01*
X1543400Y469400D01*
X1570200Y520200D02*
X1674000D01*
X962000Y472000D02*
X1522000D01*
X1570200Y520200D01*
X1579000Y568000D02*
X1671000D01*
X1043000Y482000D02*
X1493000D01*
X1579000Y568000D01*
X1059000Y500000D02*
X1411000D01*
X1605000Y694000D02*
X1674000D01*
X1411000Y500000D02*
X1605000Y694000D01*
X1601600Y795600D02*
X1674000D01*
X1088000Y519000D02*
X1325000D01*
X1601600Y795600D01*
X1457000Y491000D02*
X1608000Y642000D01*
X1007803Y537197D02*
X1054000Y491000D01*
X1457000D01*
X880803Y521197D02*
X941000Y461000D01*
X1007803Y537197D02*
Y539603D01*
X1671000Y568000D02*
X1674000Y571000D01*
X1608000Y642000D02*
X1678284D01*
X1596000Y745000D02*
X1673800D01*
X1674000Y744800D01*
X1361000Y510000D02*
X1596000Y745000D01*
X1072000Y510000D02*
X1361000D01*
X880803Y521197D02*
Y539603D01*
X906203Y527797D02*
X962000Y472000D01*
X906203Y527797D02*
Y539603D01*
X985397D02*
X1043000Y482000D01*
X1033203Y525797D02*
X1059000Y500000D01*
X1058603Y523397D02*
X1072000Y510000D01*
X1084003Y522997D02*
X1088000Y519000D01*
X1084003Y522997D02*
Y539603D01*
X982403D02*
X985397D01*
X1033203Y525797D02*
Y539603D01*
X1058603Y523397D02*
Y539603D01*
M02*
