G04*
G04 #@! TF.GenerationSoftware,Altium Limited,Altium Designer,23.3.1 (30)*
G04*
G04 Layer_Color=8421504*
%FSLAX44Y44*%
%MOMM*%
G71*
G04*
G04 #@! TF.SameCoordinates,67B4674F-F2B4-46E2-9611-5D6DB28F7A6D*
G04*
G04*
G04 #@! TF.FilePolarity,Positive*
G04*
G01*
G75*
%ADD16R,2.5496X1.7369*%
G04:AMPARAMS|DCode=17|XSize=1.4597mm|YSize=0.5097mm|CornerRadius=0mm|HoleSize=0mm|Usage=FLASHONLY|Rotation=90.000|XOffset=0mm|YOffset=0mm|HoleType=Round|Shape=RoundedRectangle|*
%AMROUNDEDRECTD17*
21,1,1.4597,0.5097,0,0,90.0*
21,1,1.4597,0.5097,0,0,90.0*
1,1,0.0000,0.2548,0.7298*
1,1,0.0000,0.2548,-0.7298*
1,1,0.0000,-0.2548,-0.7298*
1,1,0.0000,-0.2548,0.7298*
%
%ADD17ROUNDEDRECTD17*%
G04:AMPARAMS|DCode=18|XSize=1.3611mm|YSize=0.5111mm|CornerRadius=0.0306mm|HoleSize=0mm|Usage=FLASHONLY|Rotation=180.000|XOffset=0mm|YOffset=0mm|HoleType=Round|Shape=RoundedRectangle|*
%AMROUNDEDRECTD18*
21,1,1.3611,0.4500,0,0,180.0*
21,1,1.3000,0.5111,0,0,180.0*
1,1,0.0611,-0.6500,0.2250*
1,1,0.0611,0.6500,0.2250*
1,1,0.0611,0.6500,-0.2250*
1,1,0.0611,-0.6500,-0.2250*
%
%ADD18ROUNDEDRECTD18*%
%ADD19R,0.6132X0.9132*%
%ADD20R,0.9132X0.6132*%
%ADD21R,0.6258X0.8544*%
%ADD22R,0.8544X0.6258*%
%ADD23R,1.3880X3.2680*%
G04:AMPARAMS|DCode=24|XSize=1.0474mm|YSize=1.6674mm|CornerRadius=0.0737mm|HoleSize=0mm|Usage=FLASHONLY|Rotation=0.000|XOffset=0mm|YOffset=0mm|HoleType=Round|Shape=RoundedRectangle|*
%AMROUNDEDRECTD24*
21,1,1.0474,1.5200,0,0,0.0*
21,1,0.9000,1.6674,0,0,0.0*
1,1,0.1474,0.4500,-0.7600*
1,1,0.1474,-0.4500,-0.7600*
1,1,0.1474,-0.4500,0.7600*
1,1,0.1474,0.4500,0.7600*
%
%ADD24ROUNDEDRECTD24*%
%ADD25R,1.2770X0.8770*%
G36*
X532500Y694500D02*
Y681500D01*
X509500D01*
Y694500D01*
X532500D01*
D02*
G37*
G36*
Y696500D02*
Y709500D01*
X509500D01*
Y696500D01*
X532500D01*
D02*
G37*
G36*
X534500Y694500D02*
Y681500D01*
X557500D01*
Y694500D01*
X534500D01*
D02*
G37*
G36*
Y696500D02*
Y709500D01*
X557500D01*
Y696500D01*
X534500D01*
D02*
G37*
G36*
X735500Y694500D02*
Y681500D01*
X712500D01*
Y694500D01*
X735500D01*
D02*
G37*
G36*
Y696500D02*
Y709500D01*
X712500D01*
Y696500D01*
X735500D01*
D02*
G37*
G36*
X737500Y694500D02*
Y681500D01*
X760500D01*
Y694500D01*
X737500D01*
D02*
G37*
G36*
Y696500D02*
Y709500D01*
X760500D01*
Y696500D01*
X737500D01*
D02*
G37*
G36*
X938500Y694500D02*
Y681500D01*
X915500D01*
Y694500D01*
X938500D01*
D02*
G37*
G36*
Y696500D02*
Y709500D01*
X915500D01*
Y696500D01*
X938500D01*
D02*
G37*
G36*
X940500Y694500D02*
Y681500D01*
X963500D01*
Y694500D01*
X940500D01*
D02*
G37*
G36*
Y696500D02*
Y709500D01*
X963500D01*
Y696500D01*
X940500D01*
D02*
G37*
G36*
X1141500Y694500D02*
Y681500D01*
X1118500D01*
Y694500D01*
X1141500D01*
D02*
G37*
G36*
Y696500D02*
Y709500D01*
X1118500D01*
Y696500D01*
X1141500D01*
D02*
G37*
G36*
X1143500Y694500D02*
Y681500D01*
X1166500D01*
Y694500D01*
X1143500D01*
D02*
G37*
G36*
Y696500D02*
Y709500D01*
X1166500D01*
Y696500D01*
X1143500D01*
D02*
G37*
D16*
X334000Y766610D02*
D03*
Y807250D02*
D03*
D17*
X514450Y722500D02*
D03*
X527150D02*
D03*
X539850D02*
D03*
X552550D02*
D03*
Y668500D02*
D03*
X539850D02*
D03*
X527150D02*
D03*
X514450D02*
D03*
X717450D02*
D03*
X730150D02*
D03*
X742850D02*
D03*
X755550D02*
D03*
Y722500D02*
D03*
X742850D02*
D03*
X730150D02*
D03*
X717450D02*
D03*
X920450D02*
D03*
X933150D02*
D03*
X945850D02*
D03*
X958550D02*
D03*
Y668500D02*
D03*
X945850D02*
D03*
X933150D02*
D03*
X920450D02*
D03*
X1123450D02*
D03*
X1136150D02*
D03*
X1148850D02*
D03*
X1161550D02*
D03*
Y722500D02*
D03*
X1148850D02*
D03*
X1136150D02*
D03*
X1123450D02*
D03*
D18*
X255000Y727110D02*
D03*
X282000D02*
D03*
Y736610D02*
D03*
X255000D02*
D03*
Y746110D02*
D03*
X282000D02*
D03*
D19*
X352210Y743000D02*
D03*
X338210D02*
D03*
D20*
X402000Y806000D02*
D03*
Y792000D02*
D03*
X377000D02*
D03*
Y806000D02*
D03*
X599000Y718944D02*
D03*
Y704944D02*
D03*
X802000D02*
D03*
Y718944D02*
D03*
X1005000D02*
D03*
Y704944D02*
D03*
X1208000D02*
D03*
Y718944D02*
D03*
X574000D02*
D03*
Y704944D02*
D03*
X777000D02*
D03*
Y718944D02*
D03*
X980000D02*
D03*
Y704944D02*
D03*
X1183000D02*
D03*
Y718944D02*
D03*
D21*
X1569985Y372603D02*
D03*
X1556015D02*
D03*
X1569985Y397603D02*
D03*
X1556015D02*
D03*
X280988Y409603D02*
D03*
X267018D02*
D03*
X467018D02*
D03*
X480988D02*
D03*
X680988D02*
D03*
X667018D02*
D03*
X867018D02*
D03*
X880988D02*
D03*
X1080988D02*
D03*
X1067018D02*
D03*
X1267018D02*
D03*
X1280988D02*
D03*
X1480988D02*
D03*
X1467018D02*
D03*
X280988Y434603D02*
D03*
X267018D02*
D03*
X467018D02*
D03*
X480988D02*
D03*
X680988D02*
D03*
X667018D02*
D03*
X867018D02*
D03*
X880988D02*
D03*
X1080988D02*
D03*
X1067018D02*
D03*
X1267018D02*
D03*
X1280988D02*
D03*
X1480988D02*
D03*
X1467018D02*
D03*
X333985Y832000D02*
D03*
X320015D02*
D03*
X333985Y857000D02*
D03*
X320015D02*
D03*
D22*
X574000Y668500D02*
D03*
Y654530D02*
D03*
X777000D02*
D03*
Y668500D02*
D03*
X980000D02*
D03*
Y654530D02*
D03*
X1183000D02*
D03*
Y668500D02*
D03*
D23*
X647000Y671500D02*
D03*
Y724500D02*
D03*
X850000D02*
D03*
Y671500D02*
D03*
X1053000D02*
D03*
Y724500D02*
D03*
X1256000D02*
D03*
Y671500D02*
D03*
D24*
X282600Y770000D02*
D03*
X253400D02*
D03*
Y799000D02*
D03*
X282600D02*
D03*
D25*
X1080003Y370103D02*
D03*
Y389103D02*
D03*
X1058003Y379603D02*
D03*
X1480003Y370103D02*
D03*
Y389103D02*
D03*
X1458003Y379603D02*
D03*
X1280003Y370103D02*
D03*
Y389103D02*
D03*
X1258003Y379603D02*
D03*
X880003Y370103D02*
D03*
Y389103D02*
D03*
X858003Y379603D02*
D03*
X680003Y370103D02*
D03*
Y389103D02*
D03*
X658003Y379603D02*
D03*
X280003Y370103D02*
D03*
Y389103D02*
D03*
X258003Y379603D02*
D03*
X480003Y370103D02*
D03*
Y389103D02*
D03*
X458003Y379603D02*
D03*
M02*
